<svg width="40" height="41" viewBox="0 0 40 41" fill="none" xmlns="http://www.w3.org/2000/svg">
  <path fill-rule="evenodd" clip-rule="evenodd" d="M2.50734 1.48999H1V28.9989H2.50733L2.50734 1.48999ZM28.7056 10.298L9.25391 29.7498L10.3198 30.8156L29.7715 11.3639L28.7056 10.298ZM11.3789 38.0024H38.8878V39.5098H11.3789V38.0024Z" fill="#F04823"/>
  <path d="M1 1.48999V0.48999H0V1.48999H1ZM2.50734 1.48999L3.50734 1.48999L3.50734 0.48999H2.50734V1.48999ZM1 28.9989H0V29.9989H1V28.9989ZM2.50733 28.9989V29.9989H3.50733L3.50733 28.9989L2.50733 28.9989ZM9.25391 29.7498L8.5468 29.0426L7.83969 29.7498L8.5468 30.4569L9.25391 29.7498ZM28.7056 10.298L29.4127 9.59094L28.7056 8.88383L27.9985 9.59094L28.7056 10.298ZM10.3198 30.8156L9.61265 31.5227L10.3198 32.2298L11.0269 31.5227L10.3198 30.8156ZM29.7715 11.3639L30.4786 12.071L31.1857 11.3639L30.4786 10.6568L29.7715 11.3639ZM38.8878 38.0024H39.8878V37.0024H38.8878V38.0024ZM11.3789 38.0024V37.0024H10.3789V38.0024H11.3789ZM38.8878 39.5098V40.5098H39.8878V39.5098H38.8878ZM11.3789 39.5098H10.3789V40.5098H11.3789V39.5098ZM1 2.48999H2.50734V0.48999H1V2.48999ZM2 28.9989V1.48999H0V28.9989H2ZM2.50733 27.9989H1V29.9989H2.50733V27.9989ZM1.50734 1.48999L1.50733 28.9989L3.50733 28.9989L3.50734 1.48999L1.50734 1.48999ZM9.96101 30.4569L29.4127 11.0052L27.9985 9.59094L8.5468 29.0426L9.96101 30.4569ZM11.0269 30.1085L9.96101 29.0426L8.5468 30.4569L9.61265 31.5227L11.0269 30.1085ZM29.0644 10.6568L9.61265 30.1085L11.0269 31.5227L30.4786 12.071L29.0644 10.6568ZM27.9985 11.0052L29.0644 12.071L30.4786 10.6568L29.4127 9.59094L27.9985 11.0052ZM38.8878 37.0024H11.3789V39.0024H38.8878V37.0024ZM39.8878 39.5098V38.0024H37.8878V39.5098H39.8878ZM11.3789 40.5098H38.8878V38.5098H11.3789V40.5098ZM10.3789 38.0024V39.5098H12.3789V38.0024H10.3789Z" fill="#F04823"/>
  </svg>
  