<svg width="44" height="31" viewBox="0 0 44 31" fill="none" xmlns="http://www.w3.org/2000/svg">
  <path fill-rule="evenodd" clip-rule="evenodd" d="M23.13 1H21L21 26.415L4.30108 9.71613L2.79297 11.2242L19.5687 28H1V30H43V28H24.4493L41.1098 11.3395L39.6017 9.83142L23.13 26.3031L23.13 1ZM23.7075 28L22.7075 27H21.585L21.962 27.3771L21.3391 28H23.7075Z" fill="#F04823"/>
  <path d="M21 1V0.5H20.5L20.5 1L21 1ZM23.13 1L23.63 1L23.63 0.5H23.13V1ZM21 26.415L20.6464 26.7686L21.5 27.6222L21.5 26.415L21 26.415ZM4.30108 9.71613L4.65464 9.36257L4.30108 9.00902L3.94753 9.36257L4.30108 9.71613ZM2.79297 11.2242L2.43942 10.8707L2.08586 11.2242L2.43942 11.5778L2.79297 11.2242ZM19.5687 28V28.5H20.7758L19.9223 27.6464L19.5687 28ZM1 28V27.5H0.5V28H1ZM1 30H0.5V30.5H1V30ZM43 30V30.5H43.5V30H43ZM43 28H43.5V27.5H43V28ZM24.4493 28L24.0958 27.6464L23.2422 28.5H24.4493V28ZM41.1098 11.3395L41.4634 11.6931L41.8169 11.3395L41.4634 10.986L41.1098 11.3395ZM39.6017 9.83142L39.9552 9.47787L39.6017 9.12431L39.2481 9.47787L39.6017 9.83142ZM23.13 26.3031L22.63 26.3031L22.63 27.5102L23.4836 26.6567L23.13 26.3031ZM23.7075 28V28.5H24.9146L24.0611 27.6464L23.7075 28ZM22.7075 27L23.0611 26.6464L22.9146 26.5H22.7075V27ZM21.585 27V26.5H20.3778L21.2314 27.3536L21.585 27ZM21.962 27.3771L22.3156 27.7306L22.6691 27.3771L22.3156 27.0235L21.962 27.3771ZM21.3391 28L20.9855 27.6464L20.132 28.5H21.3391V28ZM21 1.5H23.13V0.5H21V1.5ZM21.5 26.415L21.5 1L20.5 1L20.5 26.415L21.5 26.415ZM3.94753 10.0697L20.6464 26.7686L21.3536 26.0615L4.65464 9.36257L3.94753 10.0697ZM3.14652 11.5778L4.65464 10.0697L3.94753 9.36257L2.43942 10.8707L3.14652 11.5778ZM19.9223 27.6464L3.14652 10.8707L2.43942 11.5778L19.2152 28.3536L19.9223 27.6464ZM19.5687 27.5H1V28.5H19.5687V27.5ZM0.5 28V30H1.5V28H0.5ZM1 30.5H43V29.5H1V30.5ZM43.5 30V28H42.5V30H43.5ZM43 27.5H24.4493V28.5H43V27.5ZM40.7562 10.986L24.0958 27.6464L24.8029 28.3536L41.4634 11.6931L40.7562 10.986ZM39.2481 10.185L40.7562 11.6931L41.4634 10.986L39.9552 9.47787L39.2481 10.185ZM23.4836 26.6567L39.9552 10.185L39.2481 9.47787L22.7764 25.9496L23.4836 26.6567ZM22.63 1L22.63 26.3031L23.63 26.3031L23.63 1L22.63 1ZM24.0611 27.6464L23.0611 26.6464L22.354 27.3536L23.354 28.3536L24.0611 27.6464ZM22.7075 26.5H21.585V27.5H22.7075V26.5ZM21.2314 27.3536L21.6085 27.7306L22.3156 27.0235L21.9385 26.6464L21.2314 27.3536ZM21.6085 27.0235L20.9855 27.6464L21.6927 28.3536L22.3156 27.7306L21.6085 27.0235ZM23.7075 27.5H21.3391V28.5H23.7075V27.5Z" fill="#F04823"/>
  </svg>
  