<svg width="42" height="43" viewBox="0 0 42 43" fill="none" xmlns="http://www.w3.org/2000/svg">
  <path fill-rule="evenodd" clip-rule="evenodd" d="M21.5451 1.5H20.4492V20.1725L7.24366 6.96691L6.46875 7.74182L19.6841 20.9572H1V22.053H19.68L6.47656 35.2565L7.25147 36.0314L20.4492 22.8336L20.4492 41.5H21.5451L21.5451 22.8182L34.753 36.0261L35.5279 35.2512L22.3298 22.053L41 22.053V20.9572L22.3257 20.9572L35.5358 7.74711L34.7608 6.97219L21.5451 20.1879V1.5Z" fill="#F04823"/>
  <path d="M20.4492 1.5V0.5H19.4492V1.5H20.4492ZM21.5451 1.5H22.5451V0.5H21.5451V1.5ZM20.4492 20.1725L19.7421 20.8796L21.4492 22.5867V20.1725H20.4492ZM7.24366 6.96691L7.95077 6.2598L7.24366 5.5527L6.53656 6.2598L7.24366 6.96691ZM6.46875 7.74182L5.76164 7.03471L5.05454 7.74182L5.76164 8.44893L6.46875 7.74182ZM19.6841 20.9572V21.9572H22.0983L20.3912 20.25L19.6841 20.9572ZM1 20.9572V19.9572H0L0 20.9572H1ZM1 22.053H0L0 23.053H1V22.053ZM19.68 22.053L20.3871 22.7602L22.0942 21.053H19.68V22.053ZM6.47656 35.2565L5.76946 34.5494L5.06235 35.2565L5.76946 35.9636L6.47656 35.2565ZM7.25147 36.0314L6.54437 36.7385L7.25148 37.4456L7.95858 36.7385L7.25147 36.0314ZM20.4492 22.8336H21.4492V20.4194L19.7421 22.1265L20.4492 22.8336ZM20.4492 41.5H19.4492V42.5H20.4492V41.5ZM21.5451 41.5V42.5H22.5451V41.5H21.5451ZM21.5451 22.8182L22.2522 22.1111L20.5451 20.404V22.8182H21.5451ZM34.753 36.0261L34.0459 36.7332L34.753 37.4403L35.4601 36.7332L34.753 36.0261ZM35.5279 35.2512L36.235 35.9583L36.9422 35.2512L36.235 34.5441L35.5279 35.2512ZM22.3298 22.053V21.053H19.9156L21.6227 22.7602L22.3298 22.053ZM41 22.053V23.053H42V22.053H41ZM41 20.9572H42V19.9572H41V20.9572ZM22.3257 20.9572L21.6186 20.25L19.9115 21.9572H22.3257V20.9572ZM35.5358 7.74711L36.2429 8.45421L36.95 7.7471L36.2429 7.04L35.5358 7.74711ZM34.7608 6.97219L35.4679 6.26509L34.7608 5.55798L34.0537 6.26509L34.7608 6.97219ZM21.5451 20.1879H20.5451V22.6021L22.2522 20.895L21.5451 20.1879ZM20.4492 2.5H21.5451V0.5H20.4492V2.5ZM21.4492 20.1725V1.5H19.4492V20.1725H21.4492ZM6.53656 7.67402L19.7421 20.8796L21.1563 19.4654L7.95077 6.2598L6.53656 7.67402ZM7.17586 8.44893L7.95077 7.67402L6.53656 6.2598L5.76164 7.03471L7.17586 8.44893ZM20.3912 20.25L7.17586 7.03471L5.76164 8.44893L18.977 21.6643L20.3912 20.25ZM19.6841 19.9572H1V21.9572H19.6841V19.9572ZM0 20.9572V22.053H2V20.9572H0ZM1 23.053H19.68V21.053H1V23.053ZM7.18367 35.9636L20.3871 22.7602L18.9729 21.3459L5.76946 34.5494L7.18367 35.9636ZM7.95858 35.3243L7.18367 34.5494L5.76946 35.9636L6.54437 36.7385L7.95858 35.3243ZM19.7421 22.1265L6.54437 35.3243L7.95858 36.7385L21.1563 23.5407L19.7421 22.1265ZM21.4492 41.5L21.4492 22.8336H19.4492L19.4492 41.5H21.4492ZM21.5451 40.5H20.4492V42.5H21.5451V40.5ZM20.5451 22.8182L20.5451 41.5H22.5451L22.5451 22.8182H20.5451ZM35.4601 35.319L22.2522 22.1111L20.838 23.5253L34.0459 36.7332L35.4601 35.319ZM34.8208 34.5441L34.0459 35.319L35.4601 36.7332L36.235 35.9583L34.8208 34.5441ZM21.6227 22.7602L34.8208 35.9583L36.235 34.5441L23.0369 21.3459L21.6227 22.7602ZM22.3298 23.053L41 23.053V21.053L22.3298 21.053V23.053ZM42 22.053V20.9572H40V22.053H42ZM41 19.9572L22.3257 19.9572V21.9572L41 21.9572V19.9572ZM34.8286 7.04L21.6186 20.25L23.0328 21.6643L36.2429 8.45421L34.8286 7.04ZM34.0537 7.6793L34.8286 8.45421L36.2429 7.04L35.4679 6.26509L34.0537 7.6793ZM22.2522 20.895L35.4679 7.6793L34.0537 6.26509L20.838 19.4808L22.2522 20.895ZM20.5451 1.5V20.1879H22.5451V1.5H20.5451Z" fill="#F04823"/>
  </svg>
  