<svg width="714" height="38" viewBox="0 0 714 38" fill="none" xmlns="http://www.w3.org/2000/svg">
<g clip-path="url(#clip0_169_3252)">
<path d="M14.3166 12.8992C11.8532 13.0972 9.4283 13.1717 7.9523 13.2C7.32744 13.2129 6.99315 13.9457 7.39687 14.4215C8.46401 15.6789 10.5083 17.5123 13.522 17.8209H15.106" stroke="#F04823" stroke-width="1.566" stroke-linejoin="bevel"/>
<path d="M16.0624 29.1199L14.0413 30.2796L11.9121 29.1199" stroke="#F04823" stroke-width="1.566" stroke-linejoin="bevel"/>
<path d="M30.4397 31.3621C29.5602 32.0256 27.8682 32.8073 26.3331 32.9564L15.258 33.0233C12.8228 33.2598 11.8842 30.9507 12.2957 28.531L15.5742 16.4993" stroke="#F04823" stroke-width="1.566" stroke-linejoin="bevel"/>
<path d="M23.5873 23.8489C24.5626 23.6045 25.2673 23.0635 25.1613 22.6406C25.0553 22.2177 24.1788 22.073 23.2035 22.3174C22.2281 22.5619 21.5234 23.1028 21.6294 23.5258C21.7354 23.9487 22.612 24.0933 23.5873 23.8489Z" fill="#F04823"/>
<path d="M36.04 12.8992C39.0357 12.5341 41.6123 12.6858 42.9803 12.8247C43.5512 12.8812 43.9215 13.4624 43.7235 14.0024C43.366 14.9718 42.6332 15.5787 41.2395 16.5018C39.8457 17.425 38.074 17.299 35.8086 17.2732" stroke="#F04823" stroke-width="1.566" stroke-linejoin="bevel"/>
<path d="M28.1357 17.7877C26.5928 21.3285 19.9945 19.9554 20.6811 16.5174C17.9323 18.7159 14.0828 17.4791 14.3168 12.8994C14.5457 8.42508 19.1717 6.95423 21.0488 8.83137C20.9563 3.04565 29.6168 4.4188 29.0665 8.54337C31.6791 5.65565 39.1028 8.67965 35.94 14.3162" stroke="#F04823" stroke-width="1.566" stroke-linejoin="bevel"/>
</g>
<path d="M82.8401 31.5163C74.9638 32.9178 66.8715 33.1055 58.9361 32.0692C59.3835 30.8658 60.8312 30.426 61.7827 29.5646C62.5541 28.8678 62.9964 27.8855 63.4181 26.934C64.6447 24.1672 65.8712 21.4003 67.0952 18.6309C67.2675 18.24 67.4372 17.7618 67.1955 17.4095C68.1289 17.952 69.1087 18.5075 70.1861 18.5615C71.2635 18.6155 72.4592 17.9932 72.6727 16.9363C72.4181 18.3558 73.5701 19.8652 75.0049 19.9938C76.4398 20.1223 77.8438 18.8469 77.8489 17.4043C78.4892 17.6538 78.0932 18.6463 77.5429 19.0603C76.4809 19.8575 75.0847 20.274 73.7938 19.9603C72.5029 19.6466 71.3947 18.5126 71.3149 17.1858C70.8109 18.3043 70.0729 19.3149 69.1601 20.1378C68.9929 20.2869 68.8001 20.4386 68.5764 20.436C68.2395 20.4335 68.0132 20.0966 67.8564 19.7983C66.9512 18.0909 66.1284 16.296 65.9098 14.3778C65.6912 12.4595 66.1541 10.3792 67.5221 9.01376C68.8901 7.64833 71.2558 7.23947 72.8012 8.39662C72.8167 7.12119 73.7809 6.00519 74.9381 5.46776C76.0747 4.94062 77.4787 4.90204 78.5407 5.56547C79.6027 6.2289 80.1915 7.65862 79.7132 8.81576C79.5307 7.65862 79.3327 6.46547 78.7027 5.48062C78.0727 4.49576 76.8898 3.76033 75.7481 4.02519C74.7298 4.26176 74.0407 5.18233 73.4749 6.06176C71.9989 8.35804 70.7569 10.806 69.7772 13.3518C70.0215 11.22 70.4715 9.11147 71.1221 7.06462C69.6667 8.16004 68.2112 9.25547 66.7558 10.3535C66.1541 10.806 65.4958 11.364 65.4727 12.1149C65.4469 12.9429 66.1927 13.5652 66.8844 14.0203C68.2472 14.9203 69.6821 15.7149 71.1658 16.3963C70.1141 17.2372 68.8129 17.7618 67.4707 17.8903C66.6607 16.2909 66.2878 14.4729 66.4035 12.6832C66.5012 11.1995 67.0078 9.62576 68.2318 8.78233C69.4558 7.9389 71.4847 8.24747 72.0067 9.63862C72.4027 7.63547 73.6395 5.66319 75.5707 4.99462C77.5018 4.32604 80.0321 5.48062 80.3047 7.5069C80.7829 7.75633 81.2612 8.00319 81.7395 8.25262C83.1512 7.63033 84.7249 7.38604 86.2575 7.55062C86.5841 7.58662 86.9158 7.64062 87.2038 7.80004C87.5767 8.00576 87.8364 8.36319 88.0447 8.73604C88.9421 10.356 88.9395 12.4389 88.0344 14.0563C87.6718 12.0763 88.6104 9.76719 87.3992 8.16004C86.1727 6.53233 83.4701 6.91033 81.9812 8.30147C84.0512 8.05719 86.5224 7.99547 87.7849 9.65662C88.8161 11.0118 88.3944 13.2283 86.9338 14.1078C89.8961 14.1 92.8558 14.244 95.8027 14.5398C94.4707 16.1083 92.7838 17.3735 90.9041 18.2118C90.1095 18.5666 89.2429 18.8495 88.3789 18.7286C87.5149 18.6078 86.6741 17.9855 86.5507 17.124C87.7104 17.4455 88.7647 18.1398 89.9604 18.276C91.3155 18.4303 92.7324 17.7798 93.5012 16.6535C94.2701 15.5272 94.3549 13.9689 93.7121 12.7655C91.6909 13.7709 89.3689 14.1669 87.1267 13.8866C89.8318 14.3263 92.5832 14.4729 95.3218 14.3212C93.3315 16.2652 91.0378 17.9006 88.5487 19.1426C88.2555 18.834 88.0678 18.4252 88.0267 18.0009C91.6575 18.6129 95.5147 15.8409 96.0932 12.2049C93.8767 12.4183 91.6601 12.6292 89.4435 12.8426C89.0038 12.8838 88.5229 12.9172 88.1604 12.6652C87.9109 12.4929 87.7592 12.21 87.6178 11.94C86.9929 10.7418 86.3681 9.54347 85.7432 8.34776C85.5349 7.94919 85.3164 7.53776 84.9589 7.26519C84.2801 6.74833 83.2695 6.89747 82.5675 7.38347C81.8655 7.86947 81.4001 8.62033 80.9578 9.34804C80.4178 7.91062 79.6155 6.5709 78.6049 5.41376C78.2115 4.96633 77.6741 4.50604 77.0929 4.63719C76.7407 4.7169 76.4758 4.99462 76.2315 5.25947C74.9612 6.6429 73.6935 8.02633 72.4232 9.40976C70.1012 8.40433 67.2212 8.84147 65.3029 10.4923C66.7327 12.9866 67.9078 15.6249 68.8052 18.3558C68.0724 17.4763 66.7378 17.4403 65.6141 17.6589C64.4904 17.8775 63.3435 18.2786 62.2301 18.0112C60.4352 17.5818 59.4941 15.6558 58.8358 13.9329C61.7158 13.9612 64.5958 13.9046 67.4732 13.7632C65.3235 13.7683 63.1738 13.776 61.0241 13.7812C60.4044 15.2366 61.4664 16.8695 62.6981 17.862C63.3101 18.3558 64.0044 18.7903 64.7835 18.8906C65.5627 18.9909 66.4344 18.6746 66.8021 17.9803C63.2072 19.3766 58.6969 17.6846 56.9072 14.2698C59.2909 13.6398 61.7698 13.3595 64.2358 13.4443C64.5932 13.4572 64.9635 13.4803 65.2824 13.6449C65.6809 13.8506 65.9381 14.2492 66.1567 14.6426C67.0644 16.278 67.5864 18.1269 67.6661 19.9963C66.7841 19.824 66.3212 20.9966 66.2132 21.8889C65.9201 24.3318 65.6269 26.7746 65.3364 29.2175C65.1589 30.6909 64.9892 32.2235 65.4778 33.6223C64.0429 33.2469 63.8012 31.3312 63.9221 29.8526C64.2127 26.2963 64.8941 22.7735 65.9458 19.3638C66.2621 18.3403 66.6864 17.2346 67.6327 16.7332C67.6969 18.564 66.6889 20.2329 66.0692 21.9558C64.7012 25.764 65.2258 29.9606 65.7684 33.972C68.1855 33.6969 70.6001 33.4192 73.0172 33.144C74.0072 33.0309 75.0127 32.9152 75.9384 32.5449C76.6481 32.2595 77.3038 31.83 78.0418 31.6269C79.4149 31.2515 80.9424 31.6963 82.2667 31.1743C82.2435 29.9606 82.8864 28.7546 83.9072 28.0963C83.2747 28.9732 82.6395 29.8526 82.0069 30.7295C81.7318 31.11 81.4464 31.4983 81.0478 31.7426C80.5412 32.0486 79.9241 32.0795 79.3327 32.1026C74.0612 32.3032 68.7924 32.5038 63.5209 32.7043C68.2112 33.1235 72.9041 33.5426 77.5944 33.9618C78.6178 34.0543 79.7158 34.1315 80.6132 33.6249C81.7884 32.964 82.2898 31.4906 83.4161 30.75C81.5827 31.0252 80.2224 32.6478 78.4404 33.1543C77.5147 33.4166 76.5298 33.3626 75.5681 33.3035C72.0992 33.0952 68.6304 32.8843 65.1615 32.676C64.8889 31.0586 64.4209 29.4746 63.7704 27.9678C64.8221 28.9089 65.7144 30.0275 66.4009 31.2592C67.1647 30.0018 68.6098 29.1892 70.0807 29.1918C68.3964 29.508 66.7121 29.8243 65.0278 30.1406C66.0821 30.1072 67.1389 30.2075 68.1701 30.4363L67.3035 29.5955" stroke="#F04823" stroke-width="0.257143" stroke-miterlimit="10"/>
<path d="M75.4501 22.4776C75.0438 22.1099 74.545 22.5959 74.3444 23.5551C75.0772 23.7711 75.841 23.3082 76.453 22.2796C75.8152 22.1588 75.1647 22.5213 74.6092 23.3133C74.905 23.6708 75.2598 23.6862 75.5607 23.3545C74.9075 23.2105 74.2132 23.0871 73.627 23.8251C74.3007 23.9716 74.9975 23.4213 75.517 22.3311C75.1364 22.0045 74.6735 22.5265 74.5167 23.4573C74.8792 23.2645 75.2315 22.9688 75.5684 22.5831C75.4141 22.5728 75.2624 22.5651 75.1081 22.5548" stroke="#F04823" stroke-width="0.162" stroke-miterlimit="10"/>
<path d="M132.913 17.8223L126.899 21.8723L124.152 16.3052H116.541L117.809 8.08689L126.017 11.17L128.118 3.63574L132.188 11.17L140.214 7.51346L138.966 16.1715" stroke="#F04823" stroke-width="1.566" stroke-linejoin="bevel"/>
<path d="M139.539 14.2224H146.479L145.548 19.1467H139.308" stroke="#F04823" stroke-width="1.566" stroke-linejoin="bevel"/>
<path d="M116.541 13.7336L108.521 14.2222L118.611 19.1465" stroke="#F04823" stroke-width="1.566" stroke-linejoin="bevel"/>
<path d="M119.565 16.439L114.666 34.3644H129.835L135.273 32.2558" stroke="#F04823" stroke-width="1.566" stroke-linejoin="bevel"/>
<path d="M124.988 25.0558L128.845 23.5129" stroke="#F04823" stroke-width="1.566" stroke-linejoin="bevel"/>
<path d="M115.412 31.0239H119.208" stroke="#F04823" stroke-width="1.566" stroke-linejoin="bevel"/>
<path d="M171.1 7.73462C170.337 17.3518 167.49 26.7323 162.905 34.7449C163.924 33.5646 165.495 33.4258 166.924 33.364C174.068 33.0555 181.219 32.9449 188.368 33.0349" stroke="#F04823" stroke-width="1.44257" stroke-linejoin="bevel"/>
<path d="M186.676 13.5898C189.088 13.5898 191.497 13.595 193.909 13.5976C193.971 15.5467 194.033 17.4933 194.094 19.4424C191.536 19.7973 188.676 20.0621 186.647 18.1927" stroke="#F04823" stroke-width="1.44257" stroke-linejoin="bevel"/>
<path d="M167.824 13.8008L164.335 13.7288C166.665 15.6728 168.809 17.9279 170.712 20.435" stroke="#F04823" stroke-width="1.44257" stroke-linejoin="bevel"/>
<path d="M181.178 19.427C180.255 20.0081 179.385 20.7153 178.599 21.5279" stroke="#F04823" stroke-width="1.44257" stroke-linejoin="bevel"/>
<path d="M170.55 6.37959C169.743 7.05074 169.534 8.41874 169.833 9.52702C170.131 10.6353 170.828 11.5276 171.555 12.3119C172.497 13.3225 173.541 14.2353 174.731 14.765C176.251 15.4439 177.92 15.4696 179.545 15.4156C184.019 15.2639 188.478 14.5465 192.821 13.2865C193.13 13.1965 193.469 13.0782 193.639 12.7593C193.832 12.3942 193.721 11.921 193.595 11.5173C192.713 8.72731 191.17 6.15588 189 4.62588C186.83 3.09588 183.999 2.74102 181.749 4.10131" stroke="#F04823" stroke-width="1.44257" stroke-linejoin="bevel"/>
<path d="M166.215 29.1418H172.016" stroke="#F04823" stroke-width="1.44257" stroke-linejoin="bevel"/>
<path d="M214.726 11.6522C213.692 12.0919 212.738 12.7142 211.921 13.4805C211.692 13.6965 211.455 14.0205 211.604 14.2982C211.681 14.4422 211.844 14.5193 211.998 14.5682C213.389 15.0028 214.952 13.4548 214.533 12.0585C213.667 12.961 212.926 13.9845 212.335 15.0876C214.757 13.9202 216.927 12.2333 218.66 10.1762C215.873 12.6962 213.325 15.4785 211.057 18.4716C214.086 17.6513 216.716 15.4605 218.069 12.6293C216.359 12.9816 215.652 14.9925 215.248 16.6896C216.269 15.409 217.184 14.041 217.976 12.6062C217.2 12.8736 216.608 13.6065 216.505 14.4216C217.897 14.1259 219.118 13.1333 219.694 11.8348C218.234 13.0459 217.161 14.7199 216.675 16.5559C217.516 16.1059 218.11 15.2239 218.213 14.275C217.737 14.9796 217.55 15.8745 217.701 16.7128C219.041 15.9568 220.111 14.7302 220.676 13.3005C220.404 13.9768 220.296 14.7173 220.36 15.4425C221.965 13.2413 223.235 10.7985 224.119 8.22191C222.363 9.76733 220.993 11.7499 220.172 13.9408C222.536 12.3953 224.225 9.85733 224.747 7.08276C223.492 8.90333 222.5 10.9039 221.813 13.0048C223.322 11.2022 224.467 9.09619 225.158 6.84876C223.672 9.30191 222.674 12.0508 222.245 14.887C223.5 12.9893 224.606 10.9939 225.544 8.92391C223.706 10.999 222.301 13.4599 221.45 16.1008C224.31 13.7505 226.272 10.3382 226.866 6.68676C223.916 8.65133 221.751 11.7602 220.931 15.2085C224.338 13.4959 226.868 10.135 227.568 6.38591C226.917 6.01048 226.143 6.61733 225.696 7.21648C224.233 9.17333 223.459 11.6316 223.538 14.0745C224.523 14.1259 225.349 13.3673 225.994 12.6216C228.193 10.0939 229.869 7.11619 230.887 3.92505C228.601 5.49362 227.028 8.05733 226.665 10.8036C228.452 9.52048 229.64 7.43762 229.836 5.24419C227.516 7.65362 226.28 11.071 226.521 14.4088C228.992 11.2485 231.011 7.73076 232.492 4.00219C229.967 6.70733 228.002 9.93448 226.758 13.4213C227.655 13.1539 228.27 12.2822 228.493 11.3745C228.717 10.4668 228.625 9.51019 228.53 8.57933C226.159 11.791 224.734 15.6893 224.477 19.6725C225.611 19.6236 226.506 18.721 227.221 17.839C229.306 15.2548 230.908 12.2848 231.926 9.12448C229.805 10.1299 228.229 12.2025 227.825 14.5142C229.167 13.1462 230.026 11.3128 230.216 9.40476C228.365 11.8965 227.259 14.9359 227.074 18.0345C229.404 15.9362 231.049 13.0922 231.708 10.027C229.836 11.7602 228.64 14.2108 228.427 16.7539C228.907 17.1679 229.594 16.5662 229.895 16.0082C230.756 14.4088 231.237 12.6088 231.289 10.7933C230.065 13.2028 229.373 15.8848 229.28 18.5873C231.371 15.9388 233.03 12.9533 234.174 9.77762C233.716 11.7653 233.258 13.753 232.798 15.7408C233.744 14.8382 234.13 13.3905 233.757 12.1356C232.238 12.979 231.109 14.491 230.728 16.1856C230.664 16.4736 230.628 16.8002 230.8 17.0368C231.227 17.6205 232.119 16.9853 232.49 16.363C233.814 14.1413 234.68 11.6496 235.025 9.08848C233.896 10.5568 233.032 12.2282 232.482 13.9973C232.292 14.6068 232.454 15.5865 233.076 15.4502C233.346 15.391 233.505 15.1185 233.629 14.8716C234.886 12.3208 235.591 9.49991 235.686 6.65848C232.6 8.42248 230.124 11.2356 228.766 14.5193C230.167 12.6499 230.798 10.2199 230.479 7.90562C228.614 9.87533 227.511 12.5496 227.442 15.2625C230.582 12.6525 232.77 8.91876 233.508 4.90219C231.425 6.64819 230.029 9.19133 229.669 11.8836C229.558 12.7065 229.674 13.7505 230.45 14.0436C231.232 14.3368 232.011 13.6116 232.464 12.907C233.701 10.9888 234.31 8.67191 234.174 6.39362C231.674 8.85705 230.042 12.1845 229.628 15.6688C229.553 16.2885 229.527 16.9622 229.859 17.4919C230.34 18.2608 231.448 18.4382 232.292 18.1039C233.135 17.7696 233.762 17.0496 234.292 16.3142C236.01 13.9356 237.098 11.107 237.419 8.19362C236.419 9.91648 235.642 11.7679 235.115 13.6888C235.4 13.8353 235.735 13.8842 236.048 13.825C236.614 12.3336 236.82 10.7059 236.648 9.11934C234.992 10.8576 233.868 13.0948 233.456 15.4605C233.41 15.7202 233.374 15.9928 233.443 16.2473C233.598 16.8182 234.264 17.1345 234.85 17.0599C235.436 16.9853 235.94 16.6099 236.352 16.1856C238.013 14.4782 238.512 11.9813 238.854 9.62591C238.895 9.34819 238.923 9.02933 238.738 8.81848C238.342 8.35819 237.622 8.90848 237.316 9.43305C236.133 11.4465 235.403 13.7248 235.195 16.0519C236.506 16.1753 237.761 15.3499 238.519 14.275C239.278 13.2002 239.636 11.899 239.98 10.6288C239.193 10.1299 238.178 10.7805 237.581 11.4953C236.126 13.2336 235.403 15.5633 235.622 17.821C236.905 17.5536 237.833 16.453 238.545 15.3525C240.397 12.5033 241.531 9.19391 241.819 5.80733C239.823 8.08819 238.519 10.9656 238.118 13.9716C239.417 12.565 239.875 10.4308 239.265 8.61533C239.162 8.31191 238.916 7.95705 238.61 8.05476C238.453 8.10619 238.36 8.26562 238.283 8.41219C237.36 10.2276 236.982 12.3156 237.211 14.3393C237.234 14.5373 237.27 14.7508 237.422 14.8819C237.784 15.1905 238.293 14.725 238.512 14.3033C239.414 12.5573 239.836 10.5645 239.715 8.59991C239.702 8.37876 239.674 8.14219 239.52 7.98276C239.353 7.81048 239.088 7.78476 238.851 7.81048C237.548 7.94676 236.701 9.22991 236.174 10.4282C235.863 11.1302 235.593 11.9222 235.822 12.655C236.051 13.3879 237.01 13.9125 237.622 13.447C237.923 13.2156 238.051 12.8273 238.149 12.4596C238.707 10.3408 238.8 8.10105 238.414 5.94619C238.293 5.26219 237.877 4.41105 237.193 4.53705C236.817 4.60648 236.57 4.96391 236.38 5.29562C234.945 7.78733 234.169 10.6545 234.146 13.5293C234.14 14.2056 234.277 15.031 234.912 15.2676C235.748 15.5762 236.452 14.5682 236.707 13.7145C237.19 12.0919 237.352 10.3768 237.182 8.69248C237.121 8.07276 236.586 7.25762 236.087 7.62791C235.961 7.72305 235.892 7.87476 235.832 8.02133C235.454 8.94448 235.228 9.92933 235.164 10.9219C235.138 11.3025 235.143 11.7088 235.341 12.0353C235.809 12.8119 237.092 12.6242 237.65 11.9093C238.208 11.1945 238.247 10.2148 238.262 9.30705C237.889 11.0196 237.748 12.7836 237.848 14.5322C237.889 15.2676 237.985 16.0365 238.406 16.6408C239.317 17.9522 241.482 17.8519 242.593 16.7076C243.704 15.5633 243.884 13.7633 243.495 12.2179C242.613 13.519 242.032 15.0208 241.808 16.5765C241.744 17.0239 241.742 17.5562 242.099 17.8339C242.708 18.3045 243.516 17.533 243.801 16.8182C244.236 15.7279 244.398 14.5322 244.272 13.3648C244.22 12.8865 244.079 12.3568 243.66 12.1228C242.966 11.7345 242.13 12.4956 241.968 13.2748C241.806 14.0539 242.006 14.8768 241.816 15.6508C242.575 16.0956 243.493 15.2419 243.704 14.3882C243.914 13.5345 243.799 12.5805 244.246 11.8219C243.657 13.447 243.325 15.1648 243.264 16.8928C244.495 15.7896 245.285 14.2108 245.429 12.5625C244.902 13.8405 244.763 15.2753 245.038 16.6305C246.355 15.7742 246.941 13.951 246.373 12.4879C246.126 13.1025 246.018 13.7736 246.062 14.4345C246.319 13.915 246.573 13.3982 246.83 12.8788C246 14.1825 245.573 15.7408 245.627 17.2862C246.89 15.7639 247.558 13.7556 247.455 11.7808C247.057 12.781 247.082 13.9408 247.53 14.9205C247.97 14.5348 248.075 13.8225 247.764 13.3288C247.08 14.2159 246.591 15.2573 246.342 16.3502C246.512 14.6762 245.048 13.0202 243.364 12.9816C241.68 12.943 240.145 14.5296 240.235 16.2113C240.641 15.4476 240.893 14.3882 240.253 13.8045C239.679 13.2825 238.7 13.5345 238.19 14.1182C237.681 14.7019 237.519 15.5042 237.378 16.2653C237.997 15.265 237.038 13.8559 235.871 13.699C234.703 13.5422 233.588 14.275 232.819 15.1648C231.836 16.3039 231.224 17.7593 231.101 19.261C232.79 18.5179 233.914 16.651 233.78 14.8099C233.765 14.5888 233.726 14.3548 233.585 14.1825C233.189 13.7016 232.407 14.059 231.949 14.4808C229.879 16.3785 228.72 19.225 228.866 22.0305C230.06 21.5265 230.89 20.2588 230.877 18.9628C230.877 18.8033 230.857 18.631 230.751 18.5102C230.471 18.1888 229.952 18.5153 229.689 18.8548C228.735 20.0916 228.136 21.5959 227.982 23.1491C228.756 23.1285 228.933 21.817 228.239 21.475C227.545 21.133 226.652 21.8119 226.637 22.5833C226.616 23.5888 227.797 24.3268 228.769 24.0773C229.741 23.8279 230.402 22.8559 230.553 21.8633C230.705 20.8708 230.437 19.8628 230.098 18.9165C229.548 19.8628 229.373 21.0199 229.617 22.087C230.782 21.2925 231.402 19.7753 231.129 18.3945C230.185 20.4953 229.718 22.8096 229.772 25.1136C231.381 20.4619 232.255 15.553 232.351 10.6313C230.574 12.7862 229.347 15.3885 228.815 18.1322C229.993 15.0362 230.445 11.6676 230.126 8.37105C227.46 11.5365 225.359 15.175 223.947 19.0656C224.554 17.407 224.93 15.6636 225.063 13.9022C225.079 13.7145 225.081 13.5088 224.963 13.3648C224.69 13.0433 224.179 13.3699 223.916 13.7016C222.271 15.769 221.201 18.2916 220.856 20.9119C222.823 19.3356 223.862 16.6742 223.482 14.1825C220.764 15.607 218.956 18.6156 218.974 21.6808C219.614 22.3262 220.586 21.3028 220.831 20.4259C221.224 19.0116 221.386 17.5305 221.304 16.0648C221.288 15.7845 221.252 15.481 221.054 15.283C220.633 14.8613 219.923 15.247 219.491 15.6559C216.508 18.4639 214.639 22.4213 214.363 26.5099C217.395 25.3553 219.511 22.1462 219.378 18.9062C217.897 23.0333 216.86 27.3199 216.295 31.6656C218.614 28.3279 220.445 24.6508 221.715 20.791C219.262 23.6865 218.12 27.649 218.655 31.4059C219.666 27.9268 219.987 24.247 219.589 20.6445C218.303 23.8073 217.64 27.2222 217.655 30.637C218.732 27.4896 219.53 24.2445 220.034 20.9556C219.236 22.9176 218.866 25.0519 218.954 27.1682C218.979 27.7956 219.362 28.6416 219.951 28.423C220.268 28.3048 220.388 27.9242 220.445 27.5899C220.599 26.7028 220.62 25.7899 220.504 24.895C220.463 24.5685 220.303 24.1596 219.974 24.1776C219.72 24.1905 219.571 24.463 219.478 24.7022C218.701 26.695 218.39 28.8653 218.575 30.9971C219.643 30.1485 220.162 28.6622 219.851 27.3353C219.378 29.5442 219.211 31.8199 219.355 34.0751C220.088 33.2368 220.507 32.1285 220.514 31.015C220.563 31.6373 220.615 32.2571 220.663 32.8793C220.679 33.0799 220.705 33.3036 220.856 33.4373C221.149 33.697 221.605 33.4142 221.859 33.1133C222.777 32.0333 223.266 30.5985 223.202 29.1816C222.515 30.6602 222.224 32.3188 222.368 33.9413C224.212 33.7382 225.608 31.6733 225.11 29.8862C224.721 31.0742 224.606 32.3496 224.77 33.5891C225.863 32.8768 226.411 31.4239 226.056 30.169C225.56 30.9945 225.395 32.0128 225.608 32.9513C228.206 32.6016 230.558 30.8042 231.582 28.3922C230.384 29.2356 229.604 30.6499 229.537 32.113C231.327 31.771 232.834 30.2539 233.163 28.4616C232.451 28.8293 231.821 29.4593 231.698 30.2513C231.574 31.0433 232.137 31.9459 232.937 31.9819C233.59 32.0128 234.164 31.4779 234.395 30.8659C234.626 30.2539 234.593 29.5776 234.554 28.9245C234.41 29.7731 234.266 30.6242 234.122 31.4728C235.169 31.5859 236.087 30.3208 235.655 29.3616C235.292 29.7473 235.097 30.2848 235.128 30.8119" stroke="#F04823" stroke-width="0.257143" stroke-miterlimit="10"/>
<path d="M287.996 14.9313C297.763 19.2282 302.378 16.7287 292.751 12.3599C301.712 12.491 299.167 12.3702 289.408 12.203C295.507 12.3959 294.008 12.815 288.292 12.8793C294.219 11.2927 293.61 8.45129 287.243 9.67787C289.776 4.81786 286.327 4.52987 284.134 9.63415C283.874 3.58358 281.03 1.12786 281.231 7.36358C274.962 1.59072 272.426 4.96958 279.251 10.1999C270.392 5.68958 265.53 6.95987 275.034 11.3004C262.223 13.7022 264.193 18.3256 276.744 15.3093C269.392 19.9816 271.632 19.493 278.593 14.5919C272.298 20.0767 274.067 22.0542 280.472 16.6902C278.469 23.1676 280.963 22.2702 283.123 15.7387" stroke="#F04823" stroke-width="0.514286" stroke-linejoin="bevel"/>
<path d="M270.364 16.2993C263.553 8.84478 260.333 9.48506 266.147 17.1402C258.973 14.5456 264.291 16.7751 271.11 19.2231C267.484 20.4496 266.466 25.7622 269.77 26.2174C265.15 32.6331 264.993 34.5719 270.141 28.1511C266.957 35.9476 267.821 35.9836 271.167 28.3799C273.558 36.1199 278.482 36.2356 277.652 28.5342C285.518 36.4028 288.033 36.2408 280.154 27.6882" stroke="#F04823" stroke-width="0.514286" stroke-linejoin="bevel"/>
<path d="M276.929 23.075L278.806 22.6147" stroke="#F04823" stroke-width="0.514286" stroke-linejoin="bevel"/>
<path d="M268.32 29.5986C267.594 29.7838 268.07 30.0563 268.944 29.956C269.343 29.6295 270.346 29.1615 270.197 29.3749" stroke="#F04823" stroke-width="0.514286" stroke-linejoin="bevel"/>
<path d="M320.34 13.3041C320.075 13.3247 319.762 12.7153 319.497 12.7359C319.232 12.7564 319.006 13.4019 318.743 13.4173C318.481 13.4327 318.172 12.8181 317.913 12.8336C317.653 12.849 317.409 13.4919 317.149 13.5021C316.889 13.5124 316.583 12.8953 316.326 12.9056C316.051 12.9159 315.807 13.5561 315.552 13.5639C315.272 13.5741 314.989 12.9493 314.737 12.957C314.449 12.9647 314.197 13.5999 313.958 13.605C313.886 13.605 313.719 13.0007 313.654 13.0187C313.585 13.0393 313.788 13.6359 313.732 13.6719C313.675 13.7079 313.207 13.2913 313.161 13.3427C313.115 13.3941 313.606 13.7901 313.577 13.8544C313.549 13.9187 312.929 13.8056 312.919 13.875C312.909 13.9444 313.531 14.019 313.541 14.0884C313.552 14.1579 312.97 14.397 312.999 14.4613C313.027 14.523 313.59 14.2479 313.639 14.3019C313.814 14.5101 313.554 15.1581 313.783 15.3896C313.984 15.5901 314.629 15.3304 314.871 15.5336C315.089 15.7187 314.943 16.4027 315.195 16.5801C315.431 16.7473 316.023 16.377 316.29 16.5313C316.558 16.6856 316.524 17.3747 316.804 17.5007C317.085 17.6267 317.576 17.1407 317.869 17.2359C318.162 17.331 318.273 18.0124 318.574 18.0767C318.874 18.141 319.24 17.5599 319.546 17.5933C319.643 17.5984 319.625 18.2233 319.723 18.2233C319.821 18.2233 319.821 17.5933 319.921 17.5933C320.021 17.5933 320.019 18.2233 320.119 18.2233C320.219 18.2233 320.217 17.5933 320.317 17.5933C320.417 17.5933 320.417 18.2233 320.515 18.2233C320.613 18.2233 320.615 17.5933 320.713 17.5933C320.811 17.5933 320.813 18.2233 320.911 18.2233C321.009 18.2233 321.011 17.5933 321.109 17.5933" stroke="#F04823" stroke-width="1.566" stroke-linejoin="bevel"/>
<path d="M322.143 29.3548C322.017 29.4268 321.852 29.1388 321.726 29.2108C321.6 29.2828 321.765 29.5708 321.639 29.6428C321.513 29.7148 321.348 29.4268 321.222 29.4988C321.096 29.5708 321.261 29.8588 321.137 29.9308C321.014 30.0028 320.847 29.7148 320.721 29.7868C320.595 29.8588 320.759 30.1468 320.633 30.2188C320.507 30.2908 320.34 30.0028 320.214 30.0748C320.088 30.1468 320.188 30.53 320.044 30.53C319.9 30.53 319.99 30.1468 319.857 30.0722C319.723 29.9977 319.566 30.2908 319.432 30.2188C319.299 30.1468 319.458 29.8537 319.324 29.7817C319.191 29.7097 319.034 30.0002 318.9 29.9282C318.766 29.8562 318.926 29.5631 318.792 29.4911C318.658 29.4191 318.499 29.7097 318.368 29.6377C318.237 29.5657 318.394 29.2725 318.26 29.2005C318.126 29.1285 317.967 29.4191 317.833 29.3471" stroke="#F04823" stroke-width="1.566" stroke-linejoin="bevel"/>
<path d="M336.875 32.0344C336.738 32.1373 335.764 31.0367 335.591 31.1421C335.442 31.2347 336.003 32.5924 335.831 32.6824C335.671 32.7673 334.861 31.5381 334.689 31.6179C334.517 31.6976 334.92 33.1093 334.745 33.1787C334.571 33.2481 333.907 31.9367 333.73 31.9959C333.552 32.055 333.786 33.5053 333.606 33.5516C333.426 33.5979 332.927 32.217 332.747 32.2504C332.567 32.2839 332.524 33.7573 332.341 33.7753C331.649 33.7856 331.634 32.3199 330.94 32.325C330.245 32.3301 330.256 33.7881 329.564 33.7933C328.872 33.7984 328.865 32.3379 328.17 32.343C327.476 32.3481 327.486 33.8061 326.795 33.8113C326.103 33.8164 326.095 32.3559 325.403 32.361C324.712 32.3661 324.719 33.8241 324.028 33.8293C323.336 33.8344 323.326 32.3739 322.634 32.379C321.942 32.3841 321.96 33.8319 321.269 33.8473C320.983 33.8756 320.816 32.4176 320.572 32.379C320.294 32.3353 319.597 33.621 319.371 33.5053C319.132 33.3819 319.793 32.073 319.61 31.8801C319.427 31.6873 318.101 32.3019 317.977 32.0601C317.861 31.8313 319.124 31.0676 319.055 30.8027C318.99 30.5559 317.514 30.5404 317.489 30.2704C317.465 30.0133 318.916 29.7176 318.929 29.4476C318.941 29.1776 317.535 28.707 317.581 28.4421C317.774 27.6887 319.196 28.0641 319.402 27.3133C319.607 26.5624 318.198 26.1793 318.404 25.4259C318.61 24.6724 320.016 25.0581 320.222 24.3047C320.428 23.5513 319.019 23.1681 319.224 22.4173C319.43 21.6664 320.837 22.0496 321.042 21.2987C321.248 20.5479 319.839 20.1621 320.045 19.4113C320.25 18.6604 321.657 19.041 321.863 18.2901C322.068 17.5393 320.659 17.1536 320.865 16.4001" stroke="#F04823" stroke-width="1.566" stroke-linejoin="bevel"/>
<path d="M327.766 23.5795C327.787 23.6618 327.609 23.8804 327.686 23.9421C327.748 23.991 327.964 23.7904 328.057 23.8238C328.134 23.8521 328.147 24.1478 328.242 24.1633C328.324 24.1787 328.445 23.9061 328.538 23.9112C328.622 23.9164 328.71 24.1992 328.802 24.1967C328.887 24.1941 328.954 23.9035 329.047 23.8932C329.139 23.883 329.263 24.1504 329.353 24.135C329.443 24.1195 329.466 23.8212 329.553 23.8007C329.641 23.7801 329.805 24.027 329.888 24.0012C329.97 23.9755 329.962 23.6747 330.044 23.6438C330.129 23.6104 330.325 23.8341 330.402 23.7955C330.484 23.7544 330.428 23.4638 330.5 23.4175C330.579 23.3687 330.813 23.5512 330.88 23.4998C330.955 23.4407 330.829 23.1732 330.88 23.1115C330.944 23.037 331.232 23.1115 331.263 23.0395C331.302 22.9495 331.042 22.8415 331.022 22.7593C331.001 22.677 331.178 22.4584 331.101 22.3967C331.04 22.3478 330.824 22.5484 330.731 22.515C330.654 22.4867 330.641 22.191 330.546 22.1755C330.464 22.1601 330.343 22.4327 330.25 22.4275C330.165 22.4224 330.078 22.1395 329.985 22.1421C329.9 22.1447 329.834 22.4353 329.741 22.4455C329.648 22.4558 329.525 22.1884 329.435 22.2038C329.345 22.2192 329.322 22.5175 329.234 22.5381C329.147 22.5587 328.982 22.3118 328.9 22.3375C328.818 22.3633 328.826 22.6641 328.743 22.695C328.658 22.7284 328.463 22.5047 328.386 22.5432C328.304 22.5844 328.36 22.875 328.288 22.9212C328.208 22.9701 327.974 22.7875 327.908 22.839C327.833 22.8981 327.959 23.1655 327.908 23.2273C327.843 23.3018 327.555 23.2273 327.524 23.2993C327.486 23.3893 327.746 23.4972 327.766 23.5795Z" stroke="#F04823" stroke-width="0.136286" stroke-miterlimit="10"/>
<path d="M327.766 23.5795C327.787 23.6618 327.609 23.8804 327.686 23.9421C327.748 23.991 327.964 23.7904 328.057 23.8238C328.134 23.8521 328.147 24.1478 328.242 24.1633C328.324 24.1787 328.445 23.9061 328.538 23.9112C328.622 23.9164 328.71 24.1992 328.802 24.1967C328.887 24.1941 328.954 23.9035 329.047 23.8932C329.139 23.883 329.263 24.1504 329.353 24.135C329.443 24.1195 329.466 23.8212 329.553 23.8007C329.641 23.7801 329.805 24.027 329.888 24.0012C329.97 23.9755 329.962 23.6747 330.044 23.6438C330.129 23.6104 330.325 23.8341 330.402 23.7955C330.484 23.7544 330.428 23.4638 330.5 23.4175C330.579 23.3687 330.813 23.5512 330.88 23.4998C330.955 23.4407 330.829 23.1732 330.88 23.1115C330.944 23.037 331.232 23.1115 331.263 23.0395C331.302 22.9495 331.042 22.8415 331.022 22.7593C331.001 22.677 331.178 22.4584 331.101 22.3967C331.04 22.3478 330.824 22.5484 330.731 22.515C330.654 22.4867 330.641 22.191 330.546 22.1755C330.464 22.1601 330.343 22.4327 330.25 22.4275C330.165 22.4224 330.078 22.1395 329.985 22.1421C329.9 22.1447 329.834 22.4353 329.741 22.4455C329.648 22.4558 329.525 22.1884 329.435 22.2038C329.345 22.2192 329.322 22.5175 329.234 22.5381C329.147 22.5587 328.982 22.3118 328.9 22.3375C328.818 22.3633 328.826 22.6641 328.743 22.695C328.658 22.7284 328.463 22.5047 328.386 22.5432C328.304 22.5844 328.36 22.875 328.288 22.9212C328.208 22.9701 327.974 22.7875 327.908 22.839C327.833 22.8981 327.959 23.1655 327.908 23.2273C327.843 23.3018 327.555 23.2273 327.524 23.2993C327.486 23.3893 327.746 23.4972 327.766 23.5795Z" fill="#F04823"/>
<path d="M341.997 12.6714C342.29 12.6354 342.647 13.2397 342.93 13.2114C343.213 13.1831 343.465 12.5248 343.748 12.5068C344.031 12.4888 344.365 13.1111 344.648 13.0982C344.946 13.0879 345.221 12.4425 345.501 12.4399C345.802 12.4374 346.09 13.0751 346.368 13.0802C346.671 13.0854 346.983 12.4579 347.255 12.4682C347.566 12.4811 347.821 13.1342 348.088 13.1548C348.412 13.1779 348.757 12.5685 349.006 12.5942C349.076 12.6019 349.006 13.2345 349.068 13.2551C349.13 13.2757 349.461 12.7331 349.518 12.7665C349.575 12.7999 349.235 13.3425 349.284 13.3888C349.333 13.4351 349.868 13.0905 349.904 13.1471C349.94 13.2037 349.4 13.5405 349.42 13.6048C349.441 13.6691 350.076 13.5919 350.081 13.6588C350.086 13.7257 349.454 13.7848 349.446 13.8542C349.438 13.9237 350.037 14.1345 350.014 14.1988C349.96 14.3428 349.32 14.2142 349.251 14.3454C349.181 14.4765 349.636 14.9445 349.546 15.0654C349.456 15.1862 348.878 14.8854 348.77 14.9985C348.672 15.1014 349.006 15.6645 348.888 15.7674C348.78 15.8625 348.258 15.4665 348.137 15.5617C348.024 15.6491 348.289 16.2482 348.16 16.3408C348.045 16.4257 347.556 15.9885 347.427 16.0759C347.309 16.1582 347.541 16.7702 347.412 16.8551C347.217 16.9837 346.71 16.5337 346.497 16.6262C346.283 16.7188 346.273 17.3899 346.044 17.4491C345.815 17.5082 345.473 16.9245 345.237 16.9579C345.013 16.9888 344.848 17.6471 344.612 17.6625C344.385 17.6779 344.128 17.0505 343.889 17.0531C343.663 17.0582 343.437 17.6959 343.197 17.6934C342.958 17.6908 342.745 17.0505 342.508 17.048C342.272 17.0454 342.04 17.6779 341.804 17.6754" stroke="#F04823" stroke-width="1.566" stroke-linejoin="bevel"/>
<path d="M334.954 18.2335C334.774 18.6475 333.084 17.9866 332.786 18.2721C332.488 18.5575 333.074 20.2726 332.678 20.4372C332.282 20.6018 331.428 18.9843 330.999 19.0306C330.569 19.0769 330.114 20.8461 329.693 20.7869C329.271 20.7278 329.309 18.8995 328.924 18.7401C328.512 18.5703 327.206 19.8458 326.9 19.5758C326.568 19.2826 327.749 17.9558 327.605 17.5598C327.461 17.1638 326.015 17.7578 326.108 17.2975C325.779 17.5623 325.622 16.2715 325.27 16.4386C324.889 16.6161 325.025 18.4341 324.64 18.4983C324.228 18.5652 323.817 16.7986 323.426 16.7369C323.035 16.6752 322.048 18.2001 321.698 17.9969C321.348 17.7938 322.194 16.1995 321.929 15.8703C321.69 15.5721 319.952 16.1018 319.798 15.6981C319.664 15.3458 321.294 14.5229 321.24 14.0909C321.194 13.7155 319.394 13.3786 319.417 12.9441C319.44 12.5095 321.263 12.3861 321.359 12.0132C321.464 11.6018 319.952 10.5835 320.132 10.2389C320.327 9.86606 322.022 10.5526 322.284 10.2595C322.565 9.95092 321.716 8.33863 322.045 8.12006C322.392 7.8912 323.537 9.3132 323.909 9.18978C324.305 9.05863 324.401 7.24063 324.791 7.22777C325.211 7.21492 325.357 9.01492 325.73 9.14092C326.121 9.27206 326.108 8.01463 326.394 8.30263C326.383 7.72406 327.962 8.11749 328.111 7.67777C328.291 7.14806 327.093 5.78778 327.443 5.44578C327.815 5.08063 329.186 6.3072 329.677 6.13749C330.168 5.96777 330.389 4.14978 330.914 4.15235C331.439 4.15492 331.685 5.98835 332.174 6.13749C332.663 6.28663 333.948 4.94177 334.352 5.23749C334.784 5.55377 333.799 7.06063 334.02 7.51578C334.241 7.97092 335.543 7.27663 335.468 7.83206C335.836 7.42578 336.193 8.78092 336.71 8.59835C337.227 8.41578 337.489 6.60806 338.045 6.62606C338.6 6.64406 338.796 8.48778 339.315 8.66778C339.834 8.84778 341.148 7.53635 341.58 7.86035C342.012 8.18435 341.094 9.77349 341.38 10.2363C341.665 10.6992 343.499 10.6169 343.568 11.1826C343.63 11.6815 341.837 12.1032 341.688 12.6792C341.565 13.1549 343.013 14.3198 342.717 14.8443" stroke="#F04823" stroke-width="1.566" stroke-linejoin="bevel"/>
<path d="M392.815 21.3272L395.723 22.6L398.624 21.8672L400.478 19.4089L397.197 13.1063L399.133 14.9758L399.275 13.1758L397.547 8.90205L395.569 12.6975L394.443 14.4615L393.322 12.9598L394.335 10.5272L392.843 8.69119L389.462 11.9363L389.503 13.1218L387.245 4.55633L389.768 5.73405L387.541 3.90576L384.347 4.36605L382.295 7.30776L381.401 8.04062L381.678 9.28519L378.053 9.55519L377.474 6.83462L375.548 11.5789L373.985 11.5969L376.443 14.3792L369.143 14.1735L370.387 16.7886L374.807 16.03L373.627 22.5332L375.805 16.0969L377.582 16.9198L382.514 16.642L377.883 22.4226L381.483 18.8766L382.748 22.3429L384.522 21.3195L383.167 17.9303" stroke="#F04823" stroke-width="0.514286" stroke-linejoin="bevel"/>
<path d="M370.935 11.9492L369.808 16.6781L368.013 16.1175L366.681 17.7812L364.521 15.2792L366.985 15.2252L365.028 20.9364L368.762 17.9664L370.531 20.3886L373.483 17.2206L374.895 21.0392L372.071 22.4792L368.088 23.6981L374.612 26.9278L374.041 28.7998L370.546 30.1138L372.76 31.4947L371.364 32.3741L372.495 32.0501L374.306 30.5021L376.018 33.0478L377.767 34.0944L379.585 32.1349L381.385 31.0138L383.105 33.2535L385.034 32.3406L387.775 32.8009" stroke="#F04823" stroke-width="0.514286" stroke-linejoin="bevel"/>
<path d="M378.832 24.3717L380.527 24.6365L381.931 23.7134" stroke="#F04823" stroke-width="0.514286" stroke-linejoin="bevel"/>
<path d="M370.135 31.2066L371.366 31.7286L373.403 30.9006" stroke="#F04823" stroke-width="0.514286" stroke-linejoin="bevel"/>
<path d="M443.242 19.3419L443.625 20.2084L444.119 20.2522L444.605 19.4319L444.782 14.9782L445.124 15.9476L445.687 17.6884L446.595 20.2522L446.469 17.7682L446.503 16.5802L446.909 16.7422L447.631 17.619L447.945 17.3722L446.94 14.5719L446.77 13.7619L450.239 18.861L450.365 18.1796L450.571 17.6756L450.103 16.4053L448.992 14.5976L449.059 14.235L448.786 13.5922L450.995 15.0733L452.093 15.405L449.84 13.3633L450.365 13.3376L448.377 11.9259L452.705 12.3424L451.09 11.9387L450.506 14.5693L450.504 10.4859L449.822 14.7853L449.583 13.425L449.087 16.0093L449.023 11.2239L448.521 14.3276L448.277 12.0776L447.922 12.3013L447.513 14.5384L447.246 11.4604L446.852 14.325L446.531 12.6922L446.186 13.6487L445.849 13.641L445.469 12.5173L445.003 12.1162L445.083 13.7079L445.834 15.4976L446.395 15.5104L441.311 12.5224L444.703 11.7253L445.168 13.6102L445.703 13.2013L444.109 12.8747L442.563 12.669L441.553 12.5147L441.517 12.2679L442.046 11.8924L442.383 11.517L441.283 11.6044L441.946 11.0953L443.548 10.0282L442.347 10.2879L441.403 10.5682L443.952 8.31302L441.897 9.54216L441.933 9.08188L443.551 6.51045L442.959 6.34845L441.205 8.53416L440.282 9.95873L441.02 7.06588L440.578 7.12245L440.442 5.1193L439.696 8.57273L439.452 9.06388L438.711 5.35845L438.631 7.50045L438.606 8.51873L436.844 5.66702L438.487 9.26959L435.805 6.54388L436.965 9.84045L436.482 8.50331L439.11 7.10702L439.382 6.41531L435.209 8.21273L438.881 5.47159L437.868 5.58216L438.099 4.75159L435.726 6.39216L436.687 4.79016L433.558 8.14845L434.386 6.62873L433.779 7.1893L433.229 7.91445L434.237 4.87502L432.982 7.95302L434.052 1.9873L433.291 3.39902L432.83 2.21102L432.311 3.15216L432.514 7.15845L431.195 3.04416L431.056 4.1473L431.398 5.77502L431.961 7.2073L428.917 3.47359L431.179 6.8293L429.786 5.8393L427.574 4.55616L427.237 5.03188L427.672 5.94216L431.969 8.39273L429.742 7.7293L430.153 8.11245L427.441 8.02759L428.497 8.54959L430.729 8.69873L426.883 9.75559L430.166 10.8664L427.957 11.031L427.299 12.0107L428.24 9.15902L427.744 9.67845L428.053 6.59016L427.433 7.36416L426.823 10.5939L426.592 10.2519L426.044 6.95016L425.538 6.78045L425.682 9.61416L426.075 12.0056L424.08 7.02473L423.558 7.07616L424.532 9.99473L425.09 11.4604L423.095 9.04845L421.459 7.76531L423.697 10.8356L421.863 9.62959L422.239 10.4653L420.662 9.97159L421.303 10.8742L423.293 12.1213L421.462 11.841L424.98 12.9673L420.143 12.4736L420.662 12.9827L420.202 13.4327L419.533 13.9702L422.413 13.9959L419.395 15.0527L422.038 14.775L420.963 15.5696L421.832 15.6442L421.619 16.2047L421.66 16.6702L424.692 14.9653L424.756 15.1607L421.434 18.7042L425.101 15.3407L422.961 18.4933L422.858 19.5322L424.63 17.3104L425.821 15.2739L424.437 19.9796L425.551 17.4364L425.875 17.0276L426.271 20.5067L426.165 15.8036L426.201 15.675L425.913 15.0656L428.284 18.6759L428.317 17.8453L427.96 17.0713L427.633 13.9624L429.03 16.8964L430.997 16.5364L428.467 17.7296L431.359 16.5802L431.413 16.6522L428.616 18.897L430.614 17.619L427.667 20.9927L427.654 21.885L429.323 20.517L429.22 21.5944L430.951 19.0693L430.868 20.0927L431.259 19.9693L431.768 18.8353L432.082 17.4802L432.216 18.969L432.771 22.065L433.157 21.4402L433.396 20.607L432.717 17.5779L433.638 19.2802L435.42 21.8953L433.041 17.3336L433.401 17.5907L435.345 19.4267L433.892 17.6293L434.476 17.8427" stroke="#F04823" stroke-width="0.514286" stroke-linejoin="bevel"/>
<path d="M421.24 11.4219L421.328 15.1736L420.904 14.5076L420.718 15.6441L420.05 13.371L419.955 15.045L418.857 10.4421L419.078 13.9316L418.407 12.183L418.54 14.8264L418.399 15.855L417.653 13.9059L416.668 11.013L417.573 16.7293L417.216 16.6367L416.278 14.163L416.411 16.1276L415.73 14.8444L415.506 15.3407L415.529 16.6933L414.956 14.5333L414.362 14.7647L415.959 14.253L416.897 13.947L415.575 15.2121L416.265 15.045L415.233 16.4156L414.483 17.763L414.295 18.6913L414.675 19.0101L415.542 18.6167L418.232 15.063L417.952 16.0504L417.422 17.799L416.715 20.427L418.016 18.303L418.705 17.3413L418.947 17.6961L419.062 18.8276L419.461 18.7941L420.119 15.8936L420.376 15.1144L420.654 21.2756L421.143 20.7536L421.603 20.4193L421.842 19.0821L421.732 16.9633L421.937 16.6804L423.848 16.3153L421.796 17.9224L420.68 18.0664L423.58 18.9844L423.089 19.2493L425.406 20.0541L420.69 19.5116L421.055 19.941L423.614 20.7921L419.551 20.373L423.747 21.5379L422.364 21.633L424.863 22.4713L420.109 21.921L423.11 22.857L420.847 22.7824L421.014 23.1759L423.154 23.9447L420.07 23.7159L422.824 24.603L421.158 24.6441L422.032 25.1713L421.958 25.5184L420.765 25.6496L420.24 25.9093L421.703 26.5496L423.552 27.2644L423.832 27.6784L417.859 26.8941L422.986 28.2364L419.518 27.933L418.923 28.1799L420.407 28.8227L421.84 29.4579L422.76 29.9053L422.721 30.1444L422.107 30.3193L421.68 30.5404L422.758 30.6664L421.981 30.8901L420.222 31.6333L421.405 31.3839L422.187 30.8541L420.189 33.5824L421.69 31.7207L421.804 32.1219L421.734 35.1587L422.261 34.9916L422.737 32.235L423.133 30.561L423.416 33.5439L423.773 33.3819L424.082 35.3387L424.521 31.8364L424.887 31.353L425.152 35.1201L425.555 33.0424L425.933 32.0833L426.208 35.4133L426.656 31.4816L426.921 35.295L427.363 31.6076L427.702 32.1939L427.988 35.1536L428.33 35.6936L428.793 31.1704L429.037 35.7476L429.412 34.8707L429.752 35.5856L430.173 32.739L430.485 34.575L430.947 30.0004L431.261 31.731L431.634 30.9416L432.009 30.057L432.287 33.2584L432.722 29.949L432.933 36.0124L433.323 34.5081L433.696 35.6756L434.092 34.7473L434.285 30.7307L434.946 35.007L435.252 33.9707L435.334 32.307L435.226 30.7667L437.073 35.2179L435.856 31.3581L436.949 32.667L438.942 34.2999L439.485 33.7239L439.215 32.6439" stroke="#F04823" stroke-width="0.514286" stroke-linejoin="bevel"/>
<path d="M428.785 22.245L430.097 26.1099L429.613 22.6693L430.547 24.9939L429.996 21.2782L430.508 21.8876L430.588 20.7356L431.488 22.929L431.439 21.2499L432.905 25.7499" stroke="#F04823" stroke-width="0.514286" stroke-linejoin="bevel"/>
<path d="M419.653 31.6564L420.278 31.3607L420.26 32.1835L421.518 29.121L423.31 32.4921L421.592 29.4861L423.078 31.4893L421.826 27.9535L422.52 28.4575L422.698 27.2644L423.582 29.4784" stroke="#F04823" stroke-width="0.514286" stroke-linejoin="bevel"/>
<path d="M495.25 18.1398C495.563 18.1836 496.031 18.667 496.345 18.667C496.659 18.667 497.183 18.6413 497.497 18.6001C497.811 18.559 498.199 18.0216 498.505 17.9418C498.811 17.8621 498.341 15.4476 498.634 15.3318C498.927 15.2161 499.331 15.6301 499.608 15.481C499.886 15.3318 500.647 16.021 500.904 15.8384C501.161 15.6558 502.424 16.5378 502.655 16.3244C502.887 16.111 502.234 14.8561 502.439 14.617C502.645 14.3778 502.339 13.7478 502.511 13.483C502.684 13.2181 502.959 13.1487 503.095 12.8607C502.792 12.8298 502.632 12.2744 502.329 12.2487C502.025 12.223 501.709 12.2564 501.406 12.2358C501.102 12.2153 500.711 13.825 500.408 13.8096C500.105 13.7941 499.809 14.221 499.503 14.2107C499.197 14.2004 498.96 10.8087 498.657 10.8061C498.353 10.8036 498.017 11.0761 497.713 11.0787C497.464 11.0787 496.88 11.3076 496.62 11.3718C496.361 11.4361 496.034 12.3438 495.846 12.4956C495.633 12.6653 495.594 12.8916 495.612 13.1821C495.628 12.8684 495.245 13.0536 495.229 12.7347C495.214 12.4158 494.843 12.2307 494.792 11.917C494.741 11.6033 496.098 11.0118 496.011 10.711C495.923 10.4101 496.322 9.79812 496.191 9.5127C496.06 9.22727 494.45 9.7467 494.267 9.48698C494.085 9.22727 494.129 8.91355 493.897 8.69241C493.666 8.47127 492.848 9.52041 492.573 9.36612C492.298 9.21184 493.087 6.7407 492.784 6.65584C492.48 6.57098 491.961 6.72784 491.65 6.71241C491.339 6.69698 491.161 8.17041 490.858 8.2347C490.554 8.29898 489.392 6.37041 489.119 6.5247C488.847 6.67898 489.094 9.0627 488.885 9.30698C488.811 9.00612 488.664 7.84384 488.531 7.56098C488.397 7.27812 487.096 7.88241 486.913 7.63041C486.731 7.37841 488.561 5.49098 488.34 5.27498C488.119 5.05898 486.785 6.17755 486.527 6.00527C486.27 5.83298 486.599 4.61927 486.314 4.50098C486.029 4.3827 485.609 4.39555 485.303 4.34412C484.997 4.2927 484.707 5.50641 484.391 5.52955C484.074 5.5527 483.444 3.98155 483.156 4.08955C482.868 4.19755 483.321 5.73012 483.066 5.90498C482.812 6.07984 482.058 5.55784 481.85 5.78412C481.642 6.01041 481.904 6.53755 481.755 6.80498C481.606 7.07241 481.521 7.25755 481.441 7.55327C481.361 7.84898 480.706 8.05212 480.716 8.35812C480.726 8.66412 480.667 8.63327 480.778 8.92898C480.531 8.75927 480.415 9.32755 480.143 9.21698C479.87 9.10641 479.464 10.099 479.171 10.045C478.877 9.99098 478.854 10.1838 478.556 10.1813C478.258 10.1787 477.687 6.92327 477.394 6.9747C477.101 7.02612 477.517 9.91384 477.237 10.0116C476.957 10.1093 475.951 8.48155 475.694 8.62555C475.437 8.76955 474.905 8.77984 474.678 8.97012C474.452 9.16041 474.789 10.0476 474.604 10.279C474.419 10.5104 475.007 11.1404 474.874 11.4078C474.74 11.6753 475.226 11.9247 475.157 12.2127C475.087 12.5007 475.079 12.5316 475.069 12.8298C475.059 13.1281 474.737 13.2284 474.781 13.5216C474.825 13.8147 474.635 14.0101 474.727 14.293C474.82 14.5758 475.409 14.455 475.547 14.7173C475.686 14.9796 475.373 15.3061 475.555 15.5401C475.738 15.7741 475.131 16.651 475.352 16.849C475.573 17.047 476.162 16.6741 476.419 16.8233C476.676 16.9724 477 16.5507 477.286 16.6407C477.566 16.7307 477.545 18.5924 477.851 18.595C478.157 18.5976 478.337 17.2784 478.62 17.1936C478.921 17.1036 479.14 17.2064 479.356 17.0136C479.572 16.8207 479.824 18.1321 479.891 17.8184C479.934 18.1424 478.975 17.569 479.099 17.8724C479.222 18.1758 480.762 17.8287 480.95 18.0936C481.138 18.3584 481.932 17.8673 482.177 18.0833C482.421 18.2993 481.68 19.7701 481.966 19.9244C482.251 20.0787 482.681 20.1507 482.997 20.2304C483.313 20.3101 483.725 21.4313 484.051 21.4313C484.378 21.4313 484.581 19.4744 484.897 19.3998C485.213 19.3253 485.296 19.009 485.586 18.8676C485.877 18.7261 487.314 20.2433 487.566 20.0376C487.818 19.8318 487.337 18.6824 487.53 18.4201" stroke="#F04823" stroke-width="0.514286" stroke-linejoin="bevel"/>
<path d="M473.215 11.9941C472.922 12.0276 472.832 13.6527 472.539 13.6913C472.245 13.7299 471.929 13.4676 471.639 13.5139C471.348 13.5601 471.153 14.0693 470.865 14.1207C470.577 14.1721 470.114 13.2361 469.823 13.2953C469.533 13.3544 469.401 14.1001 469.113 14.1619C468.825 14.2236 468.08 12.3233 467.792 12.3927C467.504 12.4621 467.578 13.9819 467.295 14.0564C467.013 14.131 466.187 13.7479 465.904 13.8276C466.033 14.1259 467.172 14.2647 467.347 14.5321C467.522 14.7996 467.972 14.6967 468.19 14.9333C468.409 15.1699 467.974 15.9721 468.226 16.1753C468.478 16.3784 468.059 17.6667 468.337 17.8339C468.615 18.001 470.003 15.9336 470.301 16.057C470.6 16.1804 470.71 16.2987 471.024 16.381C471.338 16.4633 471.351 17.6076 471.669 17.6436C471.988 17.6796 472.263 16.8619 472.585 16.8516C472.906 16.8413 473.194 17.4121 473.511 17.3479C473.827 17.2836 474.524 17.1061 474.827 16.9879C474.771 17.281 475.483 18.2247 475.426 18.5204C475.37 18.8161 474.444 18.9421 474.387 19.2353C474.331 19.5284 473.927 19.7573 473.871 20.0504C473.814 20.3436 474.452 20.7704 474.395 21.0661C474.339 21.3619 474.686 21.7321 474.629 22.0253C474.573 22.3184 473.755 22.4676 473.698 22.7607C473.642 23.0539 473.855 23.401 473.799 23.6941C473.742 23.9873 472.978 24.1467 472.922 24.4399C472.865 24.733 472.184 24.9079 472.127 25.201C472.071 25.4941 471.672 25.723 471.615 26.0161C471.559 26.3093 471.497 26.6024 471.441 26.8981C471.384 27.1939 471.675 27.5539 471.621 27.847C471.567 28.1401 473.379 28.7933 473.323 29.089C473.271 29.359 472.814 29.5081 472.788 29.7961C472.762 30.0841 471.986 30.331 472.011 30.6087C472.037 30.9044 471.07 31.7247 471.186 31.9741C471.302 32.2236 472.523 32.1207 472.767 32.293C473.009 32.4627 473.48 32.1181 473.77 32.1696C474.061 32.221 474.321 32.3444 474.609 32.3521C474.93 32.3599 475.241 32.8279 475.565 32.8356C475.889 32.8433 476.211 32.8073 476.532 32.815C476.853 32.8227 477.206 31.5627 477.53 31.5704C477.854 31.5781 478.183 31.2464 478.504 31.2541C478.826 31.2619 479.085 33.9079 479.409 33.9156C479.733 33.9233 480.06 33.7176 480.381 33.7253C480.703 33.733 481.029 33.6173 481.351 33.625C481.672 33.6327 482.009 33.0901 482.331 33.0979C482.652 33.1056 482.997 32.2159 483.318 32.2236C483.639 32.2313 483.963 32.1464 484.287 32.1541C484.611 32.1619 484.938 31.8944 485.259 31.9021C485.555 31.9099 485.853 33.0413 486.162 33.031C486.471 33.0207 486.877 33.4424 487.173 33.3987C487.468 33.355 487.489 32.0256 487.767 31.9279C488.06 31.825 488.309 31.9073 488.546 31.7299C488.782 31.5524 488.013 30.8941 488.173 30.6216" stroke="#F04823" stroke-width="0.514286" stroke-linejoin="bevel"/>
<path d="M481.014 23.3906C481.356 23.3057 481.752 23.4497 482.094 23.3649C482.436 23.28 482.729 23.0049 483.071 22.92C483.413 22.8352 483.788 22.8917 484.13 22.8069" stroke="#F04823" stroke-width="0.514286" stroke-linejoin="bevel"/>
<path d="M472.371 29.9016C472.713 30.097 473.112 30.2744 473.454 30.4699C473.742 30.2179 474.107 30.0404 474.454 29.8784C474.801 29.7164 475.11 29.413 475.488 29.3564" stroke="#F04823" stroke-width="0.514286" stroke-linejoin="bevel"/>
<path d="M546.121 17.1373C549.253 17.5821 552.761 12.8893 553.915 12.9201C552.095 12.735 550.937 12.0741 548.435 12.6604C547.633 12.6655 546.299 14.4964 546.607 13.7687C546.705 11.871 545.314 14.2264 544.887 8.52041C543.509 7.21412 541.097 -0.271309 539.793 8.44841C539.263 6.32441 538.037 10.0093 535.036 4.72498C532.853 4.88955 530.816 2.36698 531.791 9.37412C529.566 7.83898 526.882 4.38812 524.879 11.1793C523.688 13.6041 525.591 11.9507 527.681 17.7493C528.846 18.1195 531.155 23.2058 530.713 16.5715C530.937 18.189 531.86 27.1941 533.794 20.0095C535.378 20.4107 537.45 15.4221 538.139 18.4487" stroke="#F04823" stroke-width="2.57143" stroke-linejoin="bevel"/>
<path d="M524 12.7529C521.662 13.0178 520.034 14.9926 517.085 14.1312C518.366 17.1192 521.86 12.4752 525.224 17.5435C524.491 21.3646 523.035 31.2672 523.025 29.0095C522.809 30.1306 521.721 28.2432 523.632 32.1826C524.11 32.5169 524.951 32.6661 525.314 32.5555C528.857 32.6404 531.495 34.9444 535.946 32.8075C537.464 32.8435 538.356 32.9001 540.045 31.4215" stroke="#F04823" stroke-width="2.57143" stroke-linejoin="bevel"/>
<path d="M531.747 23.5891C532.773 23.3371 534.226 21.6296 534.822 22.8356" stroke="#F04823" stroke-width="2.57143" stroke-linejoin="bevel"/>
<path d="M523.136 29.9223C523.478 30.1177 523.11 27.9886 524.159 30.5086C524.735 30.0046 526.394 31.838 526.211 29.5546" stroke="#F04823" stroke-width="2.57143" stroke-linejoin="bevel"/>
<path d="M593.185 20.5386C597.557 22.0814 602.7 19.51 604.5 15.1386C602.185 17.4529 598.843 17.4529 595.757 17.9671C595.5 17.9671 595.243 18.2243 594.985 18.4814C596.528 16.6814 598.071 13.5957 596.014 11.5386C595.5 11.0243 594.471 10.7671 593.7 10.7671C594.728 7.42428 592.414 3.56714 588.814 3.56714C587.528 3.56714 585.985 4.33857 585.985 5.88142C583.671 4.33857 580.843 4.85285 578.528 6.39571C576.214 7.93857 574.928 10.2529 575.443 13.0814C575.7 14.11 576.471 14.8814 577.5 14.6243C578.785 14.11 579.814 13.3386 580.585 12.0529C579.814 13.8529 580.585 16.1671 582.128 16.9386C583.157 17.1957 584.185 16.9386 585.214 16.4243" stroke="#F04823" stroke-width="0.514286" stroke-linejoin="bevel"/>
<path d="M578.529 12.0529C575.186 11.2815 571.586 12.0529 568.5 13.5957C572.614 14.11 576.471 15.3957 580.329 16.9386C579.3 18.4815 577.243 19.2529 575.443 20.2815C572.357 22.5957 569.786 26.1957 571.329 30.0529C574.929 31.8529 578.529 33.91 582.643 34.4243C585.214 34.4243 588.557 34.6815 590.357 32.3672" stroke="#F04823" stroke-width="0.514286" stroke-linejoin="bevel"/>
<path d="M582.643 23.8815C583.157 23.6244 582.643 22.3387 584.7 23.8815C584.957 23.8815 585.471 23.3673 585.728 23.1101" stroke="#F04823" stroke-width="0.514286" stroke-linejoin="bevel"/>
<path d="M573.9 30.0528C574.929 30.0528 575.7 31.3385 576.986 29.7957" stroke="#F04823" stroke-width="0.514286" stroke-linejoin="bevel"/>
<path d="M648.182 16.3195C648.572 16.3761 648.837 18.7418 649.231 18.729C649.624 18.7161 649.755 16.3375 650.144 16.263C650.532 16.1884 651.537 18.3458 651.908 18.2121C652.278 18.0784 651.679 15.7718 652.023 15.5841C652.368 15.3964 653.972 17.1604 654.286 16.9238C654.6 16.6873 653.345 14.6635 653.62 14.3807C653.895 14.0978 655.958 15.291 656.184 14.967C656.41 14.643 654.476 13.8124 654.644 13.4524C654.417 13.4293 655.456 12.051 655.227 12.0304C654.998 12.0098 654.582 14.3421 654.353 14.3241C654.124 14.3061 654.055 11.9404 653.828 11.925C653.602 11.9095 653.245 14.2521 653.016 14.2418C652.787 14.2315 652.653 11.8658 652.427 11.8581C652.201 11.8504 651.905 14.2007 651.676 14.1955C651.447 14.1904 651.252 11.8298 651.023 11.8298C650.794 11.8298 650.565 14.1853 650.336 14.1878C650.241 14.1878 650.023 11.8427 649.922 11.8504C649.822 11.8581 650.046 14.2058 649.948 14.2238C649.85 14.2418 649.215 11.9713 649.12 11.9995C649.025 12.0278 649.724 14.2753 649.634 14.3138C649.539 14.355 648.326 12.3415 648.246 12.3955C648.161 12.4521 649.642 14.2573 649.58 14.3318C649.519 14.4064 647.446 13.3624 647.415 13.4575C647.387 13.5475 647.325 13.8407 647.333 13.9461C647.346 13.7095 649.694 13.6195 649.688 13.383C649.683 13.1464 647.318 13.0513 647.294 12.8147C647.271 12.5781 649.568 12.0073 649.524 11.7733C649.48 11.5393 647.135 11.8555 647.068 11.6293C647.001 11.403 649.143 10.395 649.053 10.1764C648.963 9.95783 646.747 10.7807 646.628 10.575C646.51 10.3693 648.333 8.8624 648.187 8.67469C648.04 8.48698 646.142 9.89098 645.968 9.72641C645.793 9.56183 647.053 7.57155 646.855 7.44298C646.657 7.3144 645.366 9.29183 645.147 9.20183C644.929 9.11183 645.412 6.80269 645.183 6.74869C644.954 6.69469 644.402 8.99098 644.168 8.98069C643.934 8.9704 643.586 6.63555 643.355 6.6664C643.124 6.69726 643.463 9.02955 643.244 9.10926C643.026 9.18898 641.738 7.21926 641.542 7.35298C641.347 7.48669 641.437 9.72126 641.28 9.90383C641.213 9.63898 642.607 7.8004 642.496 7.55098C642.386 7.30155 640.19 8.17583 640.04 7.94698C639.891 7.71812 641.596 6.07498 641.414 5.87183C641.231 5.66869 639.41 7.17812 639.2 7.00583C638.989 6.83355 640.092 4.7404 639.855 4.60669C639.619 4.47298 638.395 6.49155 638.14 6.40412C637.886 6.31669 638.171 3.96898 637.901 3.9304C637.631 3.89183 637.289 6.22669 637.014 6.24726C636.739 6.26783 636.016 4.03069 635.762 4.11555C635.507 4.2004 636.242 6.44269 636.011 6.58155C635.78 6.7204 634.157 5.00783 633.959 5.1904C633.761 5.37298 635.33 7.13698 635.173 7.35298C635.016 7.56898 632.848 6.62783 632.74 6.87212C632.632 7.1164 634.774 8.09098 634.723 8.35326C634.671 8.61555 632.318 8.74412 632.339 9.01155C632.36 9.27898 633.995 10.5673 634.09 10.8244C633.812 10.6315 633.524 8.27098 633.213 8.15269C632.902 8.03441 631.997 10.2253 631.665 10.179C631.334 10.1327 631.087 7.77983 630.752 7.8004C630.418 7.82098 630.462 10.1918 630.138 10.2767C629.814 10.3615 628.693 8.27355 628.392 8.41755C628.091 8.56155 629.022 10.737 628.757 10.9401C628.492 11.1433 626.633 9.67498 626.417 9.92955C626.201 10.1841 627.978 11.7398 627.829 12.0433C627.68 12.3467 625.363 11.8967 625.291 12.2207C625.219 12.5447 627.518 13.1181 627.523 13.4524C627.528 13.7867 625.234 14.3781 625.304 14.7073C625.373 15.0364 627.713 14.643 627.844 14.949C627.975 15.255 626.075 16.6744 626.263 16.9495C626.45 17.2247 628.466 15.9827 628.703 16.2167C628.94 16.4507 627.764 18.5053 628.047 18.6801C628.33 18.855 629.608 16.8698 629.93 16.9727C630.071 17.019 629.68 19.341 629.832 19.3641C629.984 19.3873 630.328 17.0575 630.48 17.0575C630.632 17.0575 630.922 19.3975 631.071 19.377C631.22 19.3564 630.881 17.0293 631.022 16.9855C631.164 16.9418 632.2 19.0555 632.331 18.9861C632.462 18.9167 631.254 16.911 631.364 16.8107C631.475 16.7104 633.38 18.063 633.458 17.9318C633.535 17.8007 633.298 16.1421 633.329 15.9878C633.357 16.191 631.547 17.6618 631.606 17.8547C631.665 18.0475 633.931 17.3867 634.018 17.5693C634.106 17.7518 632.164 19.0941 632.28 19.2638C632.396 19.4335 634.376 18.153 634.512 18.3047C634.648 18.4564 633.157 20.2873 633.314 20.4184C633.47 20.5495 635.016 18.7675 635.188 18.8755C635.36 18.9835 634.453 21.1615 634.64 21.2413C634.828 21.321 635.774 19.1635 635.972 19.2124C636.17 19.2613 635.978 21.6115 636.181 21.6295C636.384 21.6475 636.62 19.2998 636.824 19.287C637.027 19.2741 637.541 21.5781 637.739 21.537C637.937 21.4958 637.497 19.1764 637.688 19.1095C637.878 19.0427 639.014 21.1101 639.194 21.015C639.374 20.9198 638.305 18.8164 638.469 18.6981C638.634 18.5798 640.31 20.2384 640.454 20.0944C640.598 19.9504 638.955 18.261 639.076 18.0964" stroke="#F04823" stroke-width="0.514286" stroke-linejoin="bevel"/>
<path d="M625.998 14.0156C625.705 14.049 625.188 12.2618 624.897 12.3004C624.607 12.339 624.579 14.2007 624.288 14.2444C623.997 14.2881 623.406 12.5267 623.115 12.5781C622.825 12.6296 622.876 14.4887 622.588 14.5453C622.3 14.6018 621.634 12.8661 621.346 12.9278C621.058 12.9896 621.187 14.8461 620.901 14.9156C620.616 14.985 619.878 13.2776 619.593 13.3521C619.307 13.4267 620.148 14.6327 619.865 14.715C620.025 15.0878 618.59 15.7333 618.824 16.0624C619.058 16.3916 620.703 15.4941 620.997 15.7718C621.29 16.0496 620.482 17.739 620.824 17.9576C621.166 18.1761 622.375 16.7438 622.748 16.9007C623.121 17.0576 622.948 18.9244 623.342 19.0118C623.735 19.0993 624.375 17.3404 624.779 17.3559C625.183 17.3713 625.697 19.1739 626.096 19.1096C626.494 19.0453 627.433 17.433 627.811 17.2838C627.718 17.7621 626.031 18.6698 625.941 19.1481C625.851 19.6264 627.561 20.4493 627.471 20.9276C627.381 21.4059 625.484 21.537 625.394 22.0153C625.304 22.4936 627.014 23.3164 626.924 23.7947C626.834 24.273 624.936 24.4041 624.846 24.8824C624.756 25.3607 626.466 26.1836 626.376 26.6618C626.286 27.1401 624.388 27.2713 624.298 27.7496C624.208 28.2279 625.918 29.0507 625.828 29.529C625.803 29.6653 623.967 29.4981 623.946 29.6396C623.925 29.781 625.731 30.141 625.718 30.285C625.705 30.429 623.864 30.4701 623.861 30.6116C623.859 30.753 625.697 30.8301 625.71 30.9716C625.723 31.113 623.936 31.5527 623.969 31.6864C624.003 31.8201 625.774 31.3624 625.833 31.491C625.893 31.6196 624.424 32.7098 624.514 32.8204C624.604 32.931 625.941 31.689 626.062 31.7739C626.121 31.815 625.239 33.4247 625.304 33.4556C625.368 33.4864 626.17 31.8381 626.237 31.8613C626.304 31.8844 625.833 33.6613 625.903 33.6793C625.972 33.6973 626.425 31.9153 626.497 31.9281C626.569 31.941 626.389 33.7693 626.461 33.777C626.533 33.7847 626.764 31.9616 626.836 31.9667C626.908 31.9719 626.89 33.8104 626.962 33.813C627.034 33.8156 627.163 31.9821 627.235 31.9821C627.677 31.9924 628.078 33.8387 628.521 33.849C628.963 33.8593 629.451 32.0336 629.894 32.0439C630.336 32.0541 630.737 33.9004 631.179 33.9107C631.622 33.921 632.11 32.0953 632.553 32.1056C632.995 32.1158 633.396 33.9621 633.838 33.9724C634.281 33.9827 634.769 32.157 635.211 32.1673C635.654 32.1776 636.055 34.0238 636.497 34.0341C636.939 34.0444 637.428 32.2187 637.87 32.229C638.055 32.2341 638.233 34.0727 638.426 34.0701C638.619 34.0676 638.737 32.2264 638.925 32.2161C639.112 32.2059 639.483 34.0136 639.67 33.9879C639.858 33.9621 639.711 32.1261 639.891 32.0824C640.071 32.0387 640.804 33.7333 640.979 33.6664C641.154 33.5996 640.514 31.8767 640.673 31.779C640.833 31.6813 642.116 32.9953 642.249 32.8616C642.383 32.7279 641.059 31.4627 641.159 31.2956" stroke="#F04823" stroke-width="0.514286" stroke-linejoin="bevel"/>
<path d="M633.614 23.8205C633.743 23.7896 633.928 23.9953 634.057 23.9645C634.185 23.9336 634.255 23.6636 634.383 23.6302C634.512 23.5968 634.697 23.805 634.825 23.7742C634.954 23.7433 635.023 23.4733 635.152 23.4399C635.281 23.4065 635.466 23.6148 635.594 23.5839C635.723 23.553 635.792 23.283 635.921 23.2496C636.049 23.2162 636.235 23.4245 636.363 23.3936C636.492 23.3628 636.561 23.0928 636.69 23.0593" stroke="#F04823" stroke-width="0.514286" stroke-linejoin="bevel"/>
<path d="M625.093 30.1666C625.137 30.1923 625.057 30.4288 625.098 30.4546C625.139 30.4803 625.306 30.29 625.348 30.3157C625.389 30.3414 625.312 30.578 625.353 30.6037C625.394 30.6294 625.561 30.4391 625.602 30.4648C625.643 30.4906 625.566 30.7271 625.607 30.7528C625.648 30.7786 625.816 30.5883 625.857 30.614C625.898 30.6397 625.821 30.8763 625.862 30.902C625.903 30.9277 625.97 30.7271 626.011 30.7528C626.083 30.6911 626.271 30.8454 626.348 30.7863C626.425 30.7271 626.361 30.4726 626.44 30.4211C626.52 30.3697 626.728 30.5317 626.813 30.4854C626.898 30.4391 626.87 30.1768 626.957 30.1357C627.045 30.0946 627.227 30.2848 627.317 30.2514C627.407 30.218 627.418 29.9531 627.508 29.9248C627.598 29.8966 627.754 30.11 627.847 30.0894C627.94 30.0688 627.988 29.8091 628.084 29.7937" stroke="#F04823" stroke-width="0.514286" stroke-linejoin="bevel"/>
<path d="M701.565 19.0013C696.872 14.9051 698.667 13.9356 712.943 12.8453C698.407 12.2873 697.42 12.2411 704.944 12.4673C695.998 12.2513 695.416 12.4159 702.274 14.0873C695.499 11.8219 695.262 10.7188 699.765 6.42191C693.771 9.30706 692.434 9.19391 692.326 6.31906C691.48 8.8262 690.374 7.87477 685.38 0.883057C688.018 8.0522 687.034 9.3662 680.644 7.66906C686.244 9.64649 684.354 10.1376 670.551 10.3048C683.068 12.7579 683.835 14.5528 674.644 19.8988C685.856 15.1982 686.725 15.0079 679.07 18.1785C686.985 15.2342 687.671 16.0005 683.567 23.2005C689.381 16.4351 690.351 16.0853 689.911 20.9222" stroke="#F04823" stroke-width="0.514286" stroke-linejoin="bevel"/>
<path d="M674.15 7.83618C677.09 17.2065 675.84 17.4559 664.058 9.84704C675.313 19.423 677.378 20.287 675.938 14.8305C678.617 21.7168 678.221 23.779 672.728 31.573C677.709 26.4508 677.65 27.2042 673.616 36.2042C678.411 27.739 678.748 27.7519 676.071 36.7493C680.978 27.8033 682.891 27.8496 691.595 37.117C685.624 27.9139 686.601 27.8496 697.581 35.0933" stroke="#F04823" stroke-width="0.514286" stroke-linejoin="bevel"/>
<path d="M683.292 23.4602C685.259 22.9768 685.815 22.8405 687.782 22.3596" stroke="#F04823" stroke-width="0.514286" stroke-linejoin="bevel"/>
<path d="M674.68 29.5673C676.279 29.7756 676.464 29.881 676.176 30.4236C676.961 29.7139 677.349 29.5313 679.172 29.0325" stroke="#F04823" stroke-width="0.514286" stroke-linejoin="bevel"/>
<defs>
<clipPath id="clip0_169_3252">
<rect width="38.1189" height="29.646" fill="white" transform="translate(6.44043 4.177)"/>
</clipPath>
</defs>
</svg>
