<svg width="320" height="34" viewBox="0 0 320 34" fill="none" xmlns="http://www.w3.org/2000/svg">
<path d="M16.0241 25.1287C18.2099 25.1287 19.9819 21.5078 19.9819 17.0412C19.9819 12.5745 18.2099 8.95361 16.0241 8.95361C13.8383 8.95361 12.0664 12.5745 12.0664 17.0412C12.0664 21.5078 13.8383 25.1287 16.0241 25.1287Z" stroke="#EAE8E4" stroke-width="1.20755" stroke-linejoin="bevel"/>
<path d="M16.0241 25.1287C20.4907 25.1287 24.1116 21.5078 24.1116 17.0412C24.1116 12.5745 20.4907 8.95361 16.0241 8.95361C11.5574 8.95361 7.93652 12.5745 7.93652 17.0412C7.93652 21.5078 11.5574 25.1287 16.0241 25.1287Z" stroke="#EAE8E4" stroke-width="1.20755" stroke-linejoin="bevel"/>
<path d="M24.1086 17.041H7.93652" stroke="#EAE8E4" stroke-width="1.20755" stroke-linejoin="bevel"/>
<path d="M16.0244 8.95361V25.1257" stroke="#EAE8E4" stroke-width="1.20755" stroke-linejoin="bevel"/>
<path d="M4.84277 21.2675V12.6667" stroke="#EAE8E4" stroke-width="1.20755" stroke-linejoin="bevel"/>
<path d="M25.3433 24.4917L17.8535 28.8147" stroke="#EAE8E4" stroke-width="1.20755" stroke-linejoin="bevel"/>
<path d="M25.3463 9.43055L17.8896 5.12866" stroke="#EAE8E4" stroke-width="1.20755" stroke-linejoin="bevel"/>
<path d="M14.1559 5.12866L6.66309 9.45471" stroke="#EAE8E4" stroke-width="1.20755" stroke-linejoin="bevel"/>
<path d="M27.2031 21.2676V12.6638" stroke="#EAE8E4" stroke-width="1.20755" stroke-linejoin="bevel"/>
<path d="M14.1921 28.8146L6.66602 24.4705" stroke="#EAE8E4" stroke-width="1.20755" stroke-linejoin="bevel"/>
<path d="M16.0244 32.0933C17.2115 32.0933 18.1739 31.131 18.1739 29.9439C18.1739 28.7568 17.2115 27.7944 16.0244 27.7944C14.8373 27.7944 13.875 28.7568 13.875 29.9439C13.875 31.131 14.8373 32.0933 16.0244 32.0933Z" stroke="#EAE8E4" stroke-width="1.20755" stroke-linejoin="bevel"/>
<path d="M16.0244 6.21244C17.2115 6.21244 18.1739 5.25011 18.1739 4.06301C18.1739 2.87591 17.2115 1.91357 16.0244 1.91357C14.8373 1.91357 13.875 2.87591 13.875 4.06301C13.875 5.25011 14.8373 6.21244 16.0244 6.21244Z" stroke="#EAE8E4" stroke-width="1.20755" stroke-linejoin="bevel"/>
<path d="M4.79397 12.6668C5.98106 12.6668 6.9434 11.7045 6.9434 10.5174C6.9434 9.33025 5.98106 8.36792 4.79397 8.36792C3.60687 8.36792 2.64453 9.33025 2.64453 10.5174C2.64453 11.7045 3.60687 12.6668 4.79397 12.6668Z" stroke="#EAE8E4" stroke-width="1.20755" stroke-linejoin="bevel"/>
<path d="M27.2061 25.5664C28.3932 25.5664 29.3555 24.6041 29.3555 23.417C29.3555 22.2299 28.3932 21.2676 27.2061 21.2676C26.019 21.2676 25.0566 22.2299 25.0566 23.417C25.0566 24.6041 26.019 25.5664 27.2061 25.5664Z" stroke="#EAE8E4" stroke-width="1.20755" stroke-linejoin="bevel"/>
<path d="M27.2061 12.6636C28.3932 12.6636 29.3555 11.7013 29.3555 10.5142C29.3555 9.32708 28.3932 8.36475 27.2061 8.36475C26.019 8.36475 25.0566 9.32708 25.0566 10.5142C25.0566 11.7013 26.019 12.6636 27.2061 12.6636Z" stroke="#EAE8E4" stroke-width="1.20755" stroke-linejoin="bevel"/>
<path d="M4.79397 25.5664C5.98106 25.5664 6.9434 24.6041 6.9434 23.417C6.9434 22.2299 5.98106 21.2676 4.79397 21.2676C3.60687 21.2676 2.64453 22.2299 2.64453 23.417C2.64453 24.6041 3.60687 25.5664 4.79397 25.5664Z" stroke="#EAE8E4" stroke-width="1.20755" stroke-linejoin="bevel"/>
<path d="M25.3672 22.3997L24.1113 21.6721" stroke="#EAE8E4" stroke-width="1.20755" stroke-linejoin="bevel"/>
<path d="M7.96679 12.3528L6.67773 11.6101" stroke="#EAE8E4" stroke-width="1.20755" stroke-linejoin="bevel"/>
<path d="M7.93358 21.6721L6.67773 22.3997" stroke="#EAE8E4" stroke-width="1.20755" stroke-linejoin="bevel"/>
<path d="M25.3672 11.6101L24.0781 12.3528" stroke="#EAE8E4" stroke-width="1.20755" stroke-linejoin="bevel"/>
<path d="M16.0244 27.7944V26.3574" stroke="#EAE8E4" stroke-width="1.20755" stroke-linejoin="bevel"/>
<path d="M16.0244 7.72199V6.21558" stroke="#EAE8E4" stroke-width="1.20755" stroke-linejoin="bevel"/>
<path d="M25.343 11.9814L24.0781 12.3528" stroke="#EAE8E4" stroke-width="1.20755" stroke-linejoin="bevel"/>
<path d="M50.439 17.0414C53.5243 23.2482 51.0639 28.2806 48.0239 21.9742C44.987 28.2806 42.5236 23.2482 45.6088 17.0414C42.5236 10.8346 44.9839 5.80213 48.0239 12.1085C51.0609 5.80213 53.5243 10.8346 50.439 17.0414Z" stroke="#EAE8E4" stroke-width="0.603774" stroke-linejoin="bevel"/>
<path d="M52.9598 17.0414C59.2662 23.2482 54.2338 28.2806 48.027 21.9742C41.8202 28.2806 36.7877 23.2482 43.0941 17.0414C36.7877 10.8346 41.8202 5.80213 48.027 12.1085C54.2338 5.80213 59.2662 10.8346 52.9598 17.0414Z" stroke="#EAE8E4" stroke-width="0.603774" stroke-linejoin="bevel"/>
<path d="M52.9605 17.0413C59.2669 17.0413 36.7884 17.0413 43.0949 17.0413" stroke="#EAE8E4" stroke-width="0.603774" stroke-linejoin="bevel"/>
<path d="M48.0273 12.1085C48.0273 5.80211 48.0273 28.2806 48.0273 21.9742" stroke="#EAE8E4" stroke-width="0.603774" stroke-linejoin="bevel"/>
<path d="M36.8457 19.5921C36.8457 22.9461 36.8457 10.9913 36.8457 14.3453" stroke="#EAE8E4" stroke-width="0.603774" stroke-linejoin="bevel"/>
<path d="M55.8855 25.3341C58.8047 23.6496 48.3957 29.6572 51.3179 27.9696" stroke="#EAE8E4" stroke-width="0.603774" stroke-linejoin="bevel"/>
<path d="M55.8946 8.59439C58.8018 10.2729 48.441 4.29251 51.3482 5.971" stroke="#EAE8E4" stroke-width="0.603774" stroke-linejoin="bevel"/>
<path d="M44.6978 5.97404C47.6201 4.2865 37.205 10.3001 40.1273 8.61253" stroke="#EAE8E4" stroke-width="0.603774" stroke-linejoin="bevel"/>
<path d="M59.2061 19.5891C59.2061 22.943 59.2061 10.9853 59.2061 14.3423" stroke="#EAE8E4" stroke-width="0.603774" stroke-linejoin="bevel"/>
<path d="M44.7279 27.9666C47.6622 29.6602 37.2018 23.6225 40.1362 25.3161" stroke="#EAE8E4" stroke-width="0.603774" stroke-linejoin="bevel"/>
<path d="M46.7143 29.944C45.0358 28.2927 46.3762 26.9553 48.0275 28.6308C49.6788 26.9523 51.0162 28.2927 49.3407 29.944C51.0192 31.5953 49.6788 32.9327 48.0275 31.2572C46.3762 32.9357 45.0388 31.5953 46.7143 29.944Z" stroke="#EAE8E4" stroke-width="0.603774" stroke-linejoin="bevel"/>
<path d="M49.3378 4.06314C51.0163 5.71446 49.6759 7.05183 48.0246 5.37635C46.3732 7.05484 45.0359 5.71446 46.7114 4.06314C45.0329 2.41182 46.3732 1.07446 48.0246 2.74993C49.6759 1.07144 51.0132 2.41182 49.3378 4.06314Z" stroke="#EAE8E4" stroke-width="0.603774" stroke-linejoin="bevel"/>
<path d="M38.1073 10.5175C39.7858 12.1688 38.4454 13.5062 36.7941 11.8307C35.1428 13.5092 33.8054 12.1688 35.4809 10.5175C33.8024 8.86617 35.1428 7.52881 36.7941 9.20428C38.4454 7.52579 39.7828 8.86617 38.1073 10.5175Z" stroke="#EAE8E4" stroke-width="0.603774" stroke-linejoin="bevel"/>
<path d="M60.5194 23.4171C62.1979 25.0685 60.8575 26.4058 59.2062 24.7304C57.5549 26.4088 56.2175 25.0685 57.893 23.4171C56.2145 21.7658 57.5549 20.4285 59.2062 22.1039C60.8575 20.4254 62.1949 21.7658 60.5194 23.4171Z" stroke="#EAE8E4" stroke-width="0.603774" stroke-linejoin="bevel"/>
<path d="M60.5194 10.5146C62.1979 12.1659 60.8575 13.5032 59.2062 11.8278C57.5549 13.5063 56.2175 12.1659 57.893 10.5146C56.2145 8.86323 57.5549 7.52588 59.2062 9.20135C60.8575 7.52286 62.1949 8.86323 60.5194 10.5146Z" stroke="#EAE8E4" stroke-width="0.603774" stroke-linejoin="bevel"/>
<path d="M38.1073 23.4171C39.7858 25.0685 38.4454 26.4058 36.7941 24.7304C35.1428 26.4088 33.8054 25.0685 35.4809 23.4171C33.8024 21.7658 35.1428 20.4285 36.7941 22.1039C38.4454 20.4254 39.7828 21.7658 38.1073 23.4171Z" stroke="#EAE8E4" stroke-width="0.603774" stroke-linejoin="bevel"/>
<path d="M57.1267 22.2578C57.6157 22.5416 55.8708 21.5333 56.3599 21.8141" stroke="#EAE8E4" stroke-width="0.603774" stroke-linejoin="bevel"/>
<path d="M39.7191 12.2081C40.2232 12.4979 38.43 11.4654 38.9311 11.7552" stroke="#EAE8E4" stroke-width="0.603774" stroke-linejoin="bevel"/>
<path d="M39.6921 21.8141C40.1812 21.5303 38.4362 22.5386 38.9253 22.2578" stroke="#EAE8E4" stroke-width="0.603774" stroke-linejoin="bevel"/>
<path d="M57.1204 11.7552C57.6246 11.4654 55.8314 12.4979 56.3325 12.2081" stroke="#EAE8E4" stroke-width="0.603774" stroke-linejoin="bevel"/>
<path d="M48.0273 27.5136C48.0273 28.0751 48.0273 26.0767 48.0273 26.6382" stroke="#EAE8E4" stroke-width="0.603774" stroke-linejoin="bevel"/>
<path d="M48.0273 7.42924C48.0273 8.01792 48.0273 5.92283 48.0273 6.50849" stroke="#EAE8E4" stroke-width="0.603774" stroke-linejoin="bevel"/>
<path d="M57.0989 12.054C57.591 11.9091 55.834 12.4253 56.3291 12.2804" stroke="#EAE8E4" stroke-width="0.603774" stroke-linejoin="bevel"/>
<path d="M84.6294 17.0412C84.6294 17.4548 83.3223 17.814 83.2921 18.2095C83.2619 18.605 84.4996 19.1755 84.4392 19.565C84.3758 19.9786 83.0294 20.1235 82.9358 20.5069C82.8362 20.9174 83.9562 21.6782 83.8234 22.0465C83.6785 22.448 82.3351 22.3031 82.157 22.6442C81.9547 23.0306 82.8121 24.0782 82.5736 24.371C82.2958 24.7152 81.1517 24.0329 80.8347 24.2291C80.4694 24.4555 80.4241 25.7718 80.0256 25.7718C79.6272 25.7718 79.5789 24.4525 79.2166 24.2291C78.8996 24.0329 77.7555 24.7122 77.4777 24.371C77.2392 24.0782 78.0966 23.0276 77.8943 22.6442C77.7162 22.3031 76.3728 22.448 76.2279 22.0465C76.0951 21.6812 77.2151 20.9174 77.1155 20.5069C77.0219 20.1265 75.6755 19.9786 75.6121 19.565C75.5517 19.1725 76.7894 18.6231 76.7592 18.2095C76.729 17.7959 75.4219 17.4548 75.4219 17.0382C75.4219 16.6216 76.729 16.2654 76.7592 15.8699C76.7894 15.4744 75.5517 14.9038 75.6121 14.5144C75.6755 14.1008 77.0219 13.9559 77.1155 13.5725C77.2151 13.162 76.0951 12.4012 76.2279 12.0329C76.3728 11.6314 77.7162 11.7763 77.8943 11.4352C78.0966 11.0488 77.2392 10.0012 77.4777 9.70838C77.7555 9.36423 78.8996 10.0465 79.2166 9.85026C79.5819 9.62385 79.6272 8.30762 80.0256 8.30762C80.4241 8.30762 80.4724 9.62687 80.8347 9.85026C81.1517 10.0465 82.2958 9.36724 82.5736 9.70838C82.8121 10.0012 81.9547 11.0518 82.157 11.4352C82.3351 11.7763 83.6785 11.6314 83.8234 12.0329C83.9562 12.3982 82.8362 13.162 82.9358 13.5725C83.0294 13.9529 84.3758 14.1008 84.4392 14.5144C84.4996 14.9069 83.2619 15.4563 83.2921 15.8699C83.3223 16.2835 84.6294 16.6246 84.6294 17.0412Z" stroke="#EAE8E4" stroke-width="1.83849" stroke-linejoin="bevel"/>
<path d="M88.7592 17.0412C88.7592 17.5816 87.4248 17.9831 87.3252 18.4933C87.2256 19.0035 88.2973 19.9001 88.098 20.3831C87.8988 20.8661 86.5071 20.7363 86.2143 21.174C85.9214 21.6118 86.5765 22.8435 86.2022 23.2178C85.8278 23.5922 84.6022 22.934 84.1584 23.2299C83.7146 23.5257 83.8595 24.9084 83.3675 25.1137C82.8754 25.3189 82.0029 24.2382 81.4776 24.3408C80.9524 24.4435 80.566 25.7748 80.0256 25.7748C79.4852 25.7748 79.0837 24.4405 78.5735 24.3408C78.0633 24.2412 77.1667 25.3129 76.6837 25.1137C76.2007 24.9144 76.3305 23.5227 75.8927 23.2299C75.455 22.9371 74.2233 23.5922 73.849 23.2178C73.4746 22.8435 74.1327 21.6178 73.8369 21.174C73.541 20.7303 72.1584 20.8752 71.9531 20.3831C71.7478 19.891 72.8286 19.0186 72.726 18.4933C72.6233 17.968 71.292 17.5816 71.292 17.0412C71.292 16.5008 72.6263 16.0993 72.726 15.5891C72.8256 15.0789 71.7539 14.1823 71.9531 13.6993C72.1524 13.2163 73.5441 13.3461 73.8369 12.9084C74.1297 12.4706 73.4746 11.2389 73.849 10.8646C74.2233 10.4903 75.449 11.1484 75.8927 10.8525C76.3365 10.5567 76.1916 9.17403 76.6837 8.96875C77.1758 8.76347 78.0482 9.84422 78.5735 9.74158C79.0988 9.63894 79.4852 8.30762 80.0256 8.30762C80.566 8.30762 80.9675 9.64196 81.4776 9.74158C81.9878 9.8412 82.8844 8.7695 83.3675 8.96875C83.8505 9.168 83.7207 10.5597 84.1584 10.8525C84.5961 11.1454 85.8278 10.4903 86.2022 10.8646C86.5765 11.2389 85.9184 12.4646 86.2143 12.9084C86.5101 13.3522 87.8927 13.2072 88.098 13.6993C88.3033 14.1914 87.2226 15.0638 87.3252 15.5891C87.4278 16.1144 88.7592 16.5008 88.7592 17.0412Z" stroke="#EAE8E4" stroke-width="1.83849" stroke-linejoin="bevel"/>
<path d="M88.1105 17.6872C87.0991 17.6872 87.0991 16.3921 86.0908 16.3921C85.0825 16.3921 85.0795 17.6872 84.0712 17.6872C83.0629 17.6872 83.0599 16.3921 82.0516 16.3921C81.0433 16.3921 81.0403 17.6872 80.029 17.6872C79.0176 17.6872 79.0176 16.3921 78.0093 16.3921C77.001 16.3921 76.998 17.6872 75.9867 17.6872C74.9754 17.6872 74.9754 16.3921 73.9641 16.3921C72.9527 16.3921 72.9527 17.6872 71.9414 17.6872" stroke="#EAE8E4" stroke-width="1.83849" stroke-linejoin="bevel"/>
<path d="M80.6711 8.95361C80.6711 9.96493 79.376 9.96493 79.376 10.9732C79.376 11.9815 80.6711 11.9846 80.6711 12.9929C80.6711 14.0012 79.376 14.0042 79.376 15.0125C79.376 16.0208 80.6711 16.0238 80.6711 17.0351C80.6711 18.0464 79.376 18.0464 79.376 19.0547C79.376 20.063 80.6711 20.0661 80.6711 21.0774C80.6711 22.0887 79.376 22.0887 79.376 23.1C79.376 24.1113 80.6711 24.1113 80.6711 25.1227" stroke="#EAE8E4" stroke-width="1.83849" stroke-linejoin="bevel"/>
<path d="M68.499 21.2676C68.499 20.7302 69.1873 20.7302 69.1873 20.1929C69.1873 19.6555 68.499 19.6555 68.499 19.1182C68.499 18.5808 69.1873 18.5808 69.1873 18.0434C69.1873 17.5061 68.499 17.5061 68.499 16.9687C68.499 16.4314 69.1873 16.4314 69.1873 15.894C69.1873 15.3566 68.499 15.3566 68.499 14.8193C68.499 14.2819 69.1873 14.2819 69.1873 13.7415C69.1873 13.2012 68.499 13.2042 68.499 12.6638" stroke="#EAE8E4" stroke-width="1.83849" stroke-linejoin="bevel"/>
<path d="M89.4927 24.7513C89.0248 25.02 88.7259 24.5038 88.258 24.7725C87.7901 25.0411 88.089 25.5604 87.621 25.8321C87.1531 26.1038 86.8543 25.5815 86.3863 25.8532C85.9184 26.1249 86.2173 26.6411 85.7493 26.9128C85.2814 27.1845 84.9826 26.6653 84.5146 26.934C84.0467 27.2026 84.3456 27.7219 83.8777 27.9936C83.4097 28.2653 83.1108 27.746 82.6399 28.0147C82.169 28.2834 82.4709 28.8057 82.0029 29.0743" stroke="#EAE8E4" stroke-width="1.83849" stroke-linejoin="bevel"/>
<path d="M89.1967 9.69017C88.7318 9.42149 89.0276 8.90525 88.5627 8.63657C88.0978 8.3679 87.7989 8.88413 87.334 8.61545C86.8691 8.34677 87.168 7.83054 86.7031 7.56186C86.2382 7.29318 85.9393 7.80941 85.4744 7.54073C85.0095 7.27205 85.3053 6.75582 84.8404 6.48714C84.3755 6.21846 84.0767 6.7347 83.6118 6.46602C83.1468 6.19734 83.4427 5.68111 82.9778 5.40941C82.5129 5.13771 82.214 5.65696 81.7461 5.38828" stroke="#EAE8E4" stroke-width="1.83849" stroke-linejoin="bevel"/>
<path d="M78.3043 5.38819C77.8363 5.65989 77.5375 5.14065 77.0695 5.40933C76.6016 5.67801 76.9005 6.19725 76.4326 6.46894C75.9646 6.74064 75.6658 6.21838 75.1979 6.49008C74.7299 6.76178 75.0288 7.27801 74.5609 7.5497C74.0929 7.8214 73.7941 7.30215 73.3262 7.57083C72.8582 7.83951 73.1571 8.36178 72.6892 8.63045C72.2213 8.89913 71.9194 8.38291 71.4514 8.65159C70.9835 8.92027 71.2824 9.44254 70.8145 9.71121" stroke="#EAE8E4" stroke-width="1.83849" stroke-linejoin="bevel"/>
<path d="M90.8604 21.2676C90.8604 20.7302 91.5486 20.7302 91.5486 20.1929C91.5486 19.6555 90.8604 19.6555 90.8604 19.1182C90.8604 18.5808 91.5486 18.5808 91.5486 18.0434C91.5486 17.5061 90.8604 17.5061 90.8604 16.9687C90.8604 16.4314 91.5486 16.4314 91.5486 15.894C91.5486 15.3566 90.8604 15.3566 90.8604 14.8193C90.8604 14.2819 91.5486 14.2819 91.5486 13.7415C91.5486 13.2012 90.8604 13.2042 90.8604 12.6638" stroke="#EAE8E4" stroke-width="1.83849" stroke-linejoin="bevel"/>
<path d="M78.0425 29.0743C77.5716 28.8026 77.8735 28.2803 77.4025 28.0116C76.9316 27.743 76.6327 28.2622 76.1618 27.9905C75.6909 27.7188 75.9927 27.1996 75.5248 26.9279C75.0569 26.6562 74.755 27.1784 74.2841 26.9067C73.8131 26.635 74.115 26.1128 73.6441 25.8411C73.1731 25.5694 72.8742 26.0916 72.4033 25.8199C71.9324 25.5482 72.2342 25.026 71.7633 24.7543C71.2924 24.4826 70.9905 25.0049 70.5195 24.7332" stroke="#EAE8E4" stroke-width="1.83849" stroke-linejoin="bevel"/>
<path d="M77.7012 29.9438C77.7012 29.7989 78.0574 29.6933 78.0816 29.5574C78.1057 29.4216 77.8219 29.1831 77.8763 29.0533C77.9306 28.9234 78.2989 28.9597 78.3774 28.8419C78.4559 28.7242 78.2808 28.3982 78.3804 28.2985C78.48 28.1989 78.8061 28.374 78.9238 28.2985C79.0415 28.2231 79.0023 27.8517 79.1351 27.7974C79.268 27.7431 79.4974 28.0299 79.6393 28.0027C79.7812 27.9755 79.8808 27.6223 80.0257 27.6223C80.1706 27.6223 80.2763 27.9785 80.4121 28.0027C80.548 28.0268 80.7865 27.7431 80.9163 27.7974C81.0461 27.8517 81.0098 28.22 81.1276 28.2985C81.2453 28.377 81.5714 28.2019 81.671 28.3016C81.7706 28.4012 81.5955 28.7272 81.671 28.845C81.7465 28.9627 82.1178 28.9234 82.1721 29.0563C82.2265 29.1891 81.9397 29.4185 81.9668 29.5604C81.994 29.7023 82.3472 29.8019 82.3472 29.9468C82.3472 30.0918 81.991 30.1974 81.9668 30.3333C81.9427 30.4691 82.2265 30.7076 82.1721 30.8374C82.1178 30.9672 81.7495 30.931 81.671 31.0487C81.5925 31.1665 81.7676 31.4925 81.668 31.5921C81.5683 31.6917 81.2423 31.5167 81.1246 31.5921C81.0068 31.6676 81.0461 32.0389 80.9133 32.0933C80.7804 32.1476 80.551 31.8608 80.4091 31.888C80.2672 31.9151 80.1676 32.2683 80.0227 32.2683C79.8778 32.2683 79.7721 31.9121 79.6363 31.888C79.5004 31.8638 79.2619 32.1476 79.1321 32.0933C79.0023 32.0389 79.0385 31.6706 78.9208 31.5921C78.8031 31.5136 78.477 31.6887 78.3774 31.5891C78.2778 31.4895 78.4529 31.1634 78.3774 31.0457C78.3019 30.928 77.9306 30.9672 77.8763 30.8344C77.8219 30.7016 78.1087 30.4721 78.0816 30.3302C78.0544 30.1884 77.7012 30.0887 77.7012 29.9438Z" stroke="#EAE8E4" stroke-width="1.83849" stroke-linejoin="bevel"/>
<path d="M82.3472 4.06305C82.3472 4.20795 81.991 4.31361 81.9668 4.44946C81.9427 4.58531 82.2265 4.82381 82.1721 4.95362C82.1178 5.08343 81.7495 5.0472 81.671 5.16493C81.5925 5.28267 81.7676 5.60871 81.668 5.70833C81.5683 5.80796 81.2423 5.63286 81.1246 5.70833C81.0068 5.78381 81.0461 6.15513 80.9133 6.20947C80.7804 6.26381 80.551 5.97701 80.4091 6.00418C80.2672 6.03135 80.1676 6.38456 80.0227 6.38456C79.8778 6.38456 79.7721 6.02833 79.6363 6.00418C79.5004 5.98003 79.2619 6.26381 79.1321 6.20947C79.0023 6.15513 79.0385 5.78683 78.9208 5.70833C78.8031 5.62984 78.477 5.80494 78.3774 5.70531C78.2778 5.60569 78.4529 5.27966 78.3774 5.16192C78.3019 5.04418 77.9306 5.08343 77.8763 4.9506C77.8219 4.81777 78.1087 4.58834 78.0816 4.44645C78.0544 4.30456 77.7012 4.20494 77.7012 4.06004C77.7012 3.91513 78.0574 3.80947 78.0816 3.67362C78.1057 3.53777 77.8219 3.29928 77.8763 3.16947C77.9306 3.03965 78.2989 3.07588 78.3774 2.95814C78.4559 2.84041 78.2808 2.51437 78.3804 2.41475C78.48 2.31513 78.8061 2.49022 78.9238 2.41475C79.0415 2.33928 79.0023 1.96796 79.1351 1.91362C79.268 1.85928 79.4974 2.14607 79.6393 2.1189C79.7812 2.09173 79.8808 1.73853 80.0257 1.73853C80.1706 1.73853 80.2763 2.09475 80.4121 2.1189C80.548 2.14305 80.7865 1.85928 80.9163 1.91362C81.0461 1.96796 81.0098 2.33626 81.1276 2.41475C81.2453 2.49324 81.5714 2.31815 81.671 2.41777C81.7706 2.51739 81.5955 2.84343 81.671 2.96116C81.7465 3.0789 82.1178 3.03966 82.1721 3.17249C82.2265 3.30532 81.9397 3.53475 81.9668 3.67663C81.994 3.81852 82.3472 3.91814 82.3472 4.06305Z" stroke="#EAE8E4" stroke-width="1.83849" stroke-linejoin="bevel"/>
<path d="M71.1167 10.5174C71.1167 10.6623 70.7605 10.768 70.7364 10.9038C70.7122 11.0397 70.996 11.2782 70.9416 11.408C70.8873 11.5378 70.519 11.5016 70.4405 11.6193C70.362 11.737 70.5371 12.0631 70.4375 12.1627C70.3379 12.2623 70.0118 12.0872 69.8941 12.1627C69.7764 12.2382 69.8156 12.6095 69.6828 12.6638C69.55 12.7182 69.3205 12.4314 69.1786 12.4585C69.0368 12.4857 68.9371 12.8389 68.7922 12.8389C68.6473 12.8389 68.5417 12.4827 68.4058 12.4585C68.27 12.4344 68.0315 12.7182 67.9016 12.6638C67.7718 12.6095 67.8081 12.2412 67.6903 12.1627C67.5726 12.0842 67.2465 12.2593 67.1469 12.1597C67.0473 12.06 67.2224 11.734 67.1469 11.6163C67.0715 11.4985 66.7001 11.5378 66.6458 11.405C66.5915 11.2721 66.8783 11.0427 66.8511 10.9008C66.8239 10.7589 66.4707 10.6593 66.4707 10.5144C66.4707 10.3695 66.8269 10.2638 66.8511 10.128C66.8752 9.99212 66.5915 9.75363 66.6458 9.62382C66.7001 9.49401 67.0684 9.53023 67.1469 9.4125C67.2254 9.29476 67.0503 8.96873 67.1499 8.8691C67.2496 8.76948 67.5756 8.94458 67.6933 8.8691C67.8111 8.79363 67.7718 8.42231 67.9047 8.36797C68.0375 8.31363 68.2669 8.60042 68.4088 8.57325C68.5507 8.54608 68.6503 8.19287 68.7952 8.19287C68.9401 8.19287 69.0458 8.5491 69.1817 8.57325C69.3175 8.5974 69.556 8.31363 69.6858 8.36797C69.8156 8.42231 69.7794 8.79061 69.8971 8.8691C70.0149 8.94759 70.3409 8.77249 70.4405 8.87212C70.5401 8.97174 70.3651 9.29778 70.4405 9.41552C70.516 9.53325 70.8873 9.494 70.9416 9.62683C70.996 9.75966 70.7092 9.9891 70.7364 10.131C70.7635 10.2729 71.1167 10.3725 71.1167 10.5174Z" stroke="#EAE8E4" stroke-width="1.83849" stroke-linejoin="bevel"/>
<path d="M93.5289 23.4171C93.5289 23.562 93.1726 23.6676 93.1485 23.8035C93.1243 23.9393 93.4081 24.1778 93.3538 24.3076C93.2994 24.4374 92.9311 24.4012 92.8526 24.5189C92.7741 24.6367 92.9492 24.9627 92.8496 25.0623C92.75 25.162 92.424 24.9869 92.3062 25.0623C92.1885 25.1378 92.2277 25.5091 92.0949 25.5635C91.9621 25.6178 91.7326 25.331 91.5907 25.3582C91.4489 25.3854 91.3492 25.7386 91.2043 25.7386C91.0594 25.7386 90.9538 25.3823 90.8179 25.3582C90.6821 25.334 90.4436 25.6178 90.3138 25.5635C90.184 25.5091 90.2202 25.1408 90.1024 25.0623C89.9847 24.9838 89.6587 25.1589 89.5591 25.0593C89.4594 24.9597 89.6345 24.6337 89.5591 24.5159C89.4836 24.3982 89.1123 24.4374 89.0579 24.3046C89.0036 24.1718 89.2904 23.9423 89.2632 23.8005C89.236 23.6586 88.8828 23.5589 88.8828 23.414C88.8828 23.2691 89.239 23.1635 89.2632 23.0276C89.2873 22.8918 89.0036 22.6533 89.0579 22.5235C89.1123 22.3937 89.4806 22.4299 89.5591 22.3122C89.6375 22.1944 89.4624 21.8684 89.5621 21.7688C89.6617 21.6691 89.9877 21.8442 90.1055 21.7688C90.2232 21.6933 90.1839 21.322 90.3168 21.2676C90.4496 21.2133 90.6791 21.5001 90.8209 21.4729C90.9628 21.4457 91.0624 21.0925 91.2073 21.0925C91.3523 21.0925 91.4579 21.4488 91.5938 21.4729C91.7296 21.4971 91.9681 21.2133 92.0979 21.2676C92.2277 21.322 92.1915 21.6903 92.3092 21.7688C92.427 21.8472 92.753 21.6722 92.8526 21.7718C92.9523 21.8714 92.7772 22.1974 92.8526 22.3152C92.9281 22.4329 93.2994 22.3937 93.3538 22.5265C93.4081 22.6593 93.1213 22.8888 93.1485 23.0306C93.1756 23.1725 93.5289 23.2722 93.5289 23.4171Z" stroke="#EAE8E4" stroke-width="1.83849" stroke-linejoin="bevel"/>
<path d="M93.5289 10.5145C93.5289 10.6594 93.1726 10.765 93.1485 10.9009C93.1243 11.0367 93.4081 11.2752 93.3538 11.405C93.2994 11.5348 92.9311 11.4986 92.8526 11.6164C92.7741 11.7341 92.9492 12.0601 92.8496 12.1598C92.75 12.2594 92.424 12.0843 92.3062 12.1598C92.1885 12.2352 92.2277 12.6065 92.0949 12.6609C91.9621 12.7152 91.7326 12.4284 91.5907 12.4556C91.4489 12.4828 91.3492 12.836 91.2043 12.836C91.0594 12.836 90.9538 12.4798 90.8179 12.4556C90.6821 12.4315 90.4436 12.7152 90.3138 12.6609C90.184 12.6065 90.2202 12.2382 90.1024 12.1598C89.9847 12.0813 89.6587 12.2564 89.5591 12.1567C89.4594 12.0571 89.6345 11.7311 89.5591 11.6133C89.4836 11.4956 89.1123 11.5348 89.0579 11.402C89.0036 11.2692 89.2904 11.0398 89.2632 10.8979C89.236 10.756 88.8828 10.6564 88.8828 10.5115C88.8828 10.3665 89.239 10.2609 89.2632 10.125C89.2873 9.98919 89.0036 9.75069 89.0579 9.62088C89.1123 9.49107 89.4806 9.5273 89.5591 9.40957C89.6375 9.29183 89.4624 8.96579 89.5621 8.86616C89.6617 8.76654 89.9877 8.94164 90.1055 8.86616C90.2232 8.79069 90.1839 8.41937 90.3168 8.36503C90.4496 8.31069 90.6791 8.59748 90.8209 8.57031C90.9628 8.54314 91.0624 8.18994 91.2073 8.18994C91.3523 8.18994 91.4579 8.54616 91.5938 8.57031C91.7296 8.59446 91.9681 8.31069 92.0979 8.36503C92.2277 8.41937 92.1915 8.78767 92.3092 8.86616C92.427 8.94466 92.753 8.76956 92.8526 8.86919C92.9523 8.96881 92.7772 9.29484 92.8526 9.41258C92.9281 9.53032 93.2994 9.49107 93.3538 9.6239C93.4081 9.75673 93.1213 9.98616 93.1485 10.128C93.1756 10.2699 93.5289 10.3696 93.5289 10.5145Z" stroke="#EAE8E4" stroke-width="1.83849" stroke-linejoin="bevel"/>
<path d="M71.1167 23.4171C71.1167 23.562 70.7605 23.6676 70.7364 23.8035C70.7122 23.9393 70.996 24.1778 70.9416 24.3076C70.8873 24.4374 70.519 24.4012 70.4405 24.5189C70.362 24.6367 70.5371 24.9627 70.4375 25.0623C70.3379 25.162 70.0118 24.9869 69.8941 25.0623C69.7764 25.1378 69.8156 25.5091 69.6828 25.5635C69.55 25.6178 69.3205 25.331 69.1786 25.3582C69.0368 25.3854 68.9371 25.7386 68.7922 25.7386C68.6473 25.7386 68.5417 25.3823 68.4058 25.3582C68.27 25.334 68.0315 25.6178 67.9016 25.5635C67.7718 25.5091 67.8081 25.1408 67.6903 25.0623C67.5726 24.9838 67.2465 25.1589 67.1469 25.0593C67.0473 24.9597 67.2224 24.6337 67.1469 24.5159C67.0715 24.3982 66.7001 24.4374 66.6458 24.3046C66.5915 24.1718 66.8783 23.9423 66.8511 23.8005C66.8239 23.6586 66.4707 23.5589 66.4707 23.414C66.4707 23.2691 66.8269 23.1635 66.8511 23.0276C66.8752 22.8918 66.5915 22.6533 66.6458 22.5235C66.7001 22.3937 67.0684 22.4299 67.1469 22.3122C67.2254 22.1944 67.0503 21.8684 67.1499 21.7688C67.2496 21.6691 67.5756 21.8442 67.6933 21.7688C67.8111 21.6933 67.7718 21.322 67.9047 21.2676C68.0375 21.2133 68.2669 21.5001 68.4088 21.4729C68.5507 21.4457 68.6503 21.0925 68.7952 21.0925C68.9401 21.0925 69.0458 21.4488 69.1817 21.4729C69.3175 21.4971 69.556 21.2133 69.6858 21.2676C69.8156 21.322 69.7794 21.6903 69.8971 21.7688C70.0149 21.8472 70.3409 21.6722 70.4405 21.7718C70.5401 21.8714 70.3651 22.1974 70.4405 22.3152C70.516 22.4329 70.8873 22.3937 70.9416 22.5265C70.996 22.6593 70.7092 22.8888 70.7364 23.0306C70.7635 23.1725 71.1167 23.2722 71.1167 23.4171Z" stroke="#EAE8E4" stroke-width="1.83849" stroke-linejoin="bevel"/>
<path d="M89.3448 22.4419C89.2663 22.3966 89.3176 22.3091 89.2391 22.2668C89.1606 22.2245 89.1093 22.3091 89.0338 22.2638C88.9584 22.2185 89.0067 22.1309 88.9282 22.0857C88.8497 22.0404 88.7984 22.1279 88.7199 22.0826C88.6414 22.0374 88.6927 21.9498 88.6112 21.9045C88.5297 21.8592 88.4814 21.9468 88.4029 21.9015C88.3244 21.8562 88.3727 21.7687 88.2942 21.7234C88.2157 21.6781 88.1644 21.7657 88.0859 21.7204" stroke="#EAE8E4" stroke-width="1.83849" stroke-linejoin="bevel"/>
<path d="M71.9434 12.3982C71.8649 12.3529 71.9162 12.2624 71.8347 12.2171C71.7532 12.1718 71.7019 12.2593 71.6234 12.2141C71.5449 12.1688 71.5932 12.0782 71.5147 12.0329C71.4362 11.9876 71.3819 12.0752 71.3034 12.0299C71.2249 11.9846 71.2732 11.8941 71.1947 11.8488C71.1162 11.8035 71.0618 11.891 70.9803 11.8458C70.8988 11.8005 70.9502 11.7099 70.8686 11.6616C70.7871 11.6133 70.7358 11.7039 70.6543 11.6586" stroke="#EAE8E4" stroke-width="1.83849" stroke-linejoin="bevel"/>
<path d="M71.962 21.7175C71.8835 21.7627 71.8352 21.6752 71.7567 21.7175C71.6782 21.7597 71.7295 21.8503 71.6511 21.8956C71.5726 21.9409 71.5212 21.8533 71.4428 21.8986C71.3643 21.9439 71.4156 22.0314 71.3371 22.0767C71.2586 22.122 71.2073 22.0344 71.1288 22.0797C71.0503 22.125 71.1016 22.2126 71.0201 22.2578C70.9386 22.3031 70.8903 22.2156 70.8118 22.2608C70.7333 22.3061 70.7816 22.3937 70.7031 22.439" stroke="#EAE8E4" stroke-width="1.83849" stroke-linejoin="bevel"/>
<path d="M89.3956 11.6525C89.3171 11.6978 89.2658 11.6103 89.1843 11.6525C89.1027 11.6948 89.1571 11.7884 89.0756 11.8336C88.9941 11.8789 88.9427 11.7914 88.8643 11.8367C88.7858 11.8819 88.8341 11.9725 88.7556 12.0178C88.6771 12.0631 88.6227 11.9755 88.5412 12.0208C88.4597 12.0661 88.511 12.1567 88.4295 12.205C88.348 12.2533 88.2967 12.1627 88.2152 12.208C88.1337 12.2533 88.185 12.3438 88.1035 12.3921" stroke="#EAE8E4" stroke-width="1.83849" stroke-linejoin="bevel"/>
<path d="M79.9678 27.7944C79.9678 27.7038 80.0825 27.7038 80.0825 27.6163C80.0825 27.5287 79.9678 27.5257 79.9678 27.4382C79.9678 27.3506 80.0825 27.3476 80.0825 27.2601C80.0825 27.1725 79.9678 27.1695 79.9678 27.0819C79.9678 26.9944 80.0825 26.9914 80.0825 26.9008C80.0825 26.8102 79.9678 26.8103 79.9678 26.7197C79.9678 26.6291 80.0825 26.6291 80.0825 26.5386C80.0825 26.448 79.9678 26.448 79.9678 26.3574" stroke="#EAE8E4" stroke-width="1.83849" stroke-linejoin="bevel"/>
<path d="M79.9648 7.72199C79.9648 7.6284 80.0856 7.6284 80.0856 7.53482C80.0856 7.44124 79.9648 7.44124 79.9648 7.34765C79.9648 7.25407 80.0856 7.25407 80.0856 7.16048C80.0856 7.0669 79.9648 7.0669 79.9648 6.97331C79.9648 6.87973 80.0856 6.87973 80.0856 6.78615C80.0856 6.69256 79.9648 6.69256 79.9648 6.59596C79.9648 6.49935 80.0856 6.50237 80.0856 6.40577C80.0856 6.30916 79.9648 6.31218 79.9648 6.21558" stroke="#EAE8E4" stroke-width="1.83849" stroke-linejoin="bevel"/>
<path d="M89.3567 12.03C89.2782 12.0541 89.251 11.9545 89.1726 11.9787C89.0941 12.0028 89.1212 12.0994 89.0427 12.1205C88.9643 12.1417 88.9341 12.0481 88.8556 12.0692C88.7771 12.0904 88.8043 12.19 88.7258 12.2141C88.6473 12.2383 88.6171 12.1417 88.5386 12.1628C88.4601 12.1839 88.4873 12.2836 88.4088 12.3077C88.3303 12.3319 88.3001 12.2353 88.2216 12.2564C88.1431 12.2775 88.1703 12.3771 88.0918 12.4013" stroke="#EAE8E4" stroke-width="1.83849" stroke-linejoin="bevel"/>
<path d="M116.287 17.0142L118.123 19.7764L115.865 21.9862L112.155 22.2791L112.161 23.1002L109.646 24.3138L110.841 21.1259L108.559 19.4142L108.405 17.0142L108.281 14.5719L106.392 11.2994L110.642 10.5176L112.161 9.25869L115.496 9.04736L113.202 12.9991L115.089 14.7168L116.287 17.0142Z" stroke="#EAE8E4" stroke-width="0.603774" stroke-linejoin="bevel"/>
<path d="M120.058 17.014L120.493 19.245L119.971 21.5242L116.719 21.5725L116.867 25.165L113.546 22.1823L112.161 22.9944L109.921 25.3672L106.79 26.3061L107.11 22.0616L105.266 20.9929L104.897 18.9612L105.435 17.014L103.657 14.7348L103.481 12.0027L106.392 11.245L108.447 10.5808L109.854 8.40723L112.161 8.49478L113.884 10.5778L115.18 11.7793L118.524 10.6472L120.278 12.3257L118.298 15.3687L120.058 17.014Z" stroke="#EAE8E4" stroke-width="0.603774" stroke-linejoin="bevel"/>
<path d="M120.245 16.9747L117.936 17.8622L115.626 16.0871L113.317 19.1815L111.008 17.1649L108.695 18.5083L106.386 15.4109L104.073 17.4788" stroke="#EAE8E4" stroke-width="0.603774" stroke-linejoin="bevel"/>
<path d="M113.513 8.92651L111.095 11.2359L112.3 13.5454L109.562 15.8548L113.166 18.1673L113.118 20.4767L111.515 22.7892L109.761 25.0986" stroke="#EAE8E4" stroke-width="0.603774" stroke-linejoin="bevel"/>
<path d="M99.8441 21.2404L99.6025 19.094L102.214 16.9415L102.075 14.7921L101.824 12.6396" stroke="#EAE8E4" stroke-width="0.603774" stroke-linejoin="bevel"/>
<path d="M122.03 25.4187L119.611 25.5485L117.806 26.744L116.085 28.0874L113.888 28.6096" stroke="#EAE8E4" stroke-width="0.603774" stroke-linejoin="bevel"/>
<path d="M121.472 9.42461L119.467 8.59744L117.704 7.34762L115.85 6.2548L114.036 5.09253" stroke="#EAE8E4" stroke-width="0.603774" stroke-linejoin="bevel"/>
<path d="M110.549 5.54834L108.705 6.67438L106.175 6.61702L104.125 7.39891L102.972 9.72645" stroke="#EAE8E4" stroke-width="0.603774" stroke-linejoin="bevel"/>
<path d="M122.794 21.2405L121.948 19.0911L124.357 16.9416L122.893 14.7892L123.349 12.6367" stroke="#EAE8E4" stroke-width="0.603774" stroke-linejoin="bevel"/>
<path d="M110.292 28.8511L109.088 26.5991L106.027 27.553L104.56 25.7507L103.071 23.9817" stroke="#EAE8E4" stroke-width="0.603774" stroke-linejoin="bevel"/>
<path d="M110.039 29.9167L110.166 27.9212L112.161 27.2903L113.571 28.5039L114.486 29.9167L113.544 31.2993L112.161 32.5341L111.05 31.0276L110.039 29.9167Z" stroke="#EAE8E4" stroke-width="0.603774" stroke-linejoin="bevel"/>
<path d="M114.733 4.03592L113.649 5.52422L112.161 6.04346L110.307 5.88951L109.29 4.03592L110.537 2.41176L112.161 1.4729L113.387 2.81026L114.733 4.03592Z" stroke="#EAE8E4" stroke-width="0.603774" stroke-linejoin="bevel"/>
<path d="M103.455 10.4902L101.936 11.4985L100.931 12.3649L99.2373 12.1808L98.0811 10.4902L99.7143 9.2736L100.931 8.89624L102.48 8.93851L103.455 10.4902Z" stroke="#EAE8E4" stroke-width="0.603774" stroke-linejoin="bevel"/>
<path d="M125.918 23.3899L124.542 24.5883L123.343 25.2797L122.277 24.4555L121.281 23.3899L121.502 21.5483L123.343 21.8623L125.085 21.648L125.918 23.3899Z" stroke="#EAE8E4" stroke-width="0.603774" stroke-linejoin="bevel"/>
<path d="M125.671 10.4873L124.587 11.7311L123.343 13.1651L121.964 11.867L121.635 10.4873L121.342 8.48584L123.343 8.50395L124.497 9.33414L125.671 10.4873Z" stroke="#EAE8E4" stroke-width="0.603774" stroke-linejoin="bevel"/>
<path d="M103.285 23.3899L102.929 25.3884L100.931 25.8412L99.231 25.0895L98.3525 23.3899L99.0439 21.5031L100.931 20.6458L102.555 21.7657L103.285 23.3899Z" stroke="#EAE8E4" stroke-width="0.603774" stroke-linejoin="bevel"/>
<path d="M121.538 22.3151L120.228 21.6812" stroke="#EAE8E4" stroke-width="0.603774" stroke-linejoin="bevel"/>
<path d="M104.128 12.2865L102.778 11.6465" stroke="#EAE8E4" stroke-width="0.603774" stroke-linejoin="bevel"/>
<path d="M104.134 21.7537L102.914 22.5416" stroke="#EAE8E4" stroke-width="0.603774" stroke-linejoin="bevel"/>
<path d="M121.474 11.5317L120.212 12.3227" stroke="#EAE8E4" stroke-width="0.603774" stroke-linejoin="bevel"/>
<path d="M112.324 27.7673L112.252 26.3303" stroke="#EAE8E4" stroke-width="0.603774" stroke-linejoin="bevel"/>
<path d="M111.989 7.69489L112.11 6.18848" stroke="#EAE8E4" stroke-width="0.603774" stroke-linejoin="bevel"/>
<path d="M121.538 12.1538L120.219 12.338" stroke="#EAE8E4" stroke-width="0.603774" stroke-linejoin="bevel"/>
<path d="M147.482 17.1195C147.482 17.4878 148.131 17.8531 148.107 18.2093C148.083 18.5656 148.4 18.9912 148.354 19.3414C148.309 19.6916 146.863 19.8063 146.791 20.1505C146.712 20.5158 148.143 21.2433 148.044 21.5784C147.935 21.9376 147.413 22.1792 147.277 22.4992C147.129 22.8493 147.576 23.5709 147.4 23.8637C147.204 24.1958 146.081 23.915 145.855 24.1626C145.592 24.4493 145.272 24.5188 144.979 24.6818C144.65 24.8629 144.439 24.2561 144.083 24.2561C143.727 24.2561 143.334 25.192 143.005 25.0109C142.712 24.8478 142.48 24.5369 142.217 24.2471C141.991 23.9995 142.006 23.5709 141.81 23.2388C141.634 22.9459 142.03 22.4267 141.882 22.0765C141.746 21.7595 140.671 21.8018 140.563 21.4425C140.46 21.1075 140.038 20.8146 139.962 20.4524C139.89 20.1082 140.11 19.6765 140.059 19.3082C140.007 18.9399 140.946 18.5203 140.922 18.152C140.898 17.7837 140.786 17.4848 140.786 17.1195C140.786 16.7543 141.076 16.4524 141.1 16.0992C141.124 15.746 140.816 15.3897 140.862 15.0426C140.907 14.6954 140.336 14.2305 140.409 13.8863C140.487 13.521 141.302 13.3882 141.405 13.0561C141.514 12.6969 141.52 12.389 141.656 12.069C141.804 11.7188 142.036 11.5346 142.211 11.2418C142.407 10.9097 141.743 10.0161 141.97 9.76859C142.232 9.4818 143.087 10.0705 143.379 9.91048C143.708 9.72935 143.727 9.62972 144.086 9.62972C144.445 9.62972 144.97 8.80859 145.299 8.98972C145.592 9.15274 145.801 9.60859 146.063 9.89538C146.29 10.1429 145.912 10.8222 146.111 11.1543C146.287 11.4471 147.5 11.2418 147.648 11.592C147.784 11.909 147.15 12.549 147.259 12.9082C147.361 13.2433 147.434 13.5784 147.512 13.9407C147.585 14.2848 148.56 14.5022 148.608 14.8675C148.656 15.2327 148.638 15.6312 148.662 15.9995C148.687 16.3678 147.488 16.7573 147.488 17.1256L147.482 17.1195Z" stroke="#EAE8E4" stroke-width="0.603774" stroke-linejoin="bevel"/>
<path d="M152.804 17.1196C152.804 17.4788 152.336 17.8532 152.291 18.2003C152.246 18.5475 151.636 18.783 151.545 19.1211C151.455 19.4592 152.384 20.1807 152.249 20.5037C152.113 20.8267 151.409 20.9445 151.231 21.2494C151.053 21.5543 151.352 22.2577 151.138 22.5384C150.923 22.8192 150.196 22.7407 149.948 22.9882C149.701 23.2358 148.952 22.8886 148.671 23.103C148.39 23.3173 148.161 23.4773 147.853 23.6554C147.545 23.8335 147.811 25.1981 147.482 25.3339C147.153 25.4698 146.398 24.4011 146.054 24.4916C145.71 24.5822 145.592 25.9045 145.239 25.9498C144.886 25.9951 144.436 24.8509 144.076 24.8509C143.717 24.8509 143.379 25.0864 143.032 25.0411C142.685 24.9958 142.156 25.6298 141.818 25.5392C141.48 25.4486 141.317 24.6879 140.994 24.552C140.671 24.4162 139.877 25.0864 139.572 24.9113C139.267 24.7362 139.53 23.6162 139.252 23.4018C138.975 23.1875 138.048 23.6434 137.797 23.3928C137.547 23.1422 137.541 22.5747 137.326 22.2939C137.112 22.0132 137.556 21.2886 137.378 20.9807C137.199 20.6728 136.028 20.8328 135.892 20.5037C135.756 20.1747 136.104 19.6192 136.013 19.275C135.922 18.9309 136.306 18.4962 136.261 18.143C136.215 17.7898 135.34 17.4728 135.34 17.1135C135.34 16.7543 136.925 16.5218 136.97 16.1777C137.015 15.8335 135.935 15.2932 136.025 14.9581C136.116 14.623 136.07 14.1792 136.206 13.8532C136.342 13.5271 137.405 13.666 137.58 13.3611C137.755 13.0562 137.218 12.2894 137.432 12.0116C137.646 11.7339 137.888 11.42 138.138 11.1724C138.389 10.9249 139.216 11.3566 139.497 11.1392C139.778 10.9218 139.282 9.51505 139.59 9.33694C139.898 9.15882 140.686 9.8441 141.015 9.70825C141.344 9.5724 141.673 9.49392 142.015 9.40033C142.356 9.30675 142.603 8.62146 142.956 8.57618C143.31 8.53089 143.723 8.38599 144.079 8.38599C144.436 8.38599 144.861 8.5007 145.206 8.54599C145.55 8.59127 145.888 9.00486 146.226 9.09542C146.564 9.18599 146.809 9.59957 147.135 9.73542C147.461 9.87127 148.185 9.29769 148.49 9.47278C148.795 9.64787 148.892 10.2637 149.169 10.4781C149.447 10.6924 149.426 11.269 149.673 11.5166C149.921 11.7641 150.658 11.6192 150.872 11.8969C151.086 12.1747 150.706 12.875 150.881 13.183C151.056 13.4909 151.005 13.8592 151.141 14.1852C151.276 14.5113 151.231 14.8252 151.322 15.1694C151.412 15.5135 152.798 15.6041 152.843 15.9573C152.889 16.3105 152.798 16.7543 152.798 17.1105L152.804 17.1196Z" stroke="#EAE8E4" stroke-width="0.603774" stroke-linejoin="bevel"/>
<path d="M152.167 16.4043C151.63 16.4043 151.63 17.6541 151.089 17.6541C150.549 17.6541 150.552 16.6911 150.012 16.6911C149.471 16.6911 149.474 17.156 148.934 17.156C148.394 17.156 148.397 16.9266 147.856 16.9266C147.316 16.9266 147.316 18.0466 146.779 18.0466C146.241 18.0466 146.241 16.999 145.701 16.999C145.16 16.999 145.16 16.7092 144.623 16.7092C144.086 16.7092 144.083 16.67 143.545 16.67C143.008 16.67 143.005 17.5243 142.468 17.5243C141.93 17.5243 141.927 17.793 141.39 17.793C140.852 17.793 140.849 17.5334 140.312 17.5334C139.775 17.5334 139.772 16.8571 139.234 16.8571C138.697 16.8571 138.694 17.0654 138.157 17.0654C137.619 17.0654 137.616 16.7092 137.076 16.7092C136.535 16.7092 136.535 16.9145 135.995 16.9145" stroke="#EAE8E4" stroke-width="0.603774" stroke-linejoin="bevel"/>
<path d="M143.271 9.03198C143.271 9.56934 144.261 9.56934 144.261 10.1097C144.261 10.6501 143.31 10.6471 143.31 11.1874C143.31 11.7278 143.271 11.7248 143.271 12.2652C143.271 12.8056 143.639 12.8025 143.639 13.3429C143.639 13.8833 143.126 13.8833 143.126 14.4207C143.126 14.958 144.143 14.958 144.143 15.4984C144.143 16.0388 143.829 16.0388 143.829 16.5761C143.829 17.1135 144.88 17.1165 144.88 17.6539C144.88 18.1912 144.744 18.1942 144.744 18.7316C144.744 19.269 144.536 19.272 144.536 19.8093C144.536 20.3467 143.666 20.3497 143.666 20.8871C143.666 21.4244 144.17 21.4275 144.17 21.9648C144.17 22.5022 143.926 22.5052 143.926 23.0425C143.926 23.5799 144.874 23.5829 144.874 24.1233C144.874 24.6637 144.104 24.6637 144.104 25.2041" stroke="#EAE8E4" stroke-width="0.603774" stroke-linejoin="bevel"/>
<path d="M133.297 21.346C133.297 20.8086 132.481 20.8086 132.481 20.2712C132.481 19.7339 132.807 19.7339 132.807 19.1965C132.807 18.6592 133.303 18.6592 133.303 18.1218C133.303 17.5844 132.75 17.5844 132.75 17.0471C132.75 16.5097 132.961 16.5097 132.961 15.9724C132.961 15.435 132.967 15.435 132.967 14.8977C132.967 14.3603 132.847 14.3603 132.847 13.8199C132.847 13.2795 133.037 13.2826 133.037 12.7422" stroke="#EAE8E4" stroke-width="0.603774" stroke-linejoin="bevel"/>
<path d="M153.514 24.7664C153.046 25.035 153.013 24.9807 152.545 25.2494C152.077 25.5181 151.839 25.1045 151.371 25.3762C150.903 25.6479 151.057 25.9105 150.589 26.1792C150.121 26.4479 150.272 26.7135 149.807 26.9822C149.342 27.2509 149.221 27.0486 148.753 27.3203C148.285 27.592 148.312 27.6403 147.845 27.909C147.377 28.1777 147.352 28.1384 146.885 28.4101C146.417 28.6818 146.335 28.543 145.867 28.8116" stroke="#EAE8E4" stroke-width="0.603774" stroke-linejoin="bevel"/>
<path d="M153.366 9.57537C152.901 9.30669 153.085 8.98669 152.621 8.71801C152.156 8.44933 152.129 8.49461 151.664 8.22593C151.199 7.95725 151.196 7.96027 150.731 7.6916C150.266 7.42292 150.245 7.45914 149.78 7.19046C149.315 6.92178 149.291 6.96103 148.826 6.69235C148.361 6.42367 148.449 6.26971 147.984 6.00103C147.519 5.73235 147.359 6.00707 146.891 5.73839C146.423 5.46971 146.263 5.74744 145.795 5.47876" stroke="#EAE8E4" stroke-width="0.603774" stroke-linejoin="bevel"/>
<path d="M142.06 4.94458C141.592 5.21628 141.631 5.28269 141.163 5.55439C140.695 5.82609 140.78 5.971 140.312 6.2427C139.844 6.5144 139.66 6.19439 139.192 6.46307C138.724 6.73175 139.041 7.28421 138.573 7.55289C138.105 7.82157 137.969 7.58609 137.499 7.85477C137.028 8.12345 137.2 8.41628 136.732 8.68797C136.264 8.95967 136.2 8.84798 135.729 9.11968C135.259 9.39138 135.141 9.18307 134.673 9.45477" stroke="#EAE8E4" stroke-width="0.603774" stroke-linejoin="bevel"/>
<path d="M154.778 21.346C154.778 20.8086 155.717 20.8086 155.717 20.2712C155.717 19.7339 155.775 19.7339 155.775 19.1965C155.775 18.6592 155.409 18.6592 155.409 18.1218C155.409 17.5844 155.231 17.5844 155.231 17.0471C155.231 16.5097 155.316 16.5097 155.316 15.9724C155.316 15.435 155.373 15.435 155.373 14.8977C155.373 14.3603 155.24 14.3603 155.24 13.8199C155.24 13.2795 155.349 13.2826 155.349 12.7422" stroke="#EAE8E4" stroke-width="0.603774" stroke-linejoin="bevel"/>
<path d="M142.079 29.1951C141.608 28.9234 141.964 28.3076 141.493 28.0359C141.022 27.7642 140.983 27.8336 140.512 27.5649C140.041 27.2963 139.857 27.6163 139.386 27.3446C138.915 27.0729 138.924 27.0578 138.456 26.7861C137.988 26.5144 138.103 26.3121 137.632 26.0434C137.161 25.7748 137.049 25.9649 136.581 25.6932C136.114 25.4216 136.301 25.0925 135.83 24.8208C135.359 24.5491 135.187 24.8449 134.716 24.5732" stroke="#EAE8E4" stroke-width="0.603774" stroke-linejoin="bevel"/>
<path d="M141.892 30.0223C141.892 29.6298 141.982 29.2313 142.166 28.9174C142.35 28.6034 142.731 28.4343 143.057 28.2472C143.383 28.06 143.691 28.1083 144.083 28.1083C144.476 28.1083 144.932 27.8245 145.249 28.0087C145.566 28.1928 145.807 28.5943 145.994 28.9204C146.181 29.2464 146.049 29.6328 146.049 30.0223C146.049 30.4117 146.236 30.8434 146.049 31.1574C145.861 31.4713 145.535 31.7883 145.209 31.9755C144.883 32.1626 144.473 32.2592 144.08 32.2592C143.688 32.2592 143.202 32.2713 142.885 32.0902C142.568 31.9091 142.52 31.3566 142.332 31.0306C142.145 30.7045 141.892 30.4117 141.892 30.0192V30.0223Z" stroke="#EAE8E4" stroke-width="0.603774" stroke-linejoin="bevel"/>
<path d="M146.477 4.14152C146.477 4.53397 145.946 4.7936 145.762 5.11058C145.578 5.42756 145.382 5.63284 145.052 5.82303C144.723 6.01322 144.476 6.14906 144.083 6.14906C143.691 6.14906 143.211 6.38454 142.894 6.20039C142.577 6.01624 142.541 5.4668 142.351 5.14076C142.16 4.81473 142.151 4.53397 142.151 4.14152C142.151 3.74907 142.151 3.4502 142.332 3.13322C142.514 2.81624 142.616 2.36341 142.942 2.17624C143.268 1.98907 143.685 1.74756 144.077 1.74756C144.47 1.74756 144.708 2.31812 145.025 2.50228C145.342 2.68643 145.774 2.72869 145.964 3.05472C146.154 3.38076 146.471 3.75209 146.471 4.14454L146.477 4.14152Z" stroke="#EAE8E4" stroke-width="0.603774" stroke-linejoin="bevel"/>
<path d="M135.002 10.5959C135.002 10.9884 135.056 11.4472 134.875 11.7642C134.694 12.0812 134.232 12.2321 133.906 12.4223C133.58 12.6125 133.245 12.9053 132.853 12.9053C132.46 12.9053 132.146 12.5491 131.829 12.368C131.512 12.1869 131.379 11.8819 131.189 11.5559C130.999 11.2299 130.534 10.9884 130.534 10.5959C130.534 10.2035 130.746 9.80195 130.927 9.48497C131.108 9.16799 131.331 8.71818 131.657 8.53101C131.983 8.34384 132.46 8.57326 132.85 8.57326C133.239 8.57326 133.526 8.69704 133.84 8.8812C134.154 9.06535 134.564 9.17402 134.752 9.50006C134.939 9.8261 134.999 10.2065 134.999 10.5989L135.002 10.5959Z" stroke="#EAE8E4" stroke-width="0.603774" stroke-linejoin="bevel"/>
<path d="M157.351 23.4955C157.351 23.888 157.287 24.2412 157.106 24.5582C156.925 24.8752 156.587 25.0291 156.261 25.2193C155.935 25.4095 155.657 25.8533 155.268 25.8533C154.878 25.8533 154.477 25.5967 154.163 25.4125C153.849 25.2284 153.49 24.9597 153.302 24.6337C153.115 24.3076 153.173 23.891 153.173 23.4986C153.173 23.1061 153.082 22.6563 153.266 22.3423C153.45 22.0284 153.861 21.814 154.187 21.6238C154.513 21.4337 154.878 21.4186 155.271 21.4186C155.663 21.4186 156.158 21.2314 156.475 21.4155C156.792 21.5997 157.049 22.0404 157.236 22.3665C157.423 22.6925 157.357 23.1091 157.357 23.5016L157.351 23.4955Z" stroke="#EAE8E4" stroke-width="0.603774" stroke-linejoin="bevel"/>
<path d="M157.465 10.5929C157.465 10.9853 157.326 11.3627 157.145 11.6767C156.964 11.9906 156.629 12.1959 156.3 12.3831C155.971 12.5703 155.657 12.9959 155.264 12.9959C154.872 12.9959 154.401 12.8178 154.084 12.6336C153.767 12.4495 153.589 11.9906 153.402 11.6646C153.215 11.3386 153.209 10.9793 153.209 10.5899C153.209 10.2004 153.19 9.81403 153.372 9.49705C153.553 9.18007 153.897 8.97176 154.223 8.78459C154.549 8.59742 154.875 8.53101 155.264 8.53101C155.654 8.53101 155.904 8.75138 156.218 8.93553C156.532 9.11968 157.045 9.12572 157.236 9.45176C157.426 9.77779 157.465 10.1974 157.465 10.5899V10.5929Z" stroke="#EAE8E4" stroke-width="0.603774" stroke-linejoin="bevel"/>
<path d="M135.229 23.4955C135.229 23.888 135.096 24.371 134.915 24.685C134.734 24.9989 134.347 25.328 134.021 25.5182C133.695 25.7084 133.245 25.9046 132.853 25.9046C132.46 25.9046 132.113 25.5091 131.796 25.328C131.479 25.1468 131.289 24.8359 131.099 24.5099C130.909 24.1838 130.625 23.888 130.625 23.4985C130.625 23.1091 130.77 22.7167 130.951 22.3997C131.132 22.0827 131.531 21.9589 131.857 21.7717C132.183 21.5846 132.46 21.4578 132.853 21.4578C133.245 21.4578 133.707 21.2857 134.024 21.4699C134.341 21.654 134.664 22.0163 134.851 22.3423C135.039 22.6684 135.229 23.1061 135.229 23.4955Z" stroke="#EAE8E4" stroke-width="0.603774" stroke-linejoin="bevel"/>
<path d="M153.411 22.5023C152.783 22.1401 152.795 22.1189 152.167 21.7537" stroke="#EAE8E4" stroke-width="0.603774" stroke-linejoin="bevel"/>
<path d="M136.028 12.4284C135.382 12.0571 135.391 12.042 134.748 11.6707" stroke="#EAE8E4" stroke-width="0.603774" stroke-linejoin="bevel"/>
<path d="M136.007 21.7778C135.588 22.0193 135.17 22.2619 134.751 22.5054" stroke="#EAE8E4" stroke-width="0.603774" stroke-linejoin="bevel"/>
<path d="M153.42 11.6768C152.774 12.0481 152.792 12.0783 152.149 12.4526" stroke="#EAE8E4" stroke-width="0.603774" stroke-linejoin="bevel"/>
<path d="M144.086 27.8728C144.086 27.3938 144.086 26.9148 144.086 26.4358" stroke="#EAE8E4" stroke-width="0.603774" stroke-linejoin="bevel"/>
<path d="M144.041 7.80036C144.041 7.04564 144.132 7.04564 144.132 6.29395" stroke="#EAE8E4" stroke-width="0.603774" stroke-linejoin="bevel"/>
<path d="M153.423 12.1294C152.792 12.3166 152.789 12.3135 152.158 12.4977" stroke="#EAE8E4" stroke-width="0.603774" stroke-linejoin="bevel"/>
<path d="M179.89 17.0476C179.89 21.5125 178.199 29.1985 175.932 25.1352C173.746 25.1352 171.878 24.1299 171.974 17.0476C171.974 12.5827 173.623 14.1133 175.932 8.96006C178.118 8.96006 180.038 7.79176 179.89 17.0476Z" stroke="#EAE8E4" stroke-width="1.50943" stroke-linejoin="bevel"/>
<path d="M184.017 17.0475C184.017 21.5125 181.46 25.8566 175.93 25.1351C171.465 25.1351 167.48 26.9857 167.842 17.0475C167.842 12.5826 171.619 15.1275 175.93 8.96C180.395 8.96 184.304 8.6883 184.017 17.0475Z" stroke="#EAE8E4" stroke-width="1.50943" stroke-linejoin="bevel"/>
<path d="M184.017 17.0476C184.017 17.0476 166.674 19.5925 167.845 17.0476" stroke="#EAE8E4" stroke-width="1.50943" stroke-linejoin="bevel"/>
<path d="M175.933 8.95996C175.933 8.95996 175.667 16.16 175.933 25.132" stroke="#EAE8E4" stroke-width="1.50943" stroke-linejoin="bevel"/>
<path d="M164.751 21.274C164.751 21.274 165.699 5.29811 164.751 12.6732" stroke="#EAE8E4" stroke-width="1.50943" stroke-linejoin="bevel"/>
<path d="M185.251 24.4983C185.251 24.4983 176.946 30.6719 177.761 28.8213" stroke="#EAE8E4" stroke-width="1.50943" stroke-linejoin="bevel"/>
<path d="M185.255 9.43714C185.255 9.43714 177.155 10.9737 177.801 5.13525" stroke="#EAE8E4" stroke-width="1.50943" stroke-linejoin="bevel"/>
<path d="M174.064 5.13525C174.064 5.13525 165.457 10.3066 166.571 9.4613" stroke="#EAE8E4" stroke-width="1.50943" stroke-linejoin="bevel"/>
<path d="M187.111 21.274C187.111 21.274 186.45 7.81282 187.111 12.6702" stroke="#EAE8E4" stroke-width="1.50943" stroke-linejoin="bevel"/>
<path d="M174.1 28.8212C174.1 28.8212 165.853 27.1095 166.574 24.4771" stroke="#EAE8E4" stroke-width="1.50943" stroke-linejoin="bevel"/>
<path d="M173.78 29.9503C173.78 28.7639 174.731 31.3058 175.929 27.8009C177.116 27.8009 178.233 26.536 178.079 29.9503C178.079 31.1367 177.837 34.4756 175.929 32.0998C174.743 32.0998 173.276 27.2122 173.78 29.9503Z" stroke="#EAE8E4" stroke-width="1.50943" stroke-linejoin="bevel"/>
<path d="M178.082 4.06949C178.082 5.25591 176.096 2.08308 175.933 6.21893C174.746 6.21893 174.028 8.28082 173.783 4.06949C173.783 2.88308 174.9 -0.485975 175.933 1.92006C177.119 1.92006 179.081 7.02497 178.082 4.06949Z" stroke="#EAE8E4" stroke-width="1.50943" stroke-linejoin="bevel"/>
<path d="M166.852 10.5238C166.852 11.7102 165.726 17.0204 164.702 12.6732C163.516 12.6732 163.443 14.3336 162.553 10.5238C162.553 9.33736 162.701 -0.338112 164.702 8.37434C165.889 8.37434 167.673 18.2219 166.852 10.5238Z" stroke="#EAE8E4" stroke-width="1.50943" stroke-linejoin="bevel"/>
<path d="M189.264 23.4234C189.264 24.6098 188.971 34.0588 187.114 25.5728C185.928 25.5728 184.373 17.9351 184.965 23.4234C184.965 22.2369 187.054 15.7343 187.114 21.2739C188.301 21.2739 189.092 26.7683 189.264 23.4234Z" stroke="#EAE8E4" stroke-width="1.50943" stroke-linejoin="bevel"/>
<path d="M189.264 10.5207C189.264 11.7071 189.064 15.6769 187.114 12.6702C185.928 12.6702 183.8 19.7162 184.965 10.5207C184.965 9.33429 185.104 8.80901 187.114 8.37128C188.301 8.37128 190.015 4.74863 189.264 10.5207Z" stroke="#EAE8E4" stroke-width="1.50943" stroke-linejoin="bevel"/>
<path d="M166.852 23.4234C166.852 24.6098 166.846 28.1479 164.702 25.5728C163.516 25.5728 163.627 21.2528 162.553 23.4234C162.553 22.2369 162.776 29.0083 164.702 21.2739C165.889 21.2739 166.275 26.0075 166.852 23.4234Z" stroke="#EAE8E4" stroke-width="1.50943" stroke-linejoin="bevel"/>
<path d="M185.275 22.4062C185.275 22.4062 184.321 28.3805 184.02 21.6816" stroke="#EAE8E4" stroke-width="1.50943" stroke-linejoin="bevel"/>
<path d="M167.875 12.3594C167.875 12.3594 166.637 2.62653 166.586 11.6167" stroke="#EAE8E4" stroke-width="1.50943" stroke-linejoin="bevel"/>
<path d="M167.842 21.6785C167.842 21.6785 166.151 29.6211 166.586 22.403" stroke="#EAE8E4" stroke-width="1.50943" stroke-linejoin="bevel"/>
<path d="M185.276 11.6167C185.276 11.6167 183.377 20.5254 183.987 12.3593" stroke="#EAE8E4" stroke-width="1.50943" stroke-linejoin="bevel"/>
<path d="M175.932 27.8009C175.932 27.8009 174.803 17.8839 175.932 26.3639" stroke="#EAE8E4" stroke-width="1.50943" stroke-linejoin="bevel"/>
<path d="M175.933 7.72834C175.933 7.72834 177.038 13.5487 175.933 6.22192" stroke="#EAE8E4" stroke-width="1.50943" stroke-linejoin="bevel"/>
<path d="M185.252 11.988C185.252 11.988 183.86 17.1805 183.987 12.3594" stroke="#EAE8E4" stroke-width="1.50943" stroke-linejoin="bevel"/>
<path d="M211.012 19.4732C210.106 20.9826 208.898 22.1901 208.295 24.0015C207.993 25.8128 205.578 24.9071 204.672 23.6996C202.861 21.2845 202.257 18.2656 204.068 15.5486C205.578 13.4354 207.087 11.926 207.691 9.5109C208.295 8.30335 209.804 8.90712 210.71 9.5109C214.031 11.926 213.729 16.7562 211.012 19.4732Z" stroke="#EAE8E4" stroke-width="0.603774" stroke-linejoin="bevel"/>
<path d="M215.54 19.7748C214.936 22.4918 212.521 24.3031 210.106 24.9069C207.389 25.5106 204.672 24.9069 202.559 23.0956C201.049 21.5861 199.842 19.171 199.842 17.0578C199.842 15.2465 200.446 13.7371 201.351 12.2276C203.163 10.1144 205.88 8.60499 208.898 8.90687C212.521 9.51065 215.54 12.2276 216.144 15.8503C216.446 17.3597 216.144 18.5673 215.54 19.7748Z" stroke="#EAE8E4" stroke-width="0.603774" stroke-linejoin="bevel"/>
<path d="M216.144 17.0579C214.936 18.8693 213.125 19.473 211.012 19.1711C208.898 18.8693 208.295 16.756 206.785 15.2466C204.672 13.4353 201.653 15.2466 199.842 17.0579" stroke="#EAE8E4" stroke-width="0.603774" stroke-linejoin="bevel"/>
<path d="M207.993 8.90698C209.502 10.1145 210.71 11.624 210.408 14.0391C210.106 15.2466 209.804 16.1523 208.597 16.756C207.389 17.3598 206.182 18.2655 205.88 19.7749C205.578 21.8881 206.182 23.6994 207.993 25.2089" stroke="#EAE8E4" stroke-width="0.603774" stroke-linejoin="bevel"/>
<path d="M196.823 21.2843C194.71 19.7748 196.219 17.3597 198.031 15.8503C198.634 14.9446 197.729 13.7371 196.823 12.5295" stroke="#EAE8E4" stroke-width="0.603774" stroke-linejoin="bevel"/>
<path d="M217.351 24.3032C216.747 27.0202 214.332 27.0202 212.219 26.4164C211.313 26.1145 210.407 27.3221 209.804 28.8315" stroke="#EAE8E4" stroke-width="0.603774" stroke-linejoin="bevel"/>
<path d="M217.351 9.51069C216.143 9.81258 214.634 10.1145 214.332 8.60503C213.426 6.49183 212.823 4.37862 209.804 4.98239" stroke="#EAE8E4" stroke-width="0.603774" stroke-linejoin="bevel"/>
<path d="M206.181 4.98242C205.879 6.18997 205.275 7.39752 203.766 7.39752C202.86 7.39752 201.955 6.79374 201.049 6.79374C199.841 7.09563 199.238 8.00129 198.634 9.51072" stroke="#EAE8E4" stroke-width="0.603774" stroke-linejoin="bevel"/>
<path d="M219.163 21.2843C217.653 19.4729 218.257 17.3597 220.37 15.5484C220.974 14.9446 220.068 13.7371 219.163 12.5295" stroke="#EAE8E4" stroke-width="0.603774" stroke-linejoin="bevel"/>
<path d="M206.181 28.8315C204.973 29.1333 203.766 29.4352 202.86 27.9258C202.558 27.0201 202.558 26.1145 202.256 25.2088C201.653 24.3031 200.143 24.0013 198.634 24.3031" stroke="#EAE8E4" stroke-width="0.603774" stroke-linejoin="bevel"/>
<path d="M206.181 29.1335C206.483 28.5297 207.087 27.624 207.993 27.624C209.502 27.624 210.709 29.1335 210.106 30.6429C209.804 31.2467 209.2 32.1523 208.294 32.1523C207.691 32.1523 206.785 31.8504 206.483 31.5486C206.181 30.9448 205.577 30.341 206.181 29.1335Z" stroke="#EAE8E4" stroke-width="0.603774" stroke-linejoin="bevel"/>
<path d="M210.106 4.6806C209.502 6.19004 207.691 6.49192 206.484 5.58626C205.578 4.6806 205.88 2.86928 207.087 1.96362C208.295 1.66173 209.502 1.96362 210.106 3.17117V4.6806Z" stroke="#EAE8E4" stroke-width="0.603774" stroke-linejoin="bevel"/>
<path d="M198.936 11.3221C198.03 12.5297 196.521 13.4353 195.313 11.9259C194.71 11.0202 194.106 9.81268 195.313 8.90702C195.917 8.30325 196.823 8.00136 197.728 8.30325C198.936 8.90702 199.238 10.1146 198.936 11.3221Z" stroke="#EAE8E4" stroke-width="0.603774" stroke-linejoin="bevel"/>
<path d="M221.276 24.0014C220.974 24.9071 220.069 25.2089 219.465 25.5108C218.861 25.8127 218.257 25.5108 217.654 24.9071C216.748 23.6995 217.05 22.1901 218.257 21.2844C219.465 20.9825 220.672 21.2844 221.276 22.492V24.0014Z" stroke="#EAE8E4" stroke-width="0.603774" stroke-linejoin="bevel"/>
<path d="M221.275 11.3221C220.37 12.5297 219.162 13.1334 217.653 11.9259C216.747 11.0202 217.049 9.81268 217.653 8.90702C218.256 8.30325 219.162 8.00136 220.068 8.30325C221.275 8.90702 221.577 10.1146 221.275 11.3221Z" stroke="#EAE8E4" stroke-width="0.603774" stroke-linejoin="bevel"/>
<path d="M198.937 24.0014C198.635 24.9071 197.729 25.2089 196.823 25.5108C195.314 25.8127 194.408 23.6995 194.71 22.492C195.314 21.2844 196.522 20.9825 197.729 21.2844C198.635 21.8882 199.238 22.7939 198.937 24.0014Z" stroke="#EAE8E4" stroke-width="0.603774" stroke-linejoin="bevel"/>
<path d="M217.351 22.19C217.049 21.8881 216.445 21.8881 216.144 21.5862" stroke="#EAE8E4" stroke-width="0.603774" stroke-linejoin="bevel"/>
<path d="M200.143 12.2278C199.539 11.9259 199.238 11.9259 198.634 11.624" stroke="#EAE8E4" stroke-width="0.603774" stroke-linejoin="bevel"/>
<path d="M199.841 21.5862C199.539 21.8881 198.936 21.8881 198.634 22.19" stroke="#EAE8E4" stroke-width="0.603774" stroke-linejoin="bevel"/>
<path d="M217.351 11.624C217.049 11.9259 216.445 11.9259 216.144 12.2278" stroke="#EAE8E4" stroke-width="0.603774" stroke-linejoin="bevel"/>
<path d="M207.993 27.6241V26.4165" stroke="#EAE8E4" stroke-width="0.603774" stroke-linejoin="bevel"/>
<path d="M207.993 7.69938V6.18994" stroke="#EAE8E4" stroke-width="0.603774" stroke-linejoin="bevel"/>
<path d="M217.351 11.9258C217.049 11.9258 216.445 12.2277 216.144 12.2277" stroke="#EAE8E4" stroke-width="0.603774" stroke-linejoin="bevel"/>
<path d="M244.629 17.0412C244.629 17.4548 243.322 17.814 243.292 18.2095C243.262 18.605 244.5 19.1755 244.439 19.565C244.376 19.9786 243.029 20.1235 242.936 20.5069C242.836 20.9174 243.956 21.6782 243.823 22.0465C243.679 22.448 242.335 22.3031 242.157 22.6442C241.955 23.0306 242.812 24.0782 242.574 24.371C242.296 24.7152 241.152 24.0329 240.835 24.2291C240.469 24.4555 240.424 25.7718 240.026 25.7718C239.627 25.7718 239.579 24.4525 239.217 24.2291C238.9 24.0329 237.755 24.7122 237.478 24.371C237.239 24.0782 238.097 23.0276 237.894 22.6442C237.716 22.3031 236.373 22.448 236.228 22.0465C236.095 21.6812 237.215 20.9174 237.115 20.5069C237.022 20.1265 235.675 19.9786 235.612 19.565C235.552 19.1725 236.789 18.6231 236.759 18.2095C236.729 17.7959 235.422 17.4548 235.422 17.0382C235.422 16.6216 236.729 16.2654 236.759 15.8699C236.789 15.4744 235.552 14.9038 235.612 14.5144C235.675 14.1008 237.022 13.9559 237.115 13.5725C237.215 13.162 236.095 12.4012 236.228 12.0329C236.373 11.6314 237.716 11.7763 237.894 11.4352C238.097 11.0488 237.239 10.0012 237.478 9.70838C237.755 9.36423 238.9 10.0465 239.217 9.85026C239.582 9.62385 239.627 8.30762 240.026 8.30762C240.424 8.30762 240.472 9.62687 240.835 9.85026C241.152 10.0465 242.296 9.36724 242.574 9.70838C242.812 10.0012 241.955 11.0518 242.157 11.4352C242.335 11.7763 243.679 11.6314 243.823 12.0329C243.956 12.3982 242.836 13.162 242.936 13.5725C243.029 13.9529 244.376 14.1008 244.439 14.5144C244.5 14.9069 243.262 15.4563 243.292 15.8699C243.322 16.2835 244.629 16.6246 244.629 17.0412Z" stroke="#EAE8E4" stroke-width="0.603774" stroke-linejoin="bevel"/>
<path d="M248.759 17.0412C248.759 17.5816 247.425 17.9831 247.325 18.4933C247.226 19.0035 248.297 19.9001 248.098 20.3831C247.899 20.8661 246.507 20.7363 246.214 21.174C245.921 21.6118 246.577 22.8435 246.202 23.2178C245.828 23.5922 244.602 22.934 244.158 23.2299C243.715 23.5257 243.86 24.9084 243.367 25.1137C242.875 25.3189 242.003 24.2382 241.478 24.3408C240.952 24.4435 240.566 25.7748 240.026 25.7748C239.485 25.7748 239.084 24.4405 238.574 24.3408C238.063 24.2412 237.167 25.3129 236.684 25.1137C236.201 24.9144 236.33 23.5227 235.893 23.2299C235.455 22.9371 234.223 23.5922 233.849 23.2178C233.475 22.8435 234.133 21.6178 233.837 21.174C233.541 20.7303 232.158 20.8752 231.953 20.3831C231.748 19.891 232.829 19.0186 232.726 18.4933C232.623 17.968 231.292 17.5816 231.292 17.0412C231.292 16.5008 232.626 16.0993 232.726 15.5891C232.826 15.0789 231.754 14.1823 231.953 13.6993C232.152 13.2163 233.544 13.3461 233.837 12.9084C234.13 12.4706 233.475 11.2389 233.849 10.8646C234.223 10.4903 235.449 11.1484 235.893 10.8525C236.337 10.5567 236.192 9.17403 236.684 8.96875C237.176 8.76347 238.048 9.84422 238.574 9.74158C239.099 9.63894 239.485 8.30762 240.026 8.30762C240.566 8.30762 240.967 9.64196 241.478 9.74158C241.988 9.8412 242.884 8.7695 243.367 8.96875C243.85 9.168 243.721 10.5597 244.158 10.8525C244.596 11.1454 245.828 10.4903 246.202 10.8646C246.577 11.2389 245.918 12.4646 246.214 12.9084C246.51 13.3522 247.893 13.2072 248.098 13.6993C248.303 14.1914 247.223 15.0638 247.325 15.5891C247.428 16.1144 248.759 16.5008 248.759 17.0412Z" stroke="#EAE8E4" stroke-width="0.603774" stroke-linejoin="bevel"/>
<path d="M248.11 17.6872C247.099 17.6872 247.099 16.3921 246.091 16.3921C245.083 16.3921 245.079 17.6872 244.071 17.6872C243.063 17.6872 243.06 16.3921 242.052 16.3921C241.043 16.3921 241.04 17.6872 240.029 17.6872C239.018 17.6872 239.018 16.3921 238.009 16.3921C237.001 16.3921 236.998 17.6872 235.987 17.6872C234.975 17.6872 234.975 16.3921 233.964 16.3921C232.953 16.3921 232.953 17.6872 231.941 17.6872" stroke="#EAE8E4" stroke-width="0.603774" stroke-linejoin="bevel"/>
<path d="M240.671 8.95361C240.671 9.96493 239.376 9.96493 239.376 10.9732C239.376 11.9815 240.671 11.9846 240.671 12.9929C240.671 14.0012 239.376 14.0042 239.376 15.0125C239.376 16.0208 240.671 16.0238 240.671 17.0351C240.671 18.0464 239.376 18.0464 239.376 19.0547C239.376 20.063 240.671 20.0661 240.671 21.0774C240.671 22.0887 239.376 22.0887 239.376 23.1C239.376 24.1113 240.671 24.1113 240.671 25.1227" stroke="#EAE8E4" stroke-width="0.603774" stroke-linejoin="bevel"/>
<path d="M228.499 21.2676C228.499 20.7302 229.187 20.7302 229.187 20.1929C229.187 19.6555 228.499 19.6555 228.499 19.1182C228.499 18.5808 229.187 18.5808 229.187 18.0434C229.187 17.5061 228.499 17.5061 228.499 16.9687C228.499 16.4314 229.187 16.4314 229.187 15.894C229.187 15.3566 228.499 15.3566 228.499 14.8193C228.499 14.2819 229.187 14.2819 229.187 13.7415C229.187 13.2012 228.499 13.2042 228.499 12.6638" stroke="#EAE8E4" stroke-width="0.603774" stroke-linejoin="bevel"/>
<path d="M249.493 24.7513C249.025 25.02 248.726 24.5038 248.258 24.7725C247.79 25.0411 248.089 25.5604 247.621 25.8321C247.153 26.1038 246.854 25.5815 246.386 25.8532C245.918 26.1249 246.217 26.6411 245.749 26.9128C245.281 27.1845 244.983 26.6653 244.515 26.934C244.047 27.2026 244.346 27.7219 243.878 27.9936C243.41 28.2653 243.111 27.746 242.64 28.0147C242.169 28.2834 242.471 28.8057 242.003 29.0743" stroke="#EAE8E4" stroke-width="0.603774" stroke-linejoin="bevel"/>
<path d="M249.197 9.69017C248.732 9.42149 249.028 8.90525 248.563 8.63657C248.098 8.3679 247.799 8.88413 247.334 8.61545C246.869 8.34677 247.168 7.83054 246.703 7.56186C246.238 7.29318 245.939 7.80941 245.474 7.54073C245.009 7.27205 245.305 6.75582 244.84 6.48714C244.376 6.21846 244.077 6.7347 243.612 6.46602C243.147 6.19734 243.443 5.68111 242.978 5.40941C242.513 5.13771 242.214 5.65696 241.746 5.38828" stroke="#EAE8E4" stroke-width="0.603774" stroke-linejoin="bevel"/>
<path d="M238.304 5.38819C237.836 5.65989 237.538 5.14065 237.07 5.40933C236.602 5.67801 236.901 6.19725 236.433 6.46894C235.965 6.74064 235.666 6.21838 235.198 6.49008C234.73 6.76178 235.029 7.27801 234.561 7.5497C234.093 7.8214 233.794 7.30215 233.326 7.57083C232.858 7.83951 233.157 8.36178 232.689 8.63045C232.221 8.89913 231.919 8.38291 231.451 8.65159C230.984 8.92027 231.282 9.44254 230.814 9.71121" stroke="#EAE8E4" stroke-width="0.603774" stroke-linejoin="bevel"/>
<path d="M250.86 21.2676C250.86 20.7302 251.549 20.7302 251.549 20.1929C251.549 19.6555 250.86 19.6555 250.86 19.1182C250.86 18.5808 251.549 18.5808 251.549 18.0434C251.549 17.5061 250.86 17.5061 250.86 16.9687C250.86 16.4314 251.549 16.4314 251.549 15.894C251.549 15.3566 250.86 15.3566 250.86 14.8193C250.86 14.2819 251.549 14.2819 251.549 13.7415C251.549 13.2012 250.86 13.2042 250.86 12.6638" stroke="#EAE8E4" stroke-width="0.603774" stroke-linejoin="bevel"/>
<path d="M238.043 29.0743C237.572 28.8026 237.874 28.2803 237.403 28.0116C236.932 27.743 236.633 28.2622 236.162 27.9905C235.691 27.7188 235.993 27.1996 235.525 26.9279C235.057 26.6562 234.755 27.1784 234.284 26.9067C233.813 26.635 234.115 26.1128 233.644 25.8411C233.173 25.5694 232.874 26.0916 232.403 25.8199C231.932 25.5482 232.234 25.026 231.763 24.7543C231.292 24.4826 230.99 25.0049 230.52 24.7332" stroke="#EAE8E4" stroke-width="0.603774" stroke-linejoin="bevel"/>
<path d="M237.701 29.9438C237.701 29.7989 238.057 29.6933 238.082 29.5574C238.106 29.4216 237.822 29.1831 237.876 29.0533C237.931 28.9234 238.299 28.9597 238.377 28.8419C238.456 28.7242 238.281 28.3982 238.38 28.2985C238.48 28.1989 238.806 28.374 238.924 28.2985C239.042 28.2231 239.002 27.8517 239.135 27.7974C239.268 27.7431 239.497 28.0299 239.639 28.0027C239.781 27.9755 239.881 27.6223 240.026 27.6223C240.171 27.6223 240.276 27.9785 240.412 28.0027C240.548 28.0268 240.786 27.7431 240.916 27.7974C241.046 27.8517 241.01 28.22 241.128 28.2985C241.245 28.377 241.571 28.2019 241.671 28.3016C241.771 28.4012 241.596 28.7272 241.671 28.845C241.746 28.9627 242.118 28.9234 242.172 29.0563C242.226 29.1891 241.94 29.4185 241.967 29.5604C241.994 29.7023 242.347 29.8019 242.347 29.9468C242.347 30.0918 241.991 30.1974 241.967 30.3333C241.943 30.4691 242.226 30.7076 242.172 30.8374C242.118 30.9672 241.749 30.931 241.671 31.0487C241.593 31.1665 241.768 31.4925 241.668 31.5921C241.568 31.6917 241.242 31.5167 241.125 31.5921C241.007 31.6676 241.046 32.0389 240.913 32.0933C240.78 32.1476 240.551 31.8608 240.409 31.888C240.267 31.9151 240.168 32.2683 240.023 32.2683C239.878 32.2683 239.772 31.9121 239.636 31.888C239.5 31.8638 239.262 32.1476 239.132 32.0933C239.002 32.0389 239.039 31.6706 238.921 31.5921C238.803 31.5136 238.477 31.6887 238.377 31.5891C238.278 31.4895 238.453 31.1634 238.377 31.0457C238.302 30.928 237.931 30.9672 237.876 30.8344C237.822 30.7016 238.109 30.4721 238.082 30.3302C238.054 30.1884 237.701 30.0887 237.701 29.9438Z" stroke="#EAE8E4" stroke-width="0.603774" stroke-linejoin="bevel"/>
<path d="M242.347 4.06305C242.347 4.20795 241.991 4.31361 241.967 4.44946C241.943 4.58531 242.226 4.82381 242.172 4.95362C242.118 5.08343 241.749 5.0472 241.671 5.16493C241.593 5.28267 241.768 5.60871 241.668 5.70833C241.568 5.80796 241.242 5.63286 241.125 5.70833C241.007 5.78381 241.046 6.15513 240.913 6.20947C240.78 6.26381 240.551 5.97701 240.409 6.00418C240.267 6.03135 240.168 6.38456 240.023 6.38456C239.878 6.38456 239.772 6.02833 239.636 6.00418C239.5 5.98003 239.262 6.26381 239.132 6.20947C239.002 6.15513 239.039 5.78683 238.921 5.70833C238.803 5.62984 238.477 5.80494 238.377 5.70531C238.278 5.60569 238.453 5.27966 238.377 5.16192C238.302 5.04418 237.931 5.08343 237.876 4.9506C237.822 4.81777 238.109 4.58834 238.082 4.44645C238.054 4.30456 237.701 4.20494 237.701 4.06004C237.701 3.91513 238.057 3.80947 238.082 3.67362C238.106 3.53777 237.822 3.29928 237.876 3.16947C237.931 3.03965 238.299 3.07588 238.377 2.95814C238.456 2.84041 238.281 2.51437 238.38 2.41475C238.48 2.31513 238.806 2.49022 238.924 2.41475C239.042 2.33928 239.002 1.96796 239.135 1.91362C239.268 1.85928 239.497 2.14607 239.639 2.1189C239.781 2.09173 239.881 1.73853 240.026 1.73853C240.171 1.73853 240.276 2.09475 240.412 2.1189C240.548 2.14305 240.786 1.85928 240.916 1.91362C241.046 1.96796 241.01 2.33626 241.128 2.41475C241.245 2.49324 241.571 2.31815 241.671 2.41777C241.771 2.51739 241.596 2.84343 241.671 2.96116C241.746 3.0789 242.118 3.03966 242.172 3.17249C242.226 3.30532 241.94 3.53475 241.967 3.67663C241.994 3.81852 242.347 3.91814 242.347 4.06305Z" stroke="#EAE8E4" stroke-width="0.603774" stroke-linejoin="bevel"/>
<path d="M231.117 10.5174C231.117 10.6623 230.761 10.768 230.736 10.9038C230.712 11.0397 230.996 11.2782 230.942 11.408C230.887 11.5378 230.519 11.5016 230.44 11.6193C230.362 11.737 230.537 12.0631 230.437 12.1627C230.338 12.2623 230.012 12.0872 229.894 12.1627C229.776 12.2382 229.816 12.6095 229.683 12.6638C229.55 12.7182 229.321 12.4314 229.179 12.4585C229.037 12.4857 228.937 12.8389 228.792 12.8389C228.647 12.8389 228.542 12.4827 228.406 12.4585C228.27 12.4344 228.031 12.7182 227.902 12.6638C227.772 12.6095 227.808 12.2412 227.69 12.1627C227.573 12.0842 227.247 12.2593 227.147 12.1597C227.047 12.06 227.222 11.734 227.147 11.6163C227.071 11.4985 226.7 11.5378 226.646 11.405C226.591 11.2721 226.878 11.0427 226.851 10.9008C226.824 10.7589 226.471 10.6593 226.471 10.5144C226.471 10.3695 226.827 10.2638 226.851 10.128C226.875 9.99212 226.591 9.75363 226.646 9.62382C226.7 9.49401 227.068 9.53023 227.147 9.4125C227.225 9.29476 227.05 8.96873 227.15 8.8691C227.25 8.76948 227.576 8.94458 227.693 8.8691C227.811 8.79363 227.772 8.42231 227.905 8.36797C228.037 8.31363 228.267 8.60042 228.409 8.57325C228.551 8.54608 228.65 8.19287 228.795 8.19287C228.94 8.19287 229.046 8.5491 229.182 8.57325C229.317 8.5974 229.556 8.31363 229.686 8.36797C229.816 8.42231 229.779 8.79061 229.897 8.8691C230.015 8.94759 230.341 8.77249 230.44 8.87212C230.54 8.97174 230.365 9.29778 230.44 9.41552C230.516 9.53325 230.887 9.494 230.942 9.62683C230.996 9.75966 230.709 9.9891 230.736 10.131C230.764 10.2729 231.117 10.3725 231.117 10.5174Z" stroke="#EAE8E4" stroke-width="0.603774" stroke-linejoin="bevel"/>
<path d="M253.529 23.4171C253.529 23.562 253.173 23.6676 253.148 23.8035C253.124 23.9393 253.408 24.1778 253.354 24.3076C253.299 24.4374 252.931 24.4012 252.853 24.5189C252.774 24.6367 252.949 24.9627 252.85 25.0623C252.75 25.162 252.424 24.9869 252.306 25.0623C252.188 25.1378 252.228 25.5091 252.095 25.5635C251.962 25.6178 251.733 25.331 251.591 25.3582C251.449 25.3854 251.349 25.7386 251.204 25.7386C251.059 25.7386 250.954 25.3823 250.818 25.3582C250.682 25.334 250.444 25.6178 250.314 25.5635C250.184 25.5091 250.22 25.1408 250.102 25.0623C249.985 24.9838 249.659 25.1589 249.559 25.0593C249.459 24.9597 249.635 24.6337 249.559 24.5159C249.484 24.3982 249.112 24.4374 249.058 24.3046C249.004 24.1718 249.29 23.9423 249.263 23.8005C249.236 23.6586 248.883 23.5589 248.883 23.414C248.883 23.2691 249.239 23.1635 249.263 23.0276C249.287 22.8918 249.004 22.6533 249.058 22.5235C249.112 22.3937 249.481 22.4299 249.559 22.3122C249.638 22.1944 249.462 21.8684 249.562 21.7688C249.662 21.6691 249.988 21.8442 250.105 21.7688C250.223 21.6933 250.184 21.322 250.317 21.2676C250.45 21.2133 250.679 21.5001 250.821 21.4729C250.963 21.4457 251.062 21.0925 251.207 21.0925C251.352 21.0925 251.458 21.4488 251.594 21.4729C251.73 21.4971 251.968 21.2133 252.098 21.2676C252.228 21.322 252.191 21.6903 252.309 21.7688C252.427 21.8472 252.753 21.6722 252.853 21.7718C252.952 21.8714 252.777 22.1974 252.853 22.3152C252.928 22.4329 253.299 22.3937 253.354 22.5265C253.408 22.6593 253.121 22.8888 253.148 23.0306C253.176 23.1725 253.529 23.2722 253.529 23.4171Z" stroke="#EAE8E4" stroke-width="0.603774" stroke-linejoin="bevel"/>
<path d="M253.529 10.5145C253.529 10.6594 253.173 10.765 253.148 10.9009C253.124 11.0367 253.408 11.2752 253.354 11.405C253.299 11.5348 252.931 11.4986 252.853 11.6164C252.774 11.7341 252.949 12.0601 252.85 12.1598C252.75 12.2594 252.424 12.0843 252.306 12.1598C252.188 12.2352 252.228 12.6065 252.095 12.6609C251.962 12.7152 251.733 12.4284 251.591 12.4556C251.449 12.4828 251.349 12.836 251.204 12.836C251.059 12.836 250.954 12.4798 250.818 12.4556C250.682 12.4315 250.444 12.7152 250.314 12.6609C250.184 12.6065 250.22 12.2382 250.102 12.1598C249.985 12.0813 249.659 12.2564 249.559 12.1567C249.459 12.0571 249.635 11.7311 249.559 11.6133C249.484 11.4956 249.112 11.5348 249.058 11.402C249.004 11.2692 249.29 11.0398 249.263 10.8979C249.236 10.756 248.883 10.6564 248.883 10.5115C248.883 10.3665 249.239 10.2609 249.263 10.125C249.287 9.98919 249.004 9.75069 249.058 9.62088C249.112 9.49107 249.481 9.5273 249.559 9.40957C249.638 9.29183 249.462 8.96579 249.562 8.86616C249.662 8.76654 249.988 8.94164 250.105 8.86616C250.223 8.79069 250.184 8.41937 250.317 8.36503C250.45 8.31069 250.679 8.59748 250.821 8.57031C250.963 8.54314 251.062 8.18994 251.207 8.18994C251.352 8.18994 251.458 8.54616 251.594 8.57031C251.73 8.59446 251.968 8.31069 252.098 8.36503C252.228 8.41937 252.191 8.78767 252.309 8.86616C252.427 8.94466 252.753 8.76956 252.853 8.86919C252.952 8.96881 252.777 9.29484 252.853 9.41258C252.928 9.53032 253.299 9.49107 253.354 9.6239C253.408 9.75673 253.121 9.98616 253.148 10.128C253.176 10.2699 253.529 10.3696 253.529 10.5145Z" stroke="#EAE8E4" stroke-width="0.603774" stroke-linejoin="bevel"/>
<path d="M231.117 23.4171C231.117 23.562 230.761 23.6676 230.736 23.8035C230.712 23.9393 230.996 24.1778 230.942 24.3076C230.887 24.4374 230.519 24.4012 230.44 24.5189C230.362 24.6367 230.537 24.9627 230.437 25.0623C230.338 25.162 230.012 24.9869 229.894 25.0623C229.776 25.1378 229.816 25.5091 229.683 25.5635C229.55 25.6178 229.321 25.331 229.179 25.3582C229.037 25.3854 228.937 25.7386 228.792 25.7386C228.647 25.7386 228.542 25.3823 228.406 25.3582C228.27 25.334 228.031 25.6178 227.902 25.5635C227.772 25.5091 227.808 25.1408 227.69 25.0623C227.573 24.9838 227.247 25.1589 227.147 25.0593C227.047 24.9597 227.222 24.6337 227.147 24.5159C227.071 24.3982 226.7 24.4374 226.646 24.3046C226.591 24.1718 226.878 23.9423 226.851 23.8005C226.824 23.6586 226.471 23.5589 226.471 23.414C226.471 23.2691 226.827 23.1635 226.851 23.0276C226.875 22.8918 226.591 22.6533 226.646 22.5235C226.7 22.3937 227.068 22.4299 227.147 22.3122C227.225 22.1944 227.05 21.8684 227.15 21.7688C227.25 21.6691 227.576 21.8442 227.693 21.7688C227.811 21.6933 227.772 21.322 227.905 21.2676C228.037 21.2133 228.267 21.5001 228.409 21.4729C228.551 21.4457 228.65 21.0925 228.795 21.0925C228.94 21.0925 229.046 21.4488 229.182 21.4729C229.317 21.4971 229.556 21.2133 229.686 21.2676C229.816 21.322 229.779 21.6903 229.897 21.7688C230.015 21.8472 230.341 21.6722 230.44 21.7718C230.54 21.8714 230.365 22.1974 230.44 22.3152C230.516 22.4329 230.887 22.3937 230.942 22.5265C230.996 22.6593 230.709 22.8888 230.736 23.0306C230.764 23.1725 231.117 23.2722 231.117 23.4171Z" stroke="#EAE8E4" stroke-width="0.603774" stroke-linejoin="bevel"/>
<path d="M249.345 22.4419C249.266 22.3966 249.318 22.3091 249.239 22.2668C249.161 22.2245 249.109 22.3091 249.034 22.2638C248.958 22.2185 249.007 22.1309 248.928 22.0857C248.85 22.0404 248.798 22.1279 248.72 22.0826C248.641 22.0374 248.693 21.9498 248.611 21.9045C248.53 21.8592 248.481 21.9468 248.403 21.9015C248.324 21.8562 248.373 21.7687 248.294 21.7234C248.216 21.6781 248.164 21.7657 248.086 21.7204" stroke="#EAE8E4" stroke-width="0.603774" stroke-linejoin="bevel"/>
<path d="M231.944 12.3982C231.866 12.3529 231.917 12.2624 231.836 12.2171C231.754 12.1718 231.703 12.2593 231.624 12.2141C231.546 12.1688 231.594 12.0782 231.516 12.0329C231.437 11.9876 231.383 12.0752 231.304 12.0299C231.226 11.9846 231.274 11.8941 231.196 11.8488C231.117 11.8035 231.063 11.891 230.981 11.8458C230.9 11.8005 230.951 11.7099 230.87 11.6616C230.788 11.6133 230.737 11.7039 230.655 11.6586" stroke="#EAE8E4" stroke-width="0.603774" stroke-linejoin="bevel"/>
<path d="M231.962 21.7175C231.884 21.7627 231.835 21.6752 231.757 21.7175C231.678 21.7597 231.73 21.8503 231.651 21.8956C231.573 21.9409 231.521 21.8533 231.443 21.8986C231.364 21.9439 231.416 22.0314 231.337 22.0767C231.259 22.122 231.207 22.0344 231.129 22.0797C231.05 22.125 231.102 22.2126 231.02 22.2578C230.939 22.3031 230.89 22.2156 230.812 22.2608C230.733 22.3061 230.782 22.3937 230.703 22.439" stroke="#EAE8E4" stroke-width="0.603774" stroke-linejoin="bevel"/>
<path d="M249.396 11.6525C249.317 11.6978 249.266 11.6103 249.184 11.6525C249.103 11.6948 249.157 11.7884 249.076 11.8336C248.994 11.8789 248.943 11.7914 248.864 11.8367C248.786 11.8819 248.834 11.9725 248.756 12.0178C248.677 12.0631 248.623 11.9755 248.541 12.0208C248.46 12.0661 248.511 12.1567 248.43 12.205C248.348 12.2533 248.297 12.1627 248.215 12.208C248.134 12.2533 248.185 12.3438 248.104 12.3921" stroke="#EAE8E4" stroke-width="0.603774" stroke-linejoin="bevel"/>
<path d="M239.968 27.7944C239.968 27.7038 240.082 27.7038 240.082 27.6163C240.082 27.5287 239.968 27.5257 239.968 27.4382C239.968 27.3506 240.082 27.3476 240.082 27.2601C240.082 27.1725 239.968 27.1695 239.968 27.0819C239.968 26.9944 240.082 26.9914 240.082 26.9008C240.082 26.8102 239.968 26.8103 239.968 26.7197C239.968 26.6291 240.082 26.6291 240.082 26.5386C240.082 26.448 239.968 26.448 239.968 26.3574" stroke="#EAE8E4" stroke-width="0.603774" stroke-linejoin="bevel"/>
<path d="M239.965 7.72199C239.965 7.6284 240.086 7.6284 240.086 7.53482C240.086 7.44124 239.965 7.44124 239.965 7.34765C239.965 7.25407 240.086 7.25407 240.086 7.16048C240.086 7.0669 239.965 7.0669 239.965 6.97331C239.965 6.87973 240.086 6.87973 240.086 6.78615C240.086 6.69256 239.965 6.69256 239.965 6.59596C239.965 6.49935 240.086 6.50237 240.086 6.40577C240.086 6.30916 239.965 6.31218 239.965 6.21558" stroke="#EAE8E4" stroke-width="0.603774" stroke-linejoin="bevel"/>
<path d="M249.357 12.03C249.278 12.0541 249.251 11.9545 249.173 11.9787C249.094 12.0028 249.121 12.0994 249.043 12.1205C248.964 12.1417 248.934 12.0481 248.856 12.0692C248.777 12.0904 248.804 12.19 248.726 12.2141C248.647 12.2383 248.617 12.1417 248.539 12.1628C248.46 12.1839 248.487 12.2836 248.409 12.3077C248.33 12.3319 248.3 12.2353 248.222 12.2564C248.143 12.2775 248.17 12.3771 248.092 12.4013" stroke="#EAE8E4" stroke-width="0.603774" stroke-linejoin="bevel"/>
<path d="M272.026 9.25098L267.53 10.6125L263.325 15.9891L264.599 21.5649L268.88 24.7891L273.191 25.4231L278.078 22.697L280.497 16.7257L278.842 12.6502L275.763 9.72795L272.026 9.25098Z" stroke="#EAE8E4" stroke-width="1.69358" stroke-linejoin="bevel"/>
<path d="M263.325 15.9893L280.497 16.7259" stroke="#EAE8E4" stroke-width="1.69358" stroke-linejoin="bevel"/>
<path d="M273.4 9.75211L275.984 14.7966V19.7385L273.191 25.4231V17.3385L272.026 9.25098L268.068 12.9642L268.361 20.3936L270.951 25.3506" stroke="#EAE8E4" stroke-width="1.69358" stroke-linejoin="bevel"/>
<path d="M270.755 2.21102L269.535 3.83517V5.78536L272.026 6.51291L274.175 5.42611V2.74838L271.857 1.61328L270.755 2.21102Z" stroke="#EAE8E4" stroke-width="1.69358" stroke-linejoin="bevel"/>
<path d="M260.301 8.01929L258.323 9.72797V11.9076L260.796 13.7732L262.679 11.9076L262.664 9.75212L261.523 8.65929L260.301 8.01929Z" stroke="#EAE8E4" stroke-width="1.69358" stroke-linejoin="bevel"/>
<path d="M260.503 21.5649L258.323 22.697V25.4231L260.074 26.6547L262.752 25.4231L262.679 22.697L260.503 21.5649Z" stroke="#EAE8E4" stroke-width="1.69358" stroke-linejoin="bevel"/>
<path d="M272.026 28.0918L269.873 29.1122V31.162L271.856 32.3937L273.855 31.3673V29.1122L272.026 28.0918Z" stroke="#EAE8E4" stroke-width="1.69358" stroke-linejoin="bevel"/>
<path d="M283.205 21.5649L281.056 22.3317V24.768L282.481 26.6547L285.358 25.4231V22.697L283.205 21.5649Z" stroke="#EAE8E4" stroke-width="1.69358" stroke-linejoin="bevel"/>
<path d="M282.481 8.78906L281.056 10.8117L281.345 12.2789L283.208 12.9611L285.678 11.9075L285.358 8.78906H282.481Z" stroke="#EAE8E4" stroke-width="1.69358" stroke-linejoin="bevel"/>
<path d="M274.175 5.42603L281.369 9.69772" stroke="#EAE8E4" stroke-width="1.69358" stroke-linejoin="bevel"/>
<path d="M283.208 12.9612L283.205 21.565" stroke="#EAE8E4" stroke-width="1.69358" stroke-linejoin="bevel"/>
<path d="M281.055 24.7681L273.855 29.1122" stroke="#EAE8E4" stroke-width="1.69358" stroke-linejoin="bevel"/>
<path d="M269.873 29.1122L262.752 25.4231" stroke="#EAE8E4" stroke-width="1.69358" stroke-linejoin="bevel"/>
<path d="M260.503 21.5649L260.796 13.7732" stroke="#EAE8E4" stroke-width="1.69358" stroke-linejoin="bevel"/>
<path d="M262.664 9.7522L269.535 5.7854" stroke="#EAE8E4" stroke-width="1.69358" stroke-linejoin="bevel"/>
<path d="M272.025 6.51294V8.01935" stroke="#EAE8E4" stroke-width="1.69358" stroke-linejoin="bevel"/>
<path d="M281.055 22.3317L280.113 21.9695" stroke="#EAE8E4" stroke-width="1.69358" stroke-linejoin="bevel"/>
<path d="M272.025 28.0918V26.6548" stroke="#EAE8E4" stroke-width="1.69358" stroke-linejoin="bevel"/>
<path d="M262.68 22.697L263.392 22.1687" stroke="#EAE8E4" stroke-width="1.69358" stroke-linejoin="bevel"/>
<path d="M262.68 11.9077L263.936 12.279" stroke="#EAE8E4" stroke-width="1.69358" stroke-linejoin="bevel"/>
<path d="M304.195 2.43845C302.921 2.96071 302.013 4.27391 301.97 5.65052C303.217 6.08222 304.841 6.41429 305.65 5.37278C306.441 4.35844 305.469 2.62863 304.183 2.65278C302.897 2.67694 301.964 4.23165 302.42 5.43618C302.876 6.64071 304.425 7.22033 305.626 6.76146C306.71 5.74108 307.084 3.95693 306.308 2.68901C305.533 1.42109 303.567 0.989388 302.45 1.97354C301.533 2.77958 301.4 4.14109 301.397 5.36071C301.397 6.05203 301.478 6.86109 302.064 7.22939C302.423 7.45279 302.885 7.44071 303.296 7.33806C304.334 7.07844 305.255 6.16372 305.267 5.09203C305.279 4.02033 304.132 3.0241 303.124 3.38335C302.278 3.89052 302.001 5.15241 302.559 5.96448C303.117 6.77656 304.391 6.9758 305.17 6.36901C305.36 6.22109 305.542 6.02486 305.783 6.00373C305.979 5.98562 306.16 6.09128 306.33 6.1909C308.802 7.67618 311.271 9.16146 313.744 10.6437C311.785 8.13203 308.573 7.02411 305.542 6.03995C307.305 6.9426 309.071 7.84825 310.834 8.75089C311.362 9.02259 311.933 9.30033 312.524 9.22788C313.022 9.16448 313.457 8.85656 313.937 8.70863C315.389 8.26788 317.05 9.73505 316.787 11.2294C316.524 12.7237 314.468 13.5449 313.252 12.6362C312.491 11.6188 312.965 9.93127 314.142 9.46033C315.32 8.98939 316.829 9.87995 316.98 11.1418C316.431 11.7728 315.842 12.4309 315.051 12.6996C314.26 12.9683 313.21 12.6754 312.95 11.8815C312.711 11.1539 313.246 10.3539 313.94 10.0279C314.634 9.70184 315.434 9.72901 316.198 9.76222C316.606 9.78033 317.05 9.81353 317.345 10.0913C317.901 10.6135 317.533 11.5675 316.995 12.1049C316.111 12.9924 314.828 13.4664 313.578 13.3698C313.466 12.8777 313.354 12.3886 313.243 11.8966C313.979 11.4256 314.758 12.455 314.991 13.3003C315.664 15.7577 315.86 18.3449 315.567 20.8777C314.42 21.0679 313.478 22.1245 313.418 23.2867C313.357 24.449 314.194 25.5932 315.317 25.8981C315.534 25.9554 315.773 25.9856 315.984 25.9041C316.388 25.7501 316.548 25.2641 316.597 24.8324C316.708 23.8452 316.443 22.7403 315.64 22.1577C314.837 21.575 313.463 21.8256 313.164 22.7705C313.068 23.0754 313.089 23.4075 313.161 23.7184C313.376 24.6543 314.115 25.5026 315.06 25.6686C316.005 25.8347 317.074 25.1766 317.197 24.2226C317.321 23.2686 316.271 22.3207 315.371 22.6679C315.61 19.6852 315.534 16.6754 315.151 13.7049C314.17 16.0113 316.926 18.7313 315.833 20.9864C315.416 21.8467 314.505 22.4113 314.173 23.3079C313.738 24.4822 314.432 25.7441 315.099 26.8007C314.242 26.855 313.388 26.9064 312.53 26.9607C313.3 26.6226 313.816 25.7833 313.771 24.9441C311.872 26.1335 309.973 27.323 308.077 28.5124C307.745 28.7207 307.404 28.935 307.181 29.2581C306.846 29.735 306.828 30.363 306.616 30.9064C306.17 32.0475 304.711 32.6996 303.591 32.2015C302.471 31.7034 302.01 30.0883 302.752 29.1132C303.534 28.0867 305.357 28.2045 306.046 29.2973C306.734 30.3901 306.112 32.0415 304.893 32.4641C303.673 32.8867 302.197 32.0354 301.895 30.7796C301.771 30.2603 301.847 29.6566 302.233 29.2882C302.426 29.1041 302.68 28.9954 302.936 28.929C304.461 28.5426 306.164 29.895 306.13 31.4679C305.056 32.7449 302.613 32.2769 302.082 30.695C301.916 30.1969 301.919 29.6596 301.777 29.1524C301.52 28.2286 300.811 27.5041 300.077 26.8852C298.668 25.7018 297.062 24.7509 295.347 24.0837C295.92 26.7735 298.23 29.0075 300.938 29.4905C299.531 27.8211 297.726 26.4898 295.712 25.6445C297.75 25.9313 299.664 27.012 300.959 28.612C298.776 27.9056 296.772 26.6437 295.19 24.9834C294.659 25.883 293.505 26.3962 292.506 26.0973C291.507 25.7984 290.81 24.6603 291.084 23.6551C291.359 22.6498 292.636 22.0279 293.566 22.5049C294.861 23.169 294.381 25.5479 292.938 25.72C291.495 25.892 290.423 23.8332 291.347 22.7071C292.271 21.5811 294.423 22.1154 294.785 23.5252C293.252 22.7041 292.751 20.7267 292.799 18.9879C292.847 17.249 293.273 15.492 292.929 13.7864C293.143 16.4188 293.357 19.0513 293.572 21.6837C293.539 19.5645 293.505 17.4422 293.472 15.323C293.466 14.9547 293.457 14.5683 293.285 14.2422C293.059 13.8075 292.594 13.563 292.186 13.2973C290.903 12.455 289.898 10.7675 290.619 9.41203C291.139 8.43693 292.527 8.05052 293.475 8.61505C294.423 9.17958 294.746 10.5864 294.133 11.5071C293.152 12.3584 291.311 11.2354 291.622 9.97354C292.564 9.62939 293.729 10.0701 294.206 10.9516C294.683 11.8332 294.414 13.0498 293.611 13.6505C293.427 13.7894 293.207 13.8981 292.977 13.8769C292.594 13.8437 292.34 13.4754 292.147 13.1403C291.495 11.9962 290.997 10.366 292.008 9.52372C292.808 8.85655 294.206 9.32448 294.562 10.3056C294.918 11.2867 294.29 12.4611 293.321 12.8475C295.265 10.1456 298.01 8.02637 301.119 6.8309C298.997 7.75769 296.874 8.6875 294.752 9.61429" stroke="#EAE8E4" stroke-width="0.301887" stroke-miterlimit="10"/>
<path d="M302.644 9.68386C299.634 10.1578 297.001 12.5035 296.186 15.4378C295.371 18.3722 296.416 21.7412 298.749 23.7005C301.083 25.6597 304.582 26.1005 307.332 24.7873C308.863 24.0567 310.128 22.8491 311.148 21.4937C311.851 20.5608 312.464 19.5133 312.594 18.354C312.766 16.8386 312.099 15.3654 311.408 14.0069C310.94 13.0922 310.445 12.1714 309.729 11.4348C308.069 9.72914 305.5 9.27027 303.118 9.3397C301.98 9.37291 300.802 9.52083 299.83 10.1125C298.39 10.985 297.651 12.6635 297.225 14.2937C296.763 16.0688 296.567 17.9133 296.651 19.7457C296.678 20.3616 296.742 20.9895 296.986 21.5571C297.418 22.5623 298.348 23.2476 299.238 23.8846C300.238 24.5971 301.255 25.3216 302.417 25.711C304.848 26.5231 307.655 25.6869 309.506 23.9118C311.803 21.711 312.645 18.1186 311.571 15.1239C310.496 12.1291 307.561 9.89518 304.392 9.65367C304.25 9.64159 304.09 9.64159 303.981 9.72914C303.842 9.84084 303.836 10.0431 303.839 10.2212C303.93 15.4076 304.099 20.591 304.346 25.7714C305.092 20.8899 303.302 15.9269 303.724 11.0061C304.778 10.6589 305.974 11.1842 306.68 12.0386C307.386 12.8929 307.685 14.0129 307.845 15.1088C308.404 18.9578 307.405 23.0122 305.119 26.1608C306.306 25.542 307.1 24.3374 307.498 23.0605C307.897 21.7835 307.954 20.428 307.99 19.0906C308.078 15.788 307.93 12.111 305.614 9.75026C305.291 9.42121 304.808 9.11027 304.401 9.32461C303.851 9.61442 303.984 10.5774 303.426 10.8491C303.166 10.9759 302.834 10.9005 302.589 11.0514C302.378 11.1812 302.291 11.4378 302.218 11.6763C301.469 14.1367 300.76 16.6605 300.838 19.2295C300.917 21.7986 301.904 24.4642 303.975 25.9888C303.546 25.0076 302.342 24.6605 301.587 23.9027C300.802 23.1148 300.561 21.9465 300.398 20.8446C300.063 18.5895 299.9 16.268 300.398 14.0431C300.594 13.1646 300.911 12.2771 301.554 11.6491C303.024 10.2122 305.457 10.6922 307.38 11.4227C308.733 11.9389 310.121 12.5759 310.985 13.7382C311.806 14.8401 312.041 16.3495 311.601 17.6476C311.552 17.7895 311.489 17.9405 311.368 18.028C311.226 18.1306 311.039 18.1367 310.864 18.1367C305.977 18.1306 301.092 18.1276 296.205 18.1216C298.242 17.382 300.473 17.4363 302.641 17.4997C305.548 17.5842 308.455 17.6688 311.362 17.7533" stroke="#EAE8E4" stroke-width="0.301887" stroke-miterlimit="10"/>
<path d="M303.818 6.55303C303.719 7.0451 303.767 7.56738 303.957 8.03228C303.957 7.667 303.957 7.30473 303.957 6.93944C304.165 7.32888 304.286 7.7636 304.31 8.20134C304.313 7.58247 304.316 6.96359 304.319 6.34473C304.512 6.77944 304.561 7.27454 304.455 7.73643" stroke="#EAE8E4" stroke-width="0.301887" stroke-miterlimit="10"/>
<path d="M313.336 11.9932C312.983 12.3071 312.711 12.7086 312.548 13.1494C312.904 12.8324 313.342 12.603 313.807 12.4973C313.24 12.926 312.672 13.3577 312.104 13.7864C312.53 13.5207 312.995 13.3184 313.481 13.1917C312.88 13.4483 312.277 13.7049 311.676 13.9615" stroke="#EAE8E4" stroke-width="0.301887" stroke-miterlimit="10"/>
<path d="M314.036 23.4105C313.327 23.0965 312.648 22.7132 312.017 22.2633C312.753 22.4958 313.487 22.7252 314.223 22.9577C314.027 22.5079 313.586 22.1728 313.1 22.1094C313.659 22.6286 314.245 23.1207 314.851 23.5826C314.069 23.4981 313.354 22.9516 313.064 22.2211C313.272 22.2815 313.481 22.3449 313.689 22.4052" stroke="#EAE8E4" stroke-width="0.301887" stroke-miterlimit="10"/>
<path d="M303.643 28.8806C303.573 28.144 303.604 27.3954 303.73 26.6648C304.078 27.3289 304.422 27.9931 304.769 28.6572C304.446 28.3191 304.226 27.8844 304.138 27.4255C304.138 27.8633 304.138 28.301 304.141 28.7357C304.084 28.3705 304.135 27.9901 304.283 27.652C304.295 28.2889 304.307 28.9259 304.319 29.5599" stroke="#EAE8E4" stroke-width="0.301887" stroke-miterlimit="10"/>
<path d="M294.426 23.0996C294.912 22.9788 295.362 22.7252 295.721 22.3751C295.22 22.6588 294.719 22.9456 294.221 23.2294C294.849 22.7253 295.476 22.2241 296.104 21.72C295.407 22.0249 294.788 22.5139 294.332 23.1237C294.749 22.7675 295.105 22.3419 295.38 21.8709C294.83 22.0339 294.281 22.197 293.729 22.36" stroke="#EAE8E4" stroke-width="0.301887" stroke-miterlimit="10"/>
<path d="M293.75 11.0874C294.339 11.178 294.858 11.6278 295.036 12.1983C294.146 12.2497 293.24 12.0233 292.482 11.5583C293.379 12.1319 294.273 12.7055 295.169 13.2791C294.716 12.5817 294.185 11.9387 293.584 11.3621C294.2 11.978 294.876 12.5334 295.601 13.0134C294.876 12.7206 294.191 12.3372 293.56 11.8753C294.285 11.7365 295.076 12.0112 295.556 12.5697" stroke="#EAE8E4" stroke-width="0.301887" stroke-miterlimit="10"/>
</svg>
