<svg width="476" height="26" viewBox="0 0 476 26" fill="none" xmlns="http://www.w3.org/2000/svg">
<g clip-path="url(#clip0_167_2608)">
<path d="M9.54504 8.93286C7.90275 9.06486 6.28618 9.11458 5.30218 9.13343C4.88561 9.142 4.66275 9.63058 4.9319 9.94772C5.64333 10.786 7.00618 12.0083 9.01533 12.214H10.0713" stroke="#F2EBDE" stroke-width="1.044" stroke-linejoin="bevel"/>
<path d="M10.7092 19.7466L9.36181 20.5197L7.94238 19.7466" stroke="#F2EBDE" stroke-width="1.044" stroke-linejoin="bevel"/>
<path d="M20.2931 21.2415C19.7068 21.6837 18.5788 22.2049 17.5554 22.3043L10.172 22.3489C8.54855 22.5066 7.92283 20.9672 8.19712 19.354L10.3828 11.3329" stroke="#F2EBDE" stroke-width="1.044" stroke-linejoin="bevel"/>
<path d="M15.7252 16.2326C16.3754 16.0697 16.8452 15.709 16.7745 15.4271C16.7039 15.1451 16.1195 15.0487 15.4693 15.2117C14.8191 15.3746 14.3493 15.7353 14.4199 16.0172C14.4906 16.2992 15.075 16.3956 15.7252 16.2326Z" fill="#F2EBDE"/>
<path d="M24.0273 8.93295C26.0245 8.68952 27.7422 8.79066 28.6542 8.88323C29.0348 8.92095 29.2816 9.30838 29.1496 9.66838C28.9113 10.3147 28.4228 10.7192 27.4936 11.3347C26.5645 11.9501 25.3833 11.8661 23.873 11.8489" stroke="#F2EBDE" stroke-width="1.044" stroke-linejoin="bevel"/>
<path d="M18.7574 12.1918C17.7289 14.5524 13.33 13.637 13.7877 11.345C11.9552 12.8107 9.38887 11.9861 9.54487 8.93295C9.69745 5.9501 12.7814 4.96952 14.0329 6.22095C13.9712 2.36381 19.7449 3.27924 19.378 6.02895C21.1197 4.10381 26.0689 6.11981 23.9603 9.87752" stroke="#F2EBDE" stroke-width="1.044" stroke-linejoin="bevel"/>
</g>
<path d="M55.227 21.3442C49.9762 22.2785 44.5813 22.4036 39.291 21.7128C39.5893 20.9105 40.5545 20.6174 41.1888 20.0431C41.703 19.5785 41.9979 18.9236 42.279 18.2894C43.0968 16.4448 43.9145 14.6002 44.7305 12.7539C44.8453 12.4934 44.9585 12.1745 44.7973 11.9396C45.4196 12.3014 46.0728 12.6716 46.791 12.7076C47.5093 12.7436 48.3065 12.3288 48.4488 11.6242C48.279 12.5705 49.047 13.5768 50.0036 13.6625C50.9602 13.7482 51.8962 12.8979 51.8996 11.9362C52.3265 12.1025 52.0625 12.7642 51.6956 13.0402C50.9876 13.5716 50.0568 13.8494 49.1962 13.6402C48.3356 13.4311 47.5968 12.6751 47.5436 11.7905C47.2076 12.5362 46.7156 13.2099 46.107 13.7585C45.9956 13.8579 45.867 13.9591 45.7179 13.9574C45.4933 13.9556 45.3425 13.7311 45.2379 13.5322C44.6345 12.3939 44.0859 11.1974 43.9402 9.91851C43.7945 8.63965 44.103 7.25279 45.015 6.34251C45.927 5.43222 47.5042 5.15965 48.5345 5.93108C48.5448 5.08079 49.1876 4.33679 49.959 3.97851C50.7168 3.62708 51.6528 3.60136 52.3608 4.04365C53.0688 4.48593 53.4613 5.43908 53.1425 6.21051C53.0208 5.43908 52.8888 4.64365 52.4688 3.98708C52.0488 3.33051 51.2602 2.84022 50.499 3.01679C49.8202 3.17451 49.3608 3.78822 48.9836 4.37451C47.9996 5.90536 47.1716 7.53736 46.5185 9.23451C46.6813 7.81336 46.9813 6.40765 47.415 5.04308C46.4448 5.77336 45.4745 6.50365 44.5042 7.23565C44.103 7.53736 43.6642 7.90936 43.6488 8.40993C43.6316 8.96193 44.1288 9.37679 44.5899 9.68022C45.4985 10.2802 46.455 10.8099 47.4442 11.2642C46.743 11.8248 45.8756 12.1745 44.9808 12.2602C44.4408 11.1939 44.1922 9.98193 44.2693 8.78879C44.3345 7.79965 44.6722 6.75051 45.4882 6.18822C46.3042 5.62593 47.6568 5.83165 48.0048 6.75908C48.2688 5.42365 49.0933 4.10879 50.3808 3.66308C51.6682 3.21736 53.355 3.98708 53.5368 5.33793C53.8556 5.50422 54.1745 5.66879 54.4933 5.83508C55.4345 5.42022 56.4836 5.25736 57.5053 5.36708C57.723 5.39108 57.9442 5.42708 58.1362 5.53336C58.3848 5.67051 58.5579 5.90879 58.6968 6.15736C59.295 7.23736 59.2933 8.62593 58.6899 9.70422C58.4482 8.38422 59.0739 6.84479 58.2665 5.77336C57.4488 4.68822 55.647 4.94022 54.6545 5.86765C56.0345 5.70479 57.6819 5.66365 58.5236 6.77108C59.211 7.67451 58.9299 9.15222 57.9562 9.73851C59.931 9.73336 61.9042 9.82936 63.8688 10.0265C62.9808 11.0722 61.8562 11.9156 60.603 12.4745C60.0733 12.7111 59.4956 12.8996 58.9196 12.8191C58.3436 12.7385 57.783 12.3236 57.7008 11.7494C58.4739 11.9636 59.1768 12.4265 59.9739 12.5174C60.8773 12.6202 61.8219 12.1865 62.3345 11.4356C62.847 10.6848 62.9036 9.64593 62.475 8.84365C61.1276 9.51393 59.5796 9.77793 58.0848 9.59108C59.8882 9.88422 61.7225 9.98193 63.5482 9.88079C62.2213 11.1768 60.6922 12.2671 59.0328 13.0951C58.8373 12.8894 58.7122 12.6168 58.6848 12.3339C61.1053 12.7419 63.6768 10.8939 64.0625 8.46993C62.5848 8.61222 61.107 8.75279 59.6293 8.89508C59.3362 8.92251 59.0156 8.94479 58.7739 8.77679C58.6076 8.66193 58.5065 8.47336 58.4122 8.29336C57.9956 7.49451 57.579 6.69565 57.1625 5.89851C57.0236 5.63279 56.8779 5.35851 56.6396 5.17679C56.187 4.83222 55.5133 4.93165 55.0453 5.25565C54.5773 5.57965 54.267 6.08022 53.9722 6.56536C53.6122 5.60708 53.0773 4.71393 52.4036 3.94251C52.1413 3.64422 51.783 3.33736 51.3956 3.42479C51.1608 3.47793 50.9842 3.66308 50.8213 3.83965C49.9745 4.76193 49.1293 5.68422 48.2825 6.60651C46.7345 5.93622 44.8145 6.22765 43.5356 7.32822C44.4888 8.99108 45.2722 10.7499 45.8705 12.5705C45.3819 11.9842 44.4922 11.9602 43.743 12.1059C42.9939 12.2516 42.2293 12.5191 41.487 12.3408C40.2905 12.0545 39.663 10.7705 39.2242 9.62193C41.1442 9.64079 43.0642 9.60308 44.9825 9.50879C43.5493 9.51222 42.1162 9.51736 40.683 9.52079C40.2699 10.4911 40.9779 11.5796 41.799 12.2414C42.207 12.5705 42.6699 12.8602 43.1893 12.9271C43.7088 12.9939 44.2899 12.7831 44.535 12.3202C42.1385 13.2511 39.1316 12.1231 37.9385 9.84651C39.5276 9.42651 41.1802 9.23965 42.8242 9.29622C43.0625 9.30479 43.3093 9.32022 43.5219 9.42993C43.7876 9.56708 43.959 9.83279 44.1048 10.0951C44.7099 11.1854 45.0579 12.4179 45.111 13.6642C44.523 13.5494 44.2145 14.3311 44.1425 14.9259C43.947 16.5545 43.7516 18.1831 43.5579 19.8116C43.4396 20.7939 43.3265 21.8156 43.6522 22.7482C42.6956 22.4979 42.5345 21.2208 42.615 20.2351C42.8088 17.8642 43.263 15.5156 43.9642 13.2425C44.175 12.5602 44.4579 11.8231 45.0888 11.4888C45.1316 12.7094 44.4596 13.8219 44.0465 14.9705C43.1345 17.5094 43.4842 20.3071 43.8459 22.9814C45.4573 22.7979 47.067 22.6128 48.6785 22.4294C49.3385 22.3539 50.0088 22.2768 50.6259 22.0299C51.099 21.8396 51.5362 21.5534 52.0282 21.4179C52.9436 21.1676 53.9619 21.4642 54.8448 21.1162C54.8293 20.3071 55.2579 19.5031 55.9385 19.0642C55.5168 19.6488 55.0933 20.2351 54.6716 20.8196C54.4882 21.0734 54.2979 21.3322 54.0322 21.4951C53.6945 21.6991 53.283 21.7196 52.8888 21.7351C49.3745 21.8688 45.8619 22.0025 42.3476 22.1362C45.4745 22.4156 48.603 22.6951 51.7299 22.9745C52.4122 23.0362 53.1442 23.0876 53.7425 22.7499C54.5259 22.3094 54.8602 21.3271 55.611 20.8334C54.3888 21.0168 53.4819 22.0985 52.2939 22.4362C51.6768 22.6111 51.0202 22.5751 50.379 22.5356C48.0665 22.3968 45.7539 22.2562 43.4413 22.1174C43.2596 21.0391 42.9476 19.9831 42.5139 18.9785C43.215 19.6059 43.8099 20.3516 44.2676 21.1728C44.7768 20.3345 45.7402 19.7928 46.7208 19.7945C45.5979 20.0054 44.475 20.2162 43.3522 20.4271C44.055 20.4048 44.7596 20.4716 45.447 20.6242L44.8693 20.0636" stroke="#F2EBDE" stroke-width="0.171429" stroke-miterlimit="10"/>
<path d="M50.3004 15.3185C50.0295 15.0733 49.697 15.3973 49.5632 16.0367C50.0518 16.1807 50.561 15.8722 50.969 15.1865C50.5438 15.1059 50.1101 15.3476 49.7398 15.8756C49.937 16.1139 50.1735 16.1242 50.3741 15.903C49.9387 15.807 49.4758 15.7247 49.085 16.2167C49.5341 16.3145 49.9987 15.9476 50.345 15.2207C50.0912 15.003 49.7827 15.351 49.6781 15.9716C49.9198 15.843 50.1547 15.6459 50.3792 15.3887C50.2764 15.3819 50.1752 15.3767 50.0724 15.3699" stroke="#F2EBDE" stroke-width="0.108" stroke-miterlimit="10"/>
<path d="M88.6082 12.2149L84.5985 14.9149L82.7676 11.2035H77.6934L78.5385 5.72463L84.0105 7.78006L85.4111 2.7572L88.1248 7.78006L93.4751 5.34235L92.6436 11.1143" stroke="#F2EBDE" stroke-width="1.044" stroke-linejoin="bevel"/>
<path d="M93.0264 9.81494H97.6532L97.0326 13.0978H92.8721" stroke="#F2EBDE" stroke-width="1.044" stroke-linejoin="bevel"/>
<path d="M77.6935 9.48926L72.3467 9.81497L79.0735 13.0978" stroke="#F2EBDE" stroke-width="1.044" stroke-linejoin="bevel"/>
<path d="M79.71 11.2926L76.4443 23.2429H86.5569L90.1826 21.8372" stroke="#F2EBDE" stroke-width="1.044" stroke-linejoin="bevel"/>
<path d="M83.3252 17.0372L85.8966 16.0087" stroke="#F2EBDE" stroke-width="1.044" stroke-linejoin="bevel"/>
<path d="M76.9414 21.0161H79.4717" stroke="#F2EBDE" stroke-width="1.044" stroke-linejoin="bevel"/>
<path d="M114.067 5.48987C113.558 11.9013 111.66 18.155 108.604 23.4967C109.282 22.7099 110.33 22.6173 111.283 22.5762C116.045 22.3704 120.813 22.2967 125.578 22.3567" stroke="#F2EBDE" stroke-width="0.961714" stroke-linejoin="bevel"/>
<path d="M124.45 9.39331C126.058 9.39331 127.665 9.39674 129.273 9.39845C129.314 10.6979 129.355 11.9956 129.396 13.295C127.69 13.5316 125.784 13.7082 124.432 12.4619" stroke="#F2EBDE" stroke-width="0.961714" stroke-linejoin="bevel"/>
<path d="M111.883 9.53384L109.557 9.48584C111.11 10.7818 112.54 12.2853 113.808 13.9567" stroke="#F2EBDE" stroke-width="0.961714" stroke-linejoin="bevel"/>
<path d="M120.785 13.2847C120.169 13.6721 119.59 14.1435 119.065 14.6852" stroke="#F2EBDE" stroke-width="0.961714" stroke-linejoin="bevel"/>
<path d="M113.7 4.58644C113.162 5.03386 113.023 5.94587 113.222 6.68472C113.421 7.42358 113.885 8.01844 114.371 8.54129C114.998 9.21501 115.694 9.82358 116.488 10.1767C117.501 10.6293 118.613 10.6464 119.697 10.6104C122.68 10.5093 125.652 10.031 128.548 9.19101C128.753 9.13101 128.98 9.05215 129.093 8.83958C129.221 8.59615 129.148 8.28072 129.064 8.01158C128.476 6.15158 127.447 4.43729 126 3.41729C124.553 2.39729 122.666 2.16072 121.166 3.06758" stroke="#F2EBDE" stroke-width="0.961714" stroke-linejoin="bevel"/>
<path d="M110.81 19.7612H114.677" stroke="#F2EBDE" stroke-width="0.961714" stroke-linejoin="bevel"/>
<path d="M143.151 8.10138C142.462 8.39452 141.826 8.80938 141.281 9.32024C141.129 9.46424 140.971 9.68024 141.07 9.86538C141.122 9.96138 141.23 10.0128 141.333 10.0454C142.26 10.3351 143.302 9.30309 143.023 8.37224C142.445 8.97395 141.951 9.65624 141.557 10.3917C143.172 9.61338 144.619 8.48881 145.774 7.11738C143.916 8.79738 142.217 10.6522 140.705 12.6477C142.725 12.1008 144.478 10.6402 145.38 8.75281C144.24 8.98767 143.769 10.3282 143.499 11.4597C144.18 10.606 144.79 9.69395 145.318 8.73738C144.801 8.91567 144.406 9.40424 144.338 9.94767C145.265 9.75052 146.079 9.08881 146.463 8.22309C145.49 9.03052 144.775 10.1465 144.451 11.3705C145.011 11.0705 145.407 10.4825 145.476 9.84995C145.159 10.3197 145.034 10.9162 145.135 11.4751C146.028 10.9711 146.741 10.1534 147.118 9.20024C146.937 9.65109 146.865 10.1448 146.907 10.6282C147.977 9.16081 148.824 7.53224 149.414 5.81452C148.243 6.84481 147.329 8.16652 146.782 9.62709C148.358 8.59681 149.484 6.90481 149.832 5.05509C148.995 6.26881 148.334 7.60252 147.876 9.00309C148.882 7.80138 149.645 6.39738 150.106 4.89909C149.115 6.53452 148.45 8.36709 148.164 10.258C149.001 8.99281 149.738 7.66252 150.363 6.28252C149.138 7.66595 148.202 9.30652 147.634 11.0671C149.541 9.50024 150.849 7.22538 151.245 4.79109C149.278 6.10081 147.835 8.17338 147.288 10.4722C149.559 9.33052 151.246 7.08995 151.713 4.59052C151.279 4.34024 150.763 4.74481 150.465 5.14424C149.489 6.44881 148.973 8.08767 149.026 9.71624C149.683 9.75052 150.233 9.24481 150.663 8.74767C152.129 7.06252 153.247 5.07738 153.926 2.94995C152.402 3.99567 151.353 5.70481 151.111 7.53567C152.302 6.68024 153.094 5.29167 153.225 3.82938C151.678 5.43567 150.854 7.71395 151.015 9.93909C152.662 7.83224 154.008 5.48709 154.995 3.00138C153.312 4.80481 152.002 6.95624 151.173 9.28081C151.771 9.10252 152.181 8.52138 152.33 7.91624C152.479 7.31109 152.417 6.67338 152.354 6.05281C150.773 8.19395 149.823 10.7928 149.652 13.4482C150.408 13.4157 151.005 12.814 151.481 12.226C152.871 10.5031 153.939 8.52309 154.618 6.41624C153.204 7.08652 152.153 8.46824 151.884 10.0094C152.779 9.09738 153.351 7.87509 153.478 6.60309C152.244 8.26424 151.507 10.2905 151.383 12.3562C152.937 10.9574 154.034 9.06138 154.473 7.01795C153.225 8.17338 152.427 9.80709 152.285 11.5025C152.606 11.7785 153.063 11.3774 153.264 11.0054C153.838 9.93909 154.159 8.73909 154.193 7.52881C153.377 9.13509 152.916 10.9231 152.854 12.7248C154.248 10.9591 155.354 8.96881 156.117 6.85167C155.811 8.17681 155.506 9.50195 155.199 10.8271C155.83 10.2254 156.087 9.26024 155.839 8.42367C154.826 8.98595 154.073 9.99395 153.819 11.1237C153.777 11.3157 153.753 11.5334 153.867 11.6911C154.152 12.0802 154.747 11.6568 154.994 11.242C155.877 9.76081 156.454 8.09967 156.684 6.39224C155.931 7.37109 155.355 8.48538 154.989 9.66481C154.862 10.0711 154.97 10.7242 155.385 10.6334C155.565 10.594 155.671 10.4122 155.753 10.2477C156.591 8.54709 157.061 6.66652 157.125 4.77224C155.067 5.94824 153.417 7.82366 152.511 10.0128C153.446 8.76652 153.866 7.14652 153.653 5.60367C152.41 6.91681 151.675 8.69967 151.629 10.5082C153.722 8.76824 155.181 6.27909 155.673 3.60138C154.284 4.76538 153.353 6.46081 153.113 8.25567C153.039 8.80424 153.117 9.50024 153.634 9.69567C154.155 9.89109 154.675 9.40767 154.977 8.93795C155.801 7.65909 156.207 6.11452 156.117 4.59567C154.45 6.23795 153.362 8.45624 153.086 10.7791C153.036 11.1922 153.019 11.6414 153.24 11.9945C153.561 12.5071 154.299 12.6254 154.862 12.4025C155.424 12.1797 155.842 11.6997 156.195 11.2094C157.341 9.62367 158.066 7.73795 158.28 5.79567C157.613 6.94424 157.095 8.17852 156.744 9.45909C156.934 9.55681 157.157 9.58938 157.366 9.54995C157.743 8.55567 157.881 7.47052 157.766 6.41281C156.662 7.57167 155.913 9.06309 155.638 10.6402C155.607 10.8134 155.583 10.9951 155.63 11.1648C155.733 11.5454 156.177 11.7562 156.567 11.7065C156.958 11.6568 157.294 11.4065 157.569 11.1237C158.676 9.98538 159.009 8.32081 159.237 6.75052C159.264 6.56538 159.283 6.35281 159.159 6.21224C158.895 5.90538 158.415 6.27224 158.211 6.62195C157.423 7.96424 156.936 9.48309 156.797 11.0345C157.671 11.1168 158.508 10.5665 159.014 9.84995C159.519 9.13338 159.758 8.26595 159.987 7.41909C159.463 7.08652 158.786 7.52024 158.388 7.99681C157.418 9.15567 156.936 10.7088 157.082 12.214C157.937 12.0357 158.556 11.302 159.031 10.5682C160.265 8.66881 161.021 6.46252 161.213 4.20481C159.883 5.72538 159.014 7.64367 158.746 9.64767C159.612 8.70995 159.917 7.28709 159.511 6.07681C159.442 5.87452 159.278 5.63795 159.074 5.70309C158.969 5.73738 158.907 5.84367 158.856 5.94138C158.241 7.15167 157.989 8.54367 158.141 9.89281C158.157 10.0248 158.181 10.1671 158.282 10.2545C158.523 10.4602 158.863 10.15 159.009 9.86881C159.61 8.70481 159.891 7.37624 159.811 6.06652C159.802 5.91909 159.783 5.76138 159.681 5.65509C159.569 5.54024 159.393 5.52309 159.235 5.54024C158.366 5.63109 157.802 6.48652 157.45 7.28538C157.243 7.75338 157.063 8.28138 157.215 8.76995C157.368 9.25852 158.007 9.60824 158.415 9.29795C158.616 9.14367 158.702 8.88481 158.767 8.63967C159.139 7.22709 159.201 5.73395 158.943 4.29738C158.863 3.84138 158.585 3.27395 158.129 3.35795C157.879 3.40424 157.714 3.64252 157.587 3.86367C156.631 5.52481 156.113 7.43624 156.098 9.35281C156.094 9.80367 156.185 10.354 156.609 10.5117C157.166 10.7174 157.635 10.0454 157.805 9.47624C158.127 8.39452 158.235 7.25109 158.122 6.12824C158.081 5.71509 157.725 5.17167 157.392 5.41852C157.308 5.48195 157.262 5.58309 157.222 5.68081C156.97 6.29624 156.819 6.95281 156.777 7.61452C156.759 7.86824 156.763 8.13909 156.895 8.35681C157.207 8.87452 158.062 8.74938 158.434 8.27281C158.806 7.79624 158.832 7.14309 158.842 6.53795C158.594 7.67967 158.499 8.85567 158.566 10.0214C158.594 10.5117 158.657 11.0242 158.938 11.4271C159.545 12.3014 160.989 12.2345 161.729 11.4717C162.47 10.7088 162.59 9.50881 162.331 8.47852C161.743 9.34595 161.355 10.3471 161.206 11.3842C161.163 11.6825 161.162 12.0374 161.4 12.2225C161.806 12.5362 162.345 12.022 162.535 11.5454C162.825 10.8185 162.933 10.0214 162.849 9.24309C162.814 8.92424 162.72 8.57109 162.441 8.41509C161.978 8.15624 161.421 8.66367 161.313 9.18309C161.205 9.70252 161.338 10.2511 161.211 10.7671C161.717 11.0637 162.329 10.4945 162.47 9.92538C162.61 9.35624 162.533 8.72024 162.831 8.21452C162.439 9.29795 162.218 10.4431 162.177 11.5951C162.998 10.8597 163.524 9.80709 163.62 8.70824C163.269 9.56024 163.176 10.5168 163.359 11.4202C164.237 10.8494 164.628 9.63395 164.249 8.65852C164.085 9.06824 164.013 9.51567 164.042 9.95624C164.213 9.60995 164.383 9.26538 164.554 8.91909C164.001 9.78824 163.716 10.8271 163.752 11.8574C164.594 10.8425 165.039 9.50367 164.971 8.18709C164.705 8.85395 164.722 9.62709 165.021 10.2802C165.314 10.0231 165.384 9.54824 165.177 9.21909C164.721 9.81052 164.395 10.5048 164.229 11.2334C164.342 10.1174 163.366 9.01338 162.243 8.98767C161.121 8.96195 160.097 10.0197 160.157 11.1408C160.428 10.6317 160.596 9.92538 160.169 9.53624C159.787 9.18824 159.134 9.35624 158.794 9.74538C158.455 10.1345 158.347 10.6694 158.253 11.1768C158.666 10.51 158.026 9.57052 157.248 9.46595C156.47 9.36138 155.726 9.84995 155.213 10.4431C154.558 11.2025 154.15 12.1728 154.068 13.174C155.194 12.6785 155.943 11.434 155.854 10.2065C155.844 10.0591 155.818 9.90309 155.724 9.78824C155.46 9.46767 154.939 9.70595 154.634 9.98709C153.254 11.2522 152.481 13.15 152.578 15.0202C153.374 14.6842 153.927 13.8391 153.919 12.9751C153.919 12.8688 153.905 12.754 153.835 12.6734C153.648 12.4591 153.302 12.6768 153.127 12.9031C152.491 13.7277 152.091 14.7305 151.989 15.766C152.505 15.7522 152.623 14.878 152.16 14.65C151.697 14.422 151.102 14.8745 151.092 15.3888C151.078 16.0591 151.865 16.5511 152.513 16.3848C153.161 16.2185 153.602 15.5705 153.703 14.9088C153.804 14.2471 153.626 13.5751 153.399 12.9442C153.033 13.5751 152.916 14.3465 153.079 15.058C153.855 14.5282 154.269 13.5168 154.087 12.5962C153.458 13.9968 153.146 15.5397 153.182 17.0757C154.255 13.9745 154.838 10.702 154.901 7.42081C153.717 8.85738 152.899 10.5922 152.544 12.4214C153.329 10.3574 153.631 8.11167 153.418 5.91395C151.641 8.02424 150.24 10.45 149.299 13.0437C149.703 11.938 149.954 10.7757 150.043 9.60138C150.053 9.47624 150.055 9.33909 149.976 9.24309C149.794 9.02881 149.453 9.24652 149.278 9.46767C148.181 10.846 147.468 12.5277 147.238 14.2745C148.55 13.2237 149.242 11.4494 148.989 9.78824C147.177 10.738 145.971 12.7437 145.983 14.7871C146.41 15.2174 147.058 14.5351 147.221 13.9505C147.483 13.0077 147.591 12.0202 147.537 11.0431C147.526 10.8562 147.502 10.654 147.37 10.522C147.089 10.2408 146.616 10.498 146.328 10.7705C144.339 12.6425 143.093 15.2808 142.91 18.0065C144.931 17.2368 146.342 15.0974 146.253 12.9374C145.265 15.6888 144.574 18.5465 144.197 21.4437C145.743 19.2185 146.964 16.7671 147.811 14.194C146.175 16.1242 145.414 18.766 145.771 21.2705C146.445 18.9511 146.659 16.498 146.393 14.0962C145.536 16.2048 145.094 18.4814 145.104 20.758C145.822 18.6597 146.354 16.4962 146.69 14.3037C146.158 15.6117 145.911 17.0345 145.97 18.4454C145.987 18.8637 146.242 19.4277 146.635 19.282C146.846 19.2031 146.926 18.9494 146.964 18.7265C147.067 18.1351 147.081 17.5265 147.003 16.93C146.976 16.7122 146.87 16.4397 146.65 16.4517C146.481 16.4602 146.381 16.642 146.319 16.8014C145.802 18.13 145.594 19.5768 145.718 20.998C146.429 20.4322 146.775 19.4414 146.568 18.5568C146.253 20.0294 146.141 21.5465 146.237 23.05C146.726 22.4911 147.005 21.7522 147.01 21.01C147.043 21.4248 147.077 21.838 147.11 22.2528C147.12 22.3865 147.137 22.5357 147.238 22.6248C147.434 22.798 147.737 22.6094 147.907 22.4088C148.519 21.6888 148.845 20.7322 148.802 19.7877C148.344 20.7734 148.15 21.8791 148.246 22.9608C149.475 22.8254 150.406 21.4488 150.074 20.2574C149.815 21.0494 149.738 21.8997 149.847 22.726C150.576 22.2511 150.941 21.2825 150.705 20.446C150.374 20.9962 150.264 21.6751 150.406 22.3008C152.138 22.0677 153.706 20.8694 154.389 19.2614C153.59 19.8237 153.07 20.7665 153.026 21.742C154.219 21.514 155.223 20.5025 155.443 19.3077C154.968 19.5528 154.548 19.9728 154.466 20.5008C154.383 21.0288 154.759 21.6305 155.292 21.6545C155.727 21.6751 156.11 21.3185 156.264 20.9105C156.418 20.5025 156.396 20.0517 156.37 19.6162C156.274 20.182 156.178 20.7494 156.082 21.3151C156.78 21.3905 157.392 20.5471 157.104 19.9077C156.862 20.1648 156.732 20.5231 156.753 20.8745" stroke="#F2EBDE" stroke-width="0.171429" stroke-miterlimit="10"/>
<path d="M191.997 10.2874C198.508 13.152 201.585 11.4857 195.167 8.57312C201.141 8.66055 199.444 8.57998 192.938 8.46855C197.005 8.59712 196.005 8.87655 192.194 8.91941C196.146 7.86169 195.74 5.96741 191.495 6.78512C193.183 3.54512 190.885 3.35312 189.422 6.75598C189.249 2.72226 187.353 1.08512 187.487 5.24226C183.307 1.39369 181.617 3.64626 186.167 7.13312C180.261 4.12626 177.019 4.97312 183.355 7.86684C174.815 9.46798 176.128 12.5503 184.495 10.5394C179.594 13.6543 181.087 13.3286 185.728 10.0611C181.531 13.7177 182.711 15.036 186.981 11.46C185.646 15.7783 187.309 15.18 188.749 10.8257" stroke="#F2EBDE" stroke-width="0.342857" stroke-linejoin="bevel"/>
<path d="M180.242 11.1994C175.701 6.22973 173.555 6.65659 177.431 11.76C172.648 10.0303 176.193 11.5166 180.739 13.1486C178.322 13.9663 177.643 17.508 179.846 17.8114C176.766 22.0886 176.661 23.3812 180.093 19.1006C177.971 24.2983 178.547 24.3223 180.777 19.2532C182.371 24.4132 185.654 24.4903 185.101 19.356C190.345 24.6017 192.021 24.4937 186.769 18.792" stroke="#F2EBDE" stroke-width="0.342857" stroke-linejoin="bevel"/>
<path d="M184.619 15.7165L185.871 15.4097" stroke="#F2EBDE" stroke-width="0.342857" stroke-linejoin="bevel"/>
<path d="M178.879 20.0657C178.396 20.1891 178.713 20.3708 179.296 20.3039C179.561 20.0862 180.23 19.7742 180.13 19.9165" stroke="#F2EBDE" stroke-width="0.342857" stroke-linejoin="bevel"/>
<path d="M213.56 9.20268C213.383 9.2164 213.174 8.81011 212.998 8.82383C212.821 8.83754 212.67 9.26783 212.495 9.27811C212.32 9.2884 212.115 8.87868 211.942 8.88897C211.768 8.89925 211.606 9.32783 211.432 9.33468C211.259 9.34154 211.055 8.93011 210.884 8.93697C210.7 8.94383 210.538 9.37068 210.368 9.37583C210.181 9.38268 209.992 8.96611 209.824 8.97125C209.632 8.9764 209.464 9.39983 209.305 9.40325C209.257 9.40325 209.146 9.0004 209.103 9.0124C209.056 9.02611 209.192 9.42383 209.154 9.44783C209.116 9.47183 208.804 9.19411 208.774 9.2284C208.743 9.26268 209.07 9.52668 209.051 9.56954C209.032 9.6124 208.619 9.53697 208.612 9.58325C208.606 9.62954 209.02 9.67925 209.027 9.72554C209.034 9.77183 208.647 9.93125 208.666 9.97411C208.684 10.0153 209.06 9.83183 209.092 9.86783C209.209 10.0067 209.036 10.4387 209.188 10.593C209.322 10.7267 209.752 10.5535 209.914 10.689C210.059 10.8124 209.962 11.2684 210.13 11.3867C210.287 11.4981 210.682 11.2513 210.86 11.3541C211.038 11.457 211.016 11.9164 211.203 12.0004C211.39 12.0844 211.717 11.7604 211.912 11.8238C212.108 11.8873 212.182 12.3415 212.382 12.3844C212.583 12.4273 212.826 12.0398 213.03 12.0621C213.095 12.0655 213.083 12.4821 213.148 12.4821C213.214 12.4821 213.214 12.0621 213.28 12.0621C213.347 12.0621 213.346 12.4821 213.412 12.4821C213.479 12.4821 213.478 12.0621 213.544 12.0621C213.611 12.0621 213.611 12.4821 213.676 12.4821C213.742 12.4821 213.743 12.0621 213.808 12.0621C213.874 12.0621 213.875 12.4821 213.94 12.4821C214.006 12.4821 214.007 12.0621 214.072 12.0621" stroke="#F2EBDE" stroke-width="1.044" stroke-linejoin="bevel"/>
<path d="M214.762 19.9033C214.678 19.9513 214.568 19.7593 214.484 19.8073C214.4 19.8553 214.51 20.0473 214.426 20.0953C214.342 20.1433 214.232 19.9513 214.148 19.9993C214.064 20.0473 214.174 20.2393 214.092 20.2873C214.009 20.3353 213.898 20.1433 213.814 20.1913C213.73 20.2393 213.84 20.4313 213.756 20.4793C213.672 20.5273 213.56 20.3353 213.476 20.3833C213.392 20.4313 213.459 20.6867 213.363 20.6867C213.267 20.6867 213.327 20.4313 213.238 20.3816C213.149 20.3319 213.044 20.5273 212.955 20.4793C212.866 20.4313 212.972 20.2359 212.883 20.1879C212.794 20.1399 212.689 20.3336 212.6 20.2856C212.511 20.2376 212.617 20.0422 212.528 19.9942C212.439 19.9462 212.333 20.1399 212.245 20.0919C212.158 20.0439 212.262 19.8484 212.173 19.8004C212.084 19.7524 211.978 19.9461 211.889 19.8981" stroke="#F2EBDE" stroke-width="1.044" stroke-linejoin="bevel"/>
<path d="M224.582 21.6896C224.492 21.7582 223.842 21.0244 223.727 21.0947C223.628 21.1564 224.001 22.0616 223.886 22.1216C223.78 22.1782 223.24 21.3587 223.125 21.4119C223.01 21.465 223.28 22.4062 223.163 22.4524C223.046 22.4987 222.604 21.6244 222.486 21.6639C222.368 21.7033 222.524 22.6702 222.404 22.701C222.284 22.7319 221.951 21.8113 221.831 21.8336C221.711 21.8559 221.682 22.8382 221.56 22.8502C221.099 22.857 221.089 21.8799 220.626 21.8833C220.163 21.8867 220.17 22.8587 219.709 22.8622C219.248 22.8656 219.242 21.8919 218.78 21.8953C218.317 21.8987 218.324 22.8707 217.862 22.8742C217.401 22.8776 217.396 21.9039 216.935 21.9073C216.474 21.9107 216.479 22.8827 216.018 22.8862C215.557 22.8896 215.55 21.9159 215.089 21.9193C214.628 21.9227 214.64 22.8879 214.178 22.8982C213.988 22.917 213.877 21.945 213.714 21.9193C213.529 21.8902 213.064 22.7473 212.913 22.6702C212.754 22.5879 213.194 21.7153 213.073 21.5867C212.951 21.4582 212.066 21.8679 211.984 21.7067C211.907 21.5542 212.749 21.045 212.702 20.8684C212.66 20.7039 211.676 20.6936 211.658 20.5136C211.643 20.3422 212.61 20.145 212.618 19.965C212.627 19.785 211.689 19.4713 211.72 19.2947C211.849 18.7924 212.797 19.0427 212.934 18.5422C213.071 18.0416 212.132 17.7862 212.269 17.2839C212.406 16.7816 213.344 17.0387 213.481 16.5364C213.618 16.0342 212.678 15.7787 212.816 15.2782C212.953 14.7776 213.89 15.033 214.028 14.5324C214.165 14.0319 213.225 13.7747 213.362 13.2742C213.5 12.7736 214.437 13.0273 214.574 12.5267C214.712 12.0262 213.772 11.769 213.909 11.2667" stroke="#F2EBDE" stroke-width="1.044" stroke-linejoin="bevel"/>
<path d="M218.51 16.053C218.524 16.1079 218.406 16.2536 218.457 16.2947C218.498 16.3273 218.642 16.1936 218.704 16.2159C218.756 16.2347 218.764 16.4319 218.828 16.4422C218.882 16.4525 218.963 16.2707 219.025 16.2742C219.081 16.2776 219.14 16.4662 219.201 16.4645C219.258 16.4627 219.302 16.269 219.364 16.2622C219.426 16.2553 219.508 16.4336 219.568 16.4233C219.628 16.413 219.644 16.2142 219.702 16.2005C219.76 16.1867 219.87 16.3513 219.925 16.3342C219.98 16.317 219.974 16.1165 220.029 16.0959C220.086 16.0736 220.216 16.2227 220.268 16.197C220.322 16.1696 220.285 15.9759 220.333 15.945C220.386 15.9125 220.542 16.0342 220.586 15.9999C220.636 15.9605 220.552 15.7822 220.586 15.741C220.629 15.6913 220.821 15.741 220.842 15.693C220.868 15.633 220.694 15.561 220.681 15.5062C220.667 15.4513 220.785 15.3056 220.734 15.2645C220.693 15.2319 220.549 15.3656 220.487 15.3433C220.436 15.3245 220.427 15.1273 220.364 15.117C220.309 15.1067 220.228 15.2885 220.166 15.285C220.11 15.2816 220.052 15.093 219.99 15.0947C219.933 15.0965 219.889 15.2902 219.827 15.297C219.765 15.3039 219.683 15.1256 219.623 15.1359C219.563 15.1462 219.548 15.345 219.489 15.3587C219.431 15.3725 219.321 15.2079 219.266 15.225C219.212 15.2422 219.217 15.4427 219.162 15.4633C219.105 15.4856 218.975 15.3365 218.924 15.3622C218.869 15.3896 218.906 15.5833 218.858 15.6142C218.805 15.6467 218.649 15.525 218.605 15.5593C218.555 15.5987 218.639 15.777 218.605 15.8182C218.562 15.8679 218.37 15.8182 218.349 15.8662C218.324 15.9262 218.497 15.9982 218.51 16.053Z" stroke="#F2EBDE" stroke-width="0.0908571" stroke-miterlimit="10"/>
<path d="M218.51 16.053C218.524 16.1079 218.406 16.2536 218.457 16.2947C218.498 16.3273 218.642 16.1936 218.704 16.2159C218.756 16.2347 218.764 16.4319 218.828 16.4422C218.882 16.4525 218.963 16.2707 219.025 16.2742C219.081 16.2776 219.14 16.4662 219.201 16.4645C219.258 16.4627 219.302 16.269 219.364 16.2622C219.426 16.2553 219.508 16.4336 219.568 16.4233C219.628 16.413 219.644 16.2142 219.702 16.2005C219.76 16.1867 219.87 16.3513 219.925 16.3342C219.98 16.317 219.974 16.1165 220.029 16.0959C220.086 16.0736 220.216 16.2227 220.268 16.197C220.322 16.1696 220.285 15.9759 220.333 15.945C220.386 15.9125 220.542 16.0342 220.586 15.9999C220.636 15.9605 220.552 15.7822 220.586 15.741C220.629 15.6913 220.821 15.741 220.842 15.693C220.868 15.633 220.694 15.561 220.681 15.5062C220.667 15.4513 220.785 15.3056 220.734 15.2645C220.693 15.2319 220.549 15.3656 220.487 15.3433C220.436 15.3245 220.427 15.1273 220.364 15.117C220.309 15.1067 220.228 15.2885 220.166 15.285C220.11 15.2816 220.052 15.093 219.99 15.0947C219.933 15.0965 219.889 15.2902 219.827 15.297C219.765 15.3039 219.683 15.1256 219.623 15.1359C219.563 15.1462 219.548 15.345 219.489 15.3587C219.431 15.3725 219.321 15.2079 219.266 15.225C219.212 15.2422 219.217 15.4427 219.162 15.4633C219.105 15.4856 218.975 15.3365 218.924 15.3622C218.869 15.3896 218.906 15.5833 218.858 15.6142C218.805 15.6467 218.649 15.525 218.605 15.5593C218.555 15.5987 218.639 15.777 218.605 15.8182C218.562 15.8679 218.37 15.8182 218.349 15.8662C218.324 15.9262 218.497 15.9982 218.51 16.053Z" fill="#F2EBDE"/>
<path d="M227.998 8.781C228.193 8.757 228.431 9.15986 228.62 9.141C228.809 9.12214 228.977 8.68329 229.165 8.67129C229.354 8.65929 229.577 9.07414 229.765 9.06557C229.964 9.05871 230.147 8.62843 230.334 8.62671C230.535 8.625 230.727 9.05014 230.912 9.05357C231.114 9.057 231.322 8.63871 231.503 8.64557C231.711 8.65414 231.881 9.08957 232.059 9.10329C232.275 9.11871 232.505 8.71243 232.671 8.72957C232.717 8.73471 232.671 9.15643 232.712 9.17014C232.753 9.18386 232.974 8.82214 233.012 8.84443C233.05 8.86671 232.823 9.22843 232.856 9.25929C232.889 9.29014 233.245 9.06043 233.269 9.09814C233.293 9.13586 232.933 9.36043 232.947 9.40329C232.961 9.44614 233.384 9.39471 233.387 9.43929C233.391 9.48386 232.969 9.52329 232.964 9.56957C232.959 9.61586 233.358 9.75643 233.343 9.79929C233.307 9.89529 232.88 9.80957 232.834 9.897C232.787 9.98443 233.091 10.2964 233.031 10.377C232.971 10.4576 232.585 10.257 232.513 10.3324C232.448 10.401 232.671 10.7764 232.592 10.845C232.52 10.9084 232.172 10.6444 232.091 10.7079C232.016 10.7661 232.193 11.1656 232.107 11.2273C232.03 11.2839 231.704 10.9924 231.618 11.0507C231.539 11.1056 231.694 11.5136 231.608 11.5701C231.478 11.6559 231.14 11.3559 230.998 11.4176C230.855 11.4793 230.849 11.9267 230.696 11.9661C230.543 12.0056 230.315 11.6164 230.158 11.6387C230.009 11.6593 229.899 12.0981 229.741 12.1084C229.59 12.1187 229.419 11.7004 229.259 11.7021C229.109 11.7056 228.958 12.1307 228.798 12.129C228.639 12.1273 228.497 11.7004 228.339 11.6987C228.181 11.697 228.027 12.1187 227.869 12.117" stroke="#F2EBDE" stroke-width="1.044" stroke-linejoin="bevel"/>
<path d="M223.302 12.489C223.182 12.765 222.056 12.3244 221.857 12.5147C221.658 12.705 222.049 13.8484 221.785 13.9581C221.521 14.0678 220.952 12.9896 220.666 13.0204C220.379 13.0513 220.076 14.2307 219.795 14.1913C219.514 14.1519 219.539 12.933 219.282 12.8267C219.008 12.7136 218.137 13.5638 217.933 13.3838C217.712 13.1884 218.499 12.3039 218.403 12.0399C218.307 11.7759 217.343 12.1718 217.405 11.865C217.186 12.0416 217.081 11.181 216.846 11.2924C216.592 11.4107 216.683 12.6227 216.426 12.6656C216.152 12.7101 215.878 11.5324 215.617 11.4913C215.356 11.4501 214.698 12.4667 214.465 12.3313C214.232 12.1958 214.796 11.133 214.619 10.9136C214.46 10.7147 213.301 11.0679 213.198 10.7987C213.109 10.5638 214.196 10.0153 214.16 9.72728C214.129 9.47699 212.929 9.25242 212.944 8.96271C212.96 8.67299 214.175 8.59071 214.239 8.34214C214.309 8.06785 213.301 7.38899 213.421 7.15928C213.551 6.91071 214.681 7.36842 214.856 7.17299C215.043 6.96728 214.477 5.89242 214.696 5.74671C214.928 5.59414 215.691 6.54214 215.939 6.45985C216.203 6.37242 216.267 5.16042 216.527 5.15185C216.807 5.14328 216.904 6.34328 217.153 6.42728C217.414 6.51471 217.405 5.67642 217.595 5.86842C217.588 5.48271 218.641 5.74499 218.74 5.45185C218.86 5.09871 218.062 4.19185 218.295 3.96385C218.543 3.72042 219.457 4.53814 219.784 4.42499C220.112 4.31185 220.259 3.09985 220.609 3.10156C220.959 3.10328 221.123 4.32556 221.449 4.42499C221.775 4.52442 222.632 3.62785 222.901 3.82499C223.189 4.03585 222.532 5.04042 222.68 5.34385C222.827 5.64728 223.695 5.18442 223.645 5.55471C223.89 5.28385 224.128 6.18728 224.473 6.06556C224.818 5.94385 224.992 4.73871 225.363 4.75071C225.733 4.76271 225.863 5.99185 226.21 6.11185C226.556 6.23185 227.432 5.35756 227.72 5.57356C228.008 5.78956 227.396 6.84899 227.586 7.15756C227.776 7.46614 228.999 7.41128 229.045 7.78842C229.086 8.12099 227.891 8.40214 227.792 8.78614C227.71 9.10328 228.675 9.87985 228.478 10.2296" stroke="#F2EBDE" stroke-width="1.044" stroke-linejoin="bevel"/>
<path d="M261.876 14.5514L263.815 15.4L265.749 14.9114L266.985 13.2726L264.798 9.07085L266.088 10.3171L266.183 9.11713L265.031 6.26799L263.712 8.79828L262.962 9.97428L262.214 8.97313L262.89 7.35142L261.895 6.12742L259.641 8.29085L259.668 9.08113L258.163 3.37085L259.845 4.15599L258.36 2.93713L256.231 3.24399L254.863 5.20513L254.267 5.69371L254.452 6.52342L252.035 6.70342L251.649 4.88971L250.365 8.05256L249.323 8.06456L250.962 9.91942L246.095 9.78228L246.924 11.5257L249.871 11.02L249.084 15.3554L250.536 11.0646L251.721 11.6131L255.009 11.428L251.922 15.2817L254.322 12.9177L255.165 15.2286L256.348 14.5463L255.444 12.2868" stroke="#F2EBDE" stroke-width="0.342857" stroke-linejoin="bevel"/>
<path d="M247.29 8.29944L246.539 11.452L245.343 11.0783L244.455 12.1874L243.015 10.5194L244.657 10.4834L243.352 14.2909L245.842 12.3109L247.021 13.9257L248.989 11.8137L249.93 14.3594L248.048 15.3194L245.392 16.132L249.742 18.2852L249.361 19.5332L247.031 20.4092L248.507 21.3297L247.576 21.916L248.331 21.7L249.538 20.668L250.679 22.3652L251.845 23.0629L253.057 21.7566L254.257 21.0092L255.404 22.5023L256.69 21.8937L258.517 22.2006" stroke="#F2EBDE" stroke-width="0.342857" stroke-linejoin="bevel"/>
<path d="M252.555 16.5812L253.684 16.7578L254.62 16.1423" stroke="#F2EBDE" stroke-width="0.342857" stroke-linejoin="bevel"/>
<path d="M246.757 21.1377L247.578 21.4857L248.936 20.9337" stroke="#F2EBDE" stroke-width="0.342857" stroke-linejoin="bevel"/>
<path d="M295.495 13.228L295.75 13.8058L296.08 13.8349L296.404 13.288L296.522 10.3189L296.75 10.9652L297.125 12.1258L297.73 13.8349L297.646 12.1789L297.669 11.3869L297.94 11.4949L298.421 12.0795L298.63 11.9149L297.96 10.048L297.847 9.50804L300.16 12.9075L300.244 12.4532L300.381 12.1172L300.069 11.2703L299.328 10.0652L299.373 9.82347L299.191 9.3949L300.664 10.3823L301.396 10.6035L299.894 9.24233L300.244 9.22518L298.918 8.28404L301.804 8.56175L300.727 8.29261L300.338 10.0463L300.336 7.32404L299.882 10.1903L299.722 9.28347L299.392 11.0063L299.349 7.81604L299.014 9.88518L298.852 8.38518L298.615 8.53433L298.342 10.0258L298.164 7.97375L297.902 9.88347L297.688 8.7949L297.458 9.43261L297.233 9.42747L296.98 8.67833L296.669 8.4109L296.722 9.47204L297.223 10.6652L297.597 10.6738L294.208 8.68175L296.469 8.15033L296.779 9.4069L297.136 9.13432L296.073 8.91661L295.042 8.77947L294.369 8.67661L294.345 8.51204L294.698 8.26175L294.922 8.01147L294.189 8.06975L294.631 7.73033L295.699 7.0189L294.898 7.19204L294.269 7.3789L295.968 5.87547L294.598 6.6949L294.622 6.38804L295.701 4.67375L295.306 4.56575L294.137 6.0229L293.522 6.97261L294.014 5.04404L293.719 5.08175L293.628 3.74633L293.131 6.04861L292.968 6.37604L292.474 3.90575L292.421 5.33375L292.404 6.01261L291.23 4.11147L292.325 6.51318L290.537 4.69604L291.31 6.89375L290.988 6.00233L292.74 5.07147L292.922 4.61033L290.14 5.80861L292.588 3.98118L291.912 4.0549L292.066 3.50118L290.484 4.5949L291.125 3.5269L289.039 5.76575L289.591 4.75261L289.186 5.12633L288.82 5.60975L289.492 3.58347L288.655 5.63547L289.368 1.65833L288.861 2.59947L288.554 1.80747L288.208 2.4349L288.343 5.10575L287.464 2.3629L287.371 3.09833L287.599 4.18347L287.974 5.13833L285.945 2.64918L287.453 4.88632L286.524 4.22633L285.05 3.3709L284.825 3.68804L285.115 4.2949L287.98 5.92861L286.495 5.48632L286.769 5.74175L284.961 5.68518L285.665 6.03318L287.153 6.13261L284.589 6.83718L286.778 7.57775L285.305 7.68747L284.866 8.34061L285.494 6.43947L285.163 6.78575L285.369 4.7269L284.956 5.2429L284.549 7.39604L284.395 7.16804L284.03 4.9669L283.692 4.85375L283.788 6.7429L284.05 8.33718L282.72 5.01661L282.372 5.0509L283.022 6.99661L283.394 7.97375L282.064 6.36575L280.973 5.51033L282.465 7.55718L281.242 6.75318L281.493 7.31033L280.442 6.98118L280.869 7.5829L282.196 8.41433L280.975 8.22747L283.32 8.97833L280.096 8.64918L280.442 8.98861L280.135 9.28861L279.689 9.6469L281.609 9.66404L279.597 10.3686L281.359 10.1835L280.642 10.7132L281.222 10.7629L281.08 11.1366L281.107 11.4469L283.128 10.3103L283.171 10.4406L280.956 12.8029L283.401 10.5606L281.974 12.6623L281.906 13.3549L283.087 11.8738L283.881 10.516L282.958 13.6532L283.701 11.9578L283.917 11.6852L284.181 14.0046L284.11 10.8692L284.134 10.7835L283.942 10.3772L285.523 12.784L285.545 12.2303L285.307 11.7143L285.089 9.64175L286.02 11.5978L287.332 11.3578L285.645 12.1532L287.573 11.3869L287.609 11.4349L285.744 12.9315L287.076 12.0795L285.112 14.3286L285.103 14.9235L286.216 14.0115L286.147 14.7298L287.301 13.0463L287.246 13.7286L287.506 13.6463L287.846 12.8903L288.055 11.9869L288.144 12.9795L288.514 15.0435L288.772 14.6269L288.931 14.0715L288.478 12.052L289.092 13.1869L290.28 14.9303L288.694 11.8892L288.934 12.0606L290.23 13.2846L289.262 12.0863L289.651 12.2286" stroke="#F2EBDE" stroke-width="0.342857" stroke-linejoin="bevel"/>
<path d="M280.828 7.94806L280.886 10.4492L280.603 10.0052L280.48 10.7629L280.034 9.24749L279.97 10.3635L279.238 7.29492L279.386 9.62121L278.938 8.45549L279.028 10.2178L278.933 10.9035L278.436 9.60406L277.78 7.67549L278.383 11.4863L278.145 11.4246L277.519 9.77549L277.608 11.0852L277.154 10.2298L277.005 10.5606L277.02 11.4623L276.638 10.0223L276.242 10.1766L277.306 9.83549L277.932 9.63149L277.051 10.4749L277.51 10.3635L276.823 11.2772L276.322 12.1755L276.197 12.7944L276.451 13.0069L277.029 12.7446L278.822 10.3755L278.635 11.0338L278.282 12.1995L277.81 13.9515L278.678 12.5355L279.137 11.8944L279.298 12.1309L279.376 12.8852L279.641 12.8629L280.08 10.9292L280.252 10.4098L280.437 14.5172L280.762 14.1692L281.069 13.9463L281.229 13.0549L281.155 11.6424L281.292 11.4538L282.566 11.2103L281.198 12.2818L280.454 12.3778L282.388 12.9898L282.06 13.1664L283.605 13.7029L280.461 13.3412L280.704 13.6275L282.41 14.1949L279.701 13.9155L282.499 14.6921L281.577 14.7555L283.243 15.3143L280.073 14.9475L282.074 15.5715L280.565 15.5218L280.677 15.7841L282.103 16.2966L280.048 16.1441L281.884 16.7355L280.773 16.7629L281.356 17.1143L281.306 17.3458L280.51 17.4332L280.161 17.6064L281.136 18.0332L282.369 18.5098L282.556 18.7858L278.573 18.2629L281.992 19.1578L279.679 18.9555L279.283 19.1201L280.272 19.5486L281.227 19.9721L281.841 20.2703L281.815 20.4298L281.405 20.5463L281.121 20.6938L281.839 20.7778L281.321 20.9269L280.149 21.4223L280.937 21.2561L281.458 20.9029L280.126 22.7218L281.128 21.4806L281.203 21.7481L281.157 23.7726L281.508 23.6612L281.825 21.8235L282.089 20.7075L282.278 22.6961L282.516 22.5881L282.722 23.8926L283.015 21.5578L283.258 21.2355L283.435 23.7469L283.704 22.3618L283.956 21.7223L284.14 23.9423L284.438 21.3212L284.614 23.8635L284.909 21.4052L285.136 21.7961L285.326 23.7692L285.554 24.1292L285.862 21.1138L286.025 24.1652L286.276 23.5806L286.502 24.0572L286.783 22.1595L286.99 23.3835L287.299 20.3338L287.508 21.4875L287.757 20.9612L288.007 20.3715L288.192 22.5058L288.482 20.2995L288.622 24.3418L288.883 23.3389L289.132 24.1172L289.396 23.4983L289.524 20.8206L289.965 23.6715L290.169 22.9806L290.224 21.8715L290.152 20.8446L291.382 23.8121L290.572 21.2389L291.3 22.1115L292.629 23.2001L292.99 22.8161L292.81 22.0961" stroke="#F2EBDE" stroke-width="0.342857" stroke-linejoin="bevel"/>
<path d="M285.857 15.1635L286.732 17.7401L286.409 15.4464L287.032 16.9961L286.665 14.5189L287.006 14.9252L287.059 14.1572L287.659 15.6195L287.627 14.5001L288.604 17.5001" stroke="#F2EBDE" stroke-width="0.342857" stroke-linejoin="bevel"/>
<path d="M279.77 21.4378L280.186 21.2406L280.174 21.7892L281.012 19.7475L282.207 21.9949L281.062 19.9909L282.053 21.3263L281.218 18.9692L281.681 19.3052L281.799 18.5098L282.389 19.9858" stroke="#F2EBDE" stroke-width="0.342857" stroke-linejoin="bevel"/>
<path d="M330.167 12.4266C330.376 12.4557 330.688 12.778 330.897 12.778C331.107 12.778 331.456 12.7608 331.665 12.7334C331.875 12.706 332.133 12.3477 332.337 12.2946C332.541 12.2414 332.228 10.6317 332.423 10.5546C332.619 10.4774 332.888 10.7534 333.073 10.654C333.258 10.5546 333.765 11.014 333.937 10.8923C334.108 10.7706 334.95 11.3586 335.104 11.2163C335.259 11.074 334.823 10.2374 334.96 10.078C335.097 9.91856 334.893 9.49856 335.008 9.32199C335.123 9.14542 335.307 9.09913 335.397 8.90713C335.195 8.88656 335.089 8.51627 334.887 8.49913C334.684 8.48199 334.473 8.50427 334.271 8.49056C334.069 8.47684 333.808 9.54999 333.606 9.5397C333.404 9.52942 333.207 9.81399 333.003 9.80713C332.799 9.80027 332.641 7.53913 332.439 7.53742C332.236 7.5357 332.012 7.71742 331.809 7.71913C331.643 7.71913 331.254 7.8717 331.081 7.91456C330.908 7.95742 330.69 8.56256 330.565 8.6637C330.423 8.77684 330.397 8.9277 330.409 9.12142C330.419 8.91227 330.164 9.0357 330.153 8.82313C330.143 8.61056 329.896 8.48713 329.862 8.27799C329.828 8.06884 330.733 7.67456 330.675 7.47399C330.616 7.27342 330.882 6.86542 330.795 6.67513C330.707 6.48484 329.634 6.83113 329.512 6.65799C329.391 6.48484 329.42 6.2757 329.265 6.12827C329.111 5.98084 328.566 6.68027 328.383 6.57742C328.199 6.47456 328.725 4.82713 328.523 4.77056C328.321 4.71399 327.975 4.81856 327.767 4.80827C327.56 4.79799 327.441 5.78027 327.239 5.82313C327.037 5.86599 326.262 4.58027 326.08 4.68313C325.899 4.78599 326.063 6.37513 325.924 6.53799C325.875 6.33742 325.777 5.56256 325.688 5.37399C325.599 5.18542 324.731 5.58827 324.609 5.42027C324.488 5.25227 325.708 3.99399 325.561 3.84999C325.413 3.70599 324.524 4.4517 324.352 4.33684C324.181 4.22199 324.4 3.41284 324.21 3.33399C324.02 3.25513 323.74 3.2637 323.536 3.22942C323.332 3.19513 323.139 4.00427 322.928 4.0197C322.717 4.03513 322.297 2.9877 322.105 3.0597C321.913 3.1317 322.215 4.15342 322.045 4.26999C321.875 4.38656 321.373 4.03856 321.234 4.18942C321.095 4.34027 321.27 4.6917 321.171 4.86999C321.071 5.04827 321.015 5.1717 320.961 5.36884C320.908 5.56599 320.471 5.70142 320.478 5.90542C320.485 6.10942 320.445 6.08884 320.519 6.28599C320.355 6.17284 320.277 6.5517 320.096 6.47799C319.914 6.40427 319.643 7.06599 319.448 7.02999C319.252 6.99399 319.237 7.12256 319.038 7.12084C318.839 7.11913 318.459 4.94884 318.263 4.98313C318.068 5.01742 318.345 6.94256 318.159 7.0077C317.972 7.07284 317.301 5.9877 317.13 6.0837C316.959 6.1797 316.604 6.18656 316.453 6.31342C316.302 6.44027 316.527 7.0317 316.403 7.18599C316.28 7.34027 316.672 7.76027 316.583 7.93856C316.494 8.11684 316.818 8.28313 316.772 8.47513C316.725 8.66713 316.72 8.6877 316.713 8.88656C316.707 9.08542 316.492 9.15227 316.521 9.3477C316.551 9.54313 316.424 9.67342 316.485 9.86199C316.547 10.0506 316.94 9.96999 317.032 10.1448C317.125 10.3197 316.916 10.5374 317.037 10.6934C317.159 10.8494 316.755 11.434 316.902 11.566C317.049 11.698 317.442 11.4494 317.613 11.5488C317.785 11.6483 318.001 11.3671 318.191 11.4271C318.378 11.4871 318.364 12.7283 318.568 12.73C318.772 12.7317 318.892 11.8523 319.081 11.7957C319.281 11.7357 319.427 11.8043 319.571 11.6757C319.715 11.5471 319.883 12.4214 319.928 12.2123C319.957 12.4283 319.317 12.046 319.4 12.2483C319.482 12.4506 320.509 12.2191 320.634 12.3957C320.759 12.5723 321.289 12.2448 321.452 12.3888C321.615 12.5328 321.121 13.5134 321.311 13.6163C321.501 13.7191 321.788 13.7671 321.999 13.8203C322.209 13.8734 322.484 14.6208 322.701 14.6208C322.919 14.6208 323.055 13.3163 323.265 13.2666C323.476 13.2168 323.531 13.006 323.725 12.9117C323.919 12.8174 324.877 13.8288 325.045 13.6917C325.213 13.5546 324.892 12.7883 325.021 12.6134" stroke="#F2EBDE" stroke-width="0.342857" stroke-linejoin="bevel"/>
<path d="M315.477 8.32935C315.282 8.35163 315.222 9.43506 315.026 9.46077C314.831 9.48649 314.62 9.31163 314.426 9.34249C314.233 9.37335 314.102 9.71277 313.91 9.74706C313.718 9.78135 313.41 9.15735 313.216 9.19677C313.022 9.2362 312.935 9.73335 312.743 9.77449C312.551 9.81563 312.054 8.54877 311.862 8.59506C311.67 8.64135 311.72 9.65449 311.531 9.7042C311.342 9.75392 310.792 9.49849 310.604 9.55163C310.689 9.75049 311.449 9.84306 311.565 10.0213C311.682 10.1996 311.982 10.1311 312.127 10.2888C312.273 10.4465 311.983 10.9813 312.151 11.1168C312.319 11.2522 312.04 12.1111 312.225 12.2225C312.41 12.3339 313.336 10.9556 313.535 11.0379C313.734 11.1202 313.808 11.1991 314.017 11.2539C314.226 11.3088 314.234 12.0716 314.447 12.0956C314.66 12.1196 314.843 11.5745 315.057 11.5676C315.272 11.5608 315.464 11.9413 315.674 11.8985C315.885 11.8556 316.35 11.7373 316.552 11.6585C316.514 11.8539 316.989 12.4831 316.951 12.6802C316.914 12.8773 316.297 12.9613 316.259 13.1568C316.221 13.3522 315.952 13.5048 315.914 13.7002C315.877 13.8956 316.302 14.1802 316.264 14.3773C316.226 14.5745 316.458 14.8213 316.42 15.0168C316.382 15.2122 315.837 15.3116 315.8 15.5071C315.762 15.7025 315.904 15.9339 315.866 16.1293C315.829 16.3248 315.32 16.4311 315.282 16.6265C315.244 16.8219 314.79 16.9385 314.752 17.1339C314.714 17.3293 314.449 17.4819 314.411 17.6773C314.373 17.8728 314.332 18.0682 314.294 18.2653C314.257 18.4625 314.45 18.7025 314.414 18.8979C314.378 19.0933 315.587 19.5288 315.549 19.7259C315.515 19.9059 315.21 20.0053 315.193 20.1973C315.175 20.3893 314.658 20.5539 314.675 20.7391C314.692 20.9362 314.048 21.4831 314.125 21.6493C314.202 21.8156 315.016 21.7471 315.179 21.8619C315.34 21.9751 315.654 21.7453 315.848 21.7796C316.041 21.8139 316.214 21.8962 316.406 21.9013C316.621 21.9065 316.828 22.2185 317.044 22.2236C317.26 22.2288 317.474 22.2048 317.689 22.2099C317.903 22.2151 318.138 21.3751 318.354 21.3802C318.57 21.3853 318.789 21.1642 319.004 21.1693C319.218 21.1745 319.391 22.9385 319.607 22.9436C319.823 22.9488 320.041 22.8116 320.255 22.8168C320.469 22.8219 320.687 22.7448 320.901 22.7499C321.116 22.7551 321.34 22.3933 321.554 22.3985C321.769 22.4036 321.998 21.8105 322.213 21.8156C322.427 21.8208 322.643 21.7642 322.859 21.7693C323.075 21.7745 323.293 21.5962 323.507 21.6013C323.704 21.6065 323.903 22.3608 324.109 22.3539C324.314 22.3471 324.585 22.6282 324.782 22.5991C324.98 22.5699 324.993 21.6836 325.178 21.6185C325.374 21.5499 325.54 21.6048 325.698 21.4865C325.856 21.3682 325.343 20.9293 325.449 20.7476" stroke="#F2EBDE" stroke-width="0.342857" stroke-linejoin="bevel"/>
<path d="M320.677 15.9271C320.905 15.8705 321.169 15.9665 321.397 15.91C321.625 15.8534 321.82 15.67 322.048 15.6134C322.276 15.5568 322.526 15.5945 322.754 15.538" stroke="#F2EBDE" stroke-width="0.342857" stroke-linejoin="bevel"/>
<path d="M314.915 20.2677C315.143 20.398 315.409 20.5163 315.637 20.6466C315.829 20.4786 316.072 20.3603 316.304 20.2523C316.535 20.1443 316.741 19.942 316.993 19.9043" stroke="#F2EBDE" stroke-width="0.342857" stroke-linejoin="bevel"/>
<path d="M364.081 11.7581C366.169 12.0546 368.507 8.92605 369.277 8.94662C368.063 8.8232 367.292 8.38262 365.624 8.77348C365.089 8.77691 364.199 9.99748 364.405 9.51234C364.47 8.2472 363.542 9.81748 363.258 6.01348C362.339 5.14262 360.731 0.152339 359.862 5.96548C359.509 4.54948 358.691 7.00605 356.69 3.4832C355.235 3.59291 353.877 1.9112 354.527 6.58262C353.044 5.5592 351.254 3.25862 349.919 7.78605C349.125 9.40262 350.394 8.30034 351.788 12.1661C352.564 12.4129 354.104 15.8038 353.809 11.3809C353.958 12.4592 354.573 18.4626 355.862 13.6729C356.918 13.9403 358.3 10.6146 358.76 12.6323" stroke="#F2EBDE" stroke-width="1.71429" stroke-linejoin="bevel"/>
<path d="M349.332 8.83521C347.774 9.01178 346.689 10.3283 344.723 9.75406C345.576 11.7461 347.906 8.65006 350.148 12.0289C349.66 14.5763 348.69 21.1781 348.683 19.6729C348.539 20.4203 347.814 19.1621 349.087 21.7883C349.406 22.0112 349.967 22.1106 350.208 22.0369C352.571 22.0935 354.33 23.6295 357.297 22.2049C358.308 22.2289 358.903 22.2666 360.03 21.2809" stroke="#F2EBDE" stroke-width="1.71429" stroke-linejoin="bevel"/>
<path d="M354.498 16.0592C355.182 15.8912 356.151 14.7529 356.548 15.5569" stroke="#F2EBDE" stroke-width="1.71429" stroke-linejoin="bevel"/>
<path d="M348.757 20.2815C348.985 20.4118 348.74 18.9924 349.439 20.6724C349.823 20.3364 350.929 21.5587 350.807 20.0364" stroke="#F2EBDE" stroke-width="1.71429" stroke-linejoin="bevel"/>
<path d="M395.457 14.0257C398.372 15.0543 401.8 13.34 403 10.4257C401.457 11.9686 399.229 11.9686 397.172 12.3114C397 12.3114 396.829 12.4829 396.657 12.6543C397.686 11.4543 398.714 9.39714 397.343 8.02571C397 7.68285 396.314 7.51143 395.8 7.51143C396.486 5.28285 394.943 2.71143 392.543 2.71143C391.686 2.71143 390.657 3.22571 390.657 4.25428C389.114 3.22571 387.229 3.56857 385.686 4.59714C384.143 5.62571 383.286 7.16857 383.629 9.05428C383.8 9.74 384.314 10.2543 385 10.0829C385.857 9.74 386.543 9.22571 387.057 8.36857C386.543 9.56857 387.057 11.1114 388.086 11.6257C388.772 11.7971 389.457 11.6257 390.143 11.2829" stroke="#F2EBDE" stroke-width="0.342857" stroke-linejoin="bevel"/>
<path d="M385.686 8.36863C383.457 7.85434 381.057 8.36863 379 9.3972C381.743 9.74006 384.314 10.5972 386.886 11.6258C386.2 12.6543 384.829 13.1686 383.629 13.8543C381.571 15.3972 379.857 17.7972 380.886 20.3686C383.286 21.5686 385.686 22.9401 388.429 23.2829C390.143 23.2829 392.371 23.4543 393.571 21.9115" stroke="#F2EBDE" stroke-width="0.342857" stroke-linejoin="bevel"/>
<path d="M388.429 16.2543C388.772 16.0828 388.429 15.2257 389.8 16.2543C389.972 16.2543 390.314 15.9114 390.486 15.74" stroke="#F2EBDE" stroke-width="0.342857" stroke-linejoin="bevel"/>
<path d="M382.6 20.3686C383.285 20.3686 383.8 21.2257 384.657 20.1971" stroke="#F2EBDE" stroke-width="0.342857" stroke-linejoin="bevel"/>
<path d="M432.121 11.213C432.382 11.2507 432.558 12.8278 432.82 12.8193C433.083 12.8107 433.17 11.225 433.429 11.1753C433.688 11.1256 434.358 12.5638 434.605 12.4747C434.852 12.3856 434.452 10.8478 434.682 10.7227C434.912 10.5976 435.982 11.7736 436.191 11.6158C436.4 11.4581 435.563 10.109 435.747 9.92042C435.93 9.73185 437.305 10.5273 437.456 10.3113C437.607 10.0953 436.318 9.54156 436.429 9.30156C436.278 9.28613 436.971 8.36728 436.818 8.35356C436.666 8.33985 436.388 9.89471 436.235 9.88271C436.083 9.87071 436.036 8.29356 435.886 8.28328C435.735 8.27299 435.496 9.83471 435.344 9.82785C435.191 9.82099 435.102 8.24385 434.951 8.23871C434.8 8.23356 434.603 9.80042 434.451 9.79699C434.298 9.79356 434.168 8.21985 434.015 8.21985C433.863 8.21985 433.71 9.79013 433.558 9.79185C433.494 9.79185 433.348 8.22842 433.282 8.23356C433.215 8.23871 433.364 9.80385 433.299 9.81585C433.234 9.82785 432.81 8.31413 432.747 8.33299C432.683 8.35185 433.15 9.85013 433.09 9.87585C433.026 9.90328 432.217 8.56099 432.164 8.59699C432.107 8.63471 433.095 9.83813 433.054 9.88785C433.012 9.93756 431.631 9.24156 431.61 9.30499C431.591 9.36499 431.55 9.56042 431.555 9.63071C431.564 9.47299 433.129 9.41299 433.126 9.25528C433.122 9.09756 431.545 9.03413 431.53 8.87642C431.514 8.71871 433.045 8.33813 433.016 8.18213C432.987 8.02613 431.423 8.23699 431.379 8.08613C431.334 7.93528 432.762 7.26328 432.702 7.11756C432.642 6.97185 431.164 7.52042 431.086 7.38328C431.007 7.24613 432.222 6.24156 432.124 6.11642C432.027 5.99128 430.762 6.92728 430.645 6.81756C430.528 6.70785 431.368 5.38099 431.236 5.29528C431.104 5.20956 430.244 6.52785 430.098 6.46785C429.952 6.40785 430.275 4.86842 430.122 4.83242C429.97 4.79642 429.601 6.32728 429.445 6.32042C429.289 6.31356 429.058 4.75699 428.903 4.77756C428.749 4.79813 428.975 6.35299 428.83 6.40613C428.684 6.45928 427.825 5.14613 427.695 5.23528C427.564 5.32442 427.624 6.81413 427.52 6.93585C427.475 6.75928 428.404 5.53356 428.331 5.36728C428.257 5.20099 426.793 5.78385 426.694 5.63128C426.594 5.4787 427.731 4.38328 427.609 4.24785C427.487 4.11242 426.274 5.1187 426.133 5.00385C425.992 4.88899 426.728 3.49356 426.57 3.40442C426.412 3.31528 425.596 4.66099 425.427 4.60271C425.257 4.54442 425.447 2.97928 425.267 2.95356C425.087 2.92785 424.859 4.48442 424.676 4.49813C424.492 4.51185 424.011 3.02042 423.841 3.07699C423.671 3.13356 424.162 4.62842 424.007 4.72099C423.853 4.81356 422.771 3.67185 422.639 3.79356C422.507 3.91528 423.553 5.09128 423.448 5.23528C423.344 5.37928 421.899 4.75185 421.827 4.9147C421.755 5.07756 423.183 5.72728 423.148 5.90213C423.114 6.07699 421.546 6.1627 421.559 6.34099C421.573 6.51928 422.663 7.37813 422.727 7.54956C422.542 7.42099 422.35 5.84728 422.142 5.76842C421.935 5.68956 421.331 7.15013 421.11 7.11928C420.889 7.08842 420.724 5.51985 420.502 5.53356C420.279 5.54728 420.308 7.12785 420.092 7.18442C419.876 7.24099 419.128 5.84899 418.928 5.94499C418.727 6.04099 419.348 7.49128 419.171 7.6267C418.995 7.76213 417.755 6.78328 417.611 6.95299C417.467 7.12271 418.652 8.15985 418.552 8.36213C418.453 8.56442 416.908 8.26442 416.86 8.48042C416.812 8.69642 418.345 9.07871 418.348 9.30156C418.352 9.52442 416.823 9.91871 416.869 10.1381C416.915 10.3576 418.475 10.0953 418.563 10.2993C418.65 10.5033 417.383 11.4496 417.508 11.633C417.634 11.8164 418.978 10.9884 419.135 11.1444C419.293 11.3004 418.51 12.6701 418.698 12.7867C418.887 12.9033 419.739 11.5798 419.953 11.6484C420.047 11.6793 419.787 13.2273 419.888 13.2427C419.989 13.2581 420.219 11.705 420.32 11.705C420.421 11.705 420.615 13.265 420.714 13.2513C420.814 13.2376 420.587 11.6861 420.682 11.657C420.776 11.6278 421.467 13.037 421.554 12.9907C421.642 12.9444 420.836 11.6073 420.91 11.5404C420.983 11.4736 422.254 12.3753 422.305 12.2878C422.356 12.2004 422.199 11.0947 422.219 10.9918C422.238 11.1273 421.031 12.1078 421.071 12.2364C421.11 12.365 422.62 11.9244 422.679 12.0461C422.737 12.1678 421.443 13.0627 421.52 13.1758C421.597 13.289 422.917 12.4353 423.008 12.5364C423.099 12.6376 422.104 13.8581 422.209 13.9456C422.314 14.033 423.344 12.845 423.459 12.917C423.574 12.989 422.968 14.441 423.094 14.4941C423.219 14.5473 423.85 13.109 423.982 13.1416C424.114 13.1741 423.985 14.741 424.12 14.753C424.256 14.765 424.414 13.1998 424.549 13.1913C424.684 13.1827 425.027 14.7187 425.159 14.6913C425.291 14.6638 424.998 13.1176 425.125 13.073C425.252 13.0284 426.01 14.4067 426.13 14.3433C426.25 14.2798 425.536 12.8776 425.646 12.7987C425.756 12.7198 426.874 13.8256 426.97 13.7296C427.066 13.6336 425.97 12.5073 426.051 12.3976" stroke="#F2EBDE" stroke-width="0.342857" stroke-linejoin="bevel"/>
<path d="M417.332 9.67704C417.137 9.69933 416.792 8.5079 416.599 8.53361C416.405 8.55933 416.386 9.80047 416.192 9.82961C415.999 9.85876 415.604 8.68447 415.411 8.71876C415.217 8.75304 415.251 9.99247 415.059 10.0302C414.867 10.0679 414.423 8.91076 414.231 8.9519C414.039 8.99304 414.125 10.2308 413.935 10.277C413.744 10.3233 413.252 9.18504 413.062 9.23476C412.872 9.28447 413.432 10.0885 413.244 10.1433C413.35 10.3919 412.393 10.8222 412.549 11.0416C412.705 11.261 413.803 10.6628 413.998 10.8479C414.193 11.033 413.655 12.1593 413.883 12.305C414.111 12.4508 414.917 11.4959 415.165 11.6005C415.414 11.705 415.299 12.9496 415.561 13.0079C415.824 13.0662 416.251 11.8936 416.52 11.9039C416.789 11.9142 417.132 13.1159 417.397 13.073C417.663 13.0302 418.289 11.9553 418.541 11.8559C418.479 12.1748 417.355 12.7799 417.295 13.0988C417.235 13.4176 418.375 13.9662 418.315 14.285C418.255 14.6039 416.989 14.6913 416.929 15.0102C416.869 15.329 418.009 15.8776 417.949 16.1965C417.889 16.5153 416.624 16.6028 416.564 16.9216C416.504 17.2405 417.644 17.789 417.584 18.1079C417.524 18.4268 416.259 18.5142 416.199 18.833C416.139 19.1519 417.279 19.7005 417.219 20.0193C417.202 20.1102 415.978 19.9988 415.964 20.093C415.951 20.1873 417.154 20.4273 417.145 20.5233C417.137 20.6193 415.909 20.6468 415.908 20.741C415.906 20.8353 417.132 20.8868 417.14 20.981C417.149 21.0753 415.957 21.3685 415.98 21.4576C416.002 21.5468 417.183 21.2416 417.223 21.3273C417.262 21.413 416.283 22.1399 416.343 22.2136C416.403 22.2873 417.295 21.4593 417.375 21.5159C417.415 21.5433 416.827 22.6165 416.869 22.637C416.912 22.6576 417.447 21.5588 417.492 21.5742C417.536 21.5896 417.223 22.7742 417.269 22.7862C417.315 22.7982 417.617 21.6102 417.665 21.6188C417.713 21.6273 417.593 22.8462 417.641 22.8513C417.689 22.8565 417.843 21.641 417.891 21.6445C417.939 21.6479 417.927 22.8736 417.975 22.8753C418.023 22.877 418.109 21.6548 418.157 21.6548C418.452 21.6616 418.719 22.8925 419.014 22.8993C419.309 22.9062 419.635 21.689 419.929 21.6959C420.224 21.7028 420.492 22.9336 420.787 22.9405C421.081 22.9473 421.407 21.7302 421.702 21.737C421.997 21.7439 422.264 22.9748 422.559 22.9816C422.854 22.9885 423.18 21.7713 423.475 21.7782C423.769 21.785 424.037 23.0159 424.332 23.0228C424.627 23.0296 424.952 21.8125 425.247 21.8193C425.371 21.8228 425.489 23.0485 425.617 23.0468C425.746 23.045 425.825 21.8176 425.95 21.8108C426.075 21.8039 426.322 23.009 426.447 22.9919C426.572 22.9748 426.475 21.7508 426.595 21.7216C426.715 21.6925 427.203 22.8222 427.32 22.7776C427.436 22.733 427.009 21.5845 427.116 21.5193C427.222 21.4542 428.077 22.3302 428.167 22.241C428.256 22.1519 427.373 21.3085 427.44 21.197" stroke="#F2EBDE" stroke-width="0.342857" stroke-linejoin="bevel"/>
<path d="M422.41 16.2136C422.496 16.193 422.619 16.3302 422.705 16.3096C422.791 16.289 422.837 16.109 422.923 16.0867C423.008 16.0645 423.132 16.2033 423.218 16.1827C423.303 16.1622 423.35 15.9822 423.435 15.9599C423.521 15.9376 423.644 16.0765 423.73 16.0559C423.816 16.0353 423.862 15.8553 423.948 15.833C424.034 15.8107 424.157 15.9496 424.243 15.929C424.328 15.9085 424.375 15.7285 424.46 15.7062" stroke="#F2EBDE" stroke-width="0.342857" stroke-linejoin="bevel"/>
<path d="M416.729 20.4444C416.758 20.4615 416.705 20.6192 416.733 20.6364C416.76 20.6535 416.872 20.5267 416.899 20.5438C416.926 20.5609 416.875 20.7187 416.902 20.7358C416.93 20.7529 417.041 20.6261 417.069 20.6432C417.096 20.6604 417.045 20.8181 417.072 20.8352C417.1 20.8524 417.211 20.7255 417.238 20.7427C417.266 20.7598 417.214 20.9175 417.242 20.9347C417.269 20.9518 417.314 20.8181 417.341 20.8352C417.389 20.7941 417.514 20.8969 417.566 20.8575C417.617 20.8181 417.574 20.6484 417.628 20.6141C417.681 20.5798 417.82 20.6878 417.876 20.6569C417.933 20.6261 417.914 20.4512 417.972 20.4238C418.03 20.3964 418.152 20.5232 418.212 20.5009C418.272 20.4787 418.279 20.3021 418.339 20.2832C418.399 20.2644 418.504 20.4067 418.565 20.3929C418.627 20.3792 418.66 20.2061 418.723 20.1958" stroke="#F2EBDE" stroke-width="0.342857" stroke-linejoin="bevel"/>
<path d="M467.709 13.0009C464.581 10.27 465.777 9.62371 475.295 8.89685C465.604 8.52485 464.946 8.494 469.962 8.64485C463.998 8.50085 463.61 8.61057 468.182 9.72485C463.665 8.21457 463.507 7.47914 466.509 4.61457C462.513 6.538 461.622 6.46257 461.55 4.546C460.986 6.21743 460.249 5.58314 456.919 0.921997C458.678 5.70143 458.022 6.57743 453.762 5.446C457.495 6.76428 456.235 7.09171 447.033 7.20314C455.378 8.83857 455.889 10.0351 449.762 13.5991C457.237 10.4654 457.816 10.3386 452.713 12.4523C457.989 10.4894 458.447 11.0003 455.711 15.8003C459.587 11.29 460.233 11.0569 459.94 14.2814" stroke="#F2EBDE" stroke-width="0.342857" stroke-linejoin="bevel"/>
<path d="M449.434 5.55737C451.393 11.8042 450.56 11.9705 442.705 6.89794C450.209 13.2819 451.585 13.8579 450.625 10.2202C452.411 14.8111 452.147 16.1859 448.486 21.3819C451.806 17.9671 451.767 18.4694 449.077 24.4694C452.274 18.8259 452.499 18.8345 450.714 24.8328C453.985 18.8688 455.26 18.8997 461.063 25.0779C457.083 18.9425 457.734 18.8997 465.054 23.7288" stroke="#F2EBDE" stroke-width="0.342857" stroke-linejoin="bevel"/>
<path d="M455.528 15.9735C456.84 15.6512 457.21 15.5603 458.521 15.2397" stroke="#F2EBDE" stroke-width="0.342857" stroke-linejoin="bevel"/>
<path d="M449.787 20.0448C450.853 20.1837 450.977 20.2539 450.785 20.6157C451.308 20.1425 451.567 20.0208 452.782 19.6882" stroke="#F2EBDE" stroke-width="0.342857" stroke-linejoin="bevel"/>
<defs>
<clipPath id="clip0_167_2608">
<rect width="25.4126" height="19.764" fill="white" transform="translate(4.29395 3.11804)"/>
</clipPath>
</defs>
</svg>
