<svg width="320" height="34" viewBox="0 0 320 34" fill="none" xmlns="http://www.w3.org/2000/svg">
<path d="M27.0823 29.2896H4.9209" stroke="#EAE8E4" stroke-width="1.35593" stroke-linejoin="bevel"/>
<path d="M27.0823 4.71753H4.9209" stroke="#EAE8E4" stroke-width="1.35593" stroke-linejoin="bevel"/>
<path d="M3.71387 5.92138V28.0854" stroke="#EAE8E4" stroke-width="1.35593" stroke-linejoin="bevel"/>
<path d="M28.2861 5.92138V28.0854" stroke="#EAE8E4" stroke-width="1.35593" stroke-linejoin="bevel"/>
<path d="M29.4902 5.92139H27.082V3.51325H29.4902V5.92139Z" stroke="#EAE8E4" stroke-width="1.35593" stroke-linejoin="bevel"/>
<path d="M4.9179 5.92139H2.50977V3.51325H4.9179V5.92139Z" stroke="#EAE8E4" stroke-width="1.35593" stroke-linejoin="bevel"/>
<path d="M29.4902 30.4937H27.082V28.0855H29.4902V30.4937Z" stroke="#EAE8E4" stroke-width="1.35593" stroke-linejoin="bevel"/>
<path d="M4.9179 30.4937H2.50977V28.0855H4.9179V30.4937Z" stroke="#EAE8E4" stroke-width="1.35593" stroke-linejoin="bevel"/>
<path d="M17.0698 22.2441H15.0576V20.2319H17.0698V22.2441Z" stroke="#EAE8E4" stroke-width="1.35593" stroke-linejoin="bevel"/>
<path d="M9.96434 20.6633H9.96705C10.2441 20.6633 10.4688 20.8879 10.4688 21.165V21.1677C10.4688 21.4448 10.2441 21.6694 9.96705 21.6694H9.96434C9.68726 21.6694 9.46265 21.4448 9.46265 21.1677V21.165C9.46265 20.8879 9.68726 20.6633 9.96434 20.6633Z" stroke="#EAE8E4" stroke-width="1.35593" stroke-linejoin="bevel"/>
<path d="M15.0444 21.2136H10.418" stroke="#EAE8E4" stroke-width="1.35593" stroke-linejoin="bevel"/>
<path d="M22.1489 21.6665H22.1462C21.8691 21.6665 21.6445 21.4419 21.6445 21.1648V21.1621C21.6445 20.885 21.8691 20.6604 22.1462 20.6604H22.1489C22.426 20.6604 22.6506 20.885 22.6506 21.1621V21.1648C22.6506 21.4419 22.426 21.6665 22.1489 21.6665Z" stroke="#EAE8E4" stroke-width="1.35593" stroke-linejoin="bevel"/>
<path d="M21.6931 21.2136H17.0693" stroke="#EAE8E4" stroke-width="1.35593" stroke-linejoin="bevel"/>
<path d="M23.6325 13.6123C23.6325 13.6123 23.0033 20.5546 17.124 21.2136" stroke="#EAE8E4" stroke-width="1.35593" stroke-linejoin="bevel"/>
<path d="M8.39453 13.6746C8.39453 13.6746 9.22707 20.4001 15.0576 21.1892" stroke="#EAE8E4" stroke-width="1.35593" stroke-linejoin="bevel"/>
<path d="M24.6606 13.7751H22.6484V11.7629H24.6606V13.7751Z" stroke="#EAE8E4" stroke-width="1.35593" stroke-linejoin="bevel"/>
<path d="M9.35498 13.7751H7.34277V11.7629H9.35498V13.7751Z" stroke="#EAE8E4" stroke-width="1.35593" stroke-linejoin="bevel"/>
<path d="M35.0055 30.9155L34.6746 28.3365C35.4231 28.3799 36.177 28.3311 36.9119 28.1901V30.4437C36.1987 30.3704 35.4719 30.4437 34.7885 30.6525C35.6292 30.8179 36.5024 30.8287 37.3485 30.685C38.0373 30.0504 37.8909 28.8057 37.1668 28.2118C36.4428 27.6179 35.3444 27.6287 34.52 28.0735L34.4794 30.1155C34.5309 29.2938 34.7505 28.4803 35.1221 27.7454C35.4339 27.5908 35.8407 27.6613 36.0821 27.9135C36.5621 20.7189 37.0421 13.4701 36.1472 6.31348C36.7194 13.4294 36.3153 20.6213 34.9566 27.626C36.4102 24.7298 36.5214 21.3643 36.5295 18.1237C36.5377 14.0233 36.4238 9.92298 36.1905 5.82807C35.4746 5.76298 34.7587 5.69519 34.04 5.63011C34.3492 5.06875 34.558 4.45586 34.6583 3.824C35.4448 3.63145 36.2665 3.58535 37.0719 3.6884L37.3865 6.09382C36.5811 6.30264 35.6997 6.19146 34.9729 5.79281L35.4692 3.90265C35.1139 4.4179 35.1709 5.17723 35.5994 5.63282C36.0278 6.08841 36.7817 6.19688 37.3187 5.87416C37.6251 5.10671 37.3268 4.14399 36.638 3.68569C36.8143 4.56162 37.9533 4.76773 38.8482 4.78401C45.3133 4.88977 51.7783 4.99281 58.2434 5.09857C51.1926 5.12298 44.1417 5.14468 37.0936 5.16909C45.1478 4.83824 53.5682 3.0457 61.0339 6.08841C61.5139 5.25316 61.6929 4.24705 61.5302 3.29789C60.9716 2.95891 60.1878 3.04569 59.716 3.49857C59.2441 3.95145 59.1248 4.72976 59.4421 5.30468C59.1004 4.41519 60.1472 3.38468 61.0529 3.67756C61.9587 3.97044 62.2597 5.3101 61.6197 6.01247C61.0665 6.21857 60.5133 6.42197 59.96 6.62807C60.1661 6.38943 60.4644 6.82333 60.4753 7.14062C60.638 12.1033 60.5648 17.0742 60.2611 22.0315C60.1444 23.9352 60.0251 25.9826 61.0258 27.607C61.8665 25.6735 61.5953 23.4633 61.3811 21.367C60.8848 16.502 60.7763 11.5962 61.0556 6.71214C60.2855 13.7196 60.2475 20.8057 60.939 27.8186C60.3099 27.6586 59.6699 28.1874 59.4692 28.8057C59.2685 29.424 59.3878 30.0965 59.5099 30.7338C60.2502 30.704 60.9905 30.7555 61.7173 30.8938C61.9207 29.7982 61.9722 28.6728 61.8719 27.5637L60.0441 27.9026C60.5105 28.1494 61.0394 28.2877 61.5682 28.2986L61.5573 30.5765C61.0014 30.8748 60.2529 30.7528 59.8217 30.2945C59.3905 29.8362 59.3173 29.0796 59.6536 28.5454L59.2658 29.9257C51.8434 29.3155 44.3804 29.1908 36.9417 29.5569C44.3261 29.1745 51.7133 28.7921 59.0977 28.4098L59.1166 29.8064C51.9763 29.9555 44.8333 29.8877 37.6983 29.603" stroke="#EAE8E4" stroke-width="0.271186" stroke-miterlimit="10"/>
<path d="M39.8924 13.641C39.3907 13.2206 39.4395 12.22 40.0741 12.06C40.63 12.2362 41.2185 12.304 41.7988 12.2606C41.788 12.7 41.7717 13.1555 41.5846 13.5515C41.3975 13.9474 40.9825 14.2755 40.5459 14.2186C41.3839 16.7135 43.0219 18.9318 45.1561 20.4694C45.8368 20.9603 46.6503 21.3996 47.4775 21.2613C47.491 20.9684 47.5073 20.6756 47.5208 20.3827C47.9629 20.3827 48.4076 20.3827 48.8497 20.3827C49.0314 20.9088 49.1371 21.4647 49.1642 22.0206H47.2225C47.0653 21.4484 47.2632 20.7976 47.708 20.4098C47.4151 20.9223 47.4503 21.6301 47.8653 22.0505C48.2802 22.4708 49.0639 22.4844 49.4354 22.0233C49.807 21.5623 49.5493 20.7325 48.969 20.6267C49.0992 21.3128 50.0998 21.264 50.748 21.0037C52.1744 20.4233 53.5493 19.6342 54.5744 18.4844C55.5995 17.3345 56.2368 15.7806 56.0551 14.2511C55.5697 14.2322 55.087 14.2132 54.6015 14.1969C54.3249 13.5054 54.4117 12.6484 54.9297 12.1142C55.4476 11.58 56.4103 11.5013 56.9283 12.0356C57.1236 12.5535 56.9554 13.1881 56.527 13.5379C56.0985 13.8877 55.4449 13.9284 54.9758 13.6355C54.5554 13.1474 54.8402 12.3176 55.4042 12.0057C55.9683 11.6939 56.6707 11.7861 57.2727 12.0166C57.3188 12.7596 57.2185 13.5108 56.9717 14.2132C56.5025 14.2294 56.0334 14.2457 55.5642 14.2647C55.3961 17.6355 52.931 20.7705 49.6958 21.7305C51.3663 21.7413 53.0368 21.7494 54.7046 21.7603C54.6395 21.9637 54.3114 21.8715 54.2002 21.6871C53.9534 21.2694 54.2734 20.6376 54.7561 20.6105C55.2388 20.5833 55.6266 21.2071 55.3717 21.6193C55.1168 22.0315 54.3629 21.9393 54.23 21.4728C54.4605 21.4349 54.6883 21.3969 54.9188 21.3562C55.1927 21.6545 54.9595 22.2349 54.5527 22.2593C54.1459 22.2837 53.8476 21.7332 54.0836 21.405C53.3785 21.6166 52.6273 21.6735 51.8978 21.5678C51.2714 21.4783 50.6042 21.2722 50.0266 21.5298C49.6442 21.7006 49.3649 22.0505 48.988 22.2349C48.1554 22.6471 47.0029 21.9528 46.9812 21.0227C45.4219 21.1555 43.8625 21.2911 42.3005 21.424C41.948 21.4539 41.468 21.7522 41.6931 22.0233C42.1514 22.14 42.6883 21.8254 42.7642 21.3589C42.8402 20.8925 42.3656 20.4098 41.9046 20.521C41.4436 20.6322 41.2673 21.3427 41.6469 21.6247C41.8503 21.6681 42.0537 21.7142 42.2571 21.7576C42.3737 21.4837 42.3195 21.1094 42.0537 20.9739C41.788 20.8383 41.4002 21.1447 41.5439 21.405C41.9968 21.5244 42.4985 21.4484 42.8971 21.2016C43.0842 21.085 43.2551 20.9305 43.4639 20.8627C43.7297 20.7759 44.0198 20.8355 44.291 20.8979C44.9907 21.0552 45.6903 21.2152 46.39 21.3725C45.6524 20.9305 44.9147 20.4884 44.1771 20.0464C42.0673 18.7827 40.2585 15.1732 39.9385 12.6674C39.83 11.8105 39.5154 11.2057 40.6246 11.3928C42.5202 11.7155 41.9154 15.3413 39.8951 13.6464L39.8924 13.641Z" stroke="#EAE8E4" stroke-width="0.271186" stroke-miterlimit="10"/>
<path d="M39.1434 13.9229C39.0566 13.1609 39.1054 12.3826 39.2844 11.6368C40.1983 11.6938 41.1203 11.5826 41.9936 11.3114C42.0641 12.1277 42.1346 12.9439 42.2078 13.7602C41.3481 13.9419 40.4614 13.9907 39.5881 13.9066" stroke="#EAE8E4" stroke-width="0.271186" stroke-miterlimit="10"/>
<path d="M35.2256 27.7046C35.6541 20.4151 35.7951 13.1093 35.6459 5.80899" stroke="#EAE8E4" stroke-width="0.271186" stroke-miterlimit="10"/>
<path d="M72.1729 13.8021L72.9729 18.5397L79.3512 21.2407" stroke="#EAE8E4" stroke-width="1.35593" stroke-linejoin="bevel"/>
<path d="M81.4307 21.2407L87.0361 18.48L87.9391 13.6394L85.9513 13.8021L86.0001 11.0685H89.7046V13.8021L87.9391 13.6394" stroke="#EAE8E4" stroke-width="1.35593" stroke-linejoin="bevel"/>
<path d="M73.6583 13.8022H70.8271V11.2477H73.6583V13.8022Z" stroke="#EAE8E4" stroke-width="1.35593" stroke-linejoin="bevel"/>
<path d="M73.7695 21.1919H85.9512" stroke="#EAE8E4" stroke-width="1.35593" stroke-linejoin="bevel"/>
<path d="M79.3507 23.1338L77.7588 22.0816V19.4592H82.2605V23.1338H79.3507Z" stroke="#EAE8E4" stroke-width="1.35593" stroke-linejoin="bevel"/>
<path d="M68.0205 27.4185V6.59405H65.6611V2.80828L69.2272 3.54049L68.9696 6.39066" stroke="#EAE8E4" stroke-width="1.35593" stroke-linejoin="bevel"/>
<path d="M69.2275 4.74442H91.3889L91.6438 2.80814L94.3394 3.35052L93.797 5.94849H91.3889V4.74442" stroke="#EAE8E4" stroke-width="1.35593" stroke-linejoin="bevel"/>
<path d="M92.5927 6.49365V28.1126H90.5127V31.1987H93.7968L94.3391 28.7499L92.5927 28.1126" stroke="#EAE8E4" stroke-width="1.35593" stroke-linejoin="bevel"/>
<path d="M90.5126 29.7696L69.2272 29.3167V31.1987L66.1221 30.6292V27.4184H69.2272V29.3167" stroke="#EAE8E4" stroke-width="1.35593" stroke-linejoin="bevel"/>
<path d="M118.76 29.2896C127.403 29.2896 96.5986 29.2896 105.241 29.2896" stroke="#EAE8E4" stroke-width="0.542373" stroke-linejoin="bevel"/>
<path d="M118.76 4.71753C127.403 4.71753 96.5986 4.71753 105.241 4.71753" stroke="#EAE8E4" stroke-width="0.542373" stroke-linejoin="bevel"/>
<path d="M99.7139 10.2441C99.7139 1.60144 99.7139 32.4055 99.7139 23.7628" stroke="#EAE8E4" stroke-width="0.542373" stroke-linejoin="bevel"/>
<path d="M124.286 10.2441C124.286 1.60144 124.286 32.4055 124.286 23.7628" stroke="#EAE8E4" stroke-width="0.542373" stroke-linejoin="bevel"/>
<path d="M125.021 3.98243C125.96 3.04413 122.613 3.04413 123.551 3.98243C122.613 3.04413 122.613 6.39058 123.551 5.45228C122.613 6.39058 125.96 6.39058 125.021 5.45228C125.96 6.39058 125.96 3.04413 125.021 3.98243Z" stroke="#EAE8E4" stroke-width="0.542373" stroke-linejoin="bevel"/>
<path d="M100.449 3.98243C101.387 3.04413 98.0408 3.04413 98.9791 3.98243C98.0408 3.04413 98.0408 6.39058 98.9791 5.45228C98.0408 6.39058 101.387 6.39058 100.449 5.45228C101.387 6.39058 101.387 3.04413 100.449 3.98243Z" stroke="#EAE8E4" stroke-width="0.542373" stroke-linejoin="bevel"/>
<path d="M125.021 28.5547C125.96 27.6164 122.613 27.6164 123.551 28.5547C122.613 27.6164 122.613 30.9628 123.551 30.0245C122.613 30.9628 125.96 30.9628 125.021 30.0245C125.96 30.9628 125.96 27.6164 125.021 28.5547Z" stroke="#EAE8E4" stroke-width="0.542373" stroke-linejoin="bevel"/>
<path d="M100.449 28.5547C101.387 27.6164 98.0408 27.6164 98.9791 28.5547C98.0408 27.6164 98.0408 30.9628 98.9791 30.0245C98.0408 30.9628 101.387 30.9628 100.449 30.0245C101.387 30.9628 101.387 27.6164 100.449 28.5547Z" stroke="#EAE8E4" stroke-width="0.542373" stroke-linejoin="bevel"/>
<path d="M112.677 20.6252C113.461 19.8414 110.665 19.8414 111.451 20.6252C110.667 19.8414 110.667 22.6374 111.451 21.8509C110.667 22.6347 113.463 22.6347 112.677 21.8509C113.461 22.6347 113.461 19.8387 112.677 20.6252Z" stroke="#EAE8E4" stroke-width="0.542373" stroke-linejoin="bevel"/>
<path d="M105.965 20.8585C105.965 20.5963 105.965 20.5963 105.965 20.8585ZM105.965 20.8585C106.35 20.4653 106.665 20.7798 106.271 21.1649M105.965 20.8585C105.58 20.4653 105.265 20.7798 105.659 21.1649M106.271 21.1649C106.534 21.1649 106.534 21.1649 106.271 21.1649ZM106.271 21.1649C106.665 21.55 106.35 21.8646 105.965 21.4714M105.965 21.4714C105.965 21.7335 105.965 21.7335 105.965 21.4714ZM105.965 21.4714C105.58 21.8646 105.265 21.55 105.659 21.1649M105.659 21.1649C105.396 21.1649 105.396 21.1649 105.659 21.1649Z" stroke="#EAE8E4" stroke-width="0.542373" stroke-linejoin="bevel"/>
<path d="M110.141 21.2136C111.944 21.2136 105.514 21.2136 107.32 21.2136" stroke="#EAE8E4" stroke-width="0.542373" stroke-linejoin="bevel"/>
<path d="M118.147 20.8585C118.147 20.5963 118.147 20.5963 118.147 20.8585ZM118.147 20.8585C117.762 20.4653 117.447 20.7798 117.84 21.1649M118.147 20.8585C118.532 20.4653 118.846 20.7798 118.453 21.1649M117.84 21.1649C117.578 21.1649 117.578 21.1649 117.84 21.1649ZM117.84 21.1649C117.447 21.55 117.762 21.8646 118.147 21.4714M118.147 21.4714C118.147 21.7335 118.147 21.7335 118.147 21.4714ZM118.147 21.4714C118.532 21.8646 118.846 21.55 118.453 21.1649M118.453 21.1649C118.715 21.1649 118.715 21.1649 118.453 21.1649Z" stroke="#EAE8E4" stroke-width="0.542373" stroke-linejoin="bevel"/>
<path d="M116.793 21.2136C118.597 21.2136 112.167 21.2136 113.973 21.2136" stroke="#EAE8E4" stroke-width="0.542373" stroke-linejoin="bevel"/>
<path d="M118.353 15.0956C120.913 12.1288 120.04 21.7776 114.383 19.7329" stroke="#EAE8E4" stroke-width="0.542373" stroke-linejoin="bevel"/>
<path d="M105.693 15.1391C103.095 12.2076 104.253 21.5581 109.758 19.7221" stroke="#EAE8E4" stroke-width="0.542373" stroke-linejoin="bevel"/>
<path d="M120.268 12.1559C121.051 11.3722 118.255 11.3722 119.042 12.1559C118.258 11.3722 118.258 14.1681 119.042 13.3817C118.258 14.1654 121.054 14.1654 120.268 13.3817C121.051 14.1654 121.051 11.3695 120.268 12.1559Z" stroke="#EAE8E4" stroke-width="0.542373" stroke-linejoin="bevel"/>
<path d="M104.962 12.1559C105.746 11.3722 102.95 11.3722 103.736 12.1559C102.953 11.3722 102.953 14.1681 103.736 13.3817C102.953 14.1654 105.748 14.1654 104.962 13.3817C105.746 14.1654 105.746 11.3695 104.962 12.1559Z" stroke="#EAE8E4" stroke-width="0.542373" stroke-linejoin="bevel"/>
<path d="M155.081 28.4012C153.696 28.4012 153.696 30.1748 152.313 30.1748C150.93 30.1748 150.927 28.4012 149.544 28.4012C148.161 28.4012 148.158 30.1748 146.775 30.1748C145.392 30.1748 145.389 28.4012 144.006 28.4012C142.623 28.4012 142.62 30.1748 141.235 30.1748C139.849 30.1748 139.849 28.4012 138.466 28.4012C137.083 28.4012 137.08 30.1748 135.694 30.1748C134.309 30.1748 134.309 28.4012 132.923 28.4012" stroke="#EAE8E4" stroke-width="1.65153" stroke-linejoin="bevel"/>
<path d="M155.081 3.82921C153.696 3.82921 153.696 5.60278 152.313 5.60278C150.93 5.60278 150.927 3.82921 149.544 3.82921C148.161 3.82921 148.158 5.60278 146.775 5.60278C145.392 5.60278 145.389 3.82921 144.006 3.82921C142.623 3.82921 142.62 5.60278 141.235 5.60278C139.849 5.60278 139.849 3.82921 138.466 3.82921C137.083 3.82921 137.08 5.60278 135.694 5.60278C134.309 5.60278 134.309 3.82921 132.923 3.82921" stroke="#EAE8E4" stroke-width="1.65153" stroke-linejoin="bevel"/>
<path d="M130.826 5.91997C130.826 7.30573 132.6 7.30574 132.6 8.68879C132.6 10.0718 130.826 10.0746 130.826 11.4576C130.826 12.8407 132.6 12.8434 132.6 14.2264C132.6 15.6095 130.826 15.6122 130.826 16.9952C130.826 18.3783 132.6 18.381 132.6 19.7668C132.6 21.1525 130.826 21.1525 130.826 22.5356C130.826 23.9186 132.6 23.9213 132.6 25.3071C132.6 26.6929 130.826 26.6929 130.826 28.0786" stroke="#EAE8E4" stroke-width="1.65153" stroke-linejoin="bevel"/>
<path d="M155.398 5.91997C155.398 7.30573 157.172 7.30574 157.172 8.68879C157.172 10.0718 155.398 10.0746 155.398 11.4576C155.398 12.8407 157.172 12.8434 157.172 14.2264C157.172 15.6095 155.398 15.6122 155.398 16.9952C155.398 18.3783 157.172 18.381 157.172 19.7668C157.172 21.1525 155.398 21.1525 155.398 22.5356C155.398 23.9186 157.172 23.9213 157.172 25.3071C157.172 26.6929 155.398 26.6929 155.398 28.0786" stroke="#EAE8E4" stroke-width="1.65153" stroke-linejoin="bevel"/>
<path d="M157.557 3.44402C157.451 3.33826 157.337 3.60944 157.188 3.60944C157.039 3.60944 157.039 3.41691 156.887 3.41691C156.735 3.41691 156.738 3.60944 156.586 3.60944C156.434 3.60944 156.437 3.41691 156.288 3.41691C156.139 3.41691 156.136 3.60944 155.987 3.60944C155.838 3.60944 155.835 3.41691 155.686 3.41691C155.537 3.41691 155.534 3.60944 155.382 3.60944C155.23 3.60944 155.119 3.33826 155.011 3.44402C154.902 3.54978 155.176 3.66368 155.176 3.81283C155.176 3.96198 154.983 3.962 154.983 4.11386C154.983 4.26572 155.176 4.26301 155.176 4.41487C155.176 4.56674 154.983 4.56402 154.983 4.71317C154.983 4.86232 155.176 4.86503 155.176 5.01418C155.176 5.16334 154.983 5.16606 154.983 5.31521C154.983 5.46437 155.176 5.46708 155.176 5.61894C155.176 5.77081 154.905 5.88199 155.011 5.99047C155.116 6.09894 155.23 5.82505 155.379 5.82505C155.528 5.82505 155.528 6.01758 155.68 6.01758C155.832 6.01758 155.829 5.82505 155.981 5.82505C156.133 5.82505 156.131 6.01758 156.28 6.01758C156.429 6.01758 156.432 5.82505 156.581 5.82505C156.73 5.82505 156.733 6.01758 156.882 6.01758C157.031 6.01758 157.034 5.82505 157.185 5.82505C157.337 5.82505 157.448 6.09623 157.557 5.99047C157.665 5.8847 157.392 5.77081 157.392 5.62166C157.392 5.4725 157.584 5.47249 157.584 5.32063C157.584 5.16876 157.392 5.17148 157.392 5.01961C157.392 4.86775 157.584 4.87047 157.584 4.72132C157.584 4.57216 157.392 4.56944 157.392 4.42029C157.392 4.27113 157.584 4.26843 157.584 4.11927C157.584 3.97012 157.351 3.93216 157.397 3.78843C157.457 3.59589 157.663 3.5525 157.557 3.44674V3.44402Z" stroke="#EAE8E4" stroke-width="1.65153" stroke-linejoin="bevel"/>
<path d="M132.988 3.44402C132.882 3.33826 132.768 3.60944 132.619 3.60944C132.47 3.60944 132.47 3.41691 132.318 3.41691C132.166 3.41691 132.169 3.60944 132.017 3.60944C131.865 3.60944 131.868 3.41691 131.718 3.41691C131.569 3.41691 131.567 3.60944 131.417 3.60944C131.268 3.60944 131.266 3.41691 131.116 3.41691C130.967 3.41691 130.965 3.60944 130.813 3.60944C130.661 3.60944 130.55 3.33826 130.441 3.44402C130.333 3.54978 130.607 3.66368 130.607 3.81283C130.607 3.96198 130.414 3.962 130.414 4.11386C130.414 4.26572 130.607 4.26301 130.607 4.41487C130.607 4.56674 130.414 4.56402 130.414 4.71317C130.414 4.86232 130.607 4.86503 130.607 5.01418C130.607 5.16334 130.414 5.16606 130.414 5.31521C130.414 5.46437 130.607 5.46708 130.607 5.61894C130.607 5.77081 130.335 5.88199 130.441 5.99047C130.547 6.09894 130.661 5.82505 130.81 5.82505C130.959 5.82505 130.959 6.01758 131.111 6.01758C131.263 6.01758 131.26 5.82505 131.412 5.82505C131.564 5.82505 131.561 6.01758 131.71 6.01758C131.859 6.01758 131.862 5.82505 132.011 5.82505C132.16 5.82505 132.163 6.01758 132.312 6.01758C132.462 6.01758 132.464 5.82505 132.616 5.82505C132.768 5.82505 132.879 6.09623 132.988 5.99047C133.096 5.8847 132.822 5.77081 132.822 5.62166C132.822 5.4725 133.015 5.47249 133.015 5.32063C133.015 5.16876 132.822 5.17148 132.822 5.01961C132.822 4.86775 133.015 4.87047 133.015 4.72132C133.015 4.57216 132.822 4.56944 132.822 4.42029C132.822 4.27113 133.015 4.26843 133.015 4.11927C133.015 3.97012 132.782 3.93216 132.828 3.78843C132.887 3.59589 133.093 3.5525 132.988 3.44674V3.44402Z" stroke="#EAE8E4" stroke-width="1.65153" stroke-linejoin="bevel"/>
<path d="M157.557 28.0163C157.451 27.9105 157.337 28.1817 157.188 28.1817C157.039 28.1817 157.039 27.9892 156.887 27.9892C156.735 27.9892 156.738 28.1817 156.586 28.1817C156.434 28.1817 156.437 27.9892 156.288 27.9892C156.139 27.9892 156.136 28.1817 155.987 28.1817C155.838 28.1817 155.835 27.9892 155.686 27.9892C155.537 27.9892 155.534 28.1817 155.382 28.1817C155.23 28.1817 155.119 27.9105 155.011 28.0163C154.902 28.122 155.176 28.2359 155.176 28.3851C155.176 28.5342 154.983 28.5343 154.983 28.6861C154.983 28.838 155.176 28.8353 155.176 28.9871C155.176 29.139 154.983 29.1363 154.983 29.2854C154.983 29.4346 155.176 29.4373 155.176 29.5865C155.176 29.7356 154.983 29.7383 154.983 29.8875C154.983 30.0366 155.176 30.0393 155.176 30.1912C155.176 30.3431 154.905 30.4542 155.011 30.5627C155.116 30.6712 155.23 30.3973 155.379 30.3973C155.528 30.3973 155.528 30.5898 155.68 30.5898C155.832 30.5898 155.829 30.3973 155.981 30.3973C156.133 30.3973 156.131 30.5898 156.28 30.5898C156.429 30.5898 156.432 30.3973 156.581 30.3973C156.73 30.3973 156.733 30.5898 156.882 30.5898C157.031 30.5898 157.034 30.3973 157.185 30.3973C157.337 30.3973 157.448 30.6685 157.557 30.5627C157.665 30.457 157.392 30.3431 157.392 30.1939C157.392 30.0448 157.584 30.0448 157.584 29.8929C157.584 29.741 157.392 29.7437 157.392 29.5919C157.392 29.44 157.584 29.4427 157.584 29.2936C157.584 29.1444 157.392 29.1417 157.392 28.9926C157.392 28.8434 157.584 28.8407 157.584 28.6915C157.584 28.5424 157.351 28.5044 157.397 28.3607C157.457 28.1681 157.663 28.1248 157.557 28.019V28.0163Z" stroke="#EAE8E4" stroke-width="1.65153" stroke-linejoin="bevel"/>
<path d="M132.988 28.0163C132.882 27.9105 132.768 28.1817 132.619 28.1817C132.47 28.1817 132.47 27.9892 132.318 27.9892C132.166 27.9892 132.169 28.1817 132.017 28.1817C131.865 28.1817 131.868 27.9892 131.718 27.9892C131.569 27.9892 131.567 28.1817 131.417 28.1817C131.268 28.1817 131.266 27.9892 131.116 27.9892C130.967 27.9892 130.965 28.1817 130.813 28.1817C130.661 28.1817 130.55 27.9105 130.441 28.0163C130.333 28.122 130.607 28.2359 130.607 28.3851C130.607 28.5342 130.414 28.5343 130.414 28.6861C130.414 28.838 130.607 28.8353 130.607 28.9871C130.607 29.139 130.414 29.1363 130.414 29.2854C130.414 29.4346 130.607 29.4373 130.607 29.5865C130.607 29.7356 130.414 29.7383 130.414 29.8875C130.414 30.0366 130.607 30.0393 130.607 30.1912C130.607 30.3431 130.335 30.4542 130.441 30.5627C130.547 30.6712 130.661 30.3973 130.81 30.3973C130.959 30.3973 130.959 30.5898 131.111 30.5898C131.263 30.5898 131.26 30.3973 131.412 30.3973C131.564 30.3973 131.561 30.5898 131.71 30.5898C131.859 30.5898 131.862 30.3973 132.011 30.3973C132.16 30.3973 132.163 30.5898 132.312 30.5898C132.462 30.5898 132.464 30.3973 132.616 30.3973C132.768 30.3973 132.879 30.6685 132.988 30.5627C133.096 30.457 132.822 30.3431 132.822 30.1939C132.822 30.0448 133.015 30.0448 133.015 29.8929C133.015 29.741 132.822 29.7437 132.822 29.5919C132.822 29.44 133.015 29.4427 133.015 29.2936C133.015 29.1444 132.822 29.1417 132.822 28.9926C132.822 28.8434 133.015 28.8407 133.015 28.6915C133.015 28.5424 132.782 28.5044 132.828 28.3607C132.887 28.1681 133.093 28.1248 132.988 28.019V28.0163Z" stroke="#EAE8E4" stroke-width="1.65153" stroke-linejoin="bevel"/>
<path d="M145.126 20.1735C145.036 20.084 144.944 20.3118 144.816 20.3118C144.689 20.3118 144.692 20.1518 144.567 20.1518C144.442 20.1518 144.442 20.3118 144.317 20.3118C144.193 20.3118 144.193 20.1518 144.068 20.1518C143.943 20.1518 143.943 20.3118 143.816 20.3118C143.688 20.3118 143.691 20.1518 143.564 20.1518C143.436 20.1518 143.436 20.3118 143.311 20.3118C143.187 20.3118 143.092 20.084 143.002 20.1735C142.913 20.263 143.14 20.3552 143.14 20.4827C143.14 20.6101 142.98 20.6074 142.98 20.7322C142.98 20.8569 143.14 20.8569 143.14 20.9817C143.14 21.1064 142.98 21.1064 142.98 21.2311C142.98 21.3559 143.14 21.3559 143.14 21.4834C143.14 21.6108 142.98 21.6081 142.98 21.7356C142.98 21.863 143.14 21.863 143.14 21.9878C143.14 22.1125 142.913 22.2074 143.002 22.2969C143.092 22.3864 143.184 22.1586 143.311 22.1586C143.439 22.1586 143.436 22.3186 143.561 22.3186C143.686 22.3186 143.686 22.1586 143.81 22.1586C143.935 22.1586 143.935 22.3186 144.06 22.3186C144.185 22.3186 144.185 22.1586 144.312 22.1586C144.439 22.1586 144.437 22.3186 144.564 22.3186C144.692 22.3186 144.692 22.1586 144.816 22.1586C144.941 22.1586 145.036 22.3864 145.126 22.2969C145.215 22.2074 144.987 22.1152 144.987 21.9878C144.987 21.8603 145.147 21.863 145.147 21.7383C145.147 21.6135 144.987 21.6135 144.987 21.4888C144.987 21.364 145.147 21.364 145.147 21.2393C145.147 21.1145 144.987 21.1145 144.987 20.9871C144.987 20.8596 145.147 20.8623 145.147 20.7349C145.147 20.6074 144.952 20.5803 144.99 20.4583C145.039 20.2983 145.212 20.263 145.123 20.1735H145.126Z" stroke="#EAE8E4" stroke-width="1.65153" stroke-linejoin="bevel"/>
<path d="M137.964 20.6997V20.6184M137.964 20.6997C137.997 20.6997 138.037 20.6238 138.07 20.6292C138.103 20.6346 138.111 20.7214 138.141 20.735C138.17 20.7485 138.238 20.6916 138.265 20.7106C138.292 20.7296 138.265 20.8109 138.29 20.8353C138.314 20.8597 138.395 20.8353 138.414 20.8597C138.433 20.8841 138.376 20.9546 138.39 20.9845C138.404 21.0143 138.488 21.0224 138.496 21.055C138.504 21.0875 138.425 21.1282 138.425 21.1608M137.964 20.6997C137.932 20.6997 137.891 20.6211 137.858 20.6292C137.826 20.6374 137.818 20.7214 137.788 20.735C137.758 20.7485 137.688 20.6916 137.663 20.7106C137.639 20.7296 137.663 20.8109 137.639 20.8353C137.614 20.8597 137.533 20.8326 137.514 20.8597C137.495 20.8868 137.552 20.9546 137.538 20.9845C137.525 21.0143 137.438 21.0224 137.433 21.055C137.427 21.0875 137.503 21.1282 137.503 21.1608M138.425 21.1608H138.507M138.425 21.1608C138.425 21.1933 138.501 21.234 138.496 21.2665C138.49 21.2991 138.404 21.3072 138.39 21.337C138.376 21.3669 138.433 21.4346 138.414 21.4618C138.395 21.4889 138.314 21.4618 138.29 21.4862C138.265 21.5106 138.29 21.5919 138.265 21.6109C138.241 21.6299 138.17 21.5729 138.141 21.5865C138.111 21.6001 138.103 21.6841 138.07 21.6923C138.037 21.7004 137.997 21.6218 137.964 21.6218M137.964 21.6218V21.7031M137.964 21.6218C137.932 21.6218 137.891 21.6977 137.858 21.6923C137.826 21.6869 137.818 21.6001 137.788 21.5865C137.758 21.5729 137.69 21.6299 137.663 21.6109C137.636 21.5919 137.663 21.5106 137.639 21.4862C137.614 21.4618 137.533 21.4862 137.514 21.4618C137.495 21.4374 137.552 21.3669 137.538 21.337C137.525 21.3072 137.441 21.2991 137.433 21.2665C137.425 21.234 137.503 21.1933 137.503 21.1608M137.503 21.1608H137.422" stroke="#EAE8E4" stroke-width="1.65153" stroke-linejoin="bevel"/>
<path d="M143.043 21.0279C142.753 21.0279 142.753 21.3967 142.466 21.3967C142.178 21.3967 142.178 21.0279 141.888 21.0279C141.598 21.0279 141.601 21.3967 141.311 21.3967C141.02 21.3967 141.02 21.0279 140.733 21.0279C140.445 21.0279 140.443 21.3967 140.155 21.3967C139.868 21.3967 139.865 21.0279 139.578 21.0279C139.29 21.0279 139.287 21.3967 138.997 21.3967C138.707 21.3967 138.707 21.0279 138.417 21.0279" stroke="#EAE8E4" stroke-width="1.65153" stroke-linejoin="bevel"/>
<path d="M150.145 20.6211V20.7025M150.145 20.6211C150.113 20.6211 150.085 20.7052 150.056 20.7106C150.026 20.716 149.969 20.6509 149.939 20.6618C149.909 20.6726 149.917 20.7594 149.89 20.7784C149.863 20.7974 149.787 20.7567 149.763 20.7784C149.738 20.8001 149.782 20.8787 149.763 20.9059C149.744 20.933 149.66 20.9248 149.646 20.9547C149.633 20.9845 149.7 21.0387 149.695 21.0713C149.69 21.1038 149.605 21.1282 149.605 21.1608M150.145 20.6211C150.178 20.6211 150.202 20.7052 150.235 20.7106C150.267 20.716 150.321 20.6482 150.351 20.6618C150.381 20.6754 150.373 20.7594 150.4 20.7784C150.427 20.7974 150.506 20.754 150.528 20.7784C150.549 20.8028 150.509 20.8787 150.528 20.9059C150.546 20.933 150.633 20.9248 150.644 20.9547C150.655 20.9845 150.59 21.0415 150.595 21.0713C150.601 21.1011 150.685 21.1282 150.685 21.1608M149.605 21.1608H149.687M149.605 21.1608C149.605 21.1933 149.69 21.2204 149.695 21.2503C149.7 21.2801 149.635 21.337 149.646 21.3669C149.657 21.3967 149.744 21.3886 149.763 21.4157C149.782 21.4428 149.741 21.5187 149.763 21.5431C149.784 21.5676 149.863 21.5242 149.89 21.5431C149.917 21.5621 149.909 21.6462 149.939 21.6598C149.969 21.6733 150.023 21.6055 150.056 21.6109C150.088 21.6164 150.113 21.7004 150.145 21.7004M150.145 21.7004V21.6191M150.145 21.7004C150.178 21.7004 150.205 21.6164 150.235 21.6109C150.264 21.6055 150.321 21.6706 150.351 21.6598C150.381 21.6489 150.373 21.5621 150.4 21.5431C150.427 21.5242 150.503 21.5648 150.528 21.5431C150.552 21.5215 150.509 21.4428 150.528 21.4157C150.546 21.3886 150.631 21.3967 150.644 21.3669C150.658 21.337 150.59 21.2828 150.595 21.2503C150.601 21.2177 150.685 21.1933 150.685 21.1608M150.685 21.1608H150.603" stroke="#EAE8E4" stroke-width="1.65153" stroke-linejoin="bevel"/>
<path d="M149.693 21.0279C149.403 21.0279 149.403 21.3967 149.115 21.3967C148.828 21.3967 148.828 21.0279 148.538 21.0279C148.247 21.0279 148.25 21.3967 147.96 21.3967C147.67 21.3967 147.67 21.0279 147.382 21.0279C147.095 21.0279 147.092 21.3967 146.805 21.3967C146.517 21.3967 146.515 21.0279 146.227 21.0279C145.94 21.0279 145.937 21.3967 145.647 21.3967C145.357 21.3967 145.357 21.0279 145.066 21.0279" stroke="#EAE8E4" stroke-width="1.65153" stroke-linejoin="bevel"/>
<path d="M151.33 13.5836C151.268 14.2589 151.881 14.2236 151.683 15.0155C151.588 15.3979 150.878 15.6582 150.701 16.1274C150.552 16.526 150.921 17.1958 150.699 17.6108C150.493 17.9958 149.741 18.0555 149.459 18.4243C149.177 18.7931 149.335 19.5226 148.99 19.8318C148.646 20.1409 147.946 19.9023 147.539 20.1328C147.162 20.347 146.991 21.0847 146.541 21.2257C146.132 21.3531 145.565 20.8569 145.09 20.9084C145.09 20.9084 145.161 21.5131 145.158 21.5131C145.156 21.5131 145.074 20.9111 145.072 20.9111C145.069 20.9111 145.145 21.5158 145.142 21.5158C145.139 21.5158 145.066 20.9111 145.063 20.9111C145.061 20.9111 145.126 21.5158 145.123 21.5158C145.12 21.5158 145.058 20.9111 145.055 20.9111C145.053 20.9111 145.104 21.5186 145.101 21.5186C145.099 21.5186 145.053 20.9111 145.05 20.9111" stroke="#EAE8E4" stroke-width="1.65153" stroke-linejoin="bevel"/>
<path d="M136.096 13.7111C136.18 14.381 136.749 14.1233 136.974 14.9071C137.083 15.284 136.66 15.9159 136.852 16.3796C137.015 16.7701 137.75 16.9138 137.986 17.3233C138.203 17.7003 137.959 18.4135 138.249 18.7769C138.523 19.1186 139.263 19.0345 139.613 19.3355C139.944 19.623 139.96 20.3742 140.364 20.6047C140.741 20.8189 141.392 20.4583 141.839 20.6047C142.246 20.7376 142.55 21.4237 143.019 21.4888" stroke="#EAE8E4" stroke-width="1.65153" stroke-linejoin="bevel"/>
<path d="M152.716 11.7072C152.627 11.6177 152.535 11.8455 152.407 11.8455C152.28 11.8455 152.282 11.6855 152.158 11.6855C152.033 11.6855 152.033 11.8455 151.908 11.8455C151.784 11.8455 151.783 11.6855 151.659 11.6855C151.534 11.6855 151.534 11.8455 151.407 11.8455C151.279 11.8455 151.282 11.6855 151.154 11.6855C151.027 11.6855 151.027 11.8455 150.902 11.8455C150.777 11.8455 150.682 11.6177 150.593 11.7072C150.503 11.7967 150.731 11.8889 150.731 12.0164C150.731 12.1438 150.571 12.1411 150.571 12.2659C150.571 12.3906 150.731 12.3906 150.731 12.5153C150.731 12.6401 150.571 12.6401 150.571 12.7648C150.571 12.8896 150.731 12.8896 150.731 13.017C150.731 13.1445 150.571 13.1418 150.571 13.2692C150.571 13.3967 150.731 13.3967 150.731 13.5214C150.731 13.6462 150.503 13.7411 150.593 13.8306C150.682 13.9201 150.775 13.6923 150.902 13.6923C151.03 13.6923 151.027 13.8523 151.152 13.8523C151.276 13.8523 151.276 13.6923 151.401 13.6923C151.526 13.6923 151.526 13.8523 151.651 13.8523C151.775 13.8523 151.775 13.6923 151.903 13.6923C152.03 13.6923 152.028 13.8523 152.155 13.8523C152.282 13.8523 152.282 13.6923 152.407 13.6923C152.532 13.6923 152.627 13.9201 152.716 13.8306C152.806 13.7411 152.578 13.6489 152.578 13.5214C152.578 13.394 152.738 13.3967 152.738 13.272C152.738 13.1472 152.578 13.1472 152.578 13.0225C152.578 12.8977 152.738 12.8977 152.738 12.773C152.738 12.6482 152.578 12.6482 152.578 12.5208C152.578 12.3933 152.738 12.396 152.738 12.2686C152.738 12.1411 152.543 12.114 152.581 11.992C152.63 11.832 152.803 11.7967 152.714 11.7072H152.716Z" stroke="#EAE8E4" stroke-width="1.65153" stroke-linejoin="bevel"/>
<path d="M137.408 11.7072C137.318 11.6177 137.226 11.8455 137.099 11.8455C136.971 11.8455 136.974 11.6855 136.849 11.6855C136.724 11.6855 136.724 11.8455 136.6 11.8455C136.475 11.8455 136.475 11.6855 136.35 11.6855C136.225 11.6855 136.225 11.8455 136.098 11.8455C135.97 11.8455 135.973 11.6855 135.846 11.6855C135.718 11.6855 135.718 11.8455 135.594 11.8455C135.469 11.8455 135.374 11.6177 135.284 11.7072C135.195 11.7967 135.423 11.8889 135.423 12.0164C135.423 12.1438 135.263 12.1411 135.263 12.2659C135.263 12.3906 135.423 12.3906 135.423 12.5153C135.423 12.6401 135.263 12.6401 135.263 12.7648C135.263 12.8896 135.423 12.8896 135.423 13.017C135.423 13.1445 135.263 13.1418 135.263 13.2692C135.263 13.3967 135.423 13.3967 135.423 13.5214C135.423 13.6462 135.195 13.7411 135.284 13.8306C135.374 13.9201 135.466 13.6923 135.594 13.6923C135.721 13.6923 135.718 13.8523 135.843 13.8523C135.968 13.8523 135.968 13.6923 136.093 13.6923C136.217 13.6923 136.217 13.8523 136.342 13.8523C136.467 13.8523 136.467 13.6923 136.594 13.6923C136.722 13.6923 136.719 13.8523 136.846 13.8523C136.974 13.8523 136.974 13.6923 137.099 13.6923C137.223 13.6923 137.318 13.9201 137.408 13.8306C137.497 13.7411 137.269 13.6489 137.269 13.5214C137.269 13.394 137.429 13.3967 137.429 13.272C137.429 13.1472 137.269 13.1472 137.269 13.0225C137.269 12.8977 137.429 12.8977 137.429 12.773C137.429 12.6482 137.269 12.6482 137.269 12.5208C137.269 12.3933 137.429 12.396 137.429 12.2686C137.429 12.1411 137.234 12.114 137.272 11.992C137.321 11.832 137.495 11.7967 137.405 11.7072H137.408Z" stroke="#EAE8E4" stroke-width="1.65153" stroke-linejoin="bevel"/>
<path d="M187.118 30.3675L185.103 26.8665L183.089 26.7254L181.076 32.8787L179.061 31.2624L177.047 26.1153L175.034 31.8997L173.019 28.1953L171.002 26.1966L168.987 31.1105L166.972 31.6773L164.957 26.6197" stroke="#EAE8E4" stroke-width="0.542373" stroke-linejoin="bevel"/>
<path d="M187.118 6.06105L185.103 6.45699L183.089 2.18309L181.076 5.65156L179.061 1.79801L177.047 4.59123L175.034 1.12817L173.019 5.34513L171.002 1.14987L168.987 6.13428L166.972 5.77359L164.957 6.83936" stroke="#EAE8E4" stroke-width="0.542373" stroke-linejoin="bevel"/>
<path d="M165.153 6.01488L167.249 8.0298L163.455 10.0447L167.108 12.0596L161.532 14.0718L160.146 16.0868L162.847 18.1017L161.047 20.1166L166.386 22.1315L163.74 24.1464L162.85 26.1613L166.083 28.179" stroke="#EAE8E4" stroke-width="0.542373" stroke-linejoin="bevel"/>
<path d="M185.543 6.01488L186.438 8.0298L186.78 10.0447L190.536 12.0596L191.853 14.0718L190.5 16.0868L188.873 18.1017L185.733 20.1166L189.901 22.1315L191.805 24.1464L189.538 26.1613L187.794 28.179" stroke="#EAE8E4" stroke-width="0.542373" stroke-linejoin="bevel"/>
<path d="M189.76 3.3763L187.016 3.50646L187.075 6.06104L189.288 5.77629L189.76 3.3763Z" stroke="#EAE8E4" stroke-width="0.542373" stroke-linejoin="bevel"/>
<path d="M164.681 3.88335L162.598 3.65826L162.544 6.0203L165.183 6.24268L164.681 3.88335Z" stroke="#EAE8E4" stroke-width="0.542373" stroke-linejoin="bevel"/>
<path d="M189.592 28.1139L187.089 28.1491L187.262 30.4434L189.684 30.7444L189.592 28.1139Z" stroke="#EAE8E4" stroke-width="0.542373" stroke-linejoin="bevel"/>
<path d="M165.041 28.0922L162.381 28.0108L162.668 30.4678L164.667 30.2996L165.041 28.0922Z" stroke="#EAE8E4" stroke-width="0.542373" stroke-linejoin="bevel"/>
<path d="M177.21 20.2224L175.113 20.3444L175.016 22.4163L176.963 22.1939L177.21 20.2224Z" stroke="#EAE8E4" stroke-width="0.542373" stroke-linejoin="bevel"/>
<path d="M170.001 20.9246V20.8161L170.476 21.2582H170.671L170.001 21.7246V21.6894L169.554 21.2582H169.358L170.001 20.9246Z" stroke="#EAE8E4" stroke-width="0.542373" stroke-linejoin="bevel"/>
<path d="M175.081 20.8787L172.767 21.8333L170.454 20.5858" stroke="#EAE8E4" stroke-width="0.542373" stroke-linejoin="bevel"/>
<path d="M182.183 20.8569V20.6183L181.567 21.2583H181.676L182.183 21.7274V21.7898L182.611 21.2583H182.834L182.183 20.8569Z" stroke="#EAE8E4" stroke-width="0.542373" stroke-linejoin="bevel"/>
<path d="M181.73 20.7648L179.417 20.9004L177.106 21.074" stroke="#EAE8E4" stroke-width="0.542373" stroke-linejoin="bevel"/>
<path d="M183.157 13.6597L183.859 15.6312L183.287 17.4535L181.129 18.24L180.307 19.7722L178.764 20.5017L177.253 22.1152L177.161 22.1396" stroke="#EAE8E4" stroke-width="0.542373" stroke-linejoin="bevel"/>
<path d="M169.166 13.6787L168.418 15.6556L170.639 16.6048L170.476 18.7146L171.697 20.076L173.728 19.916L175.13 21.0251" stroke="#EAE8E4" stroke-width="0.542373" stroke-linejoin="bevel"/>
<path d="M184.651 11.9023L182.72 11.8942L182.46 14.0962L184.789 13.9633L184.651 11.9023Z" stroke="#EAE8E4" stroke-width="0.542373" stroke-linejoin="bevel"/>
<path d="M169.202 12.046L167.529 12.008L167.51 13.7355L169.517 13.9958L169.202 12.046Z" stroke="#EAE8E4" stroke-width="0.542373" stroke-linejoin="bevel"/>
<path d="M219.05 29.7444C218.567 29.7444 218.567 28.2067 218.087 28.2067C217.607 28.2067 217.604 28.5078 217.124 28.5078C216.644 28.5078 216.642 28.6325 216.162 28.6325C215.682 28.6325 215.679 29.7254 215.199 29.7254C214.719 29.7254 214.716 29.1966 214.236 29.1966C213.756 29.1966 213.753 28.8901 213.273 28.8901C212.793 28.8901 212.791 28.9796 212.311 28.9796C211.831 28.9796 211.831 28.2013 211.348 28.2013C210.865 28.2013 210.865 27.9735 210.385 27.9735C209.905 27.9735 209.905 29.2833 209.423 29.2833C208.94 29.2833 208.94 29.7281 208.46 29.7281C207.98 29.7281 207.977 29.7389 207.497 29.7389C207.017 29.7389 207.014 30.4278 206.534 30.4278C206.054 30.4278 206.052 29.1098 205.572 29.1098C205.092 29.1098 205.089 29.8854 204.609 29.8854C204.129 29.8854 204.126 28.8359 203.646 28.8359C203.166 28.8359 203.164 30.0427 202.684 30.0427C202.204 30.0427 202.201 30.1701 201.721 30.1701C201.241 30.1701 201.238 30.2894 200.758 30.2894C200.278 30.2894 200.275 29.5491 199.793 29.5491C199.31 29.5491 199.31 30.3844 198.827 30.3844C198.345 30.3844 198.345 30.162 197.862 30.162C197.379 30.162 197.379 30.5769 196.896 30.5769" stroke="#EAE8E4" stroke-width="0.542373" stroke-linejoin="bevel"/>
<path d="M219.05 4.73569C218.567 4.73569 218.567 4.48349 218.087 4.48349C217.607 4.48349 217.604 5.34857 217.124 5.34857C216.644 5.34857 216.642 4.41026 216.162 4.41026C215.682 4.41026 215.679 4.26111 215.199 4.26111C214.719 4.26111 214.716 3.85162 214.236 3.85162C213.756 3.85162 213.753 4.05772 213.273 4.05772C212.793 4.05772 212.791 5.49501 212.311 5.49501C211.831 5.49501 211.831 4.74381 211.348 4.74381C210.865 4.74381 210.865 3.76212 210.385 3.76212C209.905 3.76212 209.905 5.65501 209.423 5.65501C208.94 5.65501 208.94 3.72415 208.46 3.72415C207.98 3.72415 207.977 4.63806 207.497 4.63806C207.017 4.63806 207.014 5.29162 206.534 5.29162C206.054 5.29162 206.052 4.11196 205.572 4.11196C205.092 4.11196 205.089 5.31332 204.609 5.31332C204.129 5.31332 204.126 4.25568 203.646 4.25568C203.166 4.25568 203.164 5.95874 202.684 5.95874C202.204 5.95874 202.201 3.55332 201.721 3.55332C201.241 3.55332 201.238 3.77568 200.758 3.77568C200.278 3.77568 200.275 4.47806 199.793 4.47806C199.31 4.47806 199.31 4.41026 198.827 4.41026C198.345 4.41026 198.345 4.47534 197.862 4.47534C197.379 4.47534 197.379 4.83874 196.896 4.83874" stroke="#EAE8E4" stroke-width="0.542373" stroke-linejoin="bevel"/>
<path d="M196.834 5.91807C196.834 6.40078 194.795 6.40078 194.795 6.88078C194.795 7.36078 195.199 7.36349 195.199 7.84349C195.199 8.32349 196.153 8.32621 196.153 8.80621C196.153 9.28621 196.5 9.28892 196.5 9.76892C196.5 10.2489 195.318 10.2516 195.318 10.7316C195.318 11.2116 195.909 11.2143 195.909 11.6943C195.909 12.1743 195.765 12.1771 195.765 12.6571C195.765 13.1371 194.594 13.137 194.594 13.6198C194.594 14.1025 195.942 14.1025 195.942 14.5825C195.942 15.0625 196.693 15.0625 196.693 15.5452C196.693 16.0279 196.904 16.0279 196.904 16.5079C196.904 16.9879 196.343 16.9906 196.343 17.4706C196.343 17.9506 195.367 17.9533 195.367 18.4333C195.367 18.9133 195.746 18.916 195.746 19.396C195.746 19.876 194.515 19.8787 194.515 20.3587C194.515 20.8387 194.974 20.8415 194.974 21.3215C194.974 21.8015 195.961 21.8042 195.961 22.2842C195.961 22.7642 195.315 22.7669 195.315 23.2469C195.315 23.7269 194.377 23.7296 194.377 24.2096C194.377 24.6896 196.075 24.6923 196.075 25.175C196.075 25.6577 196.774 25.6577 196.774 26.1404C196.774 26.6232 194.719 26.6232 194.719 27.1059C194.719 27.5886 194.553 27.5886 194.553 28.0713" stroke="#EAE8E4" stroke-width="0.542373" stroke-linejoin="bevel"/>
<path d="M219.576 5.91807C219.576 6.40078 220.251 6.40078 220.251 6.88078C220.251 7.36078 219.801 7.36349 219.801 7.84349C219.801 8.32349 219.693 8.32621 219.693 8.80621C219.693 9.28621 221.146 9.28892 221.146 9.76892C221.146 10.2489 219.088 10.2516 219.088 10.7316C219.088 11.2116 219.896 11.2143 219.896 11.6943C219.896 12.1743 219.28 12.1771 219.28 12.6571C219.28 13.1371 219.234 13.137 219.234 13.6198C219.234 14.1025 221.366 14.1025 221.366 14.5825C221.366 15.0625 221.458 15.0625 221.458 15.5452C221.458 16.0279 219.218 16.0279 219.218 16.5079C219.218 16.9879 219.153 16.9906 219.153 17.4706C219.153 17.9506 221.284 17.9533 221.284 18.4333C221.284 18.9133 220.62 18.916 220.62 19.396C220.62 19.876 220.615 19.8787 220.615 20.3587C220.615 20.8387 220.905 20.8415 220.905 21.3215C220.905 21.8015 221.539 21.8042 221.539 22.2842C221.539 22.7642 220.357 22.7669 220.357 23.2469C220.357 23.7269 220.661 23.7296 220.661 24.2096C220.661 24.6896 220.33 24.6923 220.33 25.175C220.33 25.6577 221.168 25.6577 221.168 26.1404C221.168 26.6232 219.34 26.6232 219.34 27.1059C219.34 27.5886 219.807 27.5886 219.807 28.0713" stroke="#EAE8E4" stroke-width="0.542373" stroke-linejoin="bevel"/>
<path d="M221.548 3.4203C221.122 2.99454 220.856 3.56947 220.254 3.56947C219.652 3.56947 219.432 3.04335 219.006 3.46911C218.581 3.89488 219.115 4.11455 219.115 4.71658C219.115 5.31862 218.592 5.52743 219.017 5.95319C219.443 6.37895 219.652 5.94235 220.254 5.94235C220.856 5.94235 220.967 6.28133 221.393 5.85557C221.819 5.42981 221.325 5.30235 221.472 4.7193C221.64 4.04675 221.973 3.84607 221.548 3.4203Z" stroke="#EAE8E4" stroke-width="0.542373" stroke-linejoin="bevel"/>
<path d="M196.883 3.51529C196.457 3.08953 196.283 3.58309 195.681 3.58309C195.079 3.58309 194.895 3.07597 194.469 3.50173C194.043 3.9275 194.355 4.1119 194.355 4.71393C194.355 5.31596 194.119 5.42715 194.545 5.85292C194.971 6.27868 195.082 5.94511 195.684 5.94511C196.286 5.94511 196.549 6.43054 196.975 6.00478C197.401 5.57902 196.739 5.29969 196.866 4.7085C196.999 4.08206 197.311 3.93834 196.885 3.51258L196.883 3.51529Z" stroke="#EAE8E4" stroke-width="0.542373" stroke-linejoin="bevel"/>
<path d="M221.449 28.0902C221.023 27.6644 220.855 28.0305 220.253 28.0305C219.651 28.0305 219.434 27.6129 219.009 28.0414C218.583 28.4698 219.109 28.6841 219.109 29.2861C219.109 29.8881 218.534 30.1566 218.96 30.5824C219.386 31.0081 219.654 30.4549 220.256 30.4549C220.858 30.4549 221.059 30.9403 221.484 30.5146C221.91 30.0888 221.422 29.8936 221.547 29.3051C221.68 28.6814 221.878 28.5186 221.452 28.0929L221.449 28.0902Z" stroke="#EAE8E4" stroke-width="0.542373" stroke-linejoin="bevel"/>
<path d="M196.891 28.0766C196.465 27.6508 196.283 27.9898 195.681 27.9898C195.079 27.9898 194.965 27.7186 194.537 28.1444C194.108 28.5701 194.518 28.684 194.518 29.2888C194.518 29.8935 194.016 30.1023 194.442 30.5281C194.868 30.9539 195.076 30.4766 195.681 30.4766C196.286 30.4766 196.384 30.8427 196.809 30.4169C197.235 29.9911 196.766 29.88 196.893 29.2915C197.029 28.6596 197.316 28.505 196.893 28.0793L196.891 28.0766Z" stroke="#EAE8E4" stroke-width="0.542373" stroke-linejoin="bevel"/>
<path d="M209.097 20.1689C208.741 19.8137 208.535 20.3262 208.031 20.3262C207.527 20.3262 207.299 19.792 206.943 20.1472C206.588 20.5025 206.938 20.733 206.938 21.2347C206.938 21.7364 206.61 21.9425 206.968 22.2977C207.326 22.653 207.529 22.3031 208.031 22.3031C208.533 22.3031 208.679 22.5906 209.034 22.2354C209.39 21.8801 209.013 21.7445 209.132 21.2564C209.265 20.7031 209.455 20.5242 209.099 20.1689H209.097Z" stroke="#EAE8E4" stroke-width="0.542373" stroke-linejoin="bevel"/>
<path d="M201.933 20.6243V20.6921C202.209 20.6921 202.47 20.8847 202.47 21.164H202.494C202.494 21.4406 202.209 21.625 201.933 21.625V21.6114C201.656 21.6114 201.472 21.4433 201.472 21.1667H201.437C201.437 20.8901 201.656 20.6297 201.933 20.6297V20.6243Z" stroke="#EAE8E4" stroke-width="0.542373" stroke-linejoin="bevel"/>
<path d="M207.011 21.2238C206.55 21.2238 206.55 21.3811 206.087 21.3811C205.623 21.3811 205.626 21.0584 205.162 21.0584C204.698 21.0584 204.701 21.297 204.237 21.297C203.773 21.297 203.773 21.2916 203.312 21.2916C202.851 21.2916 202.849 21.1777 202.388 21.1777" stroke="#EAE8E4" stroke-width="0.542373" stroke-linejoin="bevel"/>
<path d="M214.114 20.6652V20.6381C213.837 20.6381 213.609 20.8848 213.609 21.1615H213.65C213.65 21.4381 213.834 21.6143 214.114 21.6143V21.6306C214.39 21.6306 214.632 21.4381 214.632 21.1615H214.662C214.662 20.8848 214.39 20.6652 214.114 20.6652Z" stroke="#EAE8E4" stroke-width="0.542373" stroke-linejoin="bevel"/>
<path d="M213.661 21.3079C213.2 21.3079 213.2 21.4814 212.736 21.4814C212.272 21.4814 212.275 21.1777 211.811 21.1777C211.348 21.1777 211.35 20.9418 210.887 20.9418C210.423 20.9418 210.423 21.2916 209.962 21.2916C209.501 21.2916 209.498 21.3431 209.037 21.3431" stroke="#EAE8E4" stroke-width="0.542373" stroke-linejoin="bevel"/>
<path d="M215.209 13.5737C215.166 14.0645 215.578 13.9913 215.45 14.5825C215.391 14.8591 215.008 15.0923 214.902 15.4449C214.813 15.7378 214.984 16.1337 214.854 16.4564C214.737 16.7493 214.87 17.1886 214.713 17.4896C214.566 17.7744 214.355 18.0672 214.168 18.3466C213.98 18.6259 213.766 18.8998 213.547 19.152C213.327 19.4042 212.638 19.1466 212.386 19.3662C212.134 19.5859 212.361 20.4266 212.077 20.6028C211.792 20.7791 211.393 20.7981 211.081 20.9283C210.789 21.053 210.363 20.8442 210.032 20.9283C209.726 21.0069 209.381 20.7357 209.039 20.7737C209.02 20.7737 209.072 21.5249 209.056 21.5276" stroke="#EAE8E4" stroke-width="0.542373" stroke-linejoin="bevel"/>
<path d="M200.08 13.7064C200.14 14.1946 200.495 14.0264 200.644 14.6095C200.715 14.8834 200.848 15.179 200.967 15.5261C201.064 15.8135 200.731 16.3098 200.872 16.6271C200.999 16.9146 201.664 16.9552 201.829 17.2508C201.984 17.5274 201.824 18.0156 202.016 18.2895C202.209 18.5634 202.732 18.539 202.955 18.7857C203.177 19.0325 202.984 19.7024 203.239 19.9166C203.494 20.1308 203.969 20.0603 204.254 20.2366C204.538 20.4129 204.701 20.8305 205.01 20.9634C205.3 21.0881 205.761 20.8142 206.09 20.901C206.393 20.9851 206.686 21.1695 207.022 21.2156" stroke="#EAE8E4" stroke-width="0.542373" stroke-linejoin="bevel"/>
<path d="M216.707 11.6834C216.351 11.3281 216.126 11.6834 215.622 11.6834C215.118 11.6834 215.044 11.4827 214.689 11.8379C214.334 12.1932 214.61 12.2664 214.61 12.7708C214.61 13.2752 214.315 13.3674 214.67 13.7227C215.025 14.078 215.118 13.7769 215.622 13.7769C216.126 13.7769 216.276 14.1349 216.631 13.7769C216.986 13.419 216.406 13.2319 216.528 12.7437C216.669 12.1797 217.062 12.0386 216.707 11.6834Z" stroke="#EAE8E4" stroke-width="0.542373" stroke-linejoin="bevel"/>
<path d="M201.298 11.7837C200.943 11.4284 200.818 11.8325 200.316 11.8325C199.815 11.8325 199.698 11.4366 199.343 11.7918C198.987 12.1471 199.419 12.2637 199.419 12.7654C199.419 13.2671 198.985 13.3864 199.34 13.7417C199.695 14.0969 199.815 13.6684 200.316 13.6684C200.818 13.6684 200.907 14.0671 201.263 13.7118C201.618 13.3566 201.314 13.2752 201.415 12.7844C201.515 12.2935 201.653 12.1389 201.298 11.7837Z" stroke="#EAE8E4" stroke-width="0.542373" stroke-linejoin="bevel"/>
<path d="M251.075 30.0122C251.075 30.0122 229.356 23.7234 228.914 30.0122" stroke="#EAE8E4" stroke-width="1.35593" stroke-linejoin="bevel"/>
<path d="M251.075 5.44019C251.075 5.44019 229.334 1.96358 228.914 5.44019" stroke="#EAE8E4" stroke-width="1.35593" stroke-linejoin="bevel"/>
<path d="M227.707 6.64406C227.707 6.64406 228.239 22.1532 227.707 28.8054" stroke="#EAE8E4" stroke-width="1.35593" stroke-linejoin="bevel"/>
<path d="M252.279 6.64406C252.279 6.64406 252.594 22.8122 252.279 28.8054" stroke="#EAE8E4" stroke-width="1.35593" stroke-linejoin="bevel"/>
<path d="M253.483 4.23607C253.483 4.23607 251.78 -2.80664 251.075 4.23607C251.075 4.23607 250.891 13.5893 251.075 6.64421C251.075 6.64421 252.892 3.57438 253.483 6.64421C253.483 6.64421 254.175 -2.89613 253.483 4.23607Z" stroke="#EAE8E4" stroke-width="1.35593" stroke-linejoin="bevel"/>
<path d="M228.914 4.23586C228.914 4.23586 225.494 11.3789 226.505 4.23586C226.505 4.23586 226.503 10.9776 226.505 6.644C226.505 6.644 228.545 11.5281 228.914 6.644C228.914 6.644 228.246 0.675186 228.914 4.23586Z" stroke="#EAE8E4" stroke-width="1.35593" stroke-linejoin="bevel"/>
<path d="M253.483 28.8082C253.483 28.8082 250.782 25.2095 251.075 28.8082C251.075 28.8082 250.177 24.9112 251.075 31.2163C251.075 31.2163 254.332 26.335 253.483 31.2163C253.483 31.2163 252.751 21.4997 253.483 28.8082Z" stroke="#EAE8E4" stroke-width="1.35593" stroke-linejoin="bevel"/>
<path d="M228.914 28.8082C228.914 28.8082 226.519 30.5601 226.505 28.8082C226.505 28.8082 225.838 30.7906 226.505 31.2164C226.505 31.2164 228.96 29.7113 228.914 31.2164C228.914 31.2164 228.382 36.2984 228.914 28.8082Z" stroke="#EAE8E4" stroke-width="1.35593" stroke-linejoin="bevel"/>
<path d="M241.063 20.9546C241.063 20.9546 238.874 21.6027 239.051 20.9546C239.051 20.9546 238.416 28.7512 239.051 22.9668C239.051 22.9668 240.179 21.5132 241.063 22.9668C241.063 22.9668 242.142 20.659 241.063 20.9546Z" stroke="#EAE8E4" stroke-width="1.35593" stroke-linejoin="bevel"/>
<path d="M233.957 21.3857C234.234 21.3857 235.104 15.8237 234.459 21.8874C234.459 22.164 235.169 24.6643 233.957 22.3891C233.68 22.3891 232.88 15.6175 233.455 21.8874C233.455 21.6108 232.631 22.1992 233.957 21.3857Z" stroke="#EAE8E4" stroke-width="1.35593" stroke-linejoin="bevel"/>
<path d="M239.037 21.9363C239.037 21.9363 235.167 14.3675 234.41 21.9363" stroke="#EAE8E4" stroke-width="1.35593" stroke-linejoin="bevel"/>
<path d="M246.139 21.3857C245.863 21.3857 245.668 28.1165 245.638 21.8874C245.638 22.164 246.001 29.1362 246.139 22.3891C246.416 22.3891 246.4 23.0752 246.641 21.8874C246.641 21.6108 246.451 23.3979 246.139 21.3857Z" stroke="#EAE8E4" stroke-width="1.35593" stroke-linejoin="bevel"/>
<path d="M245.687 21.9364C245.687 21.9364 242.04 26.3784 241.061 21.9364" stroke="#EAE8E4" stroke-width="1.35593" stroke-linejoin="bevel"/>
<path d="M247.625 14.3349C247.625 14.3349 247.078 20.4691 241.117 21.9362C241.098 21.9362 240.707 14.6549 241.063 21.9417" stroke="#EAE8E4" stroke-width="1.35593" stroke-linejoin="bevel"/>
<path d="M232.388 14.3974C232.388 14.3974 232.157 22.0313 239.051 21.9119" stroke="#EAE8E4" stroke-width="1.35593" stroke-linejoin="bevel"/>
<path d="M248.653 12.4883C248.653 12.4883 246.627 19.8266 246.641 12.4883C246.641 12.4883 246.671 5.84965 246.641 14.5005C246.641 14.5005 249.67 12.7703 248.653 14.5005C248.653 14.5005 248.862 16.5913 248.653 12.4883Z" stroke="#EAE8E4" stroke-width="1.35593" stroke-linejoin="bevel"/>
<path d="M233.345 12.4882C233.345 12.4882 232.138 8.54787 231.333 12.4882C231.333 12.4882 231.607 16.038 231.333 14.5004C231.333 14.5004 233.757 8.2577 233.345 14.5004C233.345 14.5004 232.898 17.0116 233.345 12.4882Z" stroke="#EAE8E4" stroke-width="1.35593" stroke-linejoin="bevel"/>
<path d="M283.012 29.447C281.656 27.2775 279.215 26.4639 276.774 26.1927C274.876 26.1927 272.978 27.0063 272.164 28.6334C271.622 30.2605 270.537 31.8876 268.639 32.43C265.656 32.9724 262.944 31.8876 260.774 29.447" stroke="#EAE8E4" stroke-width="0.542373" stroke-linejoin="bevel"/>
<path d="M283.012 4.76887C280.571 1.78582 275.961 -0.112483 272.978 3.14175C271.622 4.76887 270.808 7.20955 268.639 7.75192C265.656 8.56548 262.673 6.93836 260.774 4.76887" stroke="#EAE8E4" stroke-width="0.542373" stroke-linejoin="bevel"/>
<path d="M259.69 5.85378C257.792 8.02327 255.894 10.4639 256.707 13.7182C257.249 15.8877 259.69 16.7012 261.317 18.0572C264.3 21.0402 262.673 25.6504 259.69 28.0911" stroke="#EAE8E4" stroke-width="0.542373" stroke-linejoin="bevel"/>
<path d="M284.097 5.85378C281.927 8.02327 280.3 10.7351 281.114 13.7182C281.656 15.3453 283.012 16.7012 284.91 17.2436C286.266 17.786 287.08 19.1419 287.351 20.4978C287.893 23.4809 286.808 26.1928 284.097 28.0911" stroke="#EAE8E4" stroke-width="0.542373" stroke-linejoin="bevel"/>
<path d="M285.453 3.68417C284.639 3.68417 283.554 3.41299 283.012 3.95536C282.741 4.22655 282.741 5.31129 283.012 5.58248C283.554 6.12485 284.91 6.12485 285.453 5.58248C285.724 5.31129 285.453 4.49773 285.453 3.68417Z" stroke="#EAE8E4" stroke-width="0.542373" stroke-linejoin="bevel"/>
<path d="M260.775 3.68434H258.334C258.334 4.4979 258.876 5.04027 258.334 5.85383C259.148 5.85383 260.232 6.12502 260.775 5.58265C261.046 5.31146 260.775 4.4979 260.775 3.68434Z" stroke="#EAE8E4" stroke-width="0.542373" stroke-linejoin="bevel"/>
<path d="M285.453 28.091C284.64 28.091 283.555 27.8198 283.284 28.3622C282.741 28.6333 282.741 29.9893 283.284 30.2605C283.555 30.8028 284.911 30.8028 285.182 30.2605C285.724 29.9893 285.453 28.9045 285.453 28.091Z" stroke="#EAE8E4" stroke-width="0.542373" stroke-linejoin="bevel"/>
<path d="M260.775 28.0911H258.334C258.605 28.9047 258.876 29.7183 258.334 30.5318C259.148 30.5318 260.232 30.803 260.503 30.2606C261.046 29.9894 260.775 28.9047 260.775 28.0911Z" stroke="#EAE8E4" stroke-width="0.542373" stroke-linejoin="bevel"/>
<path d="M272.978 20.2267C272.435 20.2267 271.351 19.9556 271.08 20.2267C270.808 20.7691 271.08 21.5827 271.08 22.3962C271.622 22.3962 272.164 21.8539 272.978 22.3962V20.2267Z" stroke="#EAE8E4" stroke-width="0.542373" stroke-linejoin="bevel"/>
<path d="M265.656 20.769C265.927 20.769 266.198 21.0401 266.47 21.0401C266.47 21.3113 266.198 21.5825 266.198 21.5825C265.927 21.5825 265.656 21.3113 265.385 21.3113C265.385 21.0401 265.656 21.0401 265.656 20.769Z" stroke="#EAE8E4" stroke-width="0.542373" stroke-linejoin="bevel"/>
<path d="M271.08 21.3114C269.995 19.6843 268.91 21.3114 267.826 21.8538C267.283 21.8538 267.012 21.5826 266.47 21.3114" stroke="#EAE8E4" stroke-width="0.542373" stroke-linejoin="bevel"/>
<path d="M277.859 20.769C277.859 21.0401 277.588 21.0401 277.588 21.3113C277.588 21.3113 277.859 21.5825 278.13 21.5825C278.401 21.5825 278.401 21.3113 278.673 21.0401C278.401 21.0401 278.13 20.769 277.859 20.769Z" stroke="#EAE8E4" stroke-width="0.542373" stroke-linejoin="bevel"/>
<path d="M277.589 21.3113C277.046 21.0401 276.504 20.4977 276.233 20.4977C275.419 21.0401 274.877 22.396 272.979 21.3113" stroke="#EAE8E4" stroke-width="0.542373" stroke-linejoin="bevel"/>
<path d="M279.487 13.7182C278.673 13.9894 278.131 14.5318 277.86 15.3453C277.86 16.9725 278.673 18.5996 277.589 19.9555C276.504 21.3114 274.877 21.8538 272.979 21.3114" stroke="#EAE8E4" stroke-width="0.542373" stroke-linejoin="bevel"/>
<path d="M264.3 13.7181C264.029 14.5316 264.029 15.3452 264.029 16.1587C264.3 18.3282 266.47 19.1418 268.368 19.1418C269.724 19.1418 270.538 20.2265 271.08 21.3113" stroke="#EAE8E4" stroke-width="0.542373" stroke-linejoin="bevel"/>
<path d="M280.571 11.8199C280.029 11.8199 279.215 11.5487 278.673 11.8199C278.402 12.3623 278.402 13.1759 278.673 13.7182C279.215 13.9894 280.029 13.9894 280.571 13.7182C280.843 13.1759 280.571 12.3623 280.571 11.8199Z" stroke="#EAE8E4" stroke-width="0.542373" stroke-linejoin="bevel"/>
<path d="M265.385 11.8198C264.571 11.8198 263.757 11.5486 263.215 11.8198C262.944 12.091 262.944 13.4469 263.215 13.7181C263.757 13.9893 264.571 13.7181 265.385 13.7181C265.385 13.1757 264.842 12.6333 265.385 11.8198Z" stroke="#EAE8E4" stroke-width="0.542373" stroke-linejoin="bevel"/>
<path d="M315.081 28.4012C313.696 28.4012 313.696 30.1748 312.313 30.1748C310.93 30.1748 310.927 28.4012 309.544 28.4012C308.161 28.4012 308.158 30.1748 306.775 30.1748C305.392 30.1748 305.389 28.4012 304.006 28.4012C302.623 28.4012 302.62 30.1748 301.235 30.1748C299.849 30.1748 299.849 28.4012 298.466 28.4012C297.083 28.4012 297.08 30.1748 295.694 30.1748C294.309 30.1748 294.309 28.4012 292.923 28.4012" stroke="#EAE8E4" stroke-width="0.542373" stroke-linejoin="bevel"/>
<path d="M315.081 3.82921C313.696 3.82921 313.696 5.60278 312.313 5.60278C310.93 5.60278 310.927 3.82921 309.544 3.82921C308.161 3.82921 308.158 5.60278 306.775 5.60278C305.392 5.60278 305.389 3.82921 304.006 3.82921C302.623 3.82921 302.62 5.60278 301.235 5.60278C299.849 5.60278 299.849 3.82921 298.466 3.82921C297.083 3.82921 297.08 5.60278 295.694 5.60278C294.309 5.60278 294.309 3.82921 292.923 3.82921" stroke="#EAE8E4" stroke-width="0.542373" stroke-linejoin="bevel"/>
<path d="M290.826 5.91997C290.826 7.30573 292.6 7.30574 292.6 8.68879C292.6 10.0746 290.826 10.0745 290.826 11.4576C290.826 12.8434 292.6 12.8434 292.6 14.2264C292.6 15.6095 290.826 15.6122 290.826 16.9952C290.826 18.3783 292.6 18.381 292.6 19.7668C292.6 21.1525 290.826 21.1525 290.826 22.5356C290.826 23.9186 292.6 23.9213 292.6 25.3071C292.6 26.6929 290.826 26.6929 290.826 28.0786" stroke="#EAE8E4" stroke-width="0.542373" stroke-linejoin="bevel"/>
<path d="M315.398 5.91997C315.398 7.30573 317.172 7.30574 317.172 8.68879C317.172 10.0718 315.398 10.0745 315.398 11.4576C315.398 12.8406 317.172 12.8434 317.172 14.2264C317.172 15.6095 315.398 15.6122 315.398 16.9952C315.398 18.3783 317.172 18.381 317.172 19.7668C317.172 21.1525 315.398 21.1525 315.398 22.5356C315.398 23.9186 317.172 23.9213 317.172 25.3071C317.172 26.6929 315.398 26.6929 315.398 28.0786" stroke="#EAE8E4" stroke-width="0.542373" stroke-linejoin="bevel"/>
<path d="M317.557 3.44402C317.451 3.33826 317.337 3.60944 317.188 3.60944C317.039 3.60944 317.039 3.41691 316.887 3.41691C316.735 3.41691 316.738 3.60944 316.586 3.60944C316.434 3.60944 316.437 3.41691 316.288 3.41691C316.139 3.41691 316.136 3.60944 315.987 3.60944C315.838 3.60944 315.835 3.41691 315.686 3.41691C315.537 3.41691 315.534 3.60944 315.382 3.60944C315.23 3.60944 315.119 3.33826 315.011 3.44402C314.902 3.54978 315.176 3.66368 315.176 3.81283C315.176 3.96198 314.983 3.962 314.983 4.11386C314.983 4.26572 315.176 4.26301 315.176 4.41487C315.176 4.56674 314.983 4.56402 314.983 4.71317C314.983 4.86232 315.176 4.86503 315.176 5.01418C315.176 5.16334 314.983 5.16606 314.983 5.31521C314.983 5.46437 315.176 5.46708 315.176 5.61894C315.176 5.77081 314.905 5.88199 315.011 5.99047C315.116 6.09894 315.23 5.82505 315.379 5.82505C315.528 5.82505 315.528 6.01758 315.68 6.01758C315.832 6.01758 315.83 5.82505 315.981 5.82505C316.133 5.82505 316.131 6.01758 316.28 6.01758C316.429 6.01758 316.432 5.82505 316.581 5.82505C316.73 5.82505 316.733 6.01758 316.882 6.01758C317.031 6.01758 317.034 5.82505 317.185 5.82505C317.337 5.82505 317.448 6.09623 317.557 5.99047C317.665 5.8847 317.392 5.77081 317.392 5.62166C317.392 5.4725 317.584 5.47249 317.584 5.32063C317.584 5.16876 317.392 5.17148 317.392 5.01961C317.392 4.86775 317.584 4.87047 317.584 4.72132C317.584 4.57216 317.392 4.56944 317.392 4.42029C317.392 4.27113 317.584 4.26843 317.584 4.11927C317.584 3.97012 317.351 3.93216 317.397 3.78843C317.457 3.59589 317.663 3.5525 317.557 3.44674V3.44402Z" stroke="#EAE8E4" stroke-width="0.542373" stroke-linejoin="bevel"/>
<path d="M292.988 3.44402C292.882 3.33826 292.768 3.60944 292.619 3.60944C292.47 3.60944 292.47 3.41691 292.318 3.41691C292.166 3.41691 292.169 3.60944 292.017 3.60944C291.865 3.60944 291.868 3.41691 291.718 3.41691C291.569 3.41691 291.567 3.60944 291.417 3.60944C291.268 3.60944 291.266 3.41691 291.116 3.41691C290.967 3.41691 290.965 3.60944 290.813 3.60944C290.661 3.60944 290.55 3.33826 290.441 3.44402C290.333 3.54978 290.607 3.66368 290.607 3.81283C290.607 3.96198 290.414 3.962 290.414 4.11386C290.414 4.26572 290.607 4.26301 290.607 4.41487C290.607 4.56674 290.414 4.56402 290.414 4.71317C290.414 4.86232 290.607 4.86503 290.607 5.01418C290.607 5.16334 290.414 5.16606 290.414 5.31521C290.414 5.46437 290.607 5.46708 290.607 5.61894C290.607 5.77081 290.335 5.88199 290.441 5.99047C290.547 6.09894 290.661 5.82505 290.81 5.82505C290.959 5.82505 290.959 6.01758 291.111 6.01758C291.263 6.01758 291.26 5.82505 291.412 5.82505C291.564 5.82505 291.561 6.01758 291.71 6.01758C291.859 6.01758 291.862 5.82505 292.011 5.82505C292.161 5.82505 292.163 6.01758 292.312 6.01758C292.462 6.01758 292.464 5.82505 292.616 5.82505C292.768 5.82505 292.879 6.09623 292.988 5.99047C293.096 5.8847 292.822 5.77081 292.822 5.62166C292.822 5.4725 293.015 5.47249 293.015 5.32063C293.015 5.16876 292.822 5.17148 292.822 5.01961C292.822 4.86775 293.015 4.87047 293.015 4.72132C293.015 4.57216 292.822 4.56944 292.822 4.42029C292.822 4.27113 293.015 4.26843 293.015 4.11927C293.015 3.97012 292.782 3.93216 292.828 3.78843C292.887 3.59589 293.093 3.5525 292.988 3.44674V3.44402Z" stroke="#EAE8E4" stroke-width="0.542373" stroke-linejoin="bevel"/>
<path d="M317.557 28.0163C317.451 27.9105 317.337 28.1817 317.188 28.1817C317.039 28.1817 317.039 27.9892 316.887 27.9892C316.735 27.9892 316.738 28.1817 316.586 28.1817C316.434 28.1817 316.437 27.9892 316.288 27.9892C316.139 27.9892 316.136 28.1817 315.987 28.1817C315.838 28.1817 315.835 27.9892 315.686 27.9892C315.537 27.9892 315.534 28.1817 315.382 28.1817C315.23 28.1817 315.119 27.9105 315.011 28.0163C314.902 28.122 315.176 28.2359 315.176 28.3851C315.176 28.5342 314.983 28.5343 314.983 28.6861C314.983 28.838 315.176 28.8353 315.176 28.9871C315.176 29.139 314.983 29.1363 314.983 29.2854C314.983 29.4346 315.176 29.4373 315.176 29.5865C315.176 29.7356 314.983 29.7383 314.983 29.8875C314.983 30.0366 315.176 30.0393 315.176 30.1912C315.176 30.3431 314.905 30.4542 315.011 30.5627C315.116 30.6712 315.23 30.3973 315.379 30.3973C315.528 30.3973 315.528 30.5898 315.68 30.5898C315.832 30.5898 315.83 30.3973 315.981 30.3973C316.133 30.3973 316.131 30.5898 316.28 30.5898C316.429 30.5898 316.432 30.3973 316.581 30.3973C316.73 30.3973 316.733 30.5898 316.882 30.5898C317.031 30.5898 317.034 30.3973 317.185 30.3973C317.337 30.3973 317.448 30.6685 317.557 30.5627C317.665 30.457 317.392 30.3431 317.392 30.1939C317.392 30.0448 317.584 30.0448 317.584 29.8929C317.584 29.741 317.392 29.7437 317.392 29.5919C317.392 29.44 317.584 29.4427 317.584 29.2936C317.584 29.1444 317.392 29.1417 317.392 28.9926C317.392 28.8434 317.584 28.8407 317.584 28.6915C317.584 28.5424 317.351 28.5044 317.397 28.3607C317.457 28.1681 317.663 28.1248 317.557 28.019V28.0163Z" stroke="#EAE8E4" stroke-width="0.542373" stroke-linejoin="bevel"/>
<path d="M292.988 28.0163C292.882 27.9105 292.768 28.1817 292.619 28.1817C292.47 28.1817 292.47 27.9892 292.318 27.9892C292.166 27.9892 292.169 28.1817 292.017 28.1817C291.865 28.1817 291.868 27.9892 291.718 27.9892C291.569 27.9892 291.567 28.1817 291.417 28.1817C291.268 28.1817 291.266 27.9892 291.116 27.9892C290.967 27.9892 290.965 28.1817 290.813 28.1817C290.661 28.1817 290.55 27.9105 290.441 28.0163C290.333 28.122 290.607 28.2359 290.607 28.3851C290.607 28.5342 290.414 28.5343 290.414 28.6861C290.414 28.838 290.607 28.8353 290.607 28.9871C290.607 29.139 290.414 29.1363 290.414 29.2854C290.414 29.4346 290.607 29.4373 290.607 29.5865C290.607 29.7356 290.414 29.7383 290.414 29.8875C290.414 30.0366 290.607 30.0393 290.607 30.1912C290.607 30.3431 290.335 30.4542 290.441 30.5627C290.547 30.6712 290.661 30.3973 290.81 30.3973C290.959 30.3973 290.959 30.5898 291.111 30.5898C291.263 30.5898 291.26 30.3973 291.412 30.3973C291.564 30.3973 291.561 30.5898 291.71 30.5898C291.859 30.5898 291.862 30.3973 292.011 30.3973C292.161 30.3973 292.163 30.5898 292.312 30.5898C292.462 30.5898 292.464 30.3973 292.616 30.3973C292.768 30.3973 292.879 30.6685 292.988 30.5627C293.096 30.457 292.822 30.3431 292.822 30.1939C292.822 30.0448 293.015 30.0448 293.015 29.8929C293.015 29.741 292.822 29.7437 292.822 29.5919C292.822 29.44 293.015 29.4427 293.015 29.2936C293.015 29.1444 292.822 29.1417 292.822 28.9926C292.822 28.8434 293.015 28.8407 293.015 28.6915C293.015 28.5424 292.782 28.5044 292.828 28.3607C292.887 28.1681 293.093 28.1248 292.988 28.019V28.0163Z" stroke="#EAE8E4" stroke-width="0.542373" stroke-linejoin="bevel"/>
<path d="M305.126 20.1735C305.036 20.084 304.944 20.3118 304.816 20.3118C304.689 20.3118 304.692 20.1518 304.567 20.1518C304.442 20.1518 304.442 20.3118 304.317 20.3118C304.193 20.3118 304.193 20.1518 304.068 20.1518C303.943 20.1518 303.943 20.3118 303.816 20.3118C303.688 20.3118 303.691 20.1518 303.564 20.1518C303.436 20.1518 303.436 20.3118 303.311 20.3118C303.187 20.3118 303.092 20.084 303.002 20.1735C302.913 20.263 303.14 20.3552 303.14 20.4827C303.14 20.6101 302.98 20.6074 302.98 20.7322C302.98 20.8569 303.14 20.8569 303.14 20.9817C303.14 21.1064 302.98 21.1064 302.98 21.2311C302.98 21.3559 303.14 21.3559 303.14 21.4834C303.14 21.6108 302.98 21.6081 302.98 21.7356C302.98 21.863 303.14 21.863 303.14 21.9878C303.14 22.1125 302.913 22.2074 303.002 22.2969C303.092 22.3864 303.184 22.1586 303.311 22.1586C303.439 22.1586 303.436 22.3186 303.561 22.3186C303.686 22.3186 303.686 22.1586 303.81 22.1586C303.935 22.1586 303.935 22.3186 304.06 22.3186C304.185 22.3186 304.185 22.1586 304.312 22.1586C304.439 22.1586 304.437 22.3186 304.564 22.3186C304.692 22.3186 304.692 22.1586 304.816 22.1586C304.941 22.1586 305.036 22.3864 305.126 22.2969C305.215 22.2074 304.987 22.1152 304.987 21.9878C304.987 21.8603 305.147 21.863 305.147 21.7383C305.147 21.6135 304.987 21.6135 304.987 21.4888C304.987 21.364 305.147 21.364 305.147 21.2393C305.147 21.1145 304.987 21.1145 304.987 20.9871C304.987 20.8596 305.147 20.8623 305.147 20.7349C305.147 20.6074 304.952 20.5803 304.99 20.4583C305.039 20.2983 305.212 20.263 305.123 20.1735H305.126Z" stroke="#EAE8E4" stroke-width="0.542373" stroke-linejoin="bevel"/>
<path d="M297.964 20.6997V20.6184M297.964 20.6997C297.997 20.6997 298.037 20.6238 298.07 20.6292C298.103 20.6346 298.111 20.7214 298.141 20.735C298.17 20.7485 298.238 20.6916 298.265 20.7106C298.292 20.7296 298.265 20.8109 298.29 20.8353C298.314 20.8597 298.395 20.8353 298.414 20.8597C298.433 20.8841 298.376 20.9546 298.39 20.9845C298.404 21.0143 298.488 21.0224 298.496 21.055C298.504 21.0875 298.425 21.1282 298.425 21.1608M297.964 20.6997C297.932 20.6997 297.891 20.6211 297.858 20.6292C297.826 20.6374 297.818 20.7214 297.788 20.735C297.758 20.7485 297.688 20.6916 297.663 20.7106C297.639 20.7296 297.663 20.8109 297.639 20.8353C297.614 20.8597 297.533 20.8326 297.514 20.8597C297.495 20.8868 297.552 20.9546 297.538 20.9845C297.525 21.0143 297.438 21.0224 297.433 21.055C297.427 21.0875 297.503 21.1282 297.503 21.1608M298.425 21.1608H298.507M298.425 21.1608C298.425 21.1933 298.501 21.234 298.496 21.2665C298.49 21.2991 298.404 21.3072 298.39 21.337C298.376 21.3669 298.433 21.4346 298.414 21.4618C298.395 21.4889 298.314 21.4618 298.29 21.4862C298.265 21.5106 298.29 21.5919 298.265 21.6109C298.241 21.6299 298.17 21.5729 298.141 21.5865C298.111 21.6001 298.103 21.6841 298.07 21.6923C298.037 21.7004 297.997 21.6218 297.964 21.6218M297.964 21.6218V21.7031M297.964 21.6218C297.932 21.6218 297.891 21.6977 297.858 21.6923C297.826 21.6869 297.818 21.6001 297.788 21.5865C297.758 21.5729 297.69 21.6299 297.663 21.6109C297.636 21.5919 297.663 21.5106 297.639 21.4862C297.614 21.4618 297.533 21.4862 297.514 21.4618C297.495 21.4374 297.552 21.3669 297.538 21.337C297.525 21.3072 297.441 21.2991 297.433 21.2665C297.425 21.234 297.503 21.1933 297.503 21.1608M297.503 21.1608H297.422" stroke="#EAE8E4" stroke-width="0.542373" stroke-linejoin="bevel"/>
<path d="M303.043 21.0279C302.753 21.0279 302.753 21.3967 302.466 21.3967C302.178 21.3967 302.178 21.0279 301.888 21.0279C301.598 21.0279 301.601 21.3967 301.311 21.3967C301.02 21.3967 301.02 21.0279 300.733 21.0279C300.445 21.0279 300.443 21.3967 300.155 21.3967C299.868 21.3967 299.865 21.0279 299.578 21.0279C299.29 21.0279 299.288 21.3967 298.997 21.3967C298.707 21.3967 298.707 21.0279 298.417 21.0279" stroke="#EAE8E4" stroke-width="0.542373" stroke-linejoin="bevel"/>
<path d="M310.145 20.6211V20.7025M310.145 20.6211C310.113 20.6211 310.085 20.7052 310.056 20.7106C310.026 20.716 309.969 20.6509 309.939 20.6618C309.909 20.6726 309.917 20.7594 309.89 20.7784C309.863 20.7974 309.787 20.7567 309.763 20.7784C309.738 20.8001 309.782 20.8787 309.763 20.9059C309.744 20.933 309.66 20.9248 309.646 20.9547C309.633 20.9845 309.7 21.0387 309.695 21.0713C309.69 21.1038 309.605 21.1282 309.605 21.1608M310.145 20.6211C310.178 20.6211 310.202 20.7052 310.235 20.7106C310.267 20.716 310.321 20.6482 310.351 20.6618C310.381 20.6754 310.373 20.7594 310.4 20.7784C310.427 20.7974 310.506 20.754 310.527 20.7784C310.549 20.8028 310.508 20.8787 310.527 20.9059C310.546 20.933 310.633 20.9248 310.644 20.9547C310.655 20.9845 310.59 21.0415 310.595 21.0713C310.601 21.1011 310.685 21.1282 310.685 21.1608M309.605 21.1608H309.687M309.605 21.1608C309.605 21.1933 309.69 21.2204 309.695 21.2503C309.7 21.2801 309.635 21.337 309.646 21.3669C309.657 21.3967 309.744 21.3886 309.763 21.4157C309.782 21.4428 309.741 21.5187 309.763 21.5431C309.784 21.5676 309.863 21.5242 309.89 21.5431C309.917 21.5621 309.909 21.6462 309.939 21.6598C309.969 21.6733 310.023 21.6055 310.056 21.6109C310.088 21.6164 310.113 21.7004 310.145 21.7004M310.145 21.7004V21.6191M310.145 21.7004C310.178 21.7004 310.205 21.6164 310.235 21.6109C310.264 21.6055 310.321 21.6706 310.351 21.6598C310.381 21.6489 310.373 21.5621 310.4 21.5431C310.427 21.5242 310.503 21.5648 310.527 21.5431C310.552 21.5215 310.508 21.4428 310.527 21.4157C310.546 21.3886 310.631 21.3967 310.644 21.3669C310.658 21.337 310.59 21.2828 310.595 21.2503C310.601 21.2177 310.685 21.1933 310.685 21.1608M310.685 21.1608H310.603" stroke="#EAE8E4" stroke-width="0.542373" stroke-linejoin="bevel"/>
<path d="M309.693 21.0279C309.403 21.0279 309.403 21.3967 309.115 21.3967C308.828 21.3967 308.828 21.0279 308.538 21.0279C308.247 21.0279 308.25 21.3967 307.96 21.3967C307.67 21.3967 307.67 21.0279 307.382 21.0279C307.095 21.0279 307.092 21.3967 306.805 21.3967C306.517 21.3967 306.515 21.0279 306.227 21.0279C305.94 21.0279 305.937 21.3967 305.647 21.3967C305.357 21.3967 305.357 21.0279 305.066 21.0279" stroke="#EAE8E4" stroke-width="0.542373" stroke-linejoin="bevel"/>
<path d="M311.33 13.5836C311.268 14.2589 311.881 14.2236 311.683 15.0155C311.588 15.3979 310.878 15.6582 310.701 16.1274C310.552 16.526 310.921 17.1958 310.699 17.6108C310.493 17.9958 309.741 18.0555 309.459 18.4243C309.177 18.7931 309.335 19.5226 308.99 19.8318C308.646 20.1409 307.946 19.9023 307.539 20.1328C307.162 20.347 306.991 21.0847 306.541 21.2257C306.132 21.3531 305.565 20.8569 305.09 20.9084C305.09 20.9084 305.161 21.5131 305.158 21.5131C305.156 21.5131 305.074 20.9111 305.071 20.9111C305.069 20.9111 305.145 21.5158 305.142 21.5158C305.139 21.5158 305.066 20.9111 305.063 20.9111C305.061 20.9111 305.126 21.5158 305.123 21.5158C305.12 21.5158 305.058 20.9111 305.055 20.9111C305.053 20.9111 305.104 21.5186 305.101 21.5186C305.099 21.5186 305.053 20.9111 305.05 20.9111" stroke="#EAE8E4" stroke-width="0.542373" stroke-linejoin="bevel"/>
<path d="M296.096 13.7111C296.18 14.381 296.749 14.1233 296.974 14.9071C297.083 15.284 296.66 15.9159 296.852 16.3796C297.015 16.7701 297.75 16.9138 297.986 17.3233C298.203 17.7003 297.959 18.4135 298.249 18.7769C298.523 19.1186 299.263 19.0345 299.613 19.3355C299.944 19.623 299.96 20.3742 300.364 20.6047C300.741 20.8189 301.392 20.4583 301.839 20.6047C302.246 20.7376 302.55 21.4237 303.019 21.4888" stroke="#EAE8E4" stroke-width="0.542373" stroke-linejoin="bevel"/>
<path d="M312.716 11.7072C312.627 11.6177 312.535 11.8455 312.407 11.8455C312.28 11.8455 312.282 11.6855 312.158 11.6855C312.033 11.6855 312.033 11.8455 311.908 11.8455C311.784 11.8455 311.783 11.6855 311.659 11.6855C311.534 11.6855 311.534 11.8455 311.407 11.8455C311.279 11.8455 311.282 11.6855 311.154 11.6855C311.027 11.6855 311.027 11.8455 310.902 11.8455C310.777 11.8455 310.682 11.6177 310.593 11.7072C310.504 11.7967 310.731 11.8889 310.731 12.0164C310.731 12.1438 310.571 12.1411 310.571 12.2659C310.571 12.3906 310.731 12.3906 310.731 12.5153C310.731 12.6401 310.571 12.6401 310.571 12.7648C310.571 12.8896 310.731 12.8896 310.731 13.017C310.731 13.1445 310.571 13.1418 310.571 13.2692C310.571 13.3967 310.731 13.3967 310.731 13.5214C310.731 13.6462 310.504 13.7411 310.593 13.8306C310.682 13.9201 310.775 13.6923 310.902 13.6923C311.03 13.6923 311.027 13.8523 311.152 13.8523C311.276 13.8523 311.276 13.6923 311.401 13.6923C311.526 13.6923 311.526 13.8523 311.651 13.8523C311.775 13.8523 311.775 13.6923 311.903 13.6923C312.03 13.6923 312.028 13.8523 312.155 13.8523C312.282 13.8523 312.282 13.6923 312.407 13.6923C312.532 13.6923 312.627 13.9201 312.716 13.8306C312.806 13.7411 312.578 13.6489 312.578 13.5214C312.578 13.394 312.738 13.3967 312.738 13.272C312.738 13.1472 312.578 13.1472 312.578 13.0225C312.578 12.8977 312.738 12.8977 312.738 12.773C312.738 12.6482 312.578 12.6482 312.578 12.5208C312.578 12.3933 312.738 12.396 312.738 12.2686C312.738 12.1411 312.543 12.114 312.581 11.992C312.63 11.832 312.803 11.7967 312.714 11.7072H312.716Z" stroke="#EAE8E4" stroke-width="0.542373" stroke-linejoin="bevel"/>
<path d="M297.408 11.7072C297.318 11.6177 297.226 11.8455 297.099 11.8455C296.971 11.8455 296.974 11.6855 296.849 11.6855C296.724 11.6855 296.724 11.8455 296.6 11.8455C296.475 11.8455 296.475 11.6855 296.35 11.6855C296.225 11.6855 296.225 11.8455 296.098 11.8455C295.97 11.8455 295.973 11.6855 295.846 11.6855C295.718 11.6855 295.718 11.8455 295.594 11.8455C295.469 11.8455 295.374 11.6177 295.284 11.7072C295.195 11.7967 295.423 11.8889 295.423 12.0164C295.423 12.1438 295.263 12.1411 295.263 12.2659C295.263 12.3906 295.423 12.3906 295.423 12.5153C295.423 12.6401 295.263 12.6401 295.263 12.7648C295.263 12.8896 295.423 12.8896 295.423 13.017C295.423 13.1445 295.263 13.1418 295.263 13.2692C295.263 13.3967 295.423 13.3967 295.423 13.5214C295.423 13.6462 295.195 13.7411 295.284 13.8306C295.374 13.9201 295.466 13.6923 295.594 13.6923C295.721 13.6923 295.718 13.8523 295.843 13.8523C295.968 13.8523 295.968 13.6923 296.093 13.6923C296.217 13.6923 296.217 13.8523 296.342 13.8523C296.467 13.8523 296.467 13.6923 296.594 13.6923C296.722 13.6923 296.719 13.8523 296.846 13.8523C296.974 13.8523 296.974 13.6923 297.099 13.6923C297.223 13.6923 297.318 13.9201 297.408 13.8306C297.497 13.7411 297.269 13.6489 297.269 13.5214C297.269 13.394 297.429 13.3967 297.429 13.272C297.429 13.1472 297.269 13.1472 297.269 13.0225C297.269 12.8977 297.429 12.8977 297.429 12.773C297.429 12.6482 297.269 12.6482 297.269 12.5208C297.269 12.3933 297.429 12.396 297.429 12.2686C297.429 12.1411 297.234 12.114 297.272 11.992C297.321 11.832 297.495 11.7967 297.405 11.7072H297.408Z" stroke="#EAE8E4" stroke-width="0.542373" stroke-linejoin="bevel"/>
</svg>
