<svg width="350" height="34" viewBox="0 0 350 34" fill="none" xmlns="http://www.w3.org/2000/svg">
<path d="M17.5017 23.4824L3.31836 12.9067L17.5017 2.32812L31.6822 12.9067L17.5017 23.4824Z" stroke="#EAE8E4" stroke-width="1.4547" stroke-linejoin="bevel"/>
<path d="M12.7594 5.77881L31.6822 21.0968L17.5017 31.6754L3.31836 21.0968L22.5786 6.1163" stroke="#EAE8E4" stroke-width="1.4547" stroke-linejoin="bevel"/>
<path d="M21.9236 20.0405L7.74316 9.46484" stroke="#EAE8E4" stroke-width="1.4547" stroke-linejoin="bevel"/>
<path d="M27.615 9.80542L13.4316 20.3811" stroke="#EAE8E4" stroke-width="1.4547" stroke-linejoin="bevel"/>
<path d="M43.4878 16.6728C41.3668 17.7027 39.5921 19.4338 38.5127 21.5286C42.0127 23.6379 45.2625 26.1575 48.1748 29.0203C49.1989 30.027 50.2842 31.1296 51.6981 31.3653C53.5805 31.6766 55.3029 30.3616 56.7547 29.1251C59.923 26.428 63.0943 23.7339 66.2626 21.0369C65.1512 19.3378 63.522 17.9791 61.6512 17.1936C62.7335 17.5282 63.842 17.8802 64.7265 18.5843C65.6109 19.2883 66.2364 20.4405 65.9921 21.546C65.7477 22.6545 64.7468 23.4052 63.8158 24.054C60.3536 26.4659 56.8914 28.8807 53.4292 31.2926C53.147 31.4904 52.8444 31.6941 52.4982 31.6999C52.1782 31.7086 51.8814 31.5428 51.605 31.3798C46.6503 28.4501 42.2833 24.5282 38.8385 19.9168C40.5406 19.3349 42.132 18.4388 43.5111 17.2838C42.1582 15.7738 40.8082 14.2638 39.4553 12.7538C43.3889 16.1084 47.3224 19.4658 51.2559 22.8204C51.6661 23.1695 52.1171 23.5361 52.6524 23.5652C53.2896 23.6001 53.8424 23.152 54.3224 22.7302C57.8632 19.6171 61.4068 16.504 64.9476 13.3939C65.1658 13.2019 65.3985 12.9837 65.4364 12.6956C65.4975 12.2214 65.0174 11.8752 64.6013 11.6366C60.3303 9.17815 56.4579 6.03017 53.179 2.34977C48.6491 6.18728 44.0638 10.0568 38.7716 12.748C43.1677 9.45746 47.7151 6.37057 52.3935 3.5019L52.4138 2.30322C57.5519 5.15153 62.3029 8.70392 66.4866 12.8295C63.2368 15.5323 59.9899 18.2322 56.7401 20.9351C55.7626 21.7468 54.6628 22.6051 53.3943 22.576C52.3527 22.5527 51.4305 21.933 50.578 21.3366C47.2671 19.0265 43.9562 16.7164 40.6424 14.4034C41.9865 15.253 43.3307 16.1055 44.6777 16.955C48.4978 13.647 52.4749 10.5194 56.5859 7.5838C52.536 11.2264 48.2767 14.6362 43.8311 17.7842C46.8481 15.0522 49.8681 12.3174 52.8852 9.58547C53.9704 8.605 55.172 7.56925 56.6325 7.47906C56.3474 8.20059 56.0622 8.91922 55.78 9.64075C53.2634 8.34024 50.7322 7.06592 48.1894 5.81779C52.8037 9.21598 57.2173 12.8876 61.3981 16.8066C57.9883 13.6237 54.5814 10.4379 51.1715 7.25503C53.6067 9.50983 55.9313 11.8839 58.1308 14.3685C59.7805 12.9895 61.593 11.8053 63.522 10.8511C62.2884 10.0655 60.7144 11.0198 59.5768 11.9392C56.1437 14.7089 52.7106 17.4787 49.2775 20.2484C51.9949 17.8162 55.108 15.8232 58.4538 14.3714C56.2804 14.8806 54.3573 16.3644 53.3129 18.337C54.6192 18.2642 55.9459 18.8781 56.7401 19.9197C52.6815 16.6408 48.62 13.3648 44.5614 10.0859L56.3037 19.9284" stroke="#EAE8E4" stroke-width="0.290941" stroke-miterlimit="10"/>
<path d="M97.7253 17.6287L102.398 14.9258L88.2173 2.77905L72.6025 14.1461L88.2173 24.7218L97.7253 17.6287ZM97.7253 17.6287L102.398 22.3361L88.2406 31.2243L74.034 22.3361L79.3029 18.0738L93.6317 7.01806" stroke="#EAE8E4" stroke-width="1.63218" stroke-linejoin="bevel"/>
<path d="M77.3301 10.7043L91.7549 22.083" stroke="#EAE8E4" stroke-width="1.63218" stroke-linejoin="bevel"/>
<path d="M83.9082 5.91528L97.725 17.6286" stroke="#EAE8E4" stroke-width="1.63218" stroke-linejoin="bevel"/>
<path d="M83.6406 21.6203L98.7172 11.772" stroke="#EAE8E4" stroke-width="1.63218" stroke-linejoin="bevel"/>
<path d="M122.5 19.3202C122.5 27.5713 102.789 12.8671 113.85 12.8671C102.789 12.8671 122.5 -1.83413 122.5 6.41404C122.5 -1.83704 142.211 12.8671 131.15 12.8671C142.211 12.8671 122.5 27.5683 122.5 19.3202Z" stroke="#EAE8E4" stroke-width="0.581882" stroke-linejoin="bevel"/>
<path d="M119.605 10.7926C115.905 0.694088 142.211 21.988 131.15 20.1377C142.211 21.988 122.5 36.6893 122.5 26.5907C122.5 36.6893 102.789 21.988 113.85 20.1377C102.789 21.988 129.561 1.15959 125.599 10.9992" stroke="#EAE8E4" stroke-width="0.581882" stroke-linejoin="bevel"/>
<path d="M124.159 17.941C129.689 22.0665 109.978 7.36526 115.509 11.4879" stroke="#EAE8E4" stroke-width="0.581882" stroke-linejoin="bevel"/>
<path d="M129.846 11.8314C135.377 7.70583 115.666 22.4071 121.196 18.2844" stroke="#EAE8E4" stroke-width="0.581882" stroke-linejoin="bevel"/>
<path d="M157.502 24.6141C156.396 24.6141 157.292 21.9083 156.408 21.2479C155.523 20.5875 154.165 22.4059 153.28 21.7454C152.396 21.085 153.751 19.2666 152.864 18.6062C151.977 17.9457 150.621 19.7641 149.736 19.1037C148.852 18.4432 150.208 16.6249 149.32 15.9644C148.433 15.304 147.077 17.1224 146.19 16.4619C145.302 15.8015 146.658 13.9802 145.771 13.3198C144.884 12.6593 142.184 14.0122 142.184 12.9066C142.184 11.8011 144.884 13.1539 145.768 12.4935C146.652 11.8331 145.297 10.0147 146.184 9.35425C147.071 8.69381 148.427 10.5122 149.312 9.85176C150.196 9.19132 148.84 7.37294 149.728 6.7096C150.615 6.04625 151.971 7.86754 152.855 7.2071C153.74 6.54667 152.384 4.72829 153.271 4.06494C154.159 3.4016 155.515 5.22289 156.402 4.55954C157.289 3.8962 156.39 1.19336 157.499 1.19336C158.607 1.19336 157.708 3.89911 158.593 4.55954C159.477 5.21998 160.836 3.4016 161.72 4.06204C162.605 4.72247 161.249 6.54085 162.136 7.20129C163.024 7.86172 164.379 6.04334 165.264 6.70378C166.148 7.36421 164.793 9.18259 165.68 9.84303C166.567 10.5035 167.923 8.68508 168.81 9.34552C169.698 10.006 168.342 11.8272 169.229 12.4877C170.117 13.1481 172.817 11.7952 172.817 12.9008C172.817 14.0064 170.117 12.6535 169.232 13.314C168.348 13.9744 169.704 15.7928 168.816 16.4532C167.929 17.1136 166.573 15.2953 165.689 15.9557C164.804 16.6161 166.16 18.4345 165.273 19.0979C164.385 19.7612 163.03 17.9399 162.145 18.6003C161.261 19.2608 162.616 21.0792 161.729 21.7425C160.842 22.4058 158.924 20.6107 158.322 21.5418C157.455 22.8859 158.607 24.6141 157.502 24.6141Z" stroke="#EAE8E4" stroke-width="1.77183" stroke-linejoin="bevel"/>
<path d="M153.472 4.89404C154.653 5.85124 153.228 7.61434 154.409 8.57153C155.59 9.52873 157.019 7.76563 158.2 8.72282C159.381 9.68002 157.955 11.4431 159.137 12.4003C160.318 13.3575 161.746 11.5944 162.93 12.5516C164.115 13.5088 162.686 15.2719 163.87 16.232C165.054 17.1921 166.48 15.4261 167.664 16.3833C168.848 17.3405 167.42 19.1036 168.604 20.0637C169.788 21.0238 172.526 19.3945 172.799 20.8929C173 21.981 170.12 20.8492 169.232 21.5097C168.345 22.1701 169.704 23.9885 168.816 24.6489C167.929 25.3094 166.573 23.491 165.689 24.1514C164.804 24.8118 166.16 26.6302 165.273 27.2936C164.385 27.9569 163.029 26.1356 162.145 26.7961C161.26 27.4565 162.616 29.2749 161.729 29.9382C160.841 30.6016 159.486 28.7803 158.598 29.4436C157.711 30.107 158.61 32.8098 157.501 32.8098C156.393 32.8098 157.292 30.1041 156.408 29.4436C155.523 28.7832 154.164 30.6016 153.28 29.9411C152.395 29.2807 153.751 27.4623 152.864 26.8019C151.977 26.1414 150.621 27.9598 149.736 27.2994C148.852 26.639 150.208 24.8206 149.32 24.1601C148.433 23.4997 147.077 25.3181 146.19 24.6576C145.302 23.9972 146.658 22.1759 145.771 21.5155C144.883 20.8551 141.991 21.9664 142.207 20.8812C142.503 19.3858 145.221 21.0616 146.422 20.1248C147.624 19.188 146.233 17.3987 147.435 16.4618C148.637 15.525 150.03 17.3172 151.235 16.3804C152.439 15.4436 151.046 13.6543 152.25 12.7174C153.454 11.7806 154.848 13.5728 156.053 12.636C157.257 11.6991 155.863 9.90986 157.068 8.97303C158.272 8.0362 159.666 9.8284 160.871 8.88866C162.075 7.94892 160.681 6.15964 161.886 5.22281" stroke="#EAE8E4" stroke-width="1.77183" stroke-linejoin="bevel"/>
<path d="M161.587 20.4944C160.699 19.8339 161.38 18.9233 160.493 18.2629C159.605 17.6024 158.927 18.5102 158.043 17.8497C157.159 17.1893 157.836 16.2786 156.949 15.6182C156.062 14.9578 155.384 15.8655 154.499 15.2051C153.615 14.5446 154.293 13.634 153.405 12.9736C152.518 12.3131 151.84 13.2209 150.953 12.5604C150.065 11.9 150.743 10.9893 149.856 10.3289C148.969 9.66847 148.291 10.5762 147.403 9.91577" stroke="#EAE8E4" stroke-width="1.77183" stroke-linejoin="bevel"/>
<path d="M167.952 10.2561C167.065 10.9165 166.387 10.0088 165.502 10.6692C164.618 11.3297 165.296 12.2403 164.408 12.9008C163.521 13.5612 162.843 12.6535 161.959 13.3139C161.074 13.9743 161.752 14.885 160.865 15.5454C159.977 16.2058 159.299 15.2952 158.415 15.9585C157.53 16.6219 158.205 17.5296 157.321 18.1901C156.437 18.8505 155.756 17.9428 154.868 18.6032C153.981 19.2636 154.659 20.1743 153.771 20.8347" stroke="#EAE8E4" stroke-width="1.77183" stroke-linejoin="bevel"/>
<path d="M191.837 22.035L187.327 27.5396L188.508 22.2561L187.368 20.0886L182.436 23.0009L180.193 22.3114L179.992 18.8812L179.46 15.8932L181.002 14.6073L179.768 13.7432L179.64 9.87367L185.82 14.4618L187.152 12.5503L185.8 7.03991L188.758 7.30758L191.089 6.7286L191.837 0.927246L191.857 7.70326L194.601 7.72362L197.138 8.02038L200.565 7.12137L198.115 14.104L201.094 13.8072L205.514 11.5873L206.162 14.6102L207.035 19.6667L201.574 16.0445L198.787 16.0038L198.185 18.8957L199.014 23.7021L193.789 20.397L194.15 20.077L191.837 22.035Z" stroke="#EAE8E4" stroke-width="0.581882" stroke-linejoin="bevel"/>
<path d="M184.505 10.6795L191.083 5.78003L187.28 13.7023L193.89 8.75635L195.912 9.4808L193.21 16.0473L197.539 13.9206L200.253 13.7925L200.582 16.6118L203.026 16.8183L204.097 18.7182L203.491 22.6953L209.93 23.091L206.846 27.6093L200.57 22.8873L199.037 24.5283L201.303 31.2693L198.833 31.6534L194.865 30.0329L192.369 30.3878L191.836 28.9796L190.367 31.6534L186.547 33.0761L187.682 27.8595L182.759 30.7602L182.18 27.8392L182.771 23.3499L178.485 25.3953L175.069 22.9717L178.174 20.1554L178.159 16.8241L181.962 18.4069L183.382 16.9202L183.608 13.9002L189.584 18.2701L188.543 13.6209L193.064 16.123L193.518 13.3939L194.551 11.4097L193.69 6.98452L198.79 10.2227" stroke="#EAE8E4" stroke-width="0.581882" stroke-linejoin="bevel"/>
<path d="M197.693 19.8269L194.56 20.3302L191.673 20.5019L190.67 18.1511L188.805 16.9524L186.268 16.6614L185.695 13.7259L182.651 14.107L182.966 9.98145" stroke="#EAE8E4" stroke-width="0.581882" stroke-linejoin="bevel"/>
<path d="M203.335 13.3649L199.599 12.0498L197.082 12.3757L197.225 16.2626L194.068 15.7273L192.541 17.3769L190.743 18.6687L190.978 22.6837L188.997 23.7311" stroke="#EAE8E4" stroke-width="0.581882" stroke-linejoin="bevel"/>
<path d="M227.659 23.5391C227.141 23.5391 226.638 24.0948 226.222 23.7835C225.805 23.4722 227.112 21.7178 226.696 21.4094C226.28 21.101 225.291 22.4248 224.872 22.1135C224.453 21.8022 223.743 22.7565 223.327 22.4452C222.911 22.1339 224.784 19.6201 224.368 19.3088C223.952 18.9975 222.317 21.1883 221.901 20.877C221.485 20.5657 222.739 18.8841 222.32 18.5728C221.901 18.2614 221.724 18.5029 221.305 18.1916C220.886 17.8803 220.88 17.889 220.464 17.5777C220.048 17.2664 219.949 17.3974 219.533 17.086C219.117 16.7747 218.605 17.4584 218.189 17.1471C217.773 16.8358 219.061 15.1076 218.645 14.7963C218.229 14.485 217.194 15.8728 216.775 15.5615C216.356 15.2502 215.46 16.4547 215.041 16.1434C214.622 15.8321 215.925 14.0864 215.506 13.7751C215.087 13.4638 215.713 12.6259 215.294 12.3146C214.875 12.0033 214.43 13.5278 214.427 13.0041C214.424 12.4805 214.051 12.914 214.47 12.6026C214.889 12.2913 214.095 11.2323 214.514 10.921C214.933 10.6097 214.572 10.1296 214.991 9.81834C215.41 9.50704 217.016 11.6629 217.432 11.3516C217.848 11.0403 216.67 9.46049 217.089 9.14918C217.508 8.83787 217.973 9.46631 218.389 9.155C218.805 8.84369 219.478 9.7427 219.894 9.43139C220.31 9.12009 219.501 8.03488 219.92 7.72648C220.339 7.41808 220.374 7.46463 220.793 7.15624C221.212 6.84784 220.411 5.77427 220.827 5.46296C221.244 5.15165 222.145 6.35615 222.561 6.04775C222.978 5.73935 223.228 6.07103 223.644 5.75972C224.06 5.44841 224.333 5.815 224.752 5.50369C225.171 5.19239 225.168 5.18948 225.584 4.87817C226 4.56686 225.983 4.54359 226.402 4.23228C226.821 3.92097 226.498 3.49038 226.917 3.17908C227.336 2.86777 227.138 1.44507 227.659 1.44507C228.18 1.44507 228.025 2.80958 228.441 3.12089C228.857 3.43219 228.072 4.4854 228.488 4.79671C228.904 5.10801 229.547 4.24683 229.963 4.55813C230.379 4.86944 230.955 4.09554 231.371 4.40685C231.787 4.71815 231.447 5.17493 231.863 5.48624C232.279 5.79754 232.808 5.08765 233.224 5.39895C233.641 5.71026 232.759 6.89439 233.175 7.2057C233.591 7.517 233.521 7.6101 233.94 7.92141C234.359 8.23272 234.179 8.4742 234.595 8.7855C235.011 9.09681 235.261 8.76514 235.677 9.07644C236.093 9.38775 237.338 7.72066 237.754 8.03197C238.17 8.34327 237.929 8.66913 238.345 8.98043C238.761 9.29174 237.693 10.7232 238.112 11.0345C238.531 11.3458 239.843 9.58559 240.259 9.8969C240.675 10.2082 238.912 12.5736 239.331 12.8849C239.75 13.1962 241.426 10.9472 241.845 11.2585C242.264 11.5698 242.354 12.4892 242.357 13.01C242.36 13.5307 240.513 12.0993 240.096 12.4106C239.68 12.7219 241.327 14.9273 240.908 15.2386C240.489 15.5499 240.504 15.5673 240.088 15.8786C239.672 16.1899 239.925 16.5303 239.509 16.8417C239.093 17.153 238.421 16.251 238.005 16.5624C237.589 16.8737 238.048 17.4905 237.632 17.8018C237.216 18.1131 237.399 18.3604 236.983 18.6717C236.567 18.983 234.836 16.6613 234.42 16.9726C234.004 17.2839 235.357 19.0994 234.941 19.4107C234.525 19.722 234.679 19.9285 234.26 20.2398C233.841 20.5511 233.931 20.6704 233.515 20.9817C233.099 21.293 233.111 21.3076 232.692 21.6189C232.273 21.9302 230.699 19.818 230.283 20.1293C229.867 20.4406 229.835 20.3999 229.419 20.7112C229.003 21.0225 230.344 22.8234 229.925 23.1347C229.506 23.446 227.723 21.4938 227.359 21.8691C226.995 22.2444 228.182 23.5362 227.662 23.5391H227.659Z" stroke="#EAE8E4" stroke-width="0.581882" stroke-linejoin="bevel"/>
<path d="M223.871 4.70654C224.281 5.03822 223.641 5.82957 224.054 6.16416C224.467 6.49874 223.976 7.1039 224.386 7.43557C224.796 7.76724 224.785 7.7847 225.198 8.11637C225.611 8.44804 226.353 7.52867 226.766 7.86034C227.179 8.19201 227.409 7.90689 227.819 8.23856C228.229 8.57024 228.311 8.47132 228.721 8.8059C229.131 9.14048 227.313 11.3865 227.723 11.7182C228.133 12.0499 229.46 10.4148 229.87 10.7465C230.28 11.0781 229.445 12.1139 229.856 12.4456C230.266 12.7772 231.296 11.5087 231.706 11.8404C232.116 12.1721 232.396 11.8317 232.806 12.1634C233.216 12.495 232.372 13.5395 232.782 13.8712C233.193 14.2028 233.009 14.4298 233.423 14.7644C233.836 15.0989 234.339 14.4734 234.749 14.808C235.159 15.1426 234.994 15.3462 235.407 15.6808C235.82 16.0154 235.287 16.67 235.698 17.0046C236.108 17.3392 235.514 18.0724 235.925 18.4069C236.335 18.7415 237.272 17.5836 237.682 17.9182C238.092 18.2527 238.575 17.6563 238.985 17.9909C239.396 18.3255 238.875 18.9685 239.288 19.303C239.701 19.6376 239.835 19.4718 240.245 19.8035C240.655 20.1351 241.307 19.335 241.72 19.6696C242.133 20.0042 241.752 20.6763 241.749 21.2058C241.746 21.7353 241.194 21.2058 240.775 21.5142C240.356 21.8226 241.022 22.7158 240.606 23.0242C240.19 23.3326 238.802 21.4735 238.383 21.7848C237.964 22.0961 238.511 22.8263 238.095 23.1376C237.679 23.4489 238.633 24.7291 238.217 25.0404C237.801 25.3517 237.484 24.9298 237.068 25.2382C236.652 25.5466 236.381 25.1859 235.962 25.4972C235.544 25.8085 236.512 27.1032 236.096 27.4145C235.68 27.7258 234.441 26.0645 234.022 26.3758C233.603 26.6871 233.411 26.4282 232.995 26.7395C232.579 27.0508 234.028 28.9943 233.612 29.3056C233.196 29.6169 232.922 29.2503 232.503 29.5616C232.084 29.8729 231.854 29.5616 231.438 29.8729C231.022 30.1842 231.142 30.3442 230.723 30.6556C230.304 30.9669 229.649 30.0882 229.233 30.3995C228.817 30.7108 229.186 31.2083 228.768 31.5196C228.349 31.831 228.183 32.5583 227.662 32.5583C227.141 32.5583 227.54 31.0716 227.124 30.7603C226.708 30.449 226.873 30.2279 226.457 29.9166C226.041 29.6053 225.841 29.8758 225.422 29.5645C225.003 29.2532 224.415 30.0446 223.999 29.7333C223.583 29.422 223.097 30.0708 222.681 29.7595C222.265 29.4481 223.984 27.141 223.568 26.8297C223.152 26.5184 221.622 28.5666 221.206 28.2553C220.79 27.944 220.836 27.88 220.42 27.5687C220.004 27.2574 221.38 25.4099 220.964 25.1015C220.548 24.7931 220.063 25.439 219.646 25.1277C219.23 24.8164 219.463 24.5022 219.047 24.1908C218.631 23.8795 218.07 24.6302 217.654 24.3189C217.238 24.0076 216.446 25.0666 216.027 24.7553C215.608 24.444 216.766 22.8962 216.347 22.5849C215.928 22.2735 214.922 23.6235 214.506 23.3122C214.09 23.0009 214.2 22.8496 213.784 22.5354C213.368 22.2212 212.644 21.7178 212.644 21.1971C212.644 20.6763 213.854 20.813 214.273 20.4872C214.692 20.1613 215.035 20.6035 215.454 20.2777C215.873 19.9518 214.983 18.8084 215.402 18.4826C215.821 18.1567 217.444 20.2428 217.86 19.9169C218.276 19.5911 216.376 17.1472 216.795 16.8213C217.214 16.4955 217.913 17.3945 218.331 17.0715C218.75 16.7486 218.131 15.9514 218.55 15.6255C218.969 15.2997 219.53 16.0212 219.946 15.6954C220.362 15.3695 220.915 16.0765 221.331 15.7507C221.747 15.4248 220.461 13.7664 220.877 13.4435C221.293 13.1205 222.378 14.5083 222.797 14.1825C223.216 13.8566 223.432 14.133 223.851 13.8072C224.27 13.4813 223.65 12.6841 224.069 12.3583C224.488 12.0324 225.413 13.2224 225.832 12.8965C226.251 12.5707 224.927 10.8687 225.346 10.5428C225.765 10.217 227.211 12.0761 227.63 11.7502C228.049 11.4244 227.586 10.8279 228.005 10.5021C228.424 10.1762 228.823 10.6883 229.242 10.3624C229.661 10.0366 229.632 9.99876 230.051 9.6729C230.469 9.34705 229.972 8.70989 230.391 8.38113C230.81 8.05236 230.481 7.6305 230.9 7.30464C231.319 6.97879 231.06 6.64421 231.482 6.31836C231.904 5.9925 231.302 5.2186 231.721 4.89275" stroke="#EAE8E4" stroke-width="0.581882" stroke-linejoin="bevel"/>
<path d="M232.154 20.0537C231.738 19.7424 231.636 19.8791 231.22 19.5678C230.804 19.2565 230.863 19.178 230.446 18.8667C230.03 18.5554 229.611 19.1169 229.195 18.8056C228.779 18.4943 229.172 17.9677 228.756 17.6563C228.34 17.345 228.593 17.0075 228.174 16.6962C227.755 16.3849 227.982 16.0853 227.563 15.774C227.144 15.4627 227.01 15.6459 226.591 15.3346C226.173 15.0233 225.527 15.8932 225.111 15.5819C224.695 15.2706 224.706 15.2561 224.287 14.9448C223.868 14.6335 224.639 13.6035 224.22 13.2922C223.801 12.9809 223.132 13.8799 222.716 13.5686C222.3 13.2573 222.492 12.9984 222.076 12.6871C221.66 12.3758 221.826 12.1517 221.41 11.8404C220.994 11.5291 220.63 12.015 220.214 11.7037C219.798 11.3924 219.545 11.727 219.129 11.4157C218.713 11.1044 219.583 9.93478 219.164 9.62347C218.745 9.31216 218.003 10.3101 217.584 9.99588" stroke="#EAE8E4" stroke-width="0.581882" stroke-linejoin="bevel"/>
<path d="M237.531 9.59131C237.115 9.90262 236.984 9.72514 236.568 10.0364C236.152 10.3478 236.873 11.3137 236.457 11.625C236.041 11.9363 235.704 11.4853 235.288 11.7966C234.872 12.1079 235.107 12.4222 234.691 12.7335C234.275 13.0448 234.275 13.0448 233.856 13.3561C233.437 13.6674 233.545 13.8099 233.129 14.1213C232.713 14.4326 232.34 13.9321 231.921 14.2435C231.502 14.5548 231.252 14.2173 230.836 14.5286C230.42 14.8399 230.525 14.9824 230.109 15.2937C229.693 15.6051 229.966 15.9745 229.55 16.2859C229.134 16.5972 228.695 16.0095 228.276 16.3208C227.857 16.6321 228.206 17.0976 227.79 17.4089C227.374 17.7202 227.38 17.7289 226.961 18.0402C226.542 18.3515 226.792 18.6832 226.373 18.9945C225.954 19.3058 225.791 19.0847 225.372 19.396C224.953 19.7073 224.953 19.7073 224.534 20.0186C224.115 20.3299 223.729 19.8091 223.31 20.1205" stroke="#EAE8E4" stroke-width="0.581882" stroke-linejoin="bevel"/>
<path d="M262.497 22.99C262.497 22.99 248.581 11.1225 248.316 12.4143C248.316 12.4143 262.398 9.91223 262.497 1.83862C262.497 1.83862 277.032 5.35901 276.677 12.4143C276.677 12.4143 263.262 19.1176 262.497 22.99Z" stroke="#EAE8E4" stroke-width="1.4547" stroke-linejoin="bevel"/>
<path d="M257.755 5.28632C257.755 5.28632 276.861 19.7344 276.678 20.6073C276.678 20.6073 261.502 36.158 262.497 31.183C262.497 31.183 248.256 23.9822 248.317 20.6073C248.317 20.6073 267.775 -0.765249 267.577 5.62381" stroke="#EAE8E4" stroke-width="1.4547" stroke-linejoin="bevel"/>
<path d="M266.919 19.5482C266.919 19.5482 253.544 7.25595 252.738 8.9725" stroke="#EAE8E4" stroke-width="1.4547" stroke-linejoin="bevel"/>
<path d="M272.61 9.31299C272.61 9.31299 258.529 15.8242 258.43 19.8887" stroke="#EAE8E4" stroke-width="1.4547" stroke-linejoin="bevel"/>
<path d="M292.845 22.0931C290.809 19.4746 290.227 15.9834 289.063 13.0739C288.19 11.3283 286.445 9.29172 284.117 9.58266C284.99 8.41889 286.154 7.54607 287.608 6.67325C292.264 4.05478 296.919 4.63666 301.865 4.05478C302.156 4.05478 302.737 3.4729 302.737 3.4729C305.356 6.38231 305.938 10.1645 307.102 13.6558C307.683 15.4015 309.72 16.2743 311.466 16.2743C307.392 21.2203 300.701 21.5112 294.882 21.5112C294.3 21.5112 293.427 21.8022 292.845 22.0931Z" stroke="#EAE8E4" stroke-width="0.581882" stroke-linejoin="bevel"/>
<path d="M297.791 4.92749C300.701 6.67313 302.737 9.58254 303.901 12.7829C305.065 16.2742 304.192 20.3474 306.519 23.2568C307.683 24.4205 309.138 25.0024 310.593 25.2933C306.519 27.9118 301.573 29.0756 296.918 29.0756C295.464 29.3665 294.009 29.6575 292.845 30.5303C290.518 28.2028 289.063 24.7115 287.899 21.5111C287.026 19.1836 285.572 17.7289 283.535 16.5651C285.572 14.5285 287.899 13.3648 290.518 12.201C294.009 11.0372 297.791 12.201 301.573 12.201C303.028 11.9101 304.483 11.9101 305.647 10.7463C306.229 10.1644 306.519 9.2916 307.101 8.70972" stroke="#EAE8E4" stroke-width="0.581882" stroke-linejoin="bevel"/>
<path d="M302.156 20.0566C299.828 20.9294 296.919 19.7657 295.464 17.7291C294.591 15.9834 295.755 13.6559 294.882 11.9103C293.718 9.58273 290.809 8.70991 288.19 9.58273" stroke="#EAE8E4" stroke-width="0.581882" stroke-linejoin="bevel"/>
<path d="M307.974 9.87354C307.974 12.492 306.228 14.5286 303.901 15.6924C302.155 16.2742 300.991 14.8195 299.537 14.5286C296.045 13.9467 294.3 17.438 293.718 20.3474" stroke="#EAE8E4" stroke-width="0.581882" stroke-linejoin="bevel"/>
<path d="M332.502 24.6141C331.396 24.6141 332.292 21.9083 331.408 21.2479C330.523 20.5875 329.165 22.4059 328.28 21.7454C327.396 21.085 328.751 19.2666 327.864 18.6062C326.977 17.9457 325.621 19.7641 324.736 19.1037C323.852 18.4432 325.208 16.6249 324.32 15.9644C323.433 15.304 322.077 17.1224 321.19 16.4619C320.302 15.8015 321.658 13.9802 320.771 13.3198C319.884 12.6593 317.184 14.0122 317.184 12.9066C317.184 11.8011 319.884 13.1539 320.768 12.4935C321.652 11.8331 320.297 10.0147 321.184 9.35425C322.071 8.69381 323.427 10.5122 324.312 9.85176C325.196 9.19132 323.84 7.37294 324.728 6.7096C325.615 6.04625 326.971 7.86754 327.855 7.2071C328.74 6.54667 327.384 4.72829 328.271 4.06494C329.159 3.4016 330.514 5.22289 331.402 4.55954C332.289 3.8962 331.39 1.19336 332.499 1.19336C333.607 1.19336 332.708 3.89911 333.593 4.55954C334.477 5.21998 335.836 3.4016 336.72 4.06204C337.605 4.72247 336.249 6.54085 337.136 7.20129C338.024 7.86172 339.379 6.04334 340.264 6.70378C341.148 7.36421 339.793 9.18259 340.68 9.84303C341.567 10.5035 342.923 8.68508 343.81 9.34552C344.698 10.006 343.342 11.8272 344.229 12.4877C345.117 13.1481 347.817 11.7952 347.817 12.9008C347.817 14.0064 345.117 12.6535 344.232 13.314C343.348 13.9744 344.704 15.7928 343.816 16.4532C342.929 17.1136 341.573 15.2953 340.689 15.9557C339.804 16.6161 341.16 18.4345 340.273 19.0979C339.385 19.7612 338.029 17.9399 337.145 18.6003C336.261 19.2608 337.616 21.0792 336.729 21.7425C335.842 22.4058 333.924 20.6107 333.322 21.5418C332.455 22.8859 333.607 24.6141 332.502 24.6141Z" stroke="#EAE8E4" stroke-width="0.581882" stroke-linejoin="bevel"/>
<path d="M328.472 4.89404C329.653 5.85124 328.228 7.61434 329.409 8.57153C330.59 9.52873 332.019 7.76563 333.2 8.72282C334.381 9.68002 332.955 11.4431 334.137 12.4003C335.318 13.3575 336.746 11.5944 337.93 12.5516C339.115 13.5088 337.686 15.2719 338.87 16.232C340.054 17.1921 341.48 15.4261 342.664 16.3833C343.848 17.3405 342.42 19.1036 343.604 20.0637C344.788 21.0238 347.526 19.3945 347.799 20.8929C348 21.981 345.12 20.8492 344.232 21.5097C343.345 22.1701 344.704 23.9885 343.816 24.6489C342.929 25.3094 341.573 23.491 340.689 24.1514C339.804 24.8118 341.16 26.6302 340.272 27.2936C339.385 27.9569 338.029 26.1356 337.145 26.7961C336.26 27.4565 337.616 29.2749 336.729 29.9382C335.841 30.6016 334.486 28.7803 333.598 29.4436C332.711 30.107 333.61 32.8098 332.501 32.8098C331.393 32.8098 332.292 30.1041 331.408 29.4436C330.523 28.7832 329.164 30.6016 328.28 29.9411C327.395 29.2807 328.751 27.4623 327.864 26.8019C326.977 26.1414 325.621 27.9598 324.736 27.2994C323.852 26.639 325.208 24.8206 324.32 24.1601C323.433 23.4997 322.077 25.3181 321.19 24.6576C320.302 23.9972 321.658 22.1759 320.771 21.5155C319.883 20.8551 316.991 21.9664 317.207 20.8812C317.503 19.3858 320.221 21.0616 321.422 20.1248C322.624 19.188 321.233 17.3987 322.435 16.4618C323.637 15.525 325.03 17.3172 326.235 16.3804C327.439 15.4436 326.045 13.6543 327.25 12.7174C328.454 11.7806 329.848 13.5728 331.053 12.636C332.257 11.6991 330.863 9.90986 332.068 8.97303C333.272 8.0362 334.666 9.8284 335.871 8.88866C337.075 7.94892 335.681 6.15964 336.886 5.22281" stroke="#EAE8E4" stroke-width="0.581882" stroke-linejoin="bevel"/>
<path d="M336.587 20.4944C335.699 19.8339 336.38 18.9233 335.493 18.2629C334.605 17.6024 333.927 18.5102 333.043 17.8497C332.159 17.1893 332.836 16.2786 331.949 15.6182C331.062 14.9578 330.384 15.8655 329.499 15.2051C328.615 14.5446 329.293 13.634 328.405 12.9736C327.518 12.3131 326.84 13.2209 325.953 12.5604C325.065 11.9 325.743 10.9893 324.856 10.3289C323.969 9.66847 323.291 10.5762 322.403 9.91577" stroke="#EAE8E4" stroke-width="0.581882" stroke-linejoin="bevel"/>
<path d="M342.952 10.2561C342.065 10.9165 341.387 10.0088 340.502 10.6692C339.618 11.3297 340.296 12.2403 339.408 12.9008C338.521 13.5612 337.843 12.6535 336.959 13.3139C336.074 13.9743 336.752 14.885 335.865 15.5454C334.977 16.2058 334.299 15.2952 333.415 15.9585C332.53 16.6219 333.205 17.5296 332.321 18.1901C331.436 18.8505 330.756 17.9428 329.868 18.6032C328.981 19.2636 329.659 20.1743 328.771 20.8347" stroke="#EAE8E4" stroke-width="0.581882" stroke-linejoin="bevel"/>
</svg>
