<svg width="320" height="34" viewBox="0 0 320 34" fill="none" xmlns="http://www.w3.org/2000/svg">
<path d="M20.7309 9.53125H11.8439L7.40039 17.2253L11.8439 24.9221H20.7309L25.1744 17.2253L20.7309 9.53125Z" stroke="#EAE8E4" stroke-width="1.40351" stroke-linejoin="bevel"/>
<path d="M11.8438 9.53125L16.2873 17.2253H25.1743" stroke="#EAE8E4" stroke-width="1.40351" stroke-linejoin="bevel"/>
<path d="M16.2873 17.2253L11.8438 24.9222" stroke="#EAE8E4" stroke-width="1.40351" stroke-linejoin="bevel"/>
<path d="M2.00293 11.5158V3.00488H10.511" stroke="#EAE8E4" stroke-width="1.40351" stroke-linejoin="bevel"/>
<path d="M10.511 31.0022H2.00293V22.4941" stroke="#EAE8E4" stroke-width="1.40351" stroke-linejoin="bevel"/>
<path d="M21.4893 3.00488H29.9973V11.5158" stroke="#EAE8E4" stroke-width="1.40351" stroke-linejoin="bevel"/>
<path d="M29.9973 22.4941V31.0022H21.4893" stroke="#EAE8E4" stroke-width="1.40351" stroke-linejoin="bevel"/>
<path d="M33.9711 11.3846L34.1648 3.83938C34.1676 3.71868 34.1732 3.58675 34.2462 3.4885C34.3473 3.35096 34.541 3.3285 34.7094 3.31727C36.4245 3.21341 38.148 3.30324 39.8434 3.58674C40.6603 3.72429 41.508 3.90394 42.3052 3.67657C42.235 3.35096 41.7999 3.29482 41.4659 3.31166C39.209 3.43236 36.9522 3.55587 34.6925 3.67657C34.5494 3.68499 34.4006 3.69341 34.2771 3.76639C34.0497 3.90113 33.988 4.19868 33.9739 4.46534C33.9206 5.66955 34.4539 6.81201 34.7487 7.98253C35.0434 9.15306 35.035 10.5594 34.1367 11.365C34.0975 10.6997 34.0582 10.0373 34.0189 9.37201C33.8813 7.08709 33.8308 4.53832 35.3438 2.82043C35.5262 2.61552 35.7311 2.42183 35.9782 2.30394C37.0448 1.78745 38.2238 2.77832 39.4055 2.85973C40.1803 2.91306 41.0701 2.59587 41.6624 3.09833" stroke="#EAE8E4" stroke-width="0.280702" stroke-miterlimit="10"/>
<path d="M53.9906 2.98601L61.0193 2.9804C61.2018 2.9804 61.3983 2.98601 61.5386 3.1011C61.6706 3.20777 61.7183 3.38461 61.7548 3.55023C62.3583 6.14391 62.406 8.82742 62.4537 11.4885C62.0158 8.68707 61.8306 5.84637 61.8979 3.01409C59.5597 3.32566 57.1906 3.41829 54.8355 3.28917L53.2158 3.01689C55.7842 2.84566 58.3723 3.01689 60.8958 3.52777C61.2635 3.60075 61.6593 3.70181 61.8923 3.99374C62.0832 4.23233 62.1281 4.55233 62.1646 4.85549C62.2572 5.60496 62.347 6.35444 62.4397 7.10391" stroke="#EAE8E4" stroke-width="0.280702" stroke-miterlimit="10"/>
<path d="M62.3864 31.5165L53.0166 31.5025C55.6412 30.3207 58.785 32.2127 61.5443 31.393C61.3113 30.8877 60.6405 30.7951 60.0847 30.7867C58.2489 30.7586 56.4103 30.8681 54.5885 31.1151C56.6096 31.6653 58.712 31.9095 60.8033 31.8393C61.2327 31.8253 61.7324 31.7579 61.9513 31.3874C62.0664 31.1909 62.0748 30.9523 62.0777 30.7221C62.0973 29.3214 61.6089 27.1039 62.3752 25.9333C62.392 26.3965 62.3892 31.5193 62.3864 31.5193V31.5165Z" stroke="#EAE8E4" stroke-width="0.280702" stroke-miterlimit="10"/>
<path d="M34.3581 22.9609C33.9483 25.6837 33.9792 28.4739 34.4535 31.1883C36.8592 31.1939 39.262 31.1995 41.6676 31.208C42.0269 31.208 42.5181 31.0676 42.4704 30.7139C42.0774 30.6494 41.6788 30.655 41.2802 30.6606C39.349 30.6915 37.4206 30.7223 35.4893 30.7532C35.1104 30.7588 34.6613 30.7308 34.4592 30.408C34.3581 30.248 34.3469 30.0515 34.3413 29.8634C34.2739 27.876 34.563 25.7343 33.5469 24.0248C33.5553 25.9167 33.6676 27.8087 33.8837 29.6866C33.9455 30.2283 34.0353 30.8066 34.4086 31.2023C34.9139 31.7385 35.7476 31.7469 36.4858 31.7216C38.3581 31.6543 40.2304 31.5869 42.1027 31.5195" stroke="#EAE8E4" stroke-width="0.280702" stroke-miterlimit="10"/>
<path d="M44.1093 10.2338C42.3268 12.5412 40.7605 15.0114 39.4356 17.6079C40.8363 20.21 42.3493 22.7503 43.9689 25.2205C45.2826 23.1742 46.5205 21.0801 47.677 18.9412C47.9493 18.4359 48.2272 17.8521 48.0447 17.3075C47.8931 16.8528 47.4637 16.5608 47.0847 16.2661C45.1366 14.7559 43.938 12.3194 43.9296 9.85207C45.451 11.3426 46.6244 13.184 47.3289 15.191C47.5001 15.6738 47.6545 16.1875 48.0166 16.5496C48.5107 17.0408 49.2629 17.1363 49.9591 17.1812C52.4293 17.3496 54.9163 17.2654 57.3696 16.9314C56.6819 14.5679 53.9366 13.2233 53.3472 10.8345C53.2826 10.5735 53.2377 10.2872 53.0496 10.0963C52.8391 9.88294 52.5135 9.84926 52.2131 9.83242C49.5296 9.6668 46.8321 9.74259 44.1626 10.0626C46.5682 10.0261 48.971 9.98961 51.3766 9.95312C51.7949 9.94751 52.2356 9.94751 52.5921 10.1636C52.8363 10.3124 53.0131 10.5454 53.1787 10.7756C54.3717 12.4317 55.3542 14.2422 56.0924 16.1482C56.3338 16.7742 56.5528 17.431 56.5163 18.1019C56.4714 18.9356 56.0391 19.6907 55.6208 20.4093C54.6693 22.0401 53.7177 23.6682 52.7689 25.2991C53.437 23.89 54.571 22.7615 55.5086 21.5152C56.4461 20.2689 57.2293 18.7531 57.0103 17.2093C53.9591 17.1194 50.9051 17.0324 47.8538 16.9426C48.0166 17.4422 47.7837 17.9756 47.5563 18.4472C46.4447 20.7686 45.3331 23.0928 44.2215 25.4142C47.2026 26.3658 50.4952 26.3208 53.451 25.285C53.4089 24.9286 52.9205 24.8668 52.5612 24.9033C49.9338 25.1784 47.3093 25.4535 44.6819 25.7286C46.9387 25.6808 49.1956 25.6303 51.4524 25.5826C49.3331 24.9763 47.1324 24.6507 44.9289 24.617C44.5051 24.6114 44.0615 24.6114 43.6798 24.4205C43.3766 24.2661 43.1437 24.005 42.9191 23.7496C42.3437 23.0956 41.7682 22.4415 41.1928 21.7875C40.3787 20.8612 39.5282 19.8619 39.3598 18.6408C39.1661 17.2317 39.924 15.8843 40.6538 14.6605C41.5072 13.2317 42.3773 11.7861 43.5675 10.624C42.3914 12.4654 41.2124 14.304 40.0363 16.1454C39.7528 16.5861 39.4608 17.0689 39.4945 17.591C39.5282 18.0935 39.8594 18.5229 40.1794 18.9131C41.7907 20.9005 43.4103 22.885 45.0356 24.8612C46.6777 22.8738 47.8651 20.5131 48.4826 18.0093" stroke="#EAE8E4" stroke-width="0.280702" stroke-miterlimit="10"/>
<path d="M66.3819 11.4105L65.624 2.66943L74.89 2.89961" stroke="#EAE8E4" stroke-width="1.57474" stroke-linejoin="bevel"/>
<path d="M85.8682 2.89966H92.7987L94.3762 4.3986V11.4105" stroke="#EAE8E4" stroke-width="1.57474" stroke-linejoin="bevel"/>
<path d="M94.3762 22.6807V29.9929L85.8682 30.8968" stroke="#EAE8E4" stroke-width="1.57474" stroke-linejoin="bevel"/>
<path d="M66.3818 22.3887L66.6962 31.3374L74.2583 30.8911" stroke="#EAE8E4" stroke-width="1.57474" stroke-linejoin="bevel"/>
<path d="M76.2234 9.42578L80.3665 17.6419L76.723 24.8167L70.9658 17.1198L76.2234 9.42578Z" stroke="#EAE8E4" stroke-width="1.57474" stroke-linejoin="bevel"/>
<path d="M76.2236 9.42578H85.8685L89.5542 16.2721L80.3668 17.6419" stroke="#EAE8E4" stroke-width="1.57474" stroke-linejoin="bevel"/>
<path d="M89.5535 16.2722L85.11 24.8168H76.7227" stroke="#EAE8E4" stroke-width="1.57474" stroke-linejoin="bevel"/>
<path d="M114.999 12.5317C118.465 6.52751 106.112 6.52751 109.578 12.5317C106.112 6.52751 99.9363 17.2279 106.867 17.2279C99.9335 17.2279 106.112 27.9254 109.578 21.924C106.112 27.9282 118.465 27.9282 114.999 21.924C118.465 27.9282 124.641 17.2279 117.71 17.2279C124.644 17.2279 118.465 6.53032 114.999 12.5317Z" stroke="#EAE8E4" stroke-width="0.561403" stroke-linejoin="bevel"/>
<path d="M110.443 11.0301C105.244 8.02937 111.419 18.7269 113.154 15.7262C111.422 18.7269 123.773 18.7269 118.575 15.7262" stroke="#EAE8E4" stroke-width="0.561403" stroke-linejoin="bevel"/>
<path d="M111.423 18.7269C113.155 15.7262 106.979 26.4237 108.711 23.423" stroke="#EAE8E4" stroke-width="0.561403" stroke-linejoin="bevel"/>
<path d="M99.6613 9.85389C96.3434 13.1718 96.3434 1.34582 99.6613 4.66371C96.3434 1.34582 108.169 1.34582 104.851 4.66371" stroke="#EAE8E4" stroke-width="0.561403" stroke-linejoin="bevel"/>
<path d="M104.851 29.343C108.169 32.6609 96.3434 32.6609 99.6613 29.343C96.3434 32.6609 96.3434 20.8349 99.6613 24.1528" stroke="#EAE8E4" stroke-width="0.561403" stroke-linejoin="bevel"/>
<path d="M119.147 4.66371C115.829 1.34582 127.655 1.34582 124.337 4.66371C127.655 1.34582 127.655 13.1718 124.337 9.85389" stroke="#EAE8E4" stroke-width="0.561403" stroke-linejoin="bevel"/>
<path d="M124.337 24.1528C127.655 20.8349 127.655 32.6609 124.337 29.343C127.655 32.6609 115.829 32.6609 119.147 29.343" stroke="#EAE8E4" stroke-width="0.561403" stroke-linejoin="bevel"/>
<path d="M148.377 10.1446C147.897 9.86672 148.178 8.81689 147.622 8.81689C147.067 8.81689 147.067 10.2401 146.511 10.2401C145.955 10.2401 145.955 8.81689 145.399 8.81689C144.843 8.81689 144.843 10.2401 144.29 10.2401C143.737 10.2401 143.735 8.81689 143.179 8.81689C142.623 8.81689 142.623 10.2401 142.067 10.2401C141.511 10.2401 141.511 8.81689 140.956 8.81689C140.4 8.81689 140.681 9.86672 140.198 10.1446C139.715 10.4225 138.949 9.65338 138.671 10.1362C138.393 10.619 139.625 11.3292 139.347 11.8092C139.069 12.2892 137.84 11.579 137.562 12.059C137.284 12.539 138.516 13.252 138.238 13.732C137.961 14.212 136.728 13.5018 136.45 13.9818C136.172 14.4618 137.405 15.1748 137.127 15.6548C136.849 16.1348 135.617 15.4246 135.339 15.9074C135.061 16.3902 136.111 16.6709 136.108 17.2267C136.105 17.7825 135.058 18.0632 135.336 18.5432C135.614 19.0232 136.846 18.313 137.121 18.793C137.396 19.273 136.167 19.9832 136.445 20.4632C136.723 20.9432 137.955 20.233 138.23 20.713C138.505 21.193 137.276 21.906 137.554 22.386C137.831 22.866 139.064 22.1558 139.342 22.6358C139.62 23.1158 138.387 23.8288 138.665 24.3116C138.943 24.7944 139.712 24.0253 140.192 24.3032C140.672 24.5811 140.391 25.6309 140.947 25.6309C141.503 25.6309 141.503 24.2078 142.059 24.2078C142.615 24.2078 142.615 25.6309 143.17 25.6309C143.726 25.6309 143.726 24.2078 144.279 24.2078C144.832 24.2078 144.835 25.6309 145.391 25.6309C145.947 25.6309 145.947 24.2078 146.502 24.2078C147.058 24.2078 147.058 25.6309 147.614 25.6309C148.17 25.6309 147.889 24.5811 148.372 24.3032C148.855 24.0253 149.621 24.7944 149.899 24.3116C150.177 23.8288 148.944 23.1186 149.222 22.6386C149.5 22.1586 150.73 22.8688 151.008 22.3888C151.285 21.9088 150.053 21.1958 150.331 20.7158C150.609 20.2358 151.841 20.946 152.119 20.466C152.397 19.986 151.165 19.273 151.443 18.793C151.721 18.313 152.953 19.0232 153.231 18.5404C153.509 18.0576 152.459 17.7769 152.462 17.2211C152.464 16.6653 153.511 16.3846 153.234 15.9046C152.956 15.4246 151.723 16.1348 151.448 15.6548C151.173 15.1748 152.403 14.4646 152.125 13.9846C151.847 13.5046 150.615 14.2148 150.339 13.7348C150.064 13.2548 151.294 12.5418 151.016 12.0618C150.738 11.5818 149.506 12.292 149.228 11.812C148.95 11.332 150.185 10.4029 149.801 10.0015C149.461 9.64777 148.855 10.4225 148.375 10.1446H148.377Z" stroke="#EAE8E4" stroke-width="1.70947" stroke-linejoin="bevel"/>
<path d="M140.307 9.26318C140.585 9.74318 139.662 10.2765 139.939 10.7593C140.217 11.2421 141.141 10.706 141.419 11.1888C141.697 11.6716 140.773 12.2021 141.051 12.6821C141.329 13.1621 142.252 12.6288 142.53 13.1116C142.808 13.5944 141.885 14.1249 142.163 14.6077C142.441 15.0905 143.364 14.5544 143.642 15.0372C143.92 15.52 142.996 16.0534 143.274 16.5334C143.552 17.0134 144.077 16.4913 144.56 16.7691C145.043 17.047 144.849 17.7628 145.405 17.7628C145.961 17.7628 145.961 16.6962 146.516 16.6962C147.072 16.6962 147.072 17.7628 147.628 17.7628C148.184 17.7628 148.184 16.6962 148.737 16.6962C149.29 16.6962 149.292 17.7628 149.848 17.7628C150.404 17.7628 150.404 16.6962 150.96 16.6962C151.516 16.6962 151.516 17.7628 152.071 17.7628C152.627 17.7628 152.627 16.6962 153.183 16.6962" stroke="#EAE8E4" stroke-width="1.70947" stroke-linejoin="bevel"/>
<path d="M144.555 17.3782C144.277 17.8582 143.743 17.5522 143.465 18.0322C143.188 18.5122 143.721 18.821 143.443 19.301C143.165 19.781 142.632 19.4722 142.354 19.955C142.076 20.4378 142.609 20.7438 142.331 21.2238C142.054 21.7038 141.52 21.3978 141.242 21.8778C140.964 22.3578 141.498 22.6666 141.22 23.1466C140.942 23.6266 140.409 23.3206 140.131 23.8034C139.853 24.2862 140.386 24.5922 140.108 25.075" stroke="#EAE8E4" stroke-width="1.70947" stroke-linejoin="bevel"/>
<path d="M129.663 11.5143C129.663 10.9838 130.342 10.9838 130.342 10.4505C130.342 9.91715 129.663 9.91996 129.663 9.38662C129.663 8.85329 130.342 8.8561 130.342 8.32276C130.342 7.78943 129.663 7.79224 129.663 7.2589C129.663 6.72557 130.342 6.72838 130.342 6.19505C130.342 5.66171 129.663 5.66452 129.663 5.13118C129.663 4.59785 130.342 4.59785 130.342 4.06733C130.342 3.5368 129.385 3.1382 129.761 2.76206C130.137 2.38592 130.533 3.34312 131.067 3.34312C131.6 3.34312 131.597 2.66382 132.13 2.66382C132.664 2.66382 132.661 3.34312 133.194 3.34312C133.728 3.34312 133.725 2.66382 134.258 2.66382C134.792 2.66382 134.789 3.34312 135.322 3.34312C135.855 3.34312 135.853 2.66382 136.386 2.66382C136.919 2.66382 136.919 3.34312 137.45 3.34312C137.98 3.34312 137.983 2.66382 138.514 2.66382" stroke="#EAE8E4" stroke-width="1.70947" stroke-linejoin="bevel"/>
<path d="M138.511 31.3403C137.98 31.3403 137.98 30.661 137.447 30.661C136.913 30.661 136.916 31.3403 136.383 31.3403C135.85 31.3403 135.852 30.661 135.319 30.661C134.786 30.661 134.789 31.3403 134.255 31.3403C133.722 31.3403 133.725 30.661 133.191 30.661C132.658 30.661 132.661 31.3403 132.128 31.3403C131.594 31.3403 131.594 30.661 131.064 30.661C130.533 30.661 130.135 31.6182 129.758 31.242C129.382 30.8659 130.339 30.4701 130.339 29.9368C130.339 29.4034 129.66 29.4062 129.66 28.8729C129.66 28.3396 130.339 28.3424 130.339 27.809C130.339 27.2757 129.66 27.2785 129.66 26.7452C129.66 26.2119 130.339 26.2147 130.339 25.6813C130.339 25.148 129.66 25.1508 129.66 24.6175C129.66 24.0841 130.339 24.0841 130.339 23.5536C130.339 23.0231 129.66 23.0203 129.66 22.4897" stroke="#EAE8E4" stroke-width="1.70947" stroke-linejoin="bevel"/>
<path d="M149.489 2.66382C150.02 2.66382 150.02 3.34312 150.553 3.34312C151.086 3.34312 151.084 2.66382 151.617 2.66382C152.15 2.66382 152.148 3.34312 152.681 3.34312C153.214 3.34312 153.211 2.66382 153.745 2.66382C154.278 2.66382 154.275 3.34312 154.809 3.34312C155.342 3.34312 155.339 2.66382 155.872 2.66382C156.406 2.66382 156.406 3.34312 156.936 3.34312C157.467 3.34312 157.865 2.38592 158.242 2.76206C158.618 3.1382 157.66 3.53399 157.66 4.06733C157.66 4.60066 158.34 4.59785 158.34 5.13118C158.34 5.66452 157.66 5.66171 157.66 6.19505C157.66 6.72838 158.34 6.72557 158.34 7.2589C158.34 7.79224 157.66 7.78943 157.66 8.32276C157.66 8.8561 158.34 8.85329 158.34 9.38662C158.34 9.91996 157.66 9.91996 157.66 10.4505C157.66 10.981 158.34 10.9838 158.34 11.5143" stroke="#EAE8E4" stroke-width="1.70947" stroke-linejoin="bevel"/>
<path d="M158.34 22.4927C158.34 23.0232 157.66 23.0232 157.66 23.5565C157.66 24.0899 158.34 24.0871 158.34 24.6204C158.34 25.1537 157.66 25.1509 157.66 25.6843C157.66 26.2176 158.34 26.2148 158.34 26.7481C158.34 27.2814 157.66 27.2786 157.66 27.812C157.66 28.3453 158.34 28.3425 158.34 28.8758C158.34 29.4092 157.66 29.4092 157.66 29.9397C157.66 30.4702 158.618 30.8688 158.242 31.245C157.865 31.6211 157.47 30.6639 156.936 30.6639C156.403 30.6639 156.406 31.3432 155.872 31.3432C155.339 31.3432 155.342 30.6639 154.809 30.6639C154.275 30.6639 154.278 31.3432 153.745 31.3432C153.211 31.3432 153.214 30.6639 152.681 30.6639C152.148 30.6639 152.15 31.3432 151.617 31.3432C151.084 31.3432 151.084 30.6639 150.553 30.6639C150.023 30.6639 150.02 31.3432 149.489 31.3432" stroke="#EAE8E4" stroke-width="1.70947" stroke-linejoin="bevel"/>
<path d="M179.387 10.974L178.104 6.82242L175.884 6.39575L173.661 9.25049L170.41 7.56628L172.936 12.7761L169.7 13.475L165.849 13.8175L168.24 17.0484L169.136 18.3733L171.275 19.7038L169.242 23.4428L171.21 25.141L173.661 22.4238L175.881 23.2659L178.104 26.0786L179.828 23.8807L183.99 24.2961L184.591 22.0786L185.136 19.8273L183.901 17.0456L182.379 15.8638L180.063 14.6372L182.171 10.2358L179.387 10.974Z" stroke="#EAE8E4" stroke-width="0.561403" stroke-linejoin="bevel"/>
<path d="M172.445 8.76758L173.72 10.5978L172.681 13.7613L174.638 15.1985L174.792 18.9346L178.104 15.6953L180.325 16.6441L182.548 15.9563L184.768 17.0118" stroke="#EAE8E4" stroke-width="0.561403" stroke-linejoin="bevel"/>
<path d="M175.165 16.6328L174.197 18.637L172.765 20.3746L172.285 22.6651L172.021 25.0791" stroke="#EAE8E4" stroke-width="0.561403" stroke-linejoin="bevel"/>
<path d="M161.633 11.3361L163.039 9.20839L162.464 7.08067L162.329 4.95295L161.338 2.56698L163.724 2.87295L165.849 4.11926L167.976 1.854L170.104 3.66733" stroke="#EAE8E4" stroke-width="0.561403" stroke-linejoin="bevel"/>
<path d="M170.104 30.7748L167.976 30.4436L165.851 31.673L163.723 31.7095L161.573 30.845L163.03 28.6948L162.755 26.5699L162.769 24.4422L161.346 22.3145" stroke="#EAE8E4" stroke-width="0.561403" stroke-linejoin="bevel"/>
<path d="M181.082 3.67008L183.21 3.86657L185.335 2.09814L187.462 2.18516L190.011 2.40692L188.568 4.95288L188.658 7.0806L189.012 9.20832L188.296 11.336" stroke="#EAE8E4" stroke-width="0.561403" stroke-linejoin="bevel"/>
<path d="M190.497 22.3145L188.765 24.4394L190.662 26.5671L189.947 28.6948L189.781 31.0134L187.465 31.3923L185.337 30.3088L183.21 32.153L181.082 31.1397" stroke="#EAE8E4" stroke-width="0.561403" stroke-linejoin="bevel"/>
<path d="M212.543 9.75024C212.116 9.50322 212.197 10.1123 211.703 10.1123C211.209 10.1123 211.209 10.4492 210.715 10.4492C210.221 10.4492 210.221 10.5362 209.727 10.5362C209.233 10.5362 209.233 10.4183 208.742 10.4183C208.251 10.4183 208.248 8.79866 207.754 8.79866C207.26 8.79866 207.26 9.23936 206.766 9.23936C206.272 9.23936 206.272 8.57129 205.778 8.57129C205.284 8.57129 205.284 9.77831 204.79 9.77831C204.296 9.77831 203.745 8.41129 203.319 8.65831C202.892 8.90532 202.858 9.52006 202.611 9.94673C202.364 10.3734 202.319 10.3481 202.072 10.7748C201.825 11.2015 202.637 11.6702 202.39 12.0969C202.143 12.5236 202.889 12.953 202.642 13.3825C202.395 13.812 201.823 13.4808 201.576 13.9074C201.329 14.3341 201.382 14.365 201.135 14.7916C200.888 15.2183 200.837 15.1902 200.59 15.6169C200.343 16.0436 199.689 15.6674 199.442 16.0969C199.195 16.5264 199.799 16.6976 199.799 17.1916C199.799 17.6857 199.976 17.405 200.223 17.8316C200.47 18.2583 200.596 18.1853 200.843 18.6148C201.09 19.0443 200.36 19.4625 200.607 19.8892C200.854 20.3158 201.286 20.066 201.533 20.4927C201.78 20.9194 202.502 20.5039 202.749 20.9306C202.996 21.3573 202.109 21.8709 202.356 22.2976C202.603 22.7243 203.226 22.365 203.473 22.7916C203.72 23.2183 203.95 23.0864 204.197 23.5158C204.444 23.9453 203.734 24.0183 204.161 24.2653C204.587 24.5123 204.296 25.8204 204.79 25.8204C205.284 25.8204 205.284 25.4723 205.778 25.4723C206.272 25.4723 206.272 24.4674 206.766 24.4674C207.26 24.4674 207.26 24.0043 207.751 24.0043C208.242 24.0043 208.245 24.779 208.739 24.779C209.233 24.779 209.233 24.0464 209.727 24.0464C210.221 24.0464 210.221 25.245 210.715 25.245C211.209 25.245 211.209 25.7867 211.703 25.7867C212.197 25.7867 211.897 24.4983 212.326 24.2513C212.756 24.0043 213.008 24.4983 213.256 24.0716C213.503 23.645 213.637 23.7208 213.884 23.2941C214.131 22.8674 213.314 22.3958 213.561 21.9664C213.808 21.5369 215.333 22.4183 215.58 21.9916C215.827 21.565 214.928 21.0457 215.176 20.619C215.423 20.1923 214.614 19.7236 214.861 19.2969C215.108 18.8702 216.444 19.6422 216.691 19.2127C216.938 18.7832 216.397 18.4716 216.644 18.0422C216.891 17.6127 216.921 17.6829 216.921 17.186C216.921 16.6892 216.352 17.0709 216.105 16.6443C215.858 16.2176 217.3 15.3839 217.053 14.9573C216.806 14.5306 215.981 15.005 215.734 14.5783C215.487 14.1516 216.107 13.7923 215.86 13.3657C215.613 12.939 215.796 12.8351 215.549 12.4057C215.302 11.9762 213.533 12.998 213.289 12.5713C213.045 12.1446 213.098 12.1109 212.851 11.6843C212.604 11.2576 214.114 10.3762 213.865 9.94954C213.64 9.56778 212.975 9.99164 212.545 9.74462L212.543 9.75024Z" stroke="#EAE8E4" stroke-width="0.561403" stroke-linejoin="bevel"/>
<path d="M203.156 9.86816C203.403 10.2948 203.569 10.1994 203.816 10.6261C204.063 11.0527 204.425 10.845 204.672 11.2717C204.919 11.6983 204.56 11.9061 204.807 12.3355C205.054 12.765 205.444 12.5376 205.691 12.9643C205.938 13.391 206.269 13.2001 206.516 13.6268C206.763 14.0534 206.14 14.4155 206.387 14.8422C206.634 15.2689 206.735 15.2099 206.982 15.6394C207.229 16.0689 207.729 15.7797 207.976 16.2064C208.223 16.6331 207.942 16.7313 208.372 16.9811C208.801 17.231 208.742 17.9355 209.236 17.9355C209.73 17.9355 209.73 17.2675 210.224 17.2675C210.718 17.2675 210.718 16.5011 211.212 16.5011C211.706 16.5011 211.706 17.5482 212.198 17.5482C212.689 17.5482 212.692 17.0261 213.186 17.0261C213.68 17.0261 213.68 16.911 214.174 16.911C214.668 16.911 214.668 16.4226 215.162 16.4226C215.656 16.4226 215.656 16.4675 216.15 16.4675C216.644 16.4675 216.644 16.445 217.138 16.445" stroke="#EAE8E4" stroke-width="0.561403" stroke-linejoin="bevel"/>
<path d="M208.507 17.3403C208.26 17.767 208.103 17.6772 207.856 18.1038C207.608 18.5305 207.903 18.7017 207.656 19.1284C207.409 19.5551 206.629 19.1059 206.382 19.5326C206.135 19.9593 206.295 20.0519 206.048 20.4786C205.801 20.9052 205.857 20.9389 205.61 21.3656C205.363 21.7923 205.318 21.767 205.071 22.1937C204.824 22.6203 204.967 22.7045 204.72 23.1312C204.473 23.5579 204.714 23.6982 204.467 24.1277C204.22 24.5572 204.327 24.6189 204.08 25.0456" stroke="#EAE8E4" stroke-width="0.561403" stroke-linejoin="bevel"/>
<path d="M194.432 11.4793C194.432 10.9488 194.196 10.9488 194.196 10.4154C194.196 9.88209 193.975 9.8849 193.975 9.35157C193.975 8.81824 194.129 8.82104 194.129 8.28771C194.129 7.75438 194.39 7.75718 194.39 7.22385C194.39 6.69052 194.34 6.69333 194.34 6.15999C194.34 5.62666 193.674 5.62946 193.674 5.09613C193.674 4.5628 193.551 4.5628 193.551 4.03227C193.551 3.50175 193.714 3.47087 194.09 3.09473C194.466 2.71859 194.494 3.40631 195.024 3.40631C195.555 3.40631 195.555 3.36982 196.088 3.36982C196.622 3.36982 196.619 2.60069 197.152 2.60069C197.686 2.60069 197.683 2.80841 198.216 2.80841C198.749 2.80841 198.747 2.76912 199.28 2.76912C199.813 2.76912 199.81 3.41473 200.344 3.41473C200.877 3.41473 200.877 2.69052 201.408 2.69052C201.938 2.69052 201.941 2.53613 202.471 2.53613" stroke="#EAE8E4" stroke-width="0.561403" stroke-linejoin="bevel"/>
<path d="M202.469 31.4345C201.938 31.4345 201.938 30.8394 201.405 30.8394C200.872 30.8394 200.875 31.2408 200.341 31.2408C199.808 31.2408 199.811 31.1257 199.277 31.1257C198.744 31.1257 198.747 30.5727 198.213 30.5727C197.68 30.5727 197.683 30.5222 197.15 30.5222C196.616 30.5222 196.619 31.3054 196.086 31.3054C195.552 31.3054 195.552 31.2661 195.022 31.2661C194.491 31.2661 194.396 31.2801 194.02 30.904C193.644 30.5278 193.689 30.4352 193.689 29.9019C193.689 29.3685 194.199 29.3713 194.199 28.838C194.199 28.3047 193.557 28.3075 193.557 27.7741C193.557 27.2408 194.096 27.2436 194.096 26.7103C194.096 26.1769 193.955 26.1797 193.955 25.6464C193.955 25.1131 194.233 25.1159 194.233 24.5826C194.233 24.0492 193.989 24.0492 193.989 23.5187C193.989 22.9882 194.34 22.9854 194.34 22.4548" stroke="#EAE8E4" stroke-width="0.561403" stroke-linejoin="bevel"/>
<path d="M213.447 2.73264C213.978 2.73264 213.978 2.68773 214.511 2.68773C215.044 2.68773 215.042 2.74948 215.575 2.74948C216.108 2.74948 216.106 3.04142 216.639 3.04142C217.172 3.04142 217.169 2.60913 217.703 2.60913C218.236 2.60913 218.233 2.68492 218.767 2.68492C219.3 2.68492 219.297 2.69334 219.83 2.69334C220.364 2.69334 220.364 3.0358 220.894 3.0358C221.425 3.0358 221.88 2.29755 222.256 2.67369C222.632 3.04983 222.127 3.50177 222.127 4.03229C222.127 4.56282 222.244 4.56282 222.244 5.09615C222.244 5.62948 222.096 5.62668 222.096 6.16001C222.096 6.69335 222.233 6.69054 222.233 7.22387C222.233 7.7572 222.233 7.75439 222.233 8.28773C222.233 8.82106 221.975 8.81826 221.975 9.35159C221.975 9.88492 222.163 9.88492 222.163 10.4154C222.163 10.946 221.647 10.9488 221.647 11.4793" stroke="#EAE8E4" stroke-width="0.561403" stroke-linejoin="bevel"/>
<path d="M221.59 22.4575C221.59 22.988 222.449 22.988 222.449 23.5214C222.449 24.0547 221.453 24.0519 221.453 24.5852C221.453 25.1186 221.456 25.1158 221.456 25.6491C221.456 26.1824 221.997 26.1796 221.997 26.713C221.997 27.2463 222.41 27.2435 222.41 27.7768C222.41 28.3101 221.596 28.3073 221.596 28.8407C221.596 29.374 221.966 29.374 221.966 29.9045C221.966 30.4351 222.674 30.9347 222.298 31.3137C221.922 31.6926 221.422 31.0217 220.891 31.0217C220.361 31.0217 220.361 30.5109 219.827 30.5109C219.294 30.5109 219.297 30.6652 218.764 30.6652C218.23 30.6652 218.233 31.061 217.7 31.061C217.166 31.061 217.169 31.4709 216.636 31.4709C216.103 31.4709 216.105 31.12 215.572 31.12C215.039 31.12 215.039 31.3305 214.508 31.3305C213.978 31.3305 213.975 30.6372 213.444 30.6372" stroke="#EAE8E4" stroke-width="0.561403" stroke-linejoin="bevel"/>
<path d="M244.633 10.2074C244.633 10.2074 235.21 6.21581 235.746 10.2074C235.746 10.2074 232.052 21.7302 231.303 17.9042C231.303 17.9042 235.429 27.1898 235.746 25.6011C235.746 25.6011 245.515 23.9786 244.633 25.6011C244.633 25.6011 249.147 13.8397 249.077 17.9042C249.077 17.9042 245.75 18.6397 244.633 10.2074Z" stroke="#EAE8E4" stroke-width="1.40351" stroke-linejoin="bevel"/>
<path d="M235.746 10.2075C235.746 10.2075 239.889 26.7801 240.19 17.9044C240.19 17.9044 249.961 18.3366 249.077 17.9044" stroke="#EAE8E4" stroke-width="1.40351" stroke-linejoin="bevel"/>
<path d="M240.19 17.9014C240.19 17.9014 236.684 22.0951 235.746 25.5982" stroke="#EAE8E4" stroke-width="1.40351" stroke-linejoin="bevel"/>
<path d="M225.905 12.1919C225.905 12.1919 225.973 -3.44597 225.905 3.68386C225.905 3.68386 234.13 10.4207 234.413 3.68386" stroke="#EAE8E4" stroke-width="1.40351" stroke-linejoin="bevel"/>
<path d="M234.413 31.6782C234.413 31.6782 225.77 25.253 225.905 31.6782C225.905 31.6782 226.158 25.6544 225.905 23.1702" stroke="#EAE8E4" stroke-width="1.40351" stroke-linejoin="bevel"/>
<path d="M245.392 3.68109C245.392 3.68109 254.75 -2.07891 253.9 3.68109C253.9 3.68109 254.346 13.2558 253.9 12.1892" stroke="#EAE8E4" stroke-width="1.40351" stroke-linejoin="bevel"/>
<path d="M253.9 23.1702C253.9 23.1702 253.243 36.9667 253.9 31.6782C253.9 31.6782 245.664 29.0565 245.392 31.6782" stroke="#EAE8E4" stroke-width="1.40351" stroke-linejoin="bevel"/>
<path d="M278.625 11.2492H277.783C275.256 10.1263 273.011 9.00354 270.204 8.44214C268.8 10.6878 266.554 11.5299 264.87 13.2141C264.59 13.7755 263.747 14.3369 264.028 14.6176C264.59 16.8632 264.59 19.1088 265.151 21.6351C265.432 22.1965 265.432 23.0386 265.712 23.0386C268.239 23.6 270.204 25.0035 272.449 25.5649C273.011 25.5649 273.572 25.8456 274.133 25.8456C274.695 25.5649 274.976 24.7228 275.256 24.4421C277.221 23.0386 279.186 21.9158 280.59 19.9509C280.59 19.6702 280.028 18.8281 280.028 18.2667C280.028 15.7404 279.467 13.4948 278.625 11.2492Z" stroke="#EAE8E4" stroke-width="0.561403" stroke-linejoin="bevel"/>
<path d="M267.678 9.56496C268.801 9.28426 269.923 9.84566 270.485 10.6878C271.327 12.372 270.204 14.0562 270.485 15.7404C272.169 16.0211 273.572 17.4246 275.257 17.986C277.222 18.5474 279.187 18.2667 281.151 17.1439" stroke="#EAE8E4" stroke-width="0.561403" stroke-linejoin="bevel"/>
<path d="M272.169 17.1438C272.45 18.2666 272.73 19.3894 271.888 20.5122C271.327 21.0736 270.485 21.0736 269.362 21.0736C267.678 21.3543 267.397 23.3192 267.678 25.0034" stroke="#EAE8E4" stroke-width="0.561403" stroke-linejoin="bevel"/>
<path d="M257.853 11.5297C257.292 9.28413 257.572 6.75781 258.695 4.5122C258.695 3.9508 258.414 3.38939 257.853 3.10869C260.379 1.70518 262.906 3.67009 265.713 3.67009C265.993 3.67009 266.274 3.38939 266.555 3.10869" stroke="#EAE8E4" stroke-width="0.561403" stroke-linejoin="bevel"/>
<path d="M266.555 30.8981C264.028 32.3016 261.502 30.3367 258.695 30.3367C258.414 30.3367 258.134 30.6174 257.853 30.8981C257.292 28.6525 257.572 26.4069 258.695 24.1613C258.695 23.5999 258.134 23.0385 257.853 22.4771" stroke="#EAE8E4" stroke-width="0.561403" stroke-linejoin="bevel"/>
<path d="M277.502 3.1086C279.748 1.98579 281.993 3.1086 284.239 3.67C284.8 3.67 285.362 3.9507 285.923 3.1086C287.046 5.35421 285.923 7.59983 285.362 9.84544C285.362 10.4068 285.081 10.9682 285.923 11.5296" stroke="#EAE8E4" stroke-width="0.561403" stroke-linejoin="bevel"/>
<path d="M285.923 22.4771C287.327 25.0034 285.362 27.5297 285.362 30.3367C285.362 30.6174 285.642 30.6174 285.923 30.8981C284.239 31.7402 282.274 31.1788 280.309 30.8981C279.467 30.6174 278.625 29.4946 277.502 30.8981" stroke="#EAE8E4" stroke-width="0.561403" stroke-linejoin="bevel"/>
<path d="M308.377 10.1446C307.897 9.86672 308.178 8.81689 307.622 8.81689C307.067 8.81689 307.067 10.2401 306.511 10.2401C305.955 10.2401 305.955 8.81689 305.399 8.81689C304.843 8.81689 304.843 10.2401 304.29 10.2401C303.737 10.2401 303.735 8.81689 303.179 8.81689C302.623 8.81689 302.623 10.2401 302.067 10.2401C301.511 10.2401 301.511 8.81689 300.956 8.81689C300.4 8.81689 300.681 9.86672 300.198 10.1446C299.715 10.4225 298.949 9.65338 298.671 10.1362C298.393 10.619 299.625 11.3292 299.347 11.8092C299.069 12.2892 297.84 11.579 297.562 12.059C297.284 12.539 298.516 13.252 298.238 13.732C297.961 14.212 296.728 13.5018 296.45 13.9818C296.172 14.4618 297.405 15.1748 297.127 15.6548C296.849 16.1348 295.617 15.4246 295.339 15.9074C295.061 16.3902 296.111 16.6709 296.108 17.2267C296.105 17.7825 295.058 18.0632 295.336 18.5432C295.614 19.0232 296.846 18.313 297.121 18.793C297.396 19.273 296.167 19.9832 296.445 20.4632C296.723 20.9432 297.955 20.233 298.23 20.713C298.505 21.193 297.276 21.906 297.554 22.386C297.831 22.866 299.064 22.1558 299.342 22.6358C299.62 23.1158 298.387 23.8288 298.665 24.3116C298.943 24.7944 299.712 24.0253 300.192 24.3032C300.672 24.5811 300.391 25.6309 300.947 25.6309C301.503 25.6309 301.503 24.2078 302.059 24.2078C302.615 24.2078 302.615 25.6309 303.17 25.6309C303.726 25.6309 303.726 24.2078 304.279 24.2078C304.832 24.2078 304.835 25.6309 305.391 25.6309C305.946 25.6309 305.947 24.2078 306.502 24.2078C307.058 24.2078 307.058 25.6309 307.614 25.6309C308.17 25.6309 307.889 24.5811 308.372 24.3032C308.855 24.0253 309.621 24.7944 309.899 24.3116C310.177 23.8288 308.944 23.1186 309.222 22.6386C309.5 22.1586 310.73 22.8688 311.008 22.3888C311.285 21.9088 310.053 21.1958 310.331 20.7158C310.609 20.2358 311.841 20.946 312.119 20.466C312.397 19.986 311.165 19.273 311.443 18.793C311.721 18.313 312.953 19.0232 313.231 18.5404C313.509 18.0576 312.459 17.7769 312.462 17.2211C312.464 16.6653 313.511 16.3846 313.234 15.9046C312.956 15.4246 311.723 16.1348 311.448 15.6548C311.173 15.1748 312.403 14.4646 312.125 13.9846C311.847 13.5046 310.615 14.2148 310.339 13.7348C310.064 13.2548 311.294 12.5418 311.016 12.0618C310.738 11.5818 309.506 12.292 309.228 11.812C308.95 11.332 310.185 10.4029 309.801 10.0015C309.461 9.64777 308.855 10.4225 308.375 10.1446H308.377Z" stroke="#EAE8E4" stroke-width="0.561403" stroke-linejoin="bevel"/>
<path d="M300.307 9.26318C300.585 9.74318 299.662 10.2765 299.939 10.7593C300.217 11.2421 301.141 10.706 301.419 11.1888C301.697 11.6716 300.773 12.2021 301.051 12.6821C301.329 13.1621 302.252 12.6288 302.53 13.1116C302.808 13.5944 301.885 14.1249 302.163 14.6077C302.441 15.0905 303.364 14.5544 303.642 15.0372C303.92 15.52 302.996 16.0534 303.274 16.5334C303.552 17.0134 304.077 16.4913 304.56 16.7691C305.043 17.047 304.849 17.7628 305.405 17.7628C305.961 17.7628 305.961 16.6962 306.516 16.6962C307.072 16.6962 307.072 17.7628 307.628 17.7628C308.184 17.7628 308.184 16.6962 308.737 16.6962C309.29 16.6962 309.292 17.7628 309.848 17.7628C310.404 17.7628 310.404 16.6962 310.96 16.6962C311.516 16.6962 311.516 17.7628 312.071 17.7628C312.627 17.7628 312.627 16.6962 313.183 16.6962" stroke="#EAE8E4" stroke-width="0.561403" stroke-linejoin="bevel"/>
<path d="M304.555 17.3782C304.277 17.8582 303.743 17.5522 303.465 18.0322C303.188 18.5122 303.721 18.821 303.443 19.301C303.165 19.781 302.632 19.4722 302.354 19.955C302.076 20.4378 302.609 20.7438 302.331 21.2238C302.054 21.7038 301.52 21.3978 301.242 21.8778C300.964 22.3578 301.498 22.6666 301.22 23.1466C300.942 23.6266 300.409 23.3206 300.131 23.8034C299.853 24.2862 300.386 24.5922 300.108 25.075" stroke="#EAE8E4" stroke-width="0.561403" stroke-linejoin="bevel"/>
<path d="M289.663 11.5143C289.663 10.9838 290.342 10.9838 290.342 10.4505C290.342 9.91715 289.663 9.91996 289.663 9.38662C289.663 8.85329 290.342 8.8561 290.342 8.32276C290.342 7.78943 289.663 7.79224 289.663 7.2589C289.663 6.72557 290.342 6.72838 290.342 6.19505C290.342 5.66171 289.663 5.66452 289.663 5.13118C289.663 4.59785 290.342 4.59785 290.342 4.06733C290.342 3.5368 289.385 3.1382 289.761 2.76206C290.137 2.38592 290.533 3.34312 291.067 3.34312C291.6 3.34312 291.597 2.66382 292.13 2.66382C292.664 2.66382 292.661 3.34312 293.194 3.34312C293.728 3.34312 293.725 2.66382 294.258 2.66382C294.792 2.66382 294.789 3.34312 295.322 3.34312C295.855 3.34312 295.853 2.66382 296.386 2.66382C296.919 2.66382 296.919 3.34312 297.45 3.34312C297.98 3.34312 297.983 2.66382 298.514 2.66382" stroke="#EAE8E4" stroke-width="0.561403" stroke-linejoin="bevel"/>
<path d="M298.511 31.3403C297.98 31.3403 297.98 30.661 297.447 30.661C296.913 30.661 296.916 31.3403 296.383 31.3403C295.85 31.3403 295.852 30.661 295.319 30.661C294.786 30.661 294.789 31.3403 294.255 31.3403C293.722 31.3403 293.725 30.661 293.191 30.661C292.658 30.661 292.661 31.3403 292.128 31.3403C291.594 31.3403 291.594 30.661 291.064 30.661C290.533 30.661 290.135 31.6182 289.758 31.242C289.382 30.8659 290.339 30.4701 290.339 29.9368C290.339 29.4034 289.66 29.4062 289.66 28.8729C289.66 28.3396 290.339 28.3424 290.339 27.809C290.339 27.2757 289.66 27.2785 289.66 26.7452C289.66 26.2119 290.339 26.2147 290.339 25.6813C290.339 25.148 289.66 25.1508 289.66 24.6175C289.66 24.0841 290.339 24.0841 290.339 23.5536C290.339 23.0231 289.66 23.0203 289.66 22.4897" stroke="#EAE8E4" stroke-width="0.561403" stroke-linejoin="bevel"/>
<path d="M309.489 2.66382C310.02 2.66382 310.02 3.34312 310.553 3.34312C311.086 3.34312 311.084 2.66382 311.617 2.66382C312.15 2.66382 312.148 3.34312 312.681 3.34312C313.214 3.34312 313.211 2.66382 313.745 2.66382C314.278 2.66382 314.275 3.34312 314.809 3.34312C315.342 3.34312 315.339 2.66382 315.872 2.66382C316.406 2.66382 316.406 3.34312 316.936 3.34312C317.467 3.34312 317.865 2.38592 318.242 2.76206C318.618 3.1382 317.66 3.53399 317.66 4.06733C317.66 4.60066 318.34 4.59785 318.34 5.13118C318.34 5.66452 317.66 5.66171 317.66 6.19505C317.66 6.72838 318.34 6.72557 318.34 7.2589C318.34 7.79224 317.66 7.78943 317.66 8.32276C317.66 8.8561 318.34 8.85329 318.34 9.38662C318.34 9.91996 317.66 9.91996 317.66 10.4505C317.66 10.981 318.34 10.9838 318.34 11.5143" stroke="#EAE8E4" stroke-width="0.561403" stroke-linejoin="bevel"/>
<path d="M318.34 22.4927C318.34 23.0232 317.66 23.0232 317.66 23.5565C317.66 24.0899 318.34 24.0871 318.34 24.6204C318.34 25.1537 317.66 25.1509 317.66 25.6843C317.66 26.2176 318.34 26.2148 318.34 26.7481C318.34 27.2814 317.66 27.2786 317.66 27.812C317.66 28.3453 318.34 28.3425 318.34 28.8758C318.34 29.4092 317.66 29.4092 317.66 29.9397C317.66 30.4702 318.618 30.8688 318.242 31.245C317.865 31.6211 317.47 30.6639 316.936 30.6639C316.403 30.6639 316.406 31.3432 315.872 31.3432C315.339 31.3432 315.342 30.6639 314.809 30.6639C314.275 30.6639 314.278 31.3432 313.745 31.3432C313.211 31.3432 313.214 30.6639 312.681 30.6639C312.148 30.6639 312.15 31.3432 311.617 31.3432C311.084 31.3432 311.084 30.6639 310.553 30.6639C310.023 30.6639 310.02 31.3432 309.489 31.3432" stroke="#EAE8E4" stroke-width="0.561403" stroke-linejoin="bevel"/>
</svg>
