<svg width="24" height="27" viewBox="0 0 24 27" fill="none" xmlns="http://www.w3.org/2000/svg">
<path d="M12.1331 19.9963C13.9519 19.9963 15.4264 16.9833 15.4264 13.2666C15.4264 9.54987 13.9519 6.53687 12.1331 6.53687C10.3143 6.53687 8.83984 9.54987 8.83984 13.2666C8.83984 16.9833 10.3143 19.9963 12.1331 19.9963Z" stroke="#F2EBDE" stroke-width="1.00481" stroke-linejoin="bevel"/>
<path d="M12.133 19.9963C15.8498 19.9963 18.8628 16.9833 18.8628 13.2666C18.8628 9.54987 15.8498 6.53687 12.133 6.53687C8.41632 6.53687 5.40332 9.54987 5.40332 13.2666C5.40332 16.9833 8.41632 19.9963 12.133 19.9963Z" stroke="#F2EBDE" stroke-width="1.00481" stroke-linejoin="bevel"/>
<path d="M18.8603 13.2666H5.40332" stroke="#F2EBDE" stroke-width="1.00481" stroke-linejoin="bevel"/>
<path d="M12.1338 6.53687V19.9938" stroke="#F2EBDE" stroke-width="1.00481" stroke-linejoin="bevel"/>
<path d="M2.8291 16.7835V9.62671" stroke="#F2EBDE" stroke-width="1.00481" stroke-linejoin="bevel"/>
<path d="M19.8876 19.4666L13.6553 23.0638" stroke="#F2EBDE" stroke-width="1.00481" stroke-linejoin="bevel"/>
<path d="M19.8903 6.93389L13.6855 3.35425" stroke="#F2EBDE" stroke-width="1.00481" stroke-linejoin="bevel"/>
<path d="M10.5786 3.35425L4.34375 6.95399" stroke="#F2EBDE" stroke-width="1.00481" stroke-linejoin="bevel"/>
<path d="M21.4355 16.7836V9.62427" stroke="#F2EBDE" stroke-width="1.00481" stroke-linejoin="bevel"/>
<path d="M10.6082 23.0635L4.3457 19.4487" stroke="#F2EBDE" stroke-width="1.00481" stroke-linejoin="bevel"/>
<path d="M12.1333 25.7917C13.1211 25.7917 13.9219 24.991 13.9219 24.0032C13.9219 23.0154 13.1211 22.2146 12.1333 22.2146C11.1455 22.2146 10.3447 23.0154 10.3447 24.0032C10.3447 24.991 11.1455 25.7917 12.1333 25.7917Z" stroke="#F2EBDE" stroke-width="1.00481" stroke-linejoin="bevel"/>
<path d="M12.1333 4.25608C13.1211 4.25608 13.9219 3.45532 13.9219 2.46752C13.9219 1.47972 13.1211 0.678955 12.1333 0.678955C11.1455 0.678955 10.3447 1.47972 10.3447 2.46752C10.3447 3.45532 11.1455 4.25608 12.1333 4.25608Z" stroke="#F2EBDE" stroke-width="1.00481" stroke-linejoin="bevel"/>
<path d="M2.78857 9.62669C3.77636 9.62669 4.57713 8.82592 4.57713 7.83812C4.57713 6.85033 3.77636 6.04956 2.78857 6.04956C1.80077 6.04956 1 6.85033 1 7.83812C1 8.82592 1.80077 9.62669 2.78857 9.62669Z" stroke="#F2EBDE" stroke-width="1.00481" stroke-linejoin="bevel"/>
<path d="M21.438 20.3606C22.4258 20.3606 23.2265 19.5598 23.2265 18.572C23.2265 17.5842 22.4258 16.7834 21.438 16.7834C20.4502 16.7834 19.6494 17.5842 19.6494 18.572C19.6494 19.5598 20.4502 20.3606 21.438 20.3606Z" stroke="#F2EBDE" stroke-width="1.00481" stroke-linejoin="bevel"/>
<path d="M21.438 9.62425C22.4258 9.62425 23.2265 8.82348 23.2265 7.83568C23.2265 6.84789 22.4258 6.04712 21.438 6.04712C20.4502 6.04712 19.6494 6.84789 19.6494 7.83568C19.6494 8.82348 20.4502 9.62425 21.438 9.62425Z" stroke="#F2EBDE" stroke-width="1.00481" stroke-linejoin="bevel"/>
<path d="M2.78857 20.3606C3.77636 20.3606 4.57713 19.5598 4.57713 18.572C4.57713 17.5842 3.77636 16.7834 2.78857 16.7834C1.80077 16.7834 1 17.5842 1 18.572C1 19.5598 1.80077 20.3606 2.78857 20.3606Z" stroke="#F2EBDE" stroke-width="1.00481" stroke-linejoin="bevel"/>
<path d="M19.9083 17.7255L18.8633 17.1201" stroke="#F2EBDE" stroke-width="1.00481" stroke-linejoin="bevel"/>
<path d="M5.42908 9.36552L4.35645 8.74756" stroke="#F2EBDE" stroke-width="1.00481" stroke-linejoin="bevel"/>
<path d="M5.40145 17.1201L4.35645 17.7255" stroke="#F2EBDE" stroke-width="1.00481" stroke-linejoin="bevel"/>
<path d="M19.9076 8.74756L18.835 9.36552" stroke="#F2EBDE" stroke-width="1.00481" stroke-linejoin="bevel"/>
<path d="M12.1338 22.2145V21.0188" stroke="#F2EBDE" stroke-width="1.00481" stroke-linejoin="bevel"/>
<path d="M12.1338 5.51205V4.25854" stroke="#F2EBDE" stroke-width="1.00481" stroke-linejoin="bevel"/>
<path d="M19.8875 9.05664L18.835 9.36562" stroke="#F2EBDE" stroke-width="1.00481" stroke-linejoin="bevel"/>
</svg>
