<svg width="24" height="24" viewBox="0 0 24 24" fill="none" xmlns="http://www.w3.org/2000/svg">
  <path d="M21.243 2.01001H2.98633" stroke="#F2EBDE" stroke-width="1.11702" stroke-linejoin="bevel" />
  <path d="M21.243 22.2527H2.98633" stroke="#F2EBDE" stroke-width="1.11702" stroke-linejoin="bevel" />
  <path d="M1.99219 21.2608V3.00195" stroke="#F2EBDE" stroke-width="1.11702" stroke-linejoin="bevel" />
  <path d="M22.2344 21.2608V3.00195" stroke="#F2EBDE" stroke-width="1.11702" stroke-linejoin="bevel" />
  <path d="M23.226 21.2607H21.2422V23.2446H23.226V21.2607Z" stroke="#F2EBDE" stroke-width="1.11702" stroke-linejoin="bevel" />
  <path d="M2.98383 21.2607H1V23.2446H2.98383V21.2607Z" stroke="#F2EBDE" stroke-width="1.11702" stroke-linejoin="bevel" />
  <path d="M23.226 1.01807H21.2422V3.00189H23.226V1.01807Z" stroke="#F2EBDE" stroke-width="1.11702" stroke-linejoin="bevel" />
  <path d="M2.98383 1.01807H1V3.00189H2.98383V1.01807Z" stroke="#F2EBDE" stroke-width="1.11702" stroke-linejoin="bevel" />
  <path d="M12.9946 7.81396H11.3369V9.47163H12.9946V7.81396Z" stroke="#F2EBDE" stroke-width="1.11702" stroke-linejoin="bevel" />
  <path d="M7.14111 9.11646H7.14334C7.3716 9.11646 7.55664 8.93141 7.55664 8.70316V8.70093C7.55664 8.47267 7.3716 8.28763 7.14334 8.28763H7.14111C6.91285 8.28763 6.72781 8.47267 6.72781 8.70093V8.70316C6.72781 8.93141 6.91285 9.11646 7.14111 9.11646Z" stroke="#F2EBDE" stroke-width="1.11702" stroke-linejoin="bevel" />
  <path d="M11.3259 8.66284H7.51465" stroke="#F2EBDE" stroke-width="1.11702" stroke-linejoin="bevel" />
  <path d="M17.1792 8.28979H17.177C16.9487 8.28979 16.7637 8.47484 16.7637 8.70309V8.70532C16.7637 8.93358 16.9487 9.11862 17.177 9.11862H17.1792C17.4075 9.11862 17.5925 8.93358 17.5925 8.70532V8.70309C17.5925 8.47484 17.4075 8.28979 17.1792 8.28979Z" stroke="#F2EBDE" stroke-width="1.11702" stroke-linejoin="bevel" />
  <path d="M16.8032 8.66284H12.9941" stroke="#F2EBDE" stroke-width="1.11702" stroke-linejoin="bevel" />
  <path d="M18.4008 14.9251C18.4008 14.9251 17.8825 9.20596 13.0391 8.66309" stroke="#F2EBDE" stroke-width="1.11702" stroke-linejoin="bevel" />
  <path d="M5.84766 14.8736C5.84766 14.8736 6.53351 9.33321 11.3367 8.68311" stroke="#F2EBDE" stroke-width="1.11702" stroke-linejoin="bevel" />
  <path d="M19.2475 14.791H17.5898V16.4487H19.2475V14.791Z" stroke="#F2EBDE" stroke-width="1.11702" stroke-linejoin="bevel" />
  <path d="M6.63911 14.791H4.98145V16.4487H6.63911V14.791Z" stroke="#F2EBDE" stroke-width="1.11702" stroke-linejoin="bevel" />
</svg>