<svg width="12" height="12" viewBox="0 0 12 12" fill="none" xmlns="http://www.w3.org/2000/svg">
<g clip-path="url(#clip0_134_3513)">
<path fill-rule="evenodd" clip-rule="evenodd" d="M6 0C4.37109 0 4.16719 0.00703125 3.52734 0.0351562C2.88984 0.0632813 2.45156 0.166406 2.07188 0.314062C1.67578 0.46875 1.34063 0.672656 1.00781 1.00781C0.672656 1.34063 0.46875 1.67578 0.314063 2.06953C0.166406 2.45156 0.0632813 2.8875 0.0351563 3.525C0.00703125 4.16719 0 4.37109 0 6C0 7.62891 0.00703125 7.83281 0.0351563 8.47266C0.0632813 9.11016 0.166406 9.54844 0.314063 9.92813C0.46875 10.3242 0.672656 10.6594 1.00781 10.9922C1.34063 11.325 1.67578 11.5312 2.06953 11.6836C2.45156 11.8313 2.8875 11.9344 3.525 11.9625C4.16484 11.9906 4.36875 11.9977 5.99766 11.9977C7.62656 11.9977 7.83047 11.9906 8.47031 11.9625C9.10781 11.9344 9.54609 11.8313 9.92578 11.6836C10.3195 11.5312 10.6547 11.325 10.9875 10.9922C11.3203 10.6594 11.5266 10.3242 11.6789 9.93047C11.8266 9.54844 11.9297 9.1125 11.9578 8.475C11.9859 7.83516 11.993 7.63125 11.993 6.00234C11.993 4.37344 11.9859 4.16953 11.9578 3.52969C11.9297 2.89219 11.8266 2.45391 11.6789 2.07422C11.5312 1.67578 11.3273 1.34063 10.9922 1.00781C10.6594 0.675 10.3242 0.46875 9.93047 0.316406C9.54844 0.16875 9.1125 0.065625 8.475 0.0375C7.83281 0.00703125 7.62891 0 6 0ZM6 9C4.34349 9 3 7.65651 3 6C3 4.34349 4.34349 3 6 3C7.65651 3 9 4.34349 9 6C9 7.65651 7.65651 9 6 9ZM9.20391 3.5156C9.6 3.5156 9.92344 3.19451 9.92344 2.79607C9.92344 2.39998 9.6 2.07654 9.20391 2.07654C8.80781 2.07654 8.48438 2.39763 8.48438 2.79607C8.48438 3.19216 8.80547 3.5156 9.20391 3.5156Z" fill="white"/>
<path d="M6 8C4.89566 8 4 7.10434 4 6C4 4.89566 4.89566 4 6 4C7.10434 4 8 4.89566 8 6C8 7.10434 7.10434 8 6 8Z" stroke="white" stroke-width="0.8"/>
</g>
<defs>
<clipPath id="clip0_134_3513">
<rect width="12" height="12" fill="white"/>
</clipPath>
</defs>
</svg>
