<svg xmlns="http://www.w3.org/2000/svg" width="149" height="116" fill="none"><g clip-path="url(#a)"><path stroke="#fff" stroke-linejoin="bevel" stroke-width="6.1" d="M31 34 6 35c-3 0-4 3-2 5 4 5 12 12 24 13h6M37 97l-7 5-9-5"/><path stroke="#fff" stroke-linejoin="bevel" stroke-width="6.1" d="M93 106c-3 2-10 5-16 6H34c-9 1-13-8-11-17l13-47"/><path fill="#fff" d="M67 77c3-1 6-4 6-5-1-2-4-2-8-1-4 0-6 3-6 4 0 2 4 2 8 2Z"/><path stroke="#fff" stroke-linejoin="bevel" stroke-width="6.1" d="M115 34h27c2 0 4 2 3 4-1 4-4 6-10 10-5 4-12 3-21 3"/><path stroke="#fff" stroke-linejoin="bevel" stroke-width="6.1" d="M84 53c-6 14-31 8-29-5-10 9-25 4-24-14 1-17 19-23 26-16-1-22 33-17 31-1 10-11 39 1 27 22"/></g><defs><clipPath id="a"><path fill="#fff" d="M0 0h148v115H0z"/></clipPath></defs></svg>