<svg width="13" height="13" viewBox="0 0 13 13" fill="none" xmlns="http://www.w3.org/2000/svg">
<path d="M6.65757 8.91564C6.22785 9.33732 5.80869 9.74909 5.3889 10.1602C5.3588 10.19 5.3284 10.2222 5.2921 10.2423C5.15993 10.316 5.0172 10.2178 5.02651 10.0553C5.04327 9.75466 5.06622 9.45404 5.08763 9.15373C5.11494 8.76858 5.14689 8.38375 5.16923 7.99829C5.17482 7.90232 5.2046 7.83483 5.27596 7.76919C6.65322 6.50757 8.028 5.24377 9.4034 3.97998C9.43474 3.95119 9.4698 3.92394 9.49152 3.88896C9.50424 3.86822 9.50579 3.8227 9.49152 3.80722C9.4729 3.78679 9.43225 3.7741 9.40402 3.77781C9.37206 3.78215 9.34259 3.80815 9.3128 3.82611C7.47853 4.94532 5.64393 6.06453 3.8109 7.18559C3.73892 7.22955 3.6781 7.23946 3.59651 7.2116C2.85529 6.95649 2.11251 6.7054 1.36974 6.45338C1.17676 6.38806 1.08554 6.2831 1.08306 6.12056C1.08058 5.95864 1.16714 5.85152 1.3592 5.77814C2.95395 5.16854 4.5484 4.55925 6.14315 3.94964C7.65134 3.37316 9.16109 2.80164 10.6662 2.21711C11.0844 2.05488 11.4285 2.3103 11.476 2.61681C11.4902 2.70938 11.4815 2.81031 11.4614 2.90257C10.9423 5.26483 10.4204 7.62646 9.89889 9.9881C9.86631 10.1349 9.83405 10.2819 9.80023 10.4284C9.70684 10.8315 9.35903 10.9544 9.02643 10.703C8.27714 10.1364 7.52755 9.56983 6.77795 9.00357C6.74134 8.97601 6.70411 8.94939 6.65788 8.91564H6.65757Z" fill="white"/>
</svg>
