<svg width="13" height="13" viewBox="0 0 13 13" fill="none" xmlns="http://www.w3.org/2000/svg">
  <path
    d="M6.65757 8.91558C6.22785 9.33726 5.80869 9.74903 5.3889 10.1602C5.3588 10.1899 5.3284 10.2221 5.2921 10.2422C5.15993 10.3159 5.0172 10.2178 5.02651 10.0552C5.04327 9.7546 5.06622 9.45398 5.08763 9.15366C5.11494 8.76852 5.14689 8.38369 5.16923 7.99823C5.17482 7.90226 5.2046 7.83476 5.27596 7.76913C6.65322 6.5075 8.028 5.24371 9.4034 3.97992C9.43474 3.95113 9.4698 3.92388 9.49152 3.8889C9.50424 3.86815 9.50579 3.82264 9.49152 3.80716C9.4729 3.78673 9.43225 3.77404 9.40402 3.77775C9.37206 3.78209 9.34259 3.80809 9.3128 3.82605C7.47853 4.94526 5.64393 6.06446 3.8109 7.18553C3.73892 7.22949 3.6781 7.2394 3.59651 7.21154C2.85529 6.95643 2.11251 6.70534 1.36974 6.45332C1.17676 6.388 1.08554 6.28304 1.08306 6.1205C1.08058 5.95858 1.16714 5.85146 1.3592 5.77808C2.95395 5.16848 4.5484 4.55918 6.14315 3.94958C7.65134 3.3731 9.16109 2.80158 10.6662 2.21705C11.0844 2.05482 11.4285 2.31024 11.476 2.61675C11.4902 2.70932 11.4815 2.81025 11.4614 2.90251C10.9423 5.26477 10.4204 7.6264 9.89889 9.98804C9.86631 10.1348 9.83405 10.2819 9.80023 10.4283C9.70684 10.8314 9.35903 10.9543 9.02643 10.7029C8.27714 10.1363 7.52755 9.56977 6.77795 9.00351C6.74134 8.97595 6.70411 8.94933 6.65788 8.91558H6.65757Z"
    stroke="#F2EBDE" stroke-width="0.866667" />
</svg>
  