<svg width="1380" height="233" viewBox="0 0 1380 233" fill="none" xmlns="http://www.w3.org/2000/svg">
<path d="M68.9953 122.089C87.9631 122.089 116.178 130.387 116.178 164.529C116.178 197.011 90.334 211.237 60.2227 211H8.06131L8.06131 45.0319L55.9549 45.0319C86.0663 43.1352 112.384 54.7529 112.384 84.8643C112.384 114.027 87.9631 121.614 68.9953 121.614V122.089ZM37.2243 111.419L55.9549 111.419C71.8405 111.419 83.2211 104.306 83.2211 87.4723C83.2211 71.8239 71.8405 66.1336 55.9549 66.3707L37.2243 66.3707L37.2243 111.419ZM37.2243 189.661H60.4598C77.0566 189.898 87.0147 179.229 87.0147 160.972C87.0147 142.953 71.8405 132.521 55.9549 132.758H37.2243L37.2243 189.661ZM150.738 45.5061L150.738 145.798C150.738 199.382 221.393 201.042 221.393 145.798L221.393 45.5061L250.319 45.5061L250.319 148.643C250.319 231.627 121.812 232.813 121.812 148.643L121.812 45.5061H150.738ZM285.763 132.995L285.526 211L256.6 211V45.0319L304.494 45.0319C333.894 45.0319 360.923 54.0416 360.923 87.4723C360.923 112.368 345.749 127.068 321.802 131.572L360.686 211H331.049L292.876 132.995H285.763ZM285.763 110.471H304.494C320.379 110.471 331.76 106.914 331.76 88.8949C331.76 71.1126 320.379 67.3191 304.494 67.5562L285.763 67.5562V110.471ZM420.538 45.0319L484.792 203.887V45.0319L515.377 45.0319L513.48 211H458.948L396.117 55.9384L394.458 211H365.769V45.0319L420.538 45.0319ZM552.544 45.0319L552.781 211H523.381V45.0319L552.544 45.0319ZM613.661 45.0319L677.915 203.887V45.0319L708.5 45.0319L706.603 211H652.071L589.24 55.9384L587.581 211H558.892V45.0319L613.661 45.0319ZM732.627 128.964C732.627 164.055 754.914 187.764 793.561 187.764C809.446 187.764 831.97 183.734 834.578 141.531V138.685H756.336V117.347L859.948 117.347V211H834.578V176.621C829.125 202.702 810.157 212.897 785.499 212.897C740.451 212.897 708.443 179.229 708.443 128.964C708.443 78.6997 740.451 45.0319 789.056 45.0319L859.237 45.0319L859 70.6384L789.056 70.1642C754.914 70.1642 732.627 93.874 732.627 128.964ZM998.15 188.476L997.913 211L919.196 211V45.0319H949.782L948.359 188.476L998.15 188.476ZM1074.71 211L1069.26 176.621H1030.61L1025.16 211H996.468L1022.31 45.0319L1078.5 45.0319L1104.35 211H1074.71ZM1033.93 154.097H1065.94L1050.05 51.9078L1033.93 154.097ZM1209 45.0319L1264.01 45.0319L1262.11 211H1233.9V75.3804L1212.79 211H1156.6L1135.03 72.061L1133.37 211H1105.39V45.0319L1159.45 45.0319L1184.34 204.124L1209 45.0319ZM1327.75 122.089C1346.72 122.089 1374.93 130.387 1374.93 164.529C1374.93 197.011 1349.09 211.237 1318.98 211H1266.82V45.0319L1314.71 45.0319C1344.82 43.1352 1371.14 54.7529 1371.14 84.8643C1371.14 114.027 1346.72 121.614 1327.75 121.614V122.089ZM1295.98 111.419H1314.71C1330.6 111.419 1341.98 104.306 1341.98 87.4723C1341.98 71.8239 1330.6 66.1336 1314.71 66.3707H1295.98V111.419ZM1295.98 189.661H1319.21C1335.81 189.898 1345.77 179.229 1345.77 160.972C1345.77 142.953 1330.6 132.521 1314.71 132.758H1295.98V189.661Z" fill="#F2EBDE"/>
<path d="M18.88 29L14.68 6L10.52 29H0.96L0.96 0.999998L5.68 0.999998L6 27.32L10.76 0.959999L18.76 0.959999L23.56 27.24L23.56 0.999998L28.28 0.999998L28.6 29H18.88ZM33.9294 16.8L33.8894 25.4H50.7694V29L29.0094 29L29.0094 0.999998L50.6494 0.999998V4.6L33.9294 4.6V13.2L50.6494 13.2V16.8H33.9294Z" fill="#F04823"/>
<path d="M1332.68 29L1331.76 23.2L1325.24 23.2L1324.32 29H1319.48L1323.84 0.999998L1333.32 0.999998L1337.68 29H1332.68ZM1325.8 19.4L1331.2 19.4L1328.52 2.16L1325.8 19.4ZM1343.58 15.84L1343.54 29H1338.66V0.999998L1346.74 0.999998C1351.7 0.999998 1356.26 2.52 1356.26 8.16C1356.26 12.36 1353.7 14.84 1349.66 15.6L1356.22 29L1351.22 29L1344.78 15.84H1343.58ZM1343.58 12.04L1346.74 12.04C1349.42 12.04 1351.34 11.44 1351.34 8.4C1351.34 5.4 1349.42 4.76 1346.74 4.8L1343.58 4.8V12.04ZM1361.99 16.8L1361.95 25.4L1378.83 25.4V29L1357.07 29V0.999998L1378.71 0.999998V4.6L1361.99 4.6V13.2L1378.71 13.2V16.8H1361.99Z" fill="#F04823"/>
</svg>
